<?xml version="1.0" encoding="utf-8"?>
<!-- Generator: Adobe Illustrator 16.0.0, SVG Export Plug-In . SVG Version: 6.00 Build 0)  -->
<!DOCTYPE svg PUBLIC "-//W3C//DTD SVG 1.1//EN" "http://www.w3.org/Graphics/SVG/1.1/DTD/svg11.dtd">
<svg version="1.1" id="Layer_1" xmlns="http://www.w3.org/2000/svg" xmlns:xlink="http://www.w3.org/1999/xlink" x="0px" y="0px"
	 width="50px" height="50px" viewBox="0 0 50 50" enable-background="new 0 0 50 50" xml:space="preserve">
<g>
	<path d="M27.863,9.848c0-0.395-0.322-0.716-0.716-0.716h-4.294c-0.393,0-0.715,0.321-0.715,0.716v4.294h5.725V9.848z"/>
	<circle cx="25.001" cy="25" r="0.799"/>
	<path d="M32.208,20.083l-4.581-3.436c-0.314-0.236-0.572-0.751-0.572-1.145v-0.368h-4.11v0.368c0,0.394-0.258,0.908-0.572,1.145
		l-4.581,3.436c-0.314,0.236-0.527,0.748-0.472,1.138l2.663,18.938c0.055,0.391,0.422,0.709,0.815,0.709h8.404
		c0.394,0,0.76-0.318,0.815-0.709l2.663-18.938C32.736,20.831,32.522,20.319,32.208,20.083z M27.355,25.999
		c-0.335,0-0.684-0.093-1.007-0.221c0.273,0.216,0.528,0.471,0.695,0.762c0.552,0.956,0.435,1.646-0.044,1.923
		c-0.478,0.275-1.135,0.032-1.686-0.924c-0.168-0.29-0.262-0.639-0.313-0.982c-0.05,0.345-0.144,0.693-0.312,0.983
		c-0.551,0.955-1.209,1.198-1.686,0.922c-0.479-0.275-0.597-0.965-0.046-1.922c0.168-0.289,0.423-0.546,0.696-0.762
		c-0.324,0.129-0.672,0.221-1.008,0.221c-1.104,0-1.643-0.447-1.643-0.999c0-0.553,0.538-0.999,1.643-1
		c0.335,0,0.685,0.094,1.008,0.222c-0.273-0.217-0.528-0.473-0.695-0.763c-0.553-0.955-0.436-1.646,0.044-1.921
		c0.478-0.276,1.135-0.033,1.686,0.922c0.168,0.291,0.262,0.639,0.312,0.983c0.05-0.345,0.144-0.692,0.312-0.983
		c0.552-0.956,1.209-1.198,1.687-0.922c0.479,0.275,0.597,0.966,0.045,1.921c-0.168,0.292-0.423,0.546-0.695,0.762
		C26.672,24.094,27.021,24,27.355,24c1.104,0,1.643,0.448,1.643,1S28.46,25.999,27.355,25.999z"/>
</g>
</svg>
