<?xml version="1.0" encoding="utf-8"?>
<!-- Generator: Adobe Illustrator 16.0.0, SVG Export Plug-In . SVG Version: 6.00 Build 0)  -->
<!DOCTYPE svg PUBLIC "-//W3C//DTD SVG 1.1//EN" "http://www.w3.org/Graphics/SVG/1.1/DTD/svg11.dtd">
<svg version="1.1" id="Layer_1" xmlns="http://www.w3.org/2000/svg" xmlns:xlink="http://www.w3.org/1999/xlink" x="0px" y="0px"
	 width="50px" height="50px" viewBox="0 0 50 50" enable-background="new 0 0 50 50" xml:space="preserve">
<g>
	<path d="M35.924,27.357c-0.953,0.416-1.872,0.606-2.82,0.489l-0.598,1.914l-0.023,0.115c0.72,0.315,1.138,0.679,1.138,1.067
		c0,1.191-3.859,2.156-8.621,2.156c-1.459,0-2.832-0.091-4.035-0.251c0.09-0.392,0.119-0.853,0.064-1.382
		c1.119,0.27,2.483,0.434,3.971,0.434c3.751,0,6.792-1.013,6.792-2.265l0.817-2.618c0.32,0.086,0.649,0.144,0.993,0.143
		c0.804,0,1.664-0.232,2.543-0.692c1.892-0.99,3.664-2.979,4.035-4.528c0.269-1.124,0.159-1.991-0.337-2.653
		c-0.827-1.104-2.51-1.314-4.376-1.421l0.078-0.251c0.15-0.238,0.23-0.486,0.23-0.739c0-1.984-4.824-3.592-10.775-3.592
		c-5.951,0-10.775,1.608-10.775,3.592c0,0.253,0.081,0.501,0.23,0.739l0.517,1.656c-1.03,0.401-1.912,1.652-1.299,4.059
		c-2.13-0.542-3.759,0.088-4.144,1.521c-0.197,0.736-0.006,1.481,0.539,2.098c0.442,0.502,1.104,0.891,1.947,1.173
		c-2.001,0.896-3.191,2.002-3.191,3.205c0,2.979,7.243,5.394,16.177,5.394s16.176-2.415,16.176-5.394
		C41.176,29.753,39.145,28.343,35.924,27.357z M38.98,19.93c0.292,0.39,0.342,0.965,0.152,1.757c-0.263,1.1-1.671,2.875-3.486,3.825
		c-0.708,0.37-1.722,0.702-2.711,0.459l2.199-7.046C36.791,19.013,38.401,19.158,38.98,19.93z M25,14.718
		c4.76,0,8.62,0.965,8.62,2.155s-3.86,2.155-8.62,2.155c-4.761,0-8.621-0.965-8.621-2.155S20.24,14.718,25,14.718z M20.139,30.597
		c0.521,1.946-0.012,3.106-0.986,3.367c-0.973,0.26-2.016-0.478-2.536-2.422c-0.159-0.592-0.16-1.25-0.086-1.878
		c-0.252,0.582-0.58,1.153-1.014,1.584c-1.424,1.423-2.695,1.541-3.407,0.828c-0.712-0.711-0.595-1.982,0.829-3.406
		c0.434-0.432,1-0.762,1.585-1.013c-0.63,0.074-1.289,0.071-1.879-0.087c-1.945-0.521-2.682-1.563-2.421-2.535
		c0.261-0.973,1.419-1.508,3.364-0.987c0.59,0.16,1.163,0.488,1.67,0.867c-0.378-0.51-0.707-1.08-0.864-1.671
		c-0.522-1.946,0.012-3.104,0.984-3.365c0.973-0.261,2.015,0.478,2.537,2.421c0.158,0.592,0.159,1.25,0.083,1.879
		c0.253-0.583,0.583-1.153,1.015-1.584c1.423-1.425,2.694-1.542,3.407-0.83c0.712,0.712,0.595,1.983-0.829,3.408
		c-0.434,0.433-1.001,0.76-1.583,1.012c0.629-0.073,1.288-0.071,1.877,0.085c1.944,0.522,2.681,1.564,2.42,2.538
		c-0.259,0.973-1.418,1.507-3.364,0.985c-0.591-0.159-1.162-0.485-1.669-0.865C19.652,29.438,19.979,30.007,20.139,30.597z"/>
	<circle cx="17.266" cy="26.92" r="1.458"/>
</g>
</svg>
