<?xml version="1.0" encoding="utf-8"?>
<!-- Generator: Adobe Illustrator 16.0.0, SVG Export Plug-In . SVG Version: 6.00 Build 0)  -->
<!DOCTYPE svg PUBLIC "-//W3C//DTD SVG 1.1//EN" "http://www.w3.org/Graphics/SVG/1.1/DTD/svg11.dtd">
<svg version="1.1" id="Layer_1" xmlns="http://www.w3.org/2000/svg" xmlns:xlink="http://www.w3.org/1999/xlink" x="0px" y="0px"
	 width="50px" height="50px" viewBox="0 0 50 50" enable-background="new 0 0 50 50" xml:space="preserve">
<g>
	<path d="M9.118,40.589h14.764V9.41H9.118V40.589z M10.118,10.41h12.764v29.179H10.118V10.41z"/>
	<circle cx="16.5" cy="16.176" r="2.348"/>
	<path d="M19.961,18.992h-2.677c-0.245-0.092-0.507-0.148-0.784-0.148s-0.54,0.057-0.785,0.148h-2.677
		c-0.518,0-0.95,0.396-0.996,0.91l-0.539,5.999c-0.049,0.551,0.356,1.036,0.907,1.086c0.549,0.053,1.036-0.356,1.085-0.906
		l0.457-5.089h0.308l-0.01,0.102l0,4.859H14l-0.125,0.125v5L14,31.203h0.25v5.609c0,0.553,0.448,1,1,1s1-0.447,1-1v-5.609h0.5v5.609
		c0,0.553,0.448,1,1,1s1-0.447,1-1v-5.609H19l0.125-0.125v-5L19,25.953h-0.25l0-4.859l-0.01-0.102h0.307l0.457,5.09
		c0.047,0.52,0.483,0.91,0.995,0.91l0.09-0.004c0.55-0.05,0.956-0.535,0.907-1.086l-0.539-6
		C20.911,19.387,20.479,18.992,19.961,18.992z M18.875,26.203v4.75h-4.75v-4.75H18.875z"/>
	<path d="M26.118,9.41v31.179h14.764V9.41H26.118z M39.882,39.589H27.118V10.41h12.764V39.589z"/>
	<circle cx="33.5" cy="16.176" r="2.348"/>
	<path d="M29.434,26.738c0.399,0.031,0.776-0.268,0.814-0.68l0.477-5.316h0.15v1.836L31,22.703h0.78
		c0.239,0.402,0.47,0.858,0.47,1.651c0,0.82-0.247,1.22-0.495,1.599H31l-0.125,0.125v5L31,31.203h0.25v5.609c0,0.553,0.448,1,1,1
		s1-0.447,1-1v-5.609h0.5v5.609c0,0.553,0.448,1,1,1s1-0.447,1-1v-5.609H36l0.125-0.125v-5L36,25.953h-0.755
		c-0.249-0.379-0.495-0.778-0.495-1.599c0-0.793,0.231-1.249,0.47-1.651H36l0.125-0.125v-1.836h0.151l0.478,5.317
		c0.035,0.39,0.362,0.683,0.746,0.683l0.068-0.003c0.413-0.037,0.717-0.401,0.68-0.814l-0.539-6
		c-0.035-0.387-0.359-0.683-0.747-0.683h-2.464C34.195,19.092,33.86,19,33.5,19s-0.695,0.092-0.997,0.242h-2.465
		c-0.388,0-0.712,0.296-0.747,0.683l-0.539,5.999C28.716,26.337,29.021,26.701,29.434,26.738z M35.875,26.203v4.75h-4.75v-4.75
		H35.875z M31.125,20.703h4.75v1.75h-4.75V20.703z"/>
</g>
</svg>
