<?xml version="1.0" encoding="utf-8"?>
<!-- Generator: Adobe Illustrator 16.0.0, SVG Export Plug-In . SVG Version: 6.00 Build 0)  -->
<!DOCTYPE svg PUBLIC "-//W3C//DTD SVG 1.1//EN" "http://www.w3.org/Graphics/SVG/1.1/DTD/svg11.dtd">
<svg version="1.1" id="Layer_1" xmlns="http://www.w3.org/2000/svg" xmlns:xlink="http://www.w3.org/1999/xlink" x="0px" y="0px"
	 width="50px" height="50px" viewBox="0 0 50 50" enable-background="new 0 0 50 50" xml:space="preserve">
<g>
	<path d="M38.708,19c0.021-0.313-0.345-1.106-0.979-2.12c0.264-0.98,0.499-2.157,0.396-2.963c-0.208-1.625-1.335-4.736-3.833-5.167
		c-1.11-0.191-2.58,0.199-3.846,0.676c-1.158-0.665-2.343-1.092-3.488-1.092c-1.518,0-2.83,0.792-3.771,1.593
		c-0.705-0.232-1.311-0.308-1.771-0.177c-0.971,0.277-1.723,1.608-2.11,2.448c-0.476-0.184-0.866-0.248-1.14-0.156
		c-1.438,0.483-2.459,4.5-2.584,5.208c-0.015,0.082,0.19,0.327,0.554,0.688c-0.49,1.726-0.523,3.021-0.44,3.355
		c0.129,0.513,0.684,0.797,0.672,1.473c-0.024,1.36-2.401,3.61-2.401,4.576c0,0.722,1.918,0.986,1.918,0.986
		s0.159,0.445-0.162,1.309c-0.32,0.865,0.596,1.868,0.871,2.218c0.271,0.349,0.054,2.415,0.276,3.023
		c0.224,0.607,0.846,0.956,2.005,0.56c1.26-0.43,2.812-1.062,3.373-0.896c1.224,2.881-1.726,4.355-1.726,4.355H36.04
		c0,0-4.503-3.619-4.408-7.587c0.007-0.292,0.093-0.594,0.229-0.913c0.97-0.019,3.222-0.814,3.431-2.397
		c0.021-0.16-0.058-0.405-0.203-0.707c1.309-0.725,3.619-2.215,3.619-3.71c0-0.339-0.331-0.938-0.904-1.703
		C38.192,20.973,38.66,19.745,38.708,19z M27.564,22.43c-0.153-2.065-1.62-2.929-1.62-2.929s-0.739,2.467,0.369,3.486
		c-0.953,0.51-3.674-0.419-3.688-1.416c-0.012-0.996,2.524-2.385,2.524-2.385s-3.545,0.132-3.508,1.085
		c-1.015-0.528-1.311-2.194,0.125-3.196c1.056-0.737,3.286,1.209,3.286,1.209s-1.645-2.613-2.788-1.997
		c0.51-1.555,2.896-2.758,4.792-1.72c-2.354,0.576-1.159,3.473-1.159,3.473s0.468-2.573,1.492-2.908
		c1.521-0.499,3.05,1.546,2.309,2.78c-1.141-0.458-3.32,0.908-3.32,0.908s2.993,0.18,3.529,1.091
		C30.442,20.822,28.688,22.347,27.564,22.43z"/>
</g>
</svg>
