<?xml version="1.0" encoding="utf-8"?>
<!-- Generator: Adobe Illustrator 16.0.0, SVG Export Plug-In . SVG Version: 6.00 Build 0)  -->
<!DOCTYPE svg PUBLIC "-//W3C//DTD SVG 1.1//EN" "http://www.w3.org/Graphics/SVG/1.1/DTD/svg11.dtd">
<svg version="1.1" id="Layer_1" xmlns="http://www.w3.org/2000/svg" xmlns:xlink="http://www.w3.org/1999/xlink" x="0px" y="0px"
	 width="50px" height="50px" viewBox="0 0 50 50" enable-background="new 0 0 50 50" xml:space="preserve">
<g>
	<path d="M24.263,18.485c-0.141,0.209-0.381,0.758-0.062,0.867c0.317,0.107,0.413-0.451,0.453-0.55
		c0.091-0.225,0.192-0.48,0.057-0.534C24.575,18.214,24.367,18.329,24.263,18.485z"/>
	<path d="M24.33,22.266c-0.141,0.209-0.381,0.759-0.062,0.867c0.318,0.107,0.413-0.451,0.453-0.55
		c0.091-0.225,0.192-0.48,0.057-0.534C24.643,21.994,24.435,22.11,24.33,22.266z"/>
	<path d="M24.882,32.909c-0.253,0.22,0.181,0.584,0.246,0.669c0.148,0.191,0.318,0.408,0.434,0.317
		c0.114-0.088,0.12-0.326,0.037-0.495C25.489,33.174,25.136,32.69,24.882,32.909z"/>
	<path d="M35,37.5c0-6.126-5.525-7.536-5.525-13.986s2.987-6.379,2.987-11.014H17.537c0,4.635,2.987,4.563,2.987,11.014
		S15,31.374,15,37.5H35z M25.266,35.414c-0.259,0.201-0.609-0.184-0.697-0.407c-0.087-0.223-0.892-2.121-0.32-2.618
		c0.569-0.495,1.457,0.434,1.654,0.966C26.144,34.007,25.523,35.212,25.266,35.414z M26.14,29.354
		c-0.128,0.148-1.187,1.442-1.917,1.384c-0.732-0.06-0.504-0.943-0.191-1.292c0.383-0.427,1.715-0.672,2.027-0.635
		C26.373,28.85,26.268,29.206,26.14,29.354z M26.17,18.565c-0.148,0.188-1.384,1.84-2.1,1.597c-0.715-0.243-0.36-1.478,0-1.916
		c0.441-0.537,1.795-0.608,2.1-0.487C26.474,17.881,26.318,18.377,26.17,18.565z M26.273,22.483
		c0.076,0.318-1.421,1.703-2.136,1.459c-0.715-0.243-0.36-1.477,0-1.916C24.579,21.489,26.166,22.035,26.273,22.483z M24.746,14.628
		c0.562,0.116,1.444,1.144,1.569,1.433c0.125,0.29-0.236,0.379-0.429,0.343s-1.844-0.299-2.16-0.96
		C23.409,14.781,24.287,14.533,24.746,14.628z M24.83,25.391c0.694-0.039,1.664,0.908,1.781,1.214
		c0.116,0.307-0.354,0.528-0.594,0.547c-0.238,0.018-2.29,0.229-2.597-0.463C23.115,25.998,24.264,25.423,24.83,25.391z"/>
	<path d="M24.936,29.321c-0.129,0.005-0.648,0.188-0.775,0.383c-0.104,0.158-0.139,0.527,0.159,0.506
		c0.297-0.022,0.64-0.608,0.682-0.677C25.043,29.466,25.062,29.315,24.936,29.321z"/>
	<path d="M25.159,15.51c0.079,0.002,0.219-0.057,0.15-0.164c-0.069-0.108-0.488-0.465-0.721-0.477
		c-0.189-0.01-0.526,0.146-0.357,0.392C24.4,15.506,25.079,15.508,25.159,15.51z"/>
	<path d="M24.816,26.196c0.227-0.085,0.483-0.184,0.431-0.32c-0.051-0.136-0.276-0.211-0.462-0.182
		c-0.249,0.038-0.815,0.233-0.681,0.541C24.24,26.542,24.716,26.234,24.816,26.196z"/>
</g>
</svg>
