<?xml version="1.0" encoding="utf-8"?>
<!-- Generator: Adobe Illustrator 16.0.0, SVG Export Plug-In . SVG Version: 6.00 Build 0)  -->
<!DOCTYPE svg PUBLIC "-//W3C//DTD SVG 1.1//EN" "http://www.w3.org/Graphics/SVG/1.1/DTD/svg11.dtd">
<svg version="1.1" id="Layer_1" xmlns="http://www.w3.org/2000/svg" xmlns:xlink="http://www.w3.org/1999/xlink" x="0px" y="0px"
	 width="50px" height="50px" viewBox="0 0 50 50" enable-background="new 0 0 50 50" xml:space="preserve">
<g>
	<circle cx="39.524" cy="29.081" r="2.751"/>
	<path d="M44.938,32.271c-0.144-0.534-0.689-0.851-1.225-0.707l-6.661,1.786l-1.044-2.148c0.217-0.32,0.344-0.706,0.344-1.121
		c0-1.104-0.896-2-2-2H21.641c-0.504,0-0.959,0.192-1.311,0.5h-9.19c-0.828,0-1.5,0.672-1.5,1.5s0.672,1.5,1.5,1.5h9.19
		c0.352,0.308,0.807,0.5,1.311,0.5h12.57l1.403,2.887c0.171,0.351,0.524,0.562,0.899,0.562l0.259-0.034l7.458-2
		C44.764,33.354,45.081,32.805,44.938,32.271z"/>
	<path d="M21.958,27.55c0.134,0.021,0.266,0.031,0.396,0.031c1.207,0,2.271-0.877,2.466-2.106L25.39,21.9l5.954,5.183
		c0.189,0.165,0.423,0.246,0.656,0.246c0.279,0,0.557-0.116,0.754-0.344c0.363-0.416,0.319-1.048-0.098-1.41l-6.896-6.002
		l0.061-0.378c0.218-1.364-0.712-2.646-2.075-2.862c-1.37-0.218-2.646,0.713-2.862,2.075l-1,6.279
		C19.665,26.052,20.595,27.333,21.958,27.55z"/>
	<circle cx="24.786" cy="12.995" r="2.995"/>
</g>
</svg>
