<?xml version="1.0" encoding="utf-8"?>
<!-- Generator: Adobe Illustrator 16.0.0, SVG Export Plug-In . SVG Version: 6.00 Build 0)  -->
<!DOCTYPE svg PUBLIC "-//W3C//DTD SVG 1.1//EN" "http://www.w3.org/Graphics/SVG/1.1/DTD/svg11.dtd">
<svg version="1.1" id="Layer_1" xmlns="http://www.w3.org/2000/svg" xmlns:xlink="http://www.w3.org/1999/xlink" x="0px" y="0px"
	 width="50px" height="50px" viewBox="0 0 50 50" enable-background="new 0 0 50 50" xml:space="preserve">
<g>
	<polygon points="16.952,24.693 16.952,27.363 14.815,28.433 18.945,28.433 19.441,28.24 17.688,27.363 17.688,24.693 21.36,24.693 
		20.871,23.959 17.548,23.959 19.744,20.666 18.155,18.281 19.224,18.281 17.32,16.145 15.416,18.281 16.484,18.281 14.349,21.486 
		15.416,21.486 13.28,24.693 	"/>
	<polygon points="32.452,23.959 29.129,23.959 28.64,24.693 32.312,24.693 32.312,27.363 30.559,28.24 31.055,28.433 35.185,28.433 
		33.048,27.363 33.048,24.693 36.721,24.693 34.584,21.486 35.651,21.486 33.516,18.281 34.584,18.281 32.68,16.145 30.776,18.281 
		31.845,18.281 30.256,20.666 	"/>
	<polygon points="22.271,18.475 19.208,23.07 24.474,23.07 24.474,27.248 21.41,28.433 28.59,28.433 25.526,27.248 25.526,23.07 
		30.792,23.07 27.729,18.475 29.261,18.475 26.197,13.879 27.729,13.879 25,10.814 22.271,13.879 23.803,13.879 20.739,18.475 	"/>
	<path d="M17.347,33.36c-1.235-0.468-1.775-0.737-1.775-1.349c0-0.497,0.454-0.923,1.393-0.923c0.937,0,1.619,0.27,2.002,0.454
		l0.483-1.747c-0.567-0.256-1.363-0.483-2.442-0.483c-2.259,0-3.623,1.25-3.623,2.884c0,1.393,1.036,2.272,2.628,2.826
		c1.151,0.413,1.605,0.753,1.605,1.351c0,0.624-0.526,1.037-1.52,1.037c-0.925,0-1.818-0.299-2.401-0.597l-0.44,1.789
		c0.54,0.299,1.619,0.583,2.713,0.583c2.628,0,3.863-1.363,3.863-2.969C19.832,34.867,19.037,33.986,17.347,33.36z"/>
	<path d="M27.151,30.165c-0.639-0.512-1.591-0.767-2.925-0.767c-1.322,0-2.26,0.085-2.927,0.198v9.446h2.145V35.62
		c0.199,0.028,0.454,0.042,0.739,0.042c1.278,0,2.372-0.312,3.11-1.008c0.568-0.541,0.881-1.335,0.881-2.273
		C28.175,31.444,27.764,30.648,27.151,30.165z M24.168,34c-0.312,0-0.539-0.014-0.724-0.057v-2.826
		c0.156-0.043,0.454-0.086,0.896-0.086c1.079,0,1.689,0.526,1.689,1.406C26.029,33.419,25.319,34,24.168,34z"/>
	<path d="M33.775,29.469h-2.841l-2.926,9.574h2.243l0.683-2.457h2.741l0.739,2.457h2.329L33.775,29.469z M31.247,34.966l0.567-2.03
		c0.156-0.555,0.299-1.278,0.441-1.847h0.027c0.143,0.568,0.313,1.278,0.483,1.847l0.597,2.03H31.247z"/>
</g>
</svg>
