<?xml version="1.0" encoding="utf-8"?>
<!-- Generator: Adobe Illustrator 16.0.0, SVG Export Plug-In . SVG Version: 6.00 Build 0)  -->
<!DOCTYPE svg PUBLIC "-//W3C//DTD SVG 1.1//EN" "http://www.w3.org/Graphics/SVG/1.1/DTD/svg11.dtd">
<svg version="1.1" id="Layer_1" xmlns="http://www.w3.org/2000/svg" xmlns:xlink="http://www.w3.org/1999/xlink" x="0px" y="0px"
	 width="50px" height="50px" viewBox="0 0 50 50" enable-background="new 0 0 50 50" xml:space="preserve">
<g>
	<path d="M36.371,34.811c-1.074-1.925-1.707-3.475-1.882-4.605c-0.506-3.274-1.597-5.283-2.394-6.75
		c-0.228-0.418-0.442-0.812-0.614-1.183c-0.107-0.23-0.239-0.51-0.39-0.828c-0.529-1.12-1.254-2.655-1.905-4.177
		c-0.17-0.398-0.324-0.798-0.471-1.18c-0.621-1.609-1.444-3.025-2.417-2.83c-0.208,0.042-0.372,0.134-0.465,0.305
		c-0.331,0.601,0.205,1.857,1.125,3.855c0.553,1.199,1.241,2.693,1.071,3.107l-0.028,0.054c-0.289-0.071-1.022-1.667-1.559-2.832
		l-0.569-1.231c-1.534-3.311-2.785-5.841-3.752-5.841l-0.233,0.049c-0.263,0.12-0.442,0.32-0.534,0.599
		c-0.41,1.249,1.12,3.968,2.467,6.364c0.833,1.48,1.87,3.321,1.646,3.713c-0.283,0-1.374-1.243-3.22-4.671
		c-1.588-2.941-3.222-5.662-4.404-5.662c-0.222,0-0.418,0.091-0.582,0.268c-0.84,0.907,0.638,3.319,2.203,5.875
		c0.259,0.424,0.516,0.841,0.753,1.241c2.054,3.462,2.13,4.372,2.066,4.602l-0.032,0.056l-0.136,0.037
		c-0.475,0-1.146-1.214-1.738-2.284l-0.42-0.763c-1.445-2.63-2.637-4.644-3.708-4.644c-0.246,0-0.466,0.104-0.656,0.312
		c-0.84,0.917,0.542,3.246,2.144,5.944c0.726,1.223,1.475,2.485,2.006,3.616l0.071,0.148c0.622,1.317,1.561,3.31,1.345,4.501
		c-0.033,0.183-0.121,0.35-0.54,0.35c-0.46,0-1.121-0.208-1.759-0.412c-0.646-0.205-1.255-0.398-1.721-0.408h-0.073
		c-1.008,0-2.584,0.47-3.234,1.146c-0.208,0.215-0.309,0.439-0.301,0.666c0.016,0.417,0.681,0.633,2.317,1.125
		c0.71,0.214,1.515,0.456,2.301,0.745c1.48,0.547,2.859,1.353,3.6,1.786c0.156,0.093,0.283,0.165,0.373,0.215
		c1.232,0.681,2.335,0.954,3.222,1.175c0.369,0.093,0.687,0.171,0.963,0.267c0.723,0.249,1.552,1.077,2.537,2.538l0.106,0.157
		l7.516-4.339L36.371,34.811z M31.009,31.35c-0.745,1.241-2.048,1.902-3.714,1.902c-0.24,0-0.489-0.014-0.744-0.041
		c-1.831-0.2-2.995-1.776-3.473-3.185c-0.458-1.347,0.034-3.557,0.762-4.697c0.667-1.046,2.094-1.758,3.635-1.812
		c1.468-0.046,2.747,0.51,3.514,1.541c0.123,0.166,0.088,0.401-0.078,0.524c-0.167,0.124-0.401,0.088-0.525-0.077
		c-0.616-0.83-1.674-1.288-2.884-1.238c-1.282,0.045-2.499,0.635-3.03,1.467c-0.622,0.974-1.056,2.956-0.684,4.053
		c0.404,1.188,1.363,2.518,2.844,2.679c1.213,0.134,2.845-0.021,3.733-1.502c0.788-1.312,0.398-2.576-0.067-3.404
		c-0.479-0.852-2.068-1.313-3.093-0.898c-0.956,0.387-1.486,1.155-1.455,2.109c0.012,0.367,0.21,0.747,0.532,1.017
		c0.299,0.251,0.656,0.367,0.979,0.321c0.347-0.05,0.674-0.261,0.896-0.577c0.188-0.269,0.271-0.573,0.221-0.815l-0.075-0.111
		c-0.197-0.122-0.652-0.06-0.83-0.013c-0.199,0.056-0.405-0.066-0.458-0.267s0.066-0.405,0.266-0.458
		c0.09-0.024,0.895-0.223,1.417,0.1c0.218,0.135,0.362,0.341,0.415,0.597c0.093,0.447-0.032,0.957-0.341,1.398
		c-0.341,0.485-0.852,0.81-1.403,0.889c-0.534,0.077-1.106-0.101-1.569-0.489c-0.49-0.41-0.781-0.981-0.8-1.567
		c-0.041-1.267,0.678-2.324,1.924-2.828c1.395-0.565,3.356,0.03,4.028,1.227C31.515,28.192,31.982,29.727,31.009,31.35z"/>
</g>
</svg>
