<?xml version="1.0" encoding="utf-8"?>
<!-- Generator: Adobe Illustrator 16.0.0, SVG Export Plug-In . SVG Version: 6.00 Build 0)  -->
<!DOCTYPE svg PUBLIC "-//W3C//DTD SVG 1.1//EN" "http://www.w3.org/Graphics/SVG/1.1/DTD/svg11.dtd">
<svg version="1.1" id="Layer_1" xmlns="http://www.w3.org/2000/svg" xmlns:xlink="http://www.w3.org/1999/xlink" x="0px" y="0px"
	 width="50px" height="50px" viewBox="0 0 50 50" enable-background="new 0 0 50 50" xml:space="preserve">
<g>
	<path d="M15.707,25.818v2.59l0.371,0.317v-1.845h1v2.7l1.406,1.203v-3.903h1v4.759l0.523,0.448c0.837,0.719,0.936,1.983,0.219,2.82
		c-0.205,0.238-0.461,0.417-0.742,0.536v2.437h-1v-2.293c-0.396-0.045-0.772-0.2-1.077-0.461l-0.329-0.281v3.035h-1v-3.892
		l-1.406-1.203v5.095h-1v-5.95l-1.266-1.083l-0.141-0.15v7.184h-1v-11h0.441v-1.062h-2.27v13.125h31.125V25.818H15.707z
		 M21.891,37.881h-1v-11h1V37.881z M24.297,37.881h-1v-11h1V37.881z M26.703,37.881h-1v-11h1V37.881z M29.109,37.881h-1v-11h1
		V37.881z M31.516,37.881h-1v-11h1V37.881z M33.922,37.881h-1v-11h1V37.881z M36.328,37.881h-1v-11h1V37.881z M38.734,37.881h-1v-11
		h1V37.881z"/>
	<path d="M13.707,23.328c-0.553,0-1,0.447-1,1v5c0,0.292,0.128,0.569,0.35,0.76l5,4.279c0.188,0.161,0.42,0.24,0.65,0.24
		c0.281,0,0.562-0.119,0.76-0.35c0.359-0.42,0.31-1.051-0.109-1.41l-4.65-3.979v-4.54C14.707,23.775,14.26,23.328,13.707,23.328z"/>
	<circle cx="14.85" cy="19.792" r="3.224"/>
	<path d="M25.675,22.63c4.65-2.946-3.185-4.985,0-8.429C20.766,17.425,28.174,20.015,25.675,22.63z"/>
	<path d="M30.025,24.264c4.65-2.945-3.186-4.985,0-8.429C25.117,19.059,32.523,21.648,30.025,24.264z"/>
	<path d="M31.973,19.484c4.65-2.948-3.186-4.985,0-8.429C27.063,14.278,34.472,16.867,31.973,19.484z"/>
</g>
</svg>
