<?xml version="1.0" encoding="utf-8"?>
<!-- Generator: Adobe Illustrator 16.0.0, SVG Export Plug-In . SVG Version: 6.00 Build 0)  -->
<!DOCTYPE svg PUBLIC "-//W3C//DTD SVG 1.1//EN" "http://www.w3.org/Graphics/SVG/1.1/DTD/svg11.dtd">
<svg version="1.1" id="Layer_1" xmlns="http://www.w3.org/2000/svg" xmlns:xlink="http://www.w3.org/1999/xlink" x="0px" y="0px"
	 width="50px" height="50px" viewBox="0 0 50 50" enable-background="new 0 0 50 50" xml:space="preserve">
<g>
	<path d="M25,26.205c3.567,0,6.46-2.891,6.46-6.46C31.46,16.177,25,9.41,25,9.41s-6.46,6.768-6.46,10.335
		C18.54,23.314,21.432,26.205,25,26.205z M22.511,19.133h1.532v-1.532c0-0.528,0.428-0.957,0.957-0.957s0.957,0.429,0.957,0.957
		v1.532h1.532c0.528,0,0.957,0.428,0.957,0.957c0,0.528-0.429,0.957-0.957,0.957h-1.532v1.531c0,0.528-0.428,0.957-0.957,0.957
		s-0.957-0.429-0.957-0.957v-1.531h-1.532c-0.528,0-0.957-0.429-0.957-0.957C21.554,19.562,21.983,19.133,22.511,19.133z"/>
	<path d="M20.394,35.984c0,2.544,2.061,4.606,4.606,4.606c2.543,0,4.606-2.062,4.606-4.606c0-2.545-4.606-7.371-4.606-7.371
		S20.394,33.439,20.394,35.984z M25.682,34.455v1.092h1.092c0.377,0,0.683,0.305,0.683,0.683c0,0.378-0.305,0.683-0.683,0.683
		h-1.092v1.093c0,0.376-0.305,0.682-0.682,0.682s-0.682-0.306-0.682-0.682v-1.093h-1.092c-0.377,0-0.683-0.305-0.683-0.683
		c0-0.377,0.306-0.683,0.683-0.683h1.092v-1.092c0-0.376,0.305-0.682,0.682-0.682S25.682,34.079,25.682,34.455z"/>
	<path d="M10.218,29.675c0,2.722,2.205,4.927,4.927,4.927c2.721,0,4.927-2.205,4.927-4.927c0-2.722-4.927-7.884-4.927-7.884
		S10.218,26.953,10.218,29.675z M15.875,28.04v1.168h1.168c0.402,0,0.73,0.327,0.73,0.73c0,0.403-0.328,0.729-0.73,0.729h-1.168
		v1.168c0,0.403-0.327,0.73-0.729,0.73c-0.404,0-0.731-0.328-0.731-0.73v-1.168h-1.168c-0.402,0-0.73-0.327-0.73-0.729
		c0-0.403,0.328-0.73,0.73-0.73h1.168V28.04c0-0.403,0.327-0.73,0.731-0.73C15.548,27.31,15.875,27.637,15.875,28.04z"/>
	<path d="M34.854,21.791c0,0-4.927,5.163-4.927,7.884c0,2.722,2.206,4.927,4.927,4.927s4.927-2.205,4.927-4.927
		C39.782,26.953,34.854,21.791,34.854,21.791z M36.753,30.667h-1.168v1.168c0,0.403-0.327,0.73-0.731,0.73
		c-0.403,0-0.729-0.328-0.729-0.73v-1.168h-1.168c-0.402,0-0.73-0.327-0.73-0.729c0-0.403,0.328-0.73,0.73-0.73h1.168V28.04
		c0-0.403,0.327-0.73,0.729-0.73c0.404,0,0.731,0.327,0.731,0.73v1.168h1.168c0.402,0,0.73,0.327,0.73,0.73
		C37.483,30.341,37.156,30.667,36.753,30.667z"/>
</g>
</svg>
