<?xml version="1.0" encoding="utf-8"?>
<!-- Generator: Adobe Illustrator 16.0.0, SVG Export Plug-In . SVG Version: 6.00 Build 0)  -->
<!DOCTYPE svg PUBLIC "-//W3C//DTD SVG 1.1//EN" "http://www.w3.org/Graphics/SVG/1.1/DTD/svg11.dtd">
<svg version="1.1" id="Layer_1" xmlns="http://www.w3.org/2000/svg" xmlns:xlink="http://www.w3.org/1999/xlink" x="0px" y="0px"
	 width="50px" height="50px" viewBox="0 0 50 50" enable-background="new 0 0 50 50" xml:space="preserve">
<g>
	<polygon points="12.149,18.81 12.039,18.75 12.032,18.754 	"/>
	<path d="M37.855,18.808c-0.291,0.155-0.6,0.307-0.941,0.451C37.256,19.114,37.564,18.963,37.855,18.808z"/>
	<path d="M12.149,18.81c0.29,0.155,0.597,0.306,0.937,0.449C12.746,19.115,12.438,18.965,12.149,18.81z"/>
	<polygon points="37.968,18.754 37.961,18.75 37.855,18.808 	"/>
	<path d="M12.039,18.75c2.595-1.43,7.42-2.395,12.961-2.395c5.539,0,10.366,0.965,12.961,2.395c1.28-0.705,2.029-1.52,2.029-2.395
		c0-2.649-6.713-4.797-14.99-4.797c-8.279,0-14.99,2.147-14.99,4.797C10.01,17.23,10.759,18.045,12.039,18.75z"/>
	<path d="M15.611,18.821c2.249-0.325,15.489-1.425,19.187,0c-1.694-0.754-5.32-1.6-10.618-1.6S16.061,17.872,15.611,18.821z"/>
	<path d="M31.021,20.979c-0.938-0.738-2.36-0.756-4.001-0.049l-0.079,0.198l0.197,0.078c0.891-0.384,2.555-0.896,3.697,0.008
		c0.222,0.176,0.404,0.414,0.567,0.68c-2.031,0.301-4.218,0.457-6.402,0.457c-5.702,0-11.438-1.04-14.305-3.044l3.513,15.143
		c0,2.204,4.832,3.99,10.792,3.99c5.679,0,10.322-1.622,10.75-3.681h-7.778v-9.007h4.085c-0.021,0.38-0.057,0.78-0.108,1.199h-2.007
		v0.312h1.96c-0.042,0.303-0.082,0.604-0.138,0.924l0.122,0.174l0.025,0.002l0.148-0.124c0.06-0.34,0.102-0.657,0.145-0.976h1.678
		v-0.312h-1.631c0.051-0.42,0.086-0.818,0.107-1.199h3.495v8.436l3.452-14.881c-1.709,1.194-4.448,2.038-7.582,2.532
		C31.529,21.497,31.302,21.202,31.021,20.979z"/>
</g>
</svg>
