<?xml version="1.0" encoding="utf-8"?>
<!-- Generator: Adobe Illustrator 16.0.0, SVG Export Plug-In . SVG Version: 6.00 Build 0)  -->
<!DOCTYPE svg PUBLIC "-//W3C//DTD SVG 1.1//EN" "http://www.w3.org/Graphics/SVG/1.1/DTD/svg11.dtd">
<svg version="1.1" id="Layer_1" xmlns="http://www.w3.org/2000/svg" xmlns:xlink="http://www.w3.org/1999/xlink" x="0px" y="0px"
	 width="50px" height="50px" viewBox="0 0 50 50" enable-background="new 0 0 50 50" xml:space="preserve">
<g>
	<path d="M38.332,20.69c-0.724-7.561-4.834-10.583-9.058-10.583c-4.274,0-6.93,2.472-7.951,5.604
		c-1.021,3.132,0.531,6.887,2.438,7.296c1.39,0.297,0.409,4.562-7.006,7.31s-4.706,9.576-4.706,9.576s1.498-2.928,4.88-3.014
		c3.382-0.086,10.29,1.017,15.074-2.384S38.945,27.092,38.332,20.69z M29.14,22.12c-0.596,3.154-4.14,6.878-8.784,8.444
		c4.47-2.384,5.992-4.698,6.468-7.354c0.544-3.031-3.963-4.581-1.293-6.605C27.505,15.107,29.616,19.602,29.14,22.12z"/>
</g>
</svg>
