<?xml version="1.0" encoding="utf-8"?>
<!-- Generator: Adobe Illustrator 16.0.0, SVG Export Plug-In . SVG Version: 6.00 Build 0)  -->
<!DOCTYPE svg PUBLIC "-//W3C//DTD SVG 1.1//EN" "http://www.w3.org/Graphics/SVG/1.1/DTD/svg11.dtd">
<svg version="1.1" id="Layer_1" xmlns="http://www.w3.org/2000/svg" xmlns:xlink="http://www.w3.org/1999/xlink" x="0px" y="0px"
	 width="50px" height="50px" viewBox="0 0 50 50" enable-background="new 0 0 50 50" xml:space="preserve">
<g>
	<path d="M25.5,27.275v11.336c1.562-0.025,3.014-0.167,4.251-0.396l2.706-11.936C30.591,26.855,28.227,27.233,25.5,27.275z"/>
	<path d="M20.249,38.216c1.237,0.229,2.689,0.37,4.251,0.396V27.275c-2.727-0.042-5.091-0.42-6.957-0.995L20.249,38.216z"/>
	<path d="M26.773,17.841l0.978-2.312l-0.059,0.026c0.167-0.37,0.265-0.777,0.265-1.209c0-1.632-1.325-2.957-2.957-2.957
		s-2.957,1.325-2.957,2.957c0,0.432,0.098,0.838,0.264,1.208l-0.056-0.025l0.977,2.312C17.166,18.187,12.5,20.265,12.5,22.785
		c0,0.375,0.111,0.738,0.307,1.089l3.443,12.244c0,0.739,1.133,1.402,2.921,1.86l-2.739-12.083C14.256,25.036,13,23.892,13,22.785
		c0-2.01,4.132-4.148,10.434-4.458l0.414,0.981C17.467,19.541,14,21.664,14,22.785c0,0.544,0.824,1.323,2.393,2.009
		c1.125-1.024,4.553-1.77,8.607-1.77s7.482,0.745,8.607,1.77C35.176,24.108,36,23.329,36,22.785c0-1.121-3.467-3.244-9.847-3.477
		l0.414-0.981C32.868,18.637,37,20.775,37,22.785c0,1.106-1.256,2.251-3.432,3.11l-2.739,12.083c1.788-0.458,2.921-1.121,2.921-1.86
		l3.443-12.244c0.195-0.351,0.307-0.715,0.307-1.089C37.5,20.265,32.834,18.187,26.773,17.841z M25,15.847
		c-0.827,0-1.5-0.673-1.5-1.5s0.673-1.5,1.5-1.5s1.5,0.673,1.5,1.5S25.827,15.847,25,15.847z"/>
</g>
</svg>
