<?xml version="1.0" encoding="utf-8"?>
<!-- Generator: Adobe Illustrator 16.0.0, SVG Export Plug-In . SVG Version: 6.00 Build 0)  -->
<!DOCTYPE svg PUBLIC "-//W3C//DTD SVG 1.1//EN" "http://www.w3.org/Graphics/SVG/1.1/DTD/svg11.dtd">
<svg version="1.1" id="Layer_1" xmlns="http://www.w3.org/2000/svg" xmlns:xlink="http://www.w3.org/1999/xlink" x="0px" y="0px"
	 width="50px" height="50px" viewBox="0 0 50 50" enable-background="new 0 0 50 50" xml:space="preserve">
<g>
	<path d="M20.916,29.601c-2.401,0-4.349-0.515-4.349-1.15v10.787c0,0.635,1.947,1.15,4.349,1.15s4.349-0.516,4.349-1.15V28.45
		C25.265,29.086,23.317,29.601,20.916,29.601z"/>
	<path d="M21.513,22.213c-2.182,1.163-3.39,3.509-1.414,6.178c0.919-1.393,0.681-3.334,0.681-3.334s0.494,1.102,0.841,2.754
		C24.132,24.999,21.622,23.608,21.513,22.213z"/>
	<path d="M29.737,26.837c-1.774,0-3.212-0.38-3.212-0.85v15.146c0,0.47,1.438,0.85,3.212,0.85c1.774,0,3.213-0.38,3.213-0.85V25.987
		C32.95,26.457,31.511,26.837,29.737,26.837z"/>
	<path d="M29.602,22.594c0,0,0.494,1.102,0.841,2.754c2.51-2.812,0-4.202-0.109-5.598c-2.182,1.163-3.39,3.509-1.414,6.177
		C29.839,24.535,29.602,22.594,29.602,22.594z"/>
	<path d="M16.853,14.672c0.376,0.653,0.826,0.82,1.153,0.632c0.327-0.189,0.407-0.661,0.03-1.314
		c-0.114-0.199-0.289-0.373-0.475-0.521c0.221,0.088,0.459,0.151,0.688,0.151c0.755,0,1.123-0.306,1.123-0.684
		c0-0.377-0.368-0.683-1.123-0.683c-0.229,0-0.467,0.063-0.688,0.15c0.186-0.147,0.36-0.321,0.475-0.521
		c0.377-0.653,0.297-1.125-0.03-1.313s-0.776-0.023-1.153,0.631c-0.115,0.198-0.18,0.437-0.213,0.672
		c-0.035-0.235-0.099-0.474-0.213-0.672c-0.377-0.653-0.826-0.819-1.153-0.631c-0.328,0.188-0.408,0.66-0.03,1.313
		c0.114,0.198,0.289,0.373,0.475,0.521c-0.221-0.088-0.46-0.151-0.689-0.151c-0.755,0-1.123,0.306-1.123,0.684
		c0,0.377,0.368,0.683,1.123,0.683c0.229,0,0.467-0.062,0.689-0.151c-0.187,0.148-0.361,0.323-0.476,0.521
		c-0.377,0.654-0.296,1.125,0.031,1.313c0.326,0.189,0.776,0.022,1.153-0.63c0.115-0.199,0.179-0.437,0.213-0.672
		C16.674,14.235,16.738,14.474,16.853,14.672z M16.166,13.209c-0.151-0.261-0.061-0.595,0.2-0.746
		c0.262-0.151,0.595-0.062,0.746,0.2c0.151,0.262,0.062,0.596-0.199,0.746C16.651,13.561,16.317,13.471,16.166,13.209z"/>
	<path d="M27.297,17.449c0.131-0.489-0.239-1.013-1.216-1.275c-0.296-0.078-0.627-0.079-0.943-0.043
		c0.292-0.126,0.578-0.291,0.795-0.509c0.716-0.716,0.775-1.354,0.417-1.712c-0.358-0.357-0.997-0.299-1.712,0.417
		c-0.217,0.217-0.383,0.503-0.51,0.796c0.038-0.316,0.037-0.647-0.042-0.944c-0.263-0.977-0.786-1.348-1.275-1.217
		c-0.488,0.131-0.757,0.714-0.495,1.691c0.08,0.297,0.245,0.583,0.435,0.839c-0.255-0.19-0.542-0.355-0.839-0.436
		c-0.978-0.262-1.56,0.007-1.691,0.496c-0.131,0.489,0.239,1.013,1.217,1.274c0.297,0.079,0.627,0.081,0.944,0.043
		c-0.293,0.127-0.579,0.293-0.797,0.509c-0.715,0.716-0.774,1.354-0.416,1.713c0.357,0.358,0.997,0.299,1.712-0.417
		c0.218-0.217,0.382-0.503,0.509-0.796c-0.037,0.316-0.036,0.646,0.043,0.944c0.261,0.977,0.785,1.348,1.274,1.217
		c0.489-0.131,0.757-0.714,0.495-1.691c-0.08-0.297-0.244-0.583-0.435-0.839c0.255,0.19,0.542,0.354,0.839,0.435
		C26.585,18.206,27.167,17.938,27.297,17.449z M23.95,17.208c-0.391,0.105-0.793-0.127-0.897-0.518
		c-0.105-0.391,0.126-0.792,0.518-0.896c0.391-0.105,0.792,0.127,0.897,0.518C24.571,16.701,24.34,17.104,23.95,17.208z"/>
	<path d="M22.167,10.162c0.161,0.022,0.334,0.002,0.499-0.037c-0.146,0.084-0.285,0.19-0.385,0.317
		c-0.329,0.422-0.319,0.762-0.108,0.926c0.211,0.165,0.543,0.093,0.872-0.328c0.1-0.128,0.169-0.289,0.216-0.45
		c0,0.168,0.023,0.341,0.083,0.492c0.2,0.496,0.5,0.656,0.747,0.556c0.249-0.099,0.352-0.423,0.151-0.919
		c-0.061-0.15-0.166-0.291-0.282-0.413c0.147,0.083,0.308,0.151,0.469,0.175c0.529,0.074,0.818-0.104,0.856-0.369
		c0.037-0.266-0.191-0.516-0.722-0.591c-0.16-0.022-0.334-0.001-0.498,0.038c0.146-0.085,0.285-0.189,0.385-0.318
		c0.33-0.421,0.32-0.761,0.108-0.926c-0.211-0.164-0.542-0.092-0.872,0.33c-0.1,0.127-0.168,0.289-0.215,0.449
		c-0.001-0.167-0.022-0.341-0.083-0.492c-0.201-0.495-0.499-0.656-0.748-0.556c-0.248,0.1-0.352,0.423-0.151,0.919
		c0.061,0.15,0.166,0.29,0.282,0.412c-0.146-0.082-0.307-0.151-0.468-0.174c-0.529-0.074-0.818,0.104-0.855,0.369
		C21.409,9.837,21.638,10.088,22.167,10.162z M23.419,9.459c0.211,0.029,0.36,0.225,0.33,0.437c-0.029,0.212-0.226,0.359-0.437,0.33
		c-0.212-0.03-0.36-0.226-0.33-0.438C23.011,9.576,23.207,9.429,23.419,9.459z"/>
	<path d="M30.18,13.112c0.122,0.018,0.253,0.002,0.376-0.027c-0.11,0.063-0.215,0.144-0.291,0.239
		c-0.249,0.318-0.241,0.575-0.082,0.699c0.16,0.125,0.41,0.07,0.659-0.248c0.075-0.097,0.127-0.218,0.164-0.34
		c0,0.127,0.017,0.258,0.062,0.372c0.151,0.375,0.377,0.496,0.564,0.42c0.188-0.075,0.266-0.319,0.114-0.694
		c-0.046-0.114-0.125-0.22-0.213-0.312c0.111,0.063,0.232,0.114,0.354,0.133c0.4,0.056,0.619-0.079,0.647-0.279
		c0.027-0.2-0.145-0.39-0.545-0.446c-0.121-0.017-0.252-0.001-0.376,0.029c0.11-0.064,0.215-0.144,0.291-0.241
		c0.25-0.317,0.242-0.574,0.082-0.699c-0.16-0.124-0.41-0.069-0.659,0.249c-0.076,0.097-0.127,0.219-0.163,0.34
		c-0.001-0.126-0.017-0.258-0.063-0.372c-0.151-0.374-0.377-0.495-0.564-0.42c-0.187,0.075-0.266,0.319-0.114,0.694
		c0.046,0.113,0.125,0.219,0.213,0.312c-0.11-0.062-0.232-0.114-0.354-0.132c-0.4-0.056-0.618,0.079-0.646,0.279
		C29.607,12.867,29.78,13.057,30.18,13.112z M31.125,12.581c0.159,0.022,0.272,0.17,0.249,0.33c-0.022,0.16-0.171,0.271-0.33,0.249
		c-0.16-0.022-0.272-0.17-0.25-0.33C30.817,12.67,30.965,12.559,31.125,12.581z"/>
	<path d="M15.406,19.823c-0.121-0.017-0.252-0.001-0.376,0.029c0.11-0.064,0.215-0.144,0.291-0.241
		c0.25-0.317,0.242-0.574,0.082-0.699c-0.16-0.124-0.41-0.069-0.659,0.249c-0.076,0.097-0.127,0.219-0.163,0.34
		c-0.001-0.126-0.017-0.258-0.063-0.372c-0.151-0.374-0.377-0.495-0.564-0.42c-0.187,0.075-0.266,0.319-0.114,0.694
		c0.046,0.113,0.125,0.219,0.213,0.312c-0.11-0.062-0.232-0.114-0.354-0.132c-0.4-0.056-0.618,0.079-0.646,0.279
		c-0.028,0.2,0.145,0.39,0.544,0.445c0.122,0.018,0.253,0.002,0.376-0.027c-0.11,0.063-0.215,0.144-0.291,0.239
		c-0.249,0.318-0.241,0.575-0.082,0.699c0.16,0.125,0.41,0.07,0.659-0.248c0.075-0.097,0.127-0.218,0.164-0.34
		c0,0.127,0.017,0.258,0.062,0.372c0.151,0.375,0.377,0.496,0.564,0.42c0.188-0.075,0.266-0.319,0.114-0.694
		c-0.046-0.114-0.125-0.22-0.213-0.312c0.111,0.063,0.232,0.114,0.354,0.133c0.4,0.056,0.619-0.079,0.647-0.279
		C15.979,20.069,15.807,19.88,15.406,19.823z M14.461,20.355c-0.16-0.022-0.272-0.17-0.25-0.33c0.022-0.16,0.17-0.271,0.331-0.249
		c0.159,0.022,0.272,0.17,0.249,0.33C14.769,20.267,14.62,20.378,14.461,20.355z"/>
	<path d="M36.045,16.107c-0.2-0.029-0.419-0.004-0.623,0.044c0.181-0.104,0.357-0.234,0.485-0.396
		c0.415-0.526,0.405-0.951,0.141-1.159c-0.262-0.208-0.679-0.121-1.094,0.405c-0.127,0.159-0.214,0.36-0.274,0.563
		c-0.001-0.211-0.026-0.429-0.101-0.618c-0.248-0.624-0.621-0.828-0.933-0.703c-0.312,0.123-0.443,0.527-0.196,1.15
		c0.075,0.189,0.206,0.365,0.35,0.521c-0.181-0.106-0.384-0.192-0.584-0.223c-0.664-0.098-1.028,0.125-1.076,0.456
		c-0.049,0.333,0.235,0.648,0.898,0.746c0.201,0.029,0.42,0.005,0.625-0.044c-0.183,0.105-0.357,0.237-0.485,0.396
		c-0.416,0.525-0.405,0.95-0.142,1.159c0.262,0.21,0.679,0.121,1.095-0.406c0.126-0.158,0.215-0.36,0.275-0.562
		c0,0.212,0.026,0.429,0.101,0.618c0.247,0.623,0.621,0.827,0.933,0.704c0.312-0.125,0.443-0.528,0.196-1.152
		c-0.075-0.188-0.206-0.365-0.35-0.52c0.182,0.105,0.383,0.192,0.585,0.222c0.664,0.099,1.027-0.123,1.076-0.456
		C36.994,16.522,36.709,16.205,36.045,16.107z M34.721,16.952c-0.249,0.1-0.532-0.023-0.63-0.271
		c-0.099-0.25,0.022-0.533,0.271-0.632c0.25-0.099,0.532,0.023,0.63,0.273C35.092,16.57,34.971,16.854,34.721,16.952z"/>
</g>
</svg>
