<?xml version="1.0" encoding="utf-8"?>
<!-- Generator: Adobe Illustrator 16.0.0, SVG Export Plug-In . SVG Version: 6.00 Build 0)  -->
<!DOCTYPE svg PUBLIC "-//W3C//DTD SVG 1.1//EN" "http://www.w3.org/Graphics/SVG/1.1/DTD/svg11.dtd">
<svg version="1.1" id="Layer_1" xmlns="http://www.w3.org/2000/svg" xmlns:xlink="http://www.w3.org/1999/xlink" x="0px" y="0px"
	 width="50px" height="50px" viewBox="0 0 50 50" enable-background="new 0 0 50 50" xml:space="preserve">
<g>
	<path d="M40.161,22.776l-19.504-2.78h0.001l-5.927-6.187l-5.964,1.407l1.541,1.902v5.101v9.917h1.206V30.54l23.822,3.975v1.676
		h1.206v-1.997l3.485-2.444v1.828h1.206V23.66L40.161,22.776z M10.777,17.698l2.945,3.636l-2.945,0.764V17.698z M11.514,22.415
		l4.724,0.765v4.766l-4.724,2.067V22.415z M17.444,27.771v-4.395l17.892,2.897v4.153L17.444,27.771z M40.027,31.122l-3.485-0.517
		v-4.332l3.485-1.94V31.122z"/>
</g>
</svg>
