<?xml version="1.0" encoding="utf-8"?>
<!-- Generator: Adobe Illustrator 16.0.0, SVG Export Plug-In . SVG Version: 6.00 Build 0)  -->
<!DOCTYPE svg PUBLIC "-//W3C//DTD SVG 1.1//EN" "http://www.w3.org/Graphics/SVG/1.1/DTD/svg11.dtd">
<svg version="1.1" id="Layer_1" xmlns="http://www.w3.org/2000/svg" xmlns:xlink="http://www.w3.org/1999/xlink" x="0px" y="0px"
	 width="50px" height="50px" viewBox="0 0 50 50" enable-background="new 0 0 50 50" xml:space="preserve">
<g>
	<path d="M25,10.708c-7.88,0-14.291,6.411-14.291,14.292v12.934c0,0.75,0.606,1.357,1.356,1.357s1.357-0.607,1.357-1.357V25
		c0-6.384,5.193-11.578,11.577-11.578S36.577,18.616,36.577,25v12.934c0,0.75,0.607,1.357,1.357,1.357s1.356-0.607,1.356-1.357V25
		C39.291,17.119,32.88,10.708,25,10.708z"/>
	<path d="M30.943,32.25l-4.46,1.339l4.443,1.335l1.794-0.54c0.982-0.294,1.381-1.012,0.89-1.6
		C33.12,32.195,31.927,31.957,30.943,32.25z"/>
	<path d="M17.28,36.353c-0.984,0.295-1.382,1.011-0.891,1.602c0.349,0.417,1.05,0.658,1.781,0.658c0.297,0,0.604-0.04,0.886-0.126
		l4.461-1.338l-4.444-1.336L17.28,36.353z"/>
	<path d="M32.721,36.353L19.057,32.25c-0.982-0.293-2.174-0.055-2.667,0.534c-0.491,0.588-0.094,1.306,0.891,1.6l13.663,4.103
		c0.283,0.086,0.589,0.126,0.886,0.126c0.731,0,1.433-0.241,1.781-0.658C34.102,37.363,33.703,36.647,32.721,36.353z"/>
	<path d="M22.938,20.232c-0.543,3.068-2.332,3.137-3.094,5.791c-0.616,2.144,0.023,3.722,1.516,5.409
		c-0.521-2.548,1.992-3.685,2.097-6.134c1.036,1.379,2.383,3.102,1.864,5.033c1.557-1.552,1.037-5.066,0.363-6.755
		c2.979,1.342,1.088,6.823,3.444,7.582c-0.39-1.215,1.651-2.51,1.194-5.446c-0.349-2.236-2.823-5.975-4.951-8.135
		C25.554,20.475,23.56,25.024,22.938,20.232z"/>
</g>
</svg>
