<?xml version="1.0" encoding="utf-8"?>
<!-- Generator: Adobe Illustrator 16.0.0, SVG Export Plug-In . SVG Version: 6.00 Build 0)  -->
<!DOCTYPE svg PUBLIC "-//W3C//DTD SVG 1.1//EN" "http://www.w3.org/Graphics/SVG/1.1/DTD/svg11.dtd">
<svg version="1.1" id="Layer_1" xmlns="http://www.w3.org/2000/svg" xmlns:xlink="http://www.w3.org/1999/xlink" x="0px" y="0px"
	 width="50px" height="50px" viewBox="0 0 50 50" enable-background="new 0 0 50 50" xml:space="preserve">
<g>
	<path d="M39.543,28.5l-3.5-7l-3.5,7h2.357c-1.484,4.633-5.824,8-10.944,8c-6.341,0-11.5-5.159-11.5-11.5s5.159-11.5,11.5-11.5
		c4.886,0,9.059,3.068,10.722,7.375l1.149-2.299C33.54,14.365,29.077,11.5,23.957,11.5c-7.444,0-13.5,6.056-13.5,13.5
		s6.056,13.5,13.5,13.5c6.232,0,11.48-4.249,13.027-10H39.543z"/>
	<path d="M16.79,27.694h1.264l0.384-1.383h1.543l0.416,1.383h1.311l-1.671-5.389h-1.599L16.79,27.694z M18.933,24.256
		c0.088-0.312,0.168-0.72,0.248-1.039h0.016c0.08,0.319,0.176,0.72,0.272,1.039l0.336,1.144h-1.191L18.933,24.256z"/>
	<path d="M25.044,23.257c0.591,0,0.959,0.104,1.255,0.231l0.256-0.976c-0.264-0.127-0.8-0.264-1.495-0.264
		c-1.767,0-3.07,1.023-3.079,2.814c-0.008,0.792,0.264,1.495,0.76,1.959c0.496,0.48,1.207,0.728,2.191,0.728
		c0.711,0,1.423-0.176,1.799-0.304v-2.838h-2.007v0.951h0.832v1.127c-0.096,0.049-0.32,0.08-0.6,0.08c-1,0-1.695-0.655-1.695-1.767
		C23.261,23.832,24.028,23.257,25.044,23.257z"/>
	<polygon points="31.012,23.305 31.012,22.306 27.686,22.306 27.686,27.694 31.124,27.694 31.124,26.695 28.909,26.695 
		28.909,25.416 30.892,25.416 30.892,24.424 28.909,24.424 28.909,23.305 	"/>
</g>
</svg>
