<?xml version="1.0" encoding="utf-8"?>
<!-- Generator: Adobe Illustrator 16.0.0, SVG Export Plug-In . SVG Version: 6.00 Build 0)  -->
<!DOCTYPE svg PUBLIC "-//W3C//DTD SVG 1.1//EN" "http://www.w3.org/Graphics/SVG/1.1/DTD/svg11.dtd">
<svg version="1.1" id="Layer_1" xmlns="http://www.w3.org/2000/svg" xmlns:xlink="http://www.w3.org/1999/xlink" x="0px" y="0px"
	 width="50px" height="50px" viewBox="0 0 50 50" enable-background="new 0 0 50 50" xml:space="preserve">
<g>
	<path d="M36.912,7.243c-0.922-0.162-1.802,0.453-1.964,1.375c-0.128,0.726,0.23,1.419,0.837,1.764L33.77,21.81l0.082,1.162
		l-2.075,11.773l-0.278,2.009l-3.047-3.047V22.993l0.282-1.13V10.26c0.657-0.234,1.131-0.854,1.131-1.592
		c0-0.936-0.76-1.695-1.695-1.695c-0.937,0-1.695,0.76-1.695,1.695c0,0.736,0.474,1.357,1.13,1.592v11.604l0.282,1.13v10.149
		l-3.874-3.874l-1.684-6.287l-0.021-1.164l-3.003-11.209c0.573-0.396,0.87-1.118,0.681-1.83c-0.243-0.904-1.174-1.441-2.077-1.198
		c-0.904,0.241-1.44,1.172-1.199,2.075c0.191,0.711,0.81,1.189,1.505,1.245l3.003,11.209l0.564,1.019l1.286,4.797l-8.159-8.161
		c0.299-0.629,0.195-1.402-0.327-1.923c-0.661-0.662-1.734-0.662-2.396,0c-0.663,0.661-0.663,1.734,0,2.396
		c0.521,0.521,1.294,0.625,1.924,0.326l8.205,8.206l0.999,0.599l0.193,0.193l1.37,5.113l2.252,7.312l-1.706-7.457l-1.117-4.169
		l3.581,3.58v1.008l0.283,7.646l0.282-7.646v-0.442l2.95,2.95l-0.675,4.867l0.979-4.562l0.061,0.061l5.605,5.206l-5.206-5.605
		l-0.319-0.319l0.486-2.259l2.076-11.774l0.475-1.063l2.014-11.428c0.688-0.117,1.262-0.646,1.39-1.371
		C38.449,8.285,37.833,7.405,36.912,7.243z M27.038,8.668c0-0.624,0.507-1.13,1.131-1.13c0.623,0,1.13,0.506,1.13,1.13
		c0,0.623-0.507,1.13-1.13,1.13C27.545,9.798,27.038,9.291,27.038,8.668z M18.64,10.309c-0.603,0.161-1.223-0.197-1.384-0.799
		c-0.161-0.603,0.196-1.223,0.799-1.385c0.603-0.161,1.223,0.197,1.384,0.8C19.6,9.526,19.242,10.146,18.64,10.309z M14.182,19.838
		c-0.44,0.44-1.156,0.44-1.598,0c-0.44-0.441-0.44-1.157,0-1.598c0.441-0.441,1.157-0.441,1.598,0
		C14.623,18.681,14.623,19.396,14.182,19.838z M36.422,10.025c-0.615-0.108-1.025-0.695-0.917-1.309
		c0.108-0.614,0.695-1.025,1.309-0.918c0.615,0.108,1.025,0.695,0.917,1.311C37.623,9.723,37.035,10.134,36.422,10.025z"/>
</g>
</svg>
