<?xml version="1.0" encoding="utf-8"?>
<!-- Generator: Adobe Illustrator 16.0.0, SVG Export Plug-In . SVG Version: 6.00 Build 0)  -->
<!DOCTYPE svg PUBLIC "-//W3C//DTD SVG 1.1//EN" "http://www.w3.org/Graphics/SVG/1.1/DTD/svg11.dtd">
<svg version="1.1" id="Layer_1" xmlns="http://www.w3.org/2000/svg" xmlns:xlink="http://www.w3.org/1999/xlink" x="0px" y="0px"
	 width="50px" height="50px" viewBox="0 0 50 50" enable-background="new 0 0 50 50" xml:space="preserve">
<g>
	<path d="M40.149,19.588C39.831,14.028,35.22,9.6,29.582,9.6c-5.657,0-10.28,4.46-10.569,10.048c-4.484,0.405-8.028,3-8.511,6.264
		c-0.435,0.848-0.683,1.763-0.683,2.721c0,2.626,5.609,3.559,10.412,3.559c4.804,0,10.412-0.932,10.412-3.559
		c0-0.958-0.249-1.873-0.683-2.721c-0.481-3.25-3.997-5.837-8.455-6.257c0.281-4.215,3.791-7.561,8.076-7.561
		c4.469,0,8.104,3.635,8.104,8.104v20.181h2.495V19.588H40.149z M20.231,30.945c-5.481,0-9.165-1.196-9.165-2.312
		c0-0.268,0.03-0.529,0.076-0.788c3.028,2.35,15.149,2.35,18.179,0c0.045,0.259,0.075,0.52,0.075,0.788
		C29.396,29.75,25.713,30.945,20.231,30.945z"/>
	<path d="M11.71,35.671c0,0.723,0.406,1.308,0.91,1.308c0.502,0,0.91-0.585,0.91-1.308c0-0.723-0.91-2.113-0.91-2.113
		S11.71,34.948,11.71,35.671z"/>
	<path d="M19.322,35.671c0,0.723,0.406,1.308,0.909,1.308s0.911-0.585,0.911-1.308c0-0.723-0.911-2.113-0.911-2.113
		S19.322,34.948,19.322,35.671z"/>
	<path d="M26.934,35.671c0,0.723,0.406,1.308,0.91,1.308c0.503,0,0.91-0.585,0.91-1.308c0-0.723-0.91-2.113-0.91-2.113
		S26.934,34.948,26.934,35.671z"/>
	<path d="M15.516,39.092c0,0.723,0.407,1.308,0.91,1.308c0.502,0,0.91-0.585,0.91-1.308c0-0.722-0.91-2.113-0.91-2.113
		S15.516,38.37,15.516,39.092z"/>
	<path d="M23.129,39.092c0,0.723,0.405,1.308,0.909,1.308s0.91-0.585,0.91-1.308c0-0.722-0.91-2.113-0.91-2.113
		S23.129,38.37,23.129,39.092z"/>
</g>
</svg>
