<?xml version="1.0" encoding="utf-8"?>
<!-- Generator: Adobe Illustrator 16.0.0, SVG Export Plug-In . SVG Version: 6.00 Build 0)  -->
<!DOCTYPE svg PUBLIC "-//W3C//DTD SVG 1.1//EN" "http://www.w3.org/Graphics/SVG/1.1/DTD/svg11.dtd">
<svg version="1.1" id="Layer_1" xmlns="http://www.w3.org/2000/svg" xmlns:xlink="http://www.w3.org/1999/xlink" x="0px" y="0px"
	 width="50px" height="50px" viewBox="0 0 50 50" enable-background="new 0 0 50 50" xml:space="preserve">
<g>
	<path d="M32.934,30.275V19.731c0.021-0.302-0.126-0.605-0.468-0.833l-0.683-0.456c-0.644-0.429-0.891-1.349-0.547-2.043
		l0.363-0.736c0.344-0.694-0.008-1.303-0.78-1.353L30,14.257c-0.772-0.049-1.446-0.723-1.496-1.495l-0.053-0.818
		c-0.05-0.772-0.659-1.125-1.353-0.781l-0.736,0.363c-0.694,0.344-1.613,0.098-2.042-0.547l-0.456-0.684
		c-0.43-0.645-1.132-0.645-1.562,0l-0.456,0.685c-0.43,0.645-1.348,0.891-2.042,0.547l-0.736-0.364
		c-0.694-0.344-1.302,0.009-1.353,0.781l-0.053,0.82c-0.05,0.772-0.723,1.445-1.495,1.495l-0.821,0.052
		c-0.772,0.05-1.124,0.658-0.78,1.353l0.364,0.736c0.343,0.694,0.097,1.614-0.547,2.043L13.7,18.898
		c-0.342,0.228-0.489,0.531-0.468,0.831v18.847H27.04c0.16,0.315,0.354,0.63,0.646,0.923c0.458,0.457,1.137,0.689,2.018,0.689
		c1.479,0,3.131-0.658,3.2-0.686l3.559-3.481c0.143-0.143,0.313-0.396,0.307-0.787C36.754,34.312,35.65,32.88,32.934,30.275z
		 M16.95,35.222l-0.646-0.338l-0.645,0.338l0.124-0.719l-0.523-0.508l0.722-0.104l0.322-0.654l0.322,0.654l0.723,0.104l-0.523,0.508
		L16.95,35.222z M16.827,28.155l0.124,0.719l-0.646-0.338l-0.645,0.338l0.124-0.719l-0.523-0.509l0.722-0.104l0.322-0.653
		l0.322,0.653l0.723,0.104L16.827,28.155z M16.827,21.808l0.124,0.719l-0.646-0.337l-0.645,0.337l0.124-0.719l-0.523-0.509
		l0.722-0.104l0.322-0.654l0.322,0.654l0.723,0.104L16.827,21.808z M21.11,35.839v0.537h-0.515v-0.501
		c-0.353-0.016-0.694-0.109-0.895-0.227l0.157-0.615c0.221,0.121,0.531,0.229,0.874,0.229c0.3,0,0.506-0.112,0.506-0.325
		c0-0.201-0.169-0.324-0.558-0.456c-0.563-0.19-0.947-0.454-0.947-0.965c0-0.461,0.326-0.826,0.889-0.938V32.08h0.516v0.463
		c0.353,0.017,0.589,0.09,0.763,0.174l-0.153,0.594c-0.137-0.057-0.379-0.178-0.758-0.178c-0.341,0-0.452,0.147-0.452,0.293
		c0,0.176,0.184,0.286,0.631,0.455c0.626,0.221,0.879,0.508,0.879,0.983C22.048,35.332,21.716,35.733,21.11,35.839z M21.11,29.491
		v0.537h-0.515v-0.501c-0.353-0.016-0.694-0.109-0.895-0.226l0.157-0.614c0.221,0.119,0.531,0.229,0.874,0.229
		c0.3,0,0.506-0.114,0.506-0.327c0-0.199-0.169-0.324-0.558-0.456c-0.563-0.19-0.947-0.452-0.947-0.965
		c0-0.462,0.326-0.826,0.889-0.937v-0.5h0.516v0.463c0.353,0.017,0.589,0.09,0.763,0.174l-0.153,0.595
		c-0.137-0.058-0.379-0.176-0.758-0.176c-0.341,0-0.452,0.146-0.452,0.293c0,0.174,0.184,0.282,0.631,0.453
		c0.626,0.22,0.879,0.509,0.879,0.982C22.048,28.984,21.716,29.386,21.11,29.491z M21.11,23.145v0.536h-0.515v-0.502
		c-0.353-0.014-0.694-0.108-0.895-0.225l0.157-0.616c0.221,0.122,0.531,0.231,0.874,0.231c0.3,0,0.506-0.114,0.506-0.326
		c0-0.199-0.169-0.324-0.558-0.458c-0.563-0.188-0.947-0.452-0.947-0.963c0-0.463,0.326-0.827,0.889-0.938v-0.5h0.516v0.463
		c0.353,0.018,0.589,0.091,0.763,0.175l-0.153,0.595c-0.137-0.059-0.379-0.179-0.758-0.179c-0.341,0-0.452,0.147-0.452,0.294
		c0,0.175,0.184,0.285,0.631,0.454c0.626,0.22,0.879,0.51,0.879,0.983C22.048,22.639,21.716,23.037,21.11,23.145z M21.759,15.44
		c0-0.753,0.61-1.363,1.363-1.363s1.363,0.61,1.363,1.363s-0.61,1.363-1.363,1.363S21.759,16.193,21.759,15.44z M35.966,35.524
		c-0.743,0.743-3.324,3.325-3.324,3.325s-3.286,1.322-4.458,0.151c-0.647-0.648-0.815-1.425-0.959-2.1l1.298,1.299
		c0.106,0.105,0.279,0.105,0.386,0c0.106-0.107,0.106-0.279,0-0.387l-2.317-2.315l-0.015-0.013
		c-1.001-1.001-2.242-2.241-3.135-3.133c-0.784-0.785,0.014-1.884,0.868-1.643l4.251,4.251h0.192v-0.194l-1.967-1.966
		c-0.22-0.682,0.307-1.328,0.984-1.156l2.053,2.054h0.193v-0.194l-1.916-1.914c-0.262-0.678,0.258-1.335,1.021-1.12l1.966,1.965
		h0.192v-0.193l-1.646-1.646c-0.397-0.876,0.827-1.735,1.574-0.989C31.786,30.186,36.835,34.655,35.966,35.524z"/>
</g>
</svg>
