<?xml version="1.0" encoding="utf-8"?>
<!-- Generator: Adobe Illustrator 16.0.0, SVG Export Plug-In . SVG Version: 6.00 Build 0)  -->
<!DOCTYPE svg PUBLIC "-//W3C//DTD SVG 1.1//EN" "http://www.w3.org/Graphics/SVG/1.1/DTD/svg11.dtd">
<svg version="1.1" id="Layer_1" xmlns="http://www.w3.org/2000/svg" xmlns:xlink="http://www.w3.org/1999/xlink" x="0px" y="0px"
	 width="50px" height="50px" viewBox="0 0 50 50" enable-background="new 0 0 50 50" xml:space="preserve">
<g>
	<path d="M26.391,17.388c-0.56,0.048-1.056,0.116-1.505,0.196l-1.699,2.943h16.087c-0.049-0.291-0.208-0.646-0.565-1.075
		c-0.39-0.471-1.062-0.798-2.998-1.407c-1.264-0.397-0.72-2.673-3.945-4.15c-4.056-1.859-6.568,1.271-6.315,1.523
		c0.403,0.403,2.285-0.672,2.777,0.626C28.517,16.807,27.278,17.313,26.391,17.388z"/>
	<path d="M22.575,15.137c-2.56-1.479-5.864-0.594-7.342,1.967l-6.45,11.172c-1.478,2.561-0.593,5.864,1.967,7.342l1.862,1.075
		l11.825-20.481L22.575,15.137z"/>
	<path d="M32.12,32.366l0.098-0.045l0.054-0.045l0.08-0.46l0.445-0.062l0.034-0.046c0.174-0.249-0.487-0.833-0.78-1.073
		c-0.523-0.429-1.291-0.785-1.94-1.034c0.25,0.648,0.605,1.417,1.034,1.94C31.802,32.343,32.089,32.366,32.12,32.366z"/>
	<path d="M27.374,31.709l0.045,0.055l0.459,0.08l0.061,0.442l0.046,0.035l0.099,0.045c0.031,0,0.318-0.023,0.976-0.825
		c0.429-0.522,0.785-1.291,1.035-1.939c-0.649,0.249-1.417,0.604-1.939,1.033C27.862,30.876,27.2,31.46,27.374,31.709z"/>
	<path d="M33.146,28.756l0.171-0.414l-0.022-0.053c-0.038-0.078-0.056-0.118-0.256-0.118c-0.173,0-0.497,0.045-1.063,0.257
		c-0.606,0.229-1.296,0.707-1.858,1.157c0.281-0.633,0.568-1.419,0.634-2.087c0.038-0.376,0.091-1.257-0.208-1.311l-0.058-0.007
		l-0.384,0.27l-0.375-0.276l-0.048,0.014c-0.299,0.054-0.245,0.935-0.208,1.311c0.067,0.671,0.356,1.459,0.637,2.094
		c-0.541-0.436-1.23-0.923-1.863-1.161c-0.566-0.214-0.891-0.257-1.063-0.257c-0.2,0-0.219,0.04-0.256,0.118L26.9,28.358
		l0.159,0.438l-0.352,0.274L26.7,29.127c-0.027,0.304,0.837,0.479,1.21,0.541c0.594,0.099,1.495,0.034,2.195-0.073l0.004,0.009
		v-0.002l0.003-0.009c0.451,0.069,0.968,0.126,1.46,0.126c0.274,0,0.52-0.017,0.733-0.053c0.372-0.061,1.237-0.237,1.21-0.539
		l-0.012-0.07L33.146,28.756z"/>
	<path d="M40.858,22.092v-0.673H22.671l-4.387,7.6v2.299c0,2.956,2.418,5.375,5.375,5.375h12.9c2.956,0,5.375-2.419,5.375-5.375
		v-9.226H40.858z M33.861,29.95c-0.25,0.041-0.518,0.059-0.792,0.061l-0.231,0.044c-0.19,0.031-0.406,0.046-0.641,0.046
		l-0.169-0.004c0.246,0.132,0.48,0.279,0.68,0.443c0.1,0.081,0.203,0.172,0.302,0.267c0.188,0.117,0.365,0.239,0.523,0.369
		c1.194,0.98,1.207,1.543,0.904,1.976c-0.114,0.164-0.258,0.285-0.458,0.321c-0.034,0.197-0.156,0.34-0.319,0.456
		c-0.433,0.303-0.996,0.291-1.977-0.903c-0.154-0.189-0.3-0.407-0.436-0.635l-0.181-0.211c-0.431-0.527-0.759-1.302-0.956-1.858
		c-0.197,0.557-0.522,1.331-0.955,1.858l-0.187,0.216c-0.135,0.226-0.278,0.442-0.433,0.63c-0.981,1.194-1.544,1.206-1.977,0.903
		c-0.163-0.116-0.284-0.259-0.32-0.456c-0.199-0.036-0.343-0.157-0.457-0.321c-0.303-0.433-0.291-0.995,0.904-1.976
		c0.161-0.132,0.34-0.256,0.529-0.374c0.098-0.094,0.201-0.183,0.299-0.262c0.199-0.164,0.434-0.313,0.679-0.443l-0.169,0.004
		c-0.235,0-0.451-0.016-0.641-0.046l-0.231-0.044c-0.274-0.002-0.545-0.02-0.795-0.061c-1.525-0.251-1.817-0.733-1.77-1.26
		c0.017-0.198,0.081-0.376,0.233-0.506c-0.068-0.188-0.036-0.373,0.049-0.555c0.224-0.479,0.718-0.751,2.164-0.206
		c0.189,0.071,0.38,0.162,0.57,0.264c0.119,0.032,0.246,0.074,0.38,0.125c0.497,0.188,1.014,0.537,1.431,0.865
		c-0.209-0.487-0.413-1.077-0.464-1.606c-0.011-0.095-0.017-0.195-0.021-0.296c-0.06-0.239-0.106-0.479-0.129-0.708
		c-0.151-1.538,0.238-1.944,0.758-2.036c0.197-0.034,0.385-0.02,0.55,0.097c0.165-0.116,0.352-0.131,0.549-0.097
		c0.52,0.092,0.91,0.498,0.757,2.036c-0.021,0.225-0.067,0.46-0.125,0.695c-0.004,0.107-0.01,0.21-0.02,0.309
		c-0.053,0.529-0.256,1.119-0.465,1.606c0.417-0.328,0.935-0.678,1.432-0.865c0.133-0.049,0.256-0.091,0.374-0.124
		c0.192-0.103,0.384-0.193,0.573-0.265c1.446-0.545,1.939-0.272,2.163,0.206c0.084,0.182,0.118,0.367,0.05,0.555
		c0.153,0.13,0.217,0.308,0.234,0.506C35.677,29.217,35.385,29.699,33.861,29.95z"/>
</g>
</svg>
