<?xml version="1.0" encoding="utf-8"?>
<!-- Generator: Adobe Illustrator 16.0.0, SVG Export Plug-In . SVG Version: 6.00 Build 0)  -->
<!DOCTYPE svg PUBLIC "-//W3C//DTD SVG 1.1//EN" "http://www.w3.org/Graphics/SVG/1.1/DTD/svg11.dtd">
<svg version="1.1" id="Layer_1" xmlns="http://www.w3.org/2000/svg" xmlns:xlink="http://www.w3.org/1999/xlink" x="0px" y="0px"
	 width="50px" height="50px" viewBox="0 0 50 50" enable-background="new 0 0 50 50" xml:space="preserve">
<g>
	<path d="M28.291,19.57c-0.224-1.801-0.201-7.952,0-9.094h-2.729c0.09,1.976,0.367,6.906,0,9.094H28.291z"/>
	<path d="M25.562,20.453c0.09,1.975,0.367,6.906,0,9.094h2.729c-0.224-1.801-0.201-7.951,0-9.094H25.562z"/>
	<path d="M25.562,30.43c0.09,1.975,0.367,6.906,0,9.094h2.729c-0.224-1.801-0.201-7.952,0-9.094H25.562z"/>
	<path d="M21.001,22.845c0.09,1.458,0.366,5.09,0,6.702h2.729c-0.225-1.328-0.202-5.858,0-6.702H21.001z"/>
	<path d="M21.001,30.43c0.09,1.975,0.366,6.906,0,9.094h2.729c-0.225-1.801-0.202-7.952,0-9.094H21.001z"/>
	<path d="M25.712,19.96l-0.082-0.218c-2.186-0.989-3.63-1.98-4.436-2.61c0.239-0.221,1.078-1.064,1.336-2.242
		c0.3-1.378,0.042-4.291,0.042-4.291s-1.454,2.538-1.754,3.914c-0.24,1.091,0.088,2.122,0.238,2.509
		c-0.354-0.284-0.548-0.466-0.608-0.525c-0.14-0.593-0.511-1.753-1.405-2.648c-1.248-1.25-4.499-2.947-4.499-2.947
		s1.698,3.251,2.947,4.5c1.022,1.023,2.39,1.361,2.858,1.453c0.191,0.177,0.546,0.484,1.105,0.89
		c-0.473-0.146-1.08-0.261-1.73-0.182c-1.399,0.17-4.061,1.384-4.061,1.384s2.877,0.53,4.277,0.356
		c1.08-0.132,1.932-0.762,2.266-1.043c0.823,0.535,1.907,1.155,3.286,1.779l0.068,0.015L25.712,19.96z"/>
	<path d="M21.163,30.005l-0.134-0.19c-1.933-0.336-3.567-1.258-4.633-1.994c0.196-0.3,0.544-0.93,0.563-1.675
		c0.025-1.04-0.568-3.115-0.568-3.115s-0.7,2.043-0.726,3.082c-0.014,0.571,0.166,1.08,0.332,1.429
		c-0.552-0.41-0.883-0.716-0.892-0.724l-0.011-0.004c-0.126-0.465-0.408-1.219-1.001-1.812c-0.92-0.923-3.32-2.174-3.32-2.174
		s1.254,2.398,2.176,3.32c0.758,0.761,1.778,1.009,2.117,1.073c0.332,0.284,1.093,0.895,2.141,1.498
		c-0.342-0.15-0.985-0.373-1.692-0.287c-1.031,0.127-2.996,1.022-2.996,1.022s2.124,0.391,3.157,0.263
		c0.997-0.123,1.723-0.812,1.77-0.858c0.982,0.539,2.186,1.048,3.526,1.281l0.028,0.003L21.163,30.005z"/>
	<path d="M31.749,28.383c1.013-0.678,1.578-1.205,1.716-1.343c0.507-0.103,1.824-0.451,2.815-1.444c1.249-1.25,2.947-4.5,2.947-4.5
		s-3.251,1.697-4.5,2.946c-0.921,0.923-1.289,2.133-1.42,2.707l-0.028,0.012c-0.008,0.008-0.431,0.437-1.263,1.037
		c0.248-0.453,0.605-1.267,0.58-2.198c-0.034-1.408-0.982-4.175-0.982-4.175s-0.804,2.811-0.769,4.22
		c0.028,1.117,0.597,2.041,0.835,2.381c-0.83,0.566-1.968,1.239-3.453,1.853l-0.089,0.215l0.152,0.102l0.063-0.012
		c1.04-0.43,1.897-0.883,2.618-1.312c0.306,0.264,1.177,0.932,2.297,1.069c1.4,0.174,4.277-0.356,4.277-0.356
		s-2.663-1.213-4.061-1.384C32.833,28.121,32.222,28.237,31.749,28.383z"/>
</g>
</svg>
