<?xml version="1.0" encoding="utf-8"?>
<!-- Generator: Adobe Illustrator 16.0.0, SVG Export Plug-In . SVG Version: 6.00 Build 0)  -->
<!DOCTYPE svg PUBLIC "-//W3C//DTD SVG 1.1//EN" "http://www.w3.org/Graphics/SVG/1.1/DTD/svg11.dtd">
<svg version="1.1" id="Layer_1" xmlns="http://www.w3.org/2000/svg" xmlns:xlink="http://www.w3.org/1999/xlink" x="0px" y="0px"
	 width="50px" height="50px" viewBox="0 0 50 50" enable-background="new 0 0 50 50" xml:space="preserve">
<g>
	<path d="M25.5,10h-1c-1.65,0-3,1.35-3,3v24c0,1.65,1.35,3,3,3h1c1.65,0,3-1.35,3-3V13C28.5,11.35,27.15,10,25.5,10z M24,14.5h2
		c0.377,0,0.696,0.22,0.867,0.531h-3.733C23.304,14.72,23.623,14.5,24,14.5z M26,35.5h-2c-0.377,0-0.696-0.22-0.867-0.531h3.733
		C26.696,35.28,26.377,35.5,26,35.5z M27,33.844v0.219v0.25V34.5v0.172h-0.035l-0.009,0.047h-3.911l-0.009-0.047H23V34.5v-0.188
		v-0.25v-0.219v-0.188h4V33.844z M27,32.578v0.172V33v0.344v0.062h-4v-0.062V33v-0.25v-0.172v-0.234h4V32.578z M27,31.438v0.25
		v0.328v0.078h-4v-0.078v-0.328v-0.25v-0.406h4V31.438z M27,30.109v0.016v0.25v0.312v0.094h-4v-0.094v-0.312v-0.25v-0.016v-0.391h4
		V30.109z M27,28.781v0.031v0.25v0.297v0.109h-4v-0.109v-0.297v-0.25v-0.031v-0.375h4V28.781z M27,27.453V27.5v0.25v0.281v0.125h-4
		v-0.125V27.75V27.5v-0.047v-0.359h4V27.453z M27,26.125v0.062v0.25v0.266v0.141h-4v-0.141v-0.266v-0.25v-0.062v-0.344h4V26.125z
		 M27,24.797v0.078v0.25v0.25v0.156h-4v-0.156v-0.25v-0.25v-0.078v-0.328h4V24.797z M27,23.469v0.094v0.25v0.234v0.172h-4v-0.172
		v-0.234v-0.25v-0.094v-0.312h4V23.469z M27,22.141v0.109v0.25v0.219v0.188h-4v-0.188V22.5v-0.25v-0.109v-0.297h4V22.141z
		 M27,20.812v0.125v0.25v0.203v0.203h-4v-0.203v-0.203v-0.25v-0.125v-0.281h4V20.812z M27,19.484v0.141v0.25v0.188v0.219h-4v-0.219
		v-0.188v-0.25v-0.141v-0.266h4V19.484z M27,18.156v0.156v0.25v0.172v0.234h-4v-0.234v-0.172v-0.25v-0.156v-0.25h4V18.156z
		 M27,16.828V17v0.25v0.156v0.25h-4v-0.25V17.25V17v-0.172v-0.234h4V16.828z M27,15.688v0.25v0.141v0.266h-4v-0.266v-0.141v-0.25
		V15.5l0.044-0.219h3.911L27,15.5V15.688z"/>
</g>
</svg>
