<?xml version="1.0" encoding="utf-8"?>
<!-- Generator: Adobe Illustrator 16.0.0, SVG Export Plug-In . SVG Version: 6.00 Build 0)  -->
<!DOCTYPE svg PUBLIC "-//W3C//DTD SVG 1.1//EN" "http://www.w3.org/Graphics/SVG/1.1/DTD/svg11.dtd">
<svg version="1.1" id="Layer_1" xmlns="http://www.w3.org/2000/svg" xmlns:xlink="http://www.w3.org/1999/xlink" x="0px" y="0px"
	 width="50px" height="50px" viewBox="0 0 50 50" enable-background="new 0 0 50 50" xml:space="preserve">
<g>
	<path d="M39.007,22.029c-1.604-0.152-11.375-0.504-12.778,0c-1.404,0.502-7.856,5.734-9.439,6.891
		c-1.584,1.156,0.46,3.325,2.324,2.065c1.863-1.257,4.819-3.129,6.122-3.975c1.303-0.847,2.796,0.705,1.664,1.811
		c-0.839,0.821-5.856,4.479-6.921,4.528c-1.065,0.051-5.856,0-8.519,0c-2.662,0-2.396,3.222,0,3.222c1.597,0,11.78,0.554,12.778,0
		c0.998-0.553,8.52-6.34,9.444-6.547c0.926-0.206,3.135,0,5.325,0S40.61,22.179,39.007,22.029z"/>
	<path d="M15.923,25.062c2.366,0,4.284-1.916,4.284-4.283s-4.284-7.596-4.284-7.596s-4.284,5.229-4.284,7.596
		S13.557,25.062,15.923,25.062z"/>
</g>
</svg>
