<?xml version="1.0" encoding="utf-8"?>
<!-- Generator: Adobe Illustrator 16.0.0, SVG Export Plug-In . SVG Version: 6.00 Build 0)  -->
<!DOCTYPE svg PUBLIC "-//W3C//DTD SVG 1.1//EN" "http://www.w3.org/Graphics/SVG/1.1/DTD/svg11.dtd">
<svg version="1.1" id="Layer_1" xmlns="http://www.w3.org/2000/svg" xmlns:xlink="http://www.w3.org/1999/xlink" x="0px" y="0px"
	 width="50px" height="50px" viewBox="0 0 50 50" enable-background="new 0 0 50 50" xml:space="preserve">
<g>
	<path d="M35.917,26.862c1.212-0.564,1.948-1.294,1.948-2.093c0-0.891-0.908-1.696-2.376-2.28c1.441-0.435,2.376-1.121,2.376-1.895
		c0-1.036-1.67-1.915-3.998-2.242c0.689-0.285,1.118-0.669,1.118-1.095c0-0.875-1.788-1.584-3.992-1.584
		c-2.206,0-3.994,0.71-3.994,1.584c0,0.543,0.691,1.021,1.742,1.308c-1.724,0.418-2.878,1.17-2.878,2.03
		c0,0.432,0.294,0.835,0.8,1.185c-2.974,0.48-5.072,1.636-5.072,2.99c0,0.991,1.128,1.876,2.899,2.468
		c-1.136,0.325-2.109,0.73-2.869,1.197c-0.228-2.542-0.601-5.382-1.185-8.301l0.198-0.143c0.256,0.171,0.973,0.592,1.829,0.592
		c1.072,0.001,3.193-0.666,3.193-0.666s-2.12-0.667-3.189-0.666c-0.5,0-0.95,0.145-1.292,0.299c0.702-0.605,1.077-1.055,1.169-1.172
		c0.373-0.125,1.334-0.51,1.988-1.35c0.825-1.058,1.804-3.667,1.804-3.667S23.843,14.944,23.019,16
		c-0.611,0.783-0.774,1.729-0.819,2.175l-0.021,0.011c-0.004,0.006-0.284,0.369-0.855,0.899c0.145-0.364,0.34-1.012,0.234-1.712
		c-0.156-1.057-1.128-3.054-1.128-3.054s-0.345,2.193-0.188,3.252c0.125,0.839,0.64,1.483,0.85,1.718
		c-0.196,0.174-0.462,0.373-0.714,0.568c-0.599-2.924-1.405-5.916-2.496-8.755c1.851,7.384,2.206,14.018,2.155,18.694
		c-0.535-0.254-1.034-0.505-1.457-0.743c0.273-0.474,0.915-1.754,0.822-3.225c-0.115-1.858-1.497-5.457-1.497-5.457
		s-0.927,3.744-0.809,5.597c0.074,1.228,0.638,2.256,1.016,2.824c-1.163-0.694-1.768-1.208-1.778-1.218l-0.04-0.013
		c-0.239-0.741-0.862-2.287-2.178-3.394c-1.785-1.497-6.253-3.352-6.253-3.352s2.606,4.077,4.393,5.574
		c1.417,1.19,3.187,1.497,3.866,1.571c0.197,0.167,1,0.795,2.408,1.569c-0.638-0.139-1.453-0.22-2.301-0.039
		c-1.817,0.384-5.177,2.287-5.177,2.287s3.843,0.362,5.662-0.027c1.457-0.31,2.524-1.288,2.895-1.67
		c0.106,0.051,0.23,0.102,0.35,0.154c-0.065,0.193-0.11,0.39-0.11,0.59c0,0.239,0.062,0.471,0.153,0.7
		c-0.097,2.892-0.325,4.75-0.314,5.142c0.05,1.984,1.691,2.809,2.061,1.799c0.126-0.343,0.243-2.254,0.167-5.08
		c2.021,1.126,5.33,1.862,9.079,1.862c6.156,0,11.146-1.98,11.146-4.423C42.139,29.085,39.6,27.583,35.917,26.862z M28.228,16.846
		c0-0.228,0.619-0.412,1.382-0.412c0.764,0,1.383,0.184,1.383,0.412c0,0.227-0.62,0.412-1.383,0.412
		C28.847,17.257,28.228,17.072,28.228,16.846z M29.786,19.356c1.147,0,2.078,0.276,2.078,0.62c0,0.341-0.931,0.619-2.078,0.619
		c-1.146,0-2.077-0.277-2.077-0.619C27.709,19.633,28.64,19.356,29.786,19.356z M24.095,23.93c0-0.465,1.262-0.84,2.817-0.84
		c1.555,0,2.816,0.375,2.816,0.84c0,0.463-1.262,0.84-2.816,0.84C25.356,24.77,24.095,24.393,24.095,23.93z M27.135,30.825
		c-2.131,0-3.859-0.515-3.859-1.15s1.728-1.151,3.859-1.151c2.13,0,3.858,0.516,3.858,1.151S29.265,30.825,27.135,30.825z"/>
</g>
</svg>
