<?xml version="1.0" encoding="utf-8"?>
<!-- Generator: Adobe Illustrator 16.0.0, SVG Export Plug-In . SVG Version: 6.00 Build 0)  -->
<!DOCTYPE svg PUBLIC "-//W3C//DTD SVG 1.1//EN" "http://www.w3.org/Graphics/SVG/1.1/DTD/svg11.dtd">
<svg version="1.1" id="Layer_1" xmlns="http://www.w3.org/2000/svg" xmlns:xlink="http://www.w3.org/1999/xlink" x="0px" y="0px"
	 width="50px" height="50px" viewBox="0 0 50 50" enable-background="new 0 0 50 50" xml:space="preserve">
<g>
	<path d="M23.806,16.199c-6.742,0-12.227,5.485-12.227,12.227c0,6.742,5.485,12.227,12.227,12.227
		c6.741,0,12.227-5.485,12.227-12.227C36.033,21.685,30.547,16.199,23.806,16.199z M13.107,28.426c0-5.899,4.8-10.698,10.699-10.698
		s10.698,4.799,10.698,10.698H13.107z"/>
	<rect x="13.763" y="12.867" width="5.222" height="0.553"/>
	<rect x="13.781" y="10.014" transform="matrix(0.9659 0.2588 -0.2588 0.9659 3.2219 -3.8919)" width="5.222" height="0.553"/>
	<rect x="13.78" y="15.719" transform="matrix(-0.9659 0.2587 -0.2587 -0.9659 36.3632 27.2054)" width="5.222" height="0.553"/>
	<path d="M32.952,10.277c-2.77,0-5.036,1.083-5.396,2.484h-1.458V10.85h-4.585v1.292H20.5v2h1.013v1.293h4.585v-1.911h1.458
		c0.36,1.4,2.626,2.484,5.396,2.484c3.02,0,5.469-1.283,5.469-2.866C38.421,11.56,35.972,10.277,32.952,10.277z"/>
</g>
</svg>
