<?xml version="1.0" encoding="utf-8"?>
<!-- Generator: Adobe Illustrator 16.0.0, SVG Export Plug-In . SVG Version: 6.00 Build 0)  -->
<!DOCTYPE svg PUBLIC "-//W3C//DTD SVG 1.1//EN" "http://www.w3.org/Graphics/SVG/1.1/DTD/svg11.dtd">
<svg version="1.1" id="Layer_1" xmlns="http://www.w3.org/2000/svg" xmlns:xlink="http://www.w3.org/1999/xlink" x="0px" y="0px"
	 width="50px" height="50px" viewBox="0 0 50 50" enable-background="new 0 0 50 50" xml:space="preserve">
<g>
	<path d="M25,34.749c0.252,0,0.928-0.257,1.66-0.257c0.908,0,1.874,0.257,1.874,0.257s-1.593-1.353-2.157-1.353S25,33.922,25,33.922
		s-0.646-0.493-1.111-0.526c-0.465-0.033-2.423,1.353-2.423,1.353c0,0,1.165-0.3,2.187-0.3C24.232,34.449,24.796,34.75,25,34.749z"
		/>
	<path d="M25,36.586c2.207,0,3.534-1.837,3.534-1.837s-0.786,0.474-1.938,0.537c-0.479,0.026-1.021-0.064-1.596-0.064
		c-0.474,0-0.957,0.127-1.369,0.108c-1.292-0.06-2.165-0.581-2.165-0.581S22.793,36.585,25,36.586z"/>
	<path d="M13.47,21.996c0.073-2.375,0.867-4.567,2.169-6.375c2.736-0.836,6.328-1.022,9.825-0.185
		c-2.007,0.434-3.88,1.408-5.447,2.884c-1.521,1.432-2.624,3.223-3.159,5l-0.007,0.017c0.283,0.158,0.617,0.336,0.983,0.506
		c1.42-2.53,4.095-4.239,7.166-4.239c1.521,0,2.943,0.426,4.167,1.156c-0.122,0.525-0.146,1.077-0.046,1.607l0.104,0.509
		l-0.083,0.167c-0.29,0.706-0.291,1.479-0.061,2.205c0.103-0.118,0.273-0.215,0.484-0.306c-0.133-0.522-0.126-1.107,0.109-1.68
		c0.468-1.142,3.113,0.128,3.113,0.128s-2.509-2.174-3.101-1.129c-0.341-1.812,0.935-3.907,2.892-3.476
		c-1.549,1.425,0.746,4.055,0.746,4.055s-0.854-2.868-0.221-3.577c0.939-1.054,3.089,0.564,3.102,2.119
		c-0.741-0.056-1.447,0.913-1.835,1.557l0.019-0.011c0.799-0.439,1.501-0.615,2.066-0.756c0.209-0.052,0.396-0.098,0.56-0.154
		c0.201-0.068,0.437-0.26,0.699-0.549C37.259,14.846,31.737,9.591,25,9.591c-6.533,0-11.928,4.938-12.666,11.277
		C12.778,21.487,13.161,21.871,13.47,21.996z M36.524,21.985l0.005,0.067l-0.045-0.07L36.524,21.985z M29.915,19.204
		c-0.101,0.122-0.175,0.266-0.26,0.401c-1.364-0.716-2.952-1.07-4.655-1.07c-1.6,0-3.104,0.307-4.41,0.938
		c0.088-0.088,0.169-0.182,0.26-0.268c2.086-1.964,4.765-2.959,7.551-2.798c1.106,0.477,2.164,1.09,3.152,1.825
		C30.93,18.355,30.356,18.671,29.915,19.204z M25,10.806c5.494,0,10.094,3.861,11.251,9.011c-0.562-0.836-1.486-1.466-2.377-1.466
		l-0.247,0.028c-4.689-4.368-11.547-5.307-16.623-4.334C19.08,12.044,21.896,10.806,25,10.806z"/>
	<path d="M31.523,27.117h-0.002c-0.337,0-0.731-0.07-1.111-0.184c0.21,0.131,0.434,0.245,0.688,0.322l0.7,0.138
		c0.021,0.192,0.066,0.373,0.143,0.538c0.192,0.416,0.56,0.692,0.988,0.875c0.075-0.161,0.148-0.33,0.23-0.519
		c-0.319-0.136-0.573-0.334-0.695-0.598c-0.095-0.206-0.106-0.47-0.086-0.75C32.073,27.033,31.779,27.112,31.523,27.117z"/>
	<path d="M30.971,35.731c-0.14,0-0.33-0.037-0.52-0.174c-1.702,2.361-3.85,4.048-5.451,4.048c-1.564,0-3.652-1.608-5.336-3.883
		l-0.108,0.009c-0.334,0-0.647-0.179-0.964-0.505c0.303,0.526,0.55,1.011,0.703,1.445c1.978,2.303,4.341,3.738,5.705,3.738
		c1.584,0,4.51-1.936,6.62-4.916C31.408,35.645,31.194,35.731,30.971,35.731z"/>
	<path d="M15.816,30.555c0.429-0.235,0.888,0.65,1.396,1.565c0.812,1.466,1.962,3.715,2.654,2.959
		c0.673-0.733-1.562-3.59-2.565-5.723c-0.38-0.807-1.022-2.125-0.878-2.926c0.145-0.801,1.809,0.17,2.591,0.187
		c0.784,0.018,2.104-0.468,2.084-0.981c-0.011-0.279-1.424-0.543-2.75-1.035c-1.11-0.41-2.137-1.061-2.452-1.234
		c-1.052-0.579-1.955-0.672-2.546-0.875c-0.51-0.174-1.045-0.753-1.618-1.604l-4.4,2.541c0.59,1.057,1.046,2.076,1.168,2.864
		c0.395,2.553,1.482,3.742,1.834,4.83c0.401,1.244,2.121,5.324,3.047,5.456c1.053,0.15-1.81-4.196-1.057-4.483
		c0.265-0.101,0.766,1.095,1.322,2.289c0.757,1.628,1.825,4.018,2.403,3.758c1.487-0.671-3.155-6.403-2.163-6.555
		c0.354-0.054,1.297,1.431,2.104,2.929c0.913,1.689,2.226,3.962,2.855,3.281c0.533-0.576-0.884-2.625-1.828-4.214
		C16.18,32.172,15.463,30.749,15.816,30.555z"/>
	<path d="M38.795,20.888c-0.573,0.85-1.108,1.429-1.617,1.604c-0.592,0.203-1.495,0.296-2.547,0.875
		c-0.315,0.174-1.342,0.824-2.452,1.234c-1.326,0.491-2.739,0.756-2.751,1.035c-0.019,0.513,1.301,0.999,2.085,0.981
		c0.782-0.017,2.446-0.988,2.591-0.187c0.145,0.801-0.498,2.12-0.878,2.926c-1.003,2.132-3.238,4.99-2.565,5.723
		c0.693,0.756,1.842-1.493,2.654-2.959c0.508-0.916,0.967-1.801,1.396-1.565c0.354,0.194-0.363,1.617-1.2,3.028
		c-0.944,1.59-2.361,3.639-1.828,4.214c0.63,0.681,1.943-1.592,2.855-3.281c0.807-1.498,1.749-2.983,2.104-2.929
		c0.992,0.152-3.65,5.883-2.163,6.555c0.578,0.26,1.646-2.13,2.403-3.758c0.557-1.193,1.058-2.389,1.322-2.289
		c0.753,0.287-2.109,4.633-1.057,4.483c0.926-0.132,2.646-4.212,3.047-5.456c0.352-1.088,1.439-2.277,1.834-4.83
		c0.122-0.788,0.578-1.807,1.168-2.864L38.795,20.888z"/>
	<path d="M27.828,27.477c-0.633,0.305-0.797,0.987-0.836,1.256c-0.039,0.27,0.535,0.101,0.554-0.071
		c0.013-0.12-0.032-0.306,0.263-0.583l0.009,0.173c0.226,0.392,0.728,0.526,1.118,0.3c0.391-0.226,0.525-0.723,0.303-1.114
		c0.606-0.095,1.256-0.108,1.256-0.108S28.678,27.066,27.828,27.477z"/>
	<path d="M30.257,28.396c0,0-0.575,0.265-1.081,0.37c-0.456,0.095-1.59,0.146-1.59,0.146s0.97,0.141,1.484,0.141
		C29.584,29.052,30.257,28.396,30.257,28.396z"/>
	<path d="M21.064,28.552c0.391,0.226,0.893,0.092,1.118-0.3l0.009-0.173c0.295,0.277,0.25,0.463,0.263,0.583
		c0.019,0.171,0.593,0.34,0.554,0.071c-0.039-0.269-0.203-0.951-0.836-1.256c-0.85-0.411-2.666-0.147-2.666-0.147
		s0.649,0.014,1.256,0.108C20.539,27.829,20.674,28.327,21.064,28.552z"/>
	<path d="M22.414,28.912c0,0-1.134-0.051-1.59-0.146c-0.506-0.105-1.081-0.37-1.081-0.37s0.673,0.656,1.187,0.656
		C21.444,29.052,22.414,28.912,22.414,28.912z"/>
</g>
</svg>
