<?xml version="1.0" encoding="utf-8"?>
<!-- Generator: Adobe Illustrator 16.0.0, SVG Export Plug-In . SVG Version: 6.00 Build 0)  -->
<!DOCTYPE svg PUBLIC "-//W3C//DTD SVG 1.1//EN" "http://www.w3.org/Graphics/SVG/1.1/DTD/svg11.dtd">
<svg version="1.1" id="Layer_1" xmlns="http://www.w3.org/2000/svg" xmlns:xlink="http://www.w3.org/1999/xlink" x="0px" y="0px"
	 width="50px" height="50px" viewBox="0 0 50 50" enable-background="new 0 0 50 50" xml:space="preserve">
<g>
	<path d="M25.181,9.485c-0.276,0.159-0.371,0.531-0.274,0.912l-9.935,5.736c-0.281-0.275-0.651-0.379-0.927-0.22
		c-0.355,0.205-0.421,0.764-0.146,1.239l3.86,6.686c0.274,0.477,0.89,0.642,1.365,0.366l4.653-2.687
		c0.044,0.104,0.09,0.208,0.142,0.313l7.983,16.139c0.486,0.986,1.618,2.106,2.512,2.488s1.721-0.096,1.837-1.061
		s-0.288-2.505-0.898-3.42l-9.985-14.982c-0.065-0.098-0.134-0.189-0.201-0.279l4.654-2.687c0.477-0.275,0.641-0.891,0.366-1.366
		l-3.86-6.686C26.052,9.502,25.535,9.28,25.181,9.485z M25.019,10.686l0.016,0.039l0.153,0.265l-9.844,5.683l-0.153-0.265
		l-0.026-0.032L25.019,10.686z M27.518,17.025l-8.111,4.683c-0.477,0.275-1.092,0.11-1.366-0.365l-2.196-3.805l9.844-5.683
		l2.196,3.804C28.158,16.136,27.993,16.75,27.518,17.025z"/>
</g>
</svg>
