<?xml version="1.0" encoding="utf-8"?>
<!-- Generator: Adobe Illustrator 16.0.0, SVG Export Plug-In . SVG Version: 6.00 Build 0)  -->
<!DOCTYPE svg PUBLIC "-//W3C//DTD SVG 1.1//EN" "http://www.w3.org/Graphics/SVG/1.1/DTD/svg11.dtd">
<svg version="1.1" id="Layer_1" xmlns="http://www.w3.org/2000/svg" xmlns:xlink="http://www.w3.org/1999/xlink" x="0px" y="0px"
	 width="50px" height="50px" viewBox="0 0 50 50" enable-background="new 0 0 50 50" xml:space="preserve">
<g>
	<path d="M34.563,22.68l-3.375,1.487l-0.007,0.069c-0.159-0.367-0.336-0.719-0.535-1.062l0.557-6.495l-0.1-0.149
		c-0.137-0.204-3.425-4.985-9.264-4.985s-9.127,4.782-9.264,4.985l-0.1,0.149l0.556,6.495c-0.869,1.5-1.393,3.224-1.393,5.082
		c0,5.634,4.566,10.201,10.201,10.201c3.994,0,7.441-2.3,9.116-5.642l6.777-10.134H34.563z M21.839,12.564
		c4.753,0,7.741,3.632,8.316,4.396l-0.446,5.21H13.969l-0.446-5.21C14.096,16.195,17.071,12.564,21.839,12.564z"/>
	<path d="M27.905,20.927c-1.468-1.217-3.273-1.934-5.176-2.114l0.016-0.078c0-0.501-0.406-0.907-0.906-0.907
		c-0.501,0-0.907,0.406-0.907,0.907l0.016,0.078c-1.903,0.181-3.708,0.897-5.176,2.114H27.905z"/>
	<path d="M36.087,21.348c-2.688-4.902,1.645-6.75-0.307-9.804C36.376,14.537,31.473,17.601,36.087,21.348z"/>
	<path d="M38.362,16.123c-1.437,1.625-0.553,3.248-1.261,5.225C39.191,19.784,37.942,17.808,38.362,16.123z"/>
</g>
</svg>
