<?xml version="1.0" encoding="utf-8"?>
<!-- Generator: Adobe Illustrator 16.0.0, SVG Export Plug-In . SVG Version: 6.00 Build 0)  -->
<!DOCTYPE svg PUBLIC "-//W3C//DTD SVG 1.1//EN" "http://www.w3.org/Graphics/SVG/1.1/DTD/svg11.dtd">
<svg version="1.1" id="Layer_1" xmlns="http://www.w3.org/2000/svg" xmlns:xlink="http://www.w3.org/1999/xlink" x="0px" y="0px"
	 width="50px" height="50px" viewBox="0 0 50 50" enable-background="new 0 0 50 50" xml:space="preserve">
<g>
	<rect x="11.352" y="9.923" width="27.297" height="1.364"/>
	<path d="M37.283,12.141H12.717v27.212h-0.683v0.725h0.683h8.795v-9.895h6.977v9.895h8.795h0.683v-0.725h-0.683V12.141z
		 M32.658,19.218h1.987v1.986h-1.987V19.218z M30.193,16.747h1.987v1.986h-1.987V16.747z M30.192,19.218h1.987v1.986h-1.987V19.218z
		 M25.242,16.747h1.987v1.986h-1.987V16.747z M25.239,19.218h1.987v1.986h-1.987V19.218z M22.774,16.747h1.987v1.986h-1.987V16.747z
		 M22.773,19.218h1.987v1.986h-1.987V19.218z M17.823,16.747h1.987v1.986h-1.987V16.747z M17.82,19.218h1.987v1.986H17.82V19.218z
		 M15.354,19.218h1.987v1.986h-1.987V19.218z M17.342,36.217h-1.987v-1.984h1.987V36.217z M17.343,33.746h-1.987V31.76h1.987V33.746
		z M17.343,18.733h-1.987v-1.986h1.987V18.733z M19.808,36.217H17.82v-1.984h1.987V36.217z M19.811,33.746h-1.987V31.76h1.987
		V33.746z M32.18,36.217h-1.987v-1.984h1.987V36.217z M32.181,33.746h-1.987V31.76h1.987V33.746z M32.507,27.772H17.493v-4.095
		h15.014V27.772z M34.646,36.217h-1.987v-1.984h1.987V36.217z M34.646,33.746h-1.987V31.76h1.987V33.746z M34.646,18.733h-1.987
		v-1.986h1.987V18.733z"/>
	<rect x="26.493" y="35.129" width="1.449" height="0.556"/>
	<path d="M22.765,26.328c-0.178,0-0.349-0.057-0.461-0.114l-0.084,0.345c0.104,0.057,0.311,0.11,0.521,0.11
		c0.505,0,0.742-0.262,0.742-0.569c0-0.26-0.153-0.429-0.479-0.549c-0.237-0.09-0.34-0.141-0.34-0.259
		c0-0.097,0.087-0.178,0.267-0.178s0.31,0.053,0.385,0.087l0.092-0.336c-0.109-0.048-0.261-0.092-0.469-0.092
		c-0.434,0-0.696,0.239-0.696,0.553c0,0.269,0.2,0.438,0.505,0.545c0.222,0.078,0.309,0.143,0.309,0.259
		C23.057,26.249,22.957,26.328,22.765,26.328z"/>
	<path d="M24.723,25.985l0.143,0.007c0.245,0,0.455-0.06,0.597-0.192c0.11-0.104,0.17-0.258,0.17-0.438s-0.08-0.333-0.197-0.426
		c-0.122-0.098-0.305-0.147-0.561-0.147c-0.255,0-0.436,0.017-0.562,0.039v1.813h0.411V25.985z M24.723,25.12l0.173-0.017
		c0.207,0,0.325,0.101,0.325,0.27c0,0.188-0.139,0.3-0.357,0.3l-0.141-0.011V25.12z"/>
	<path d="M26.706,26.17h0.527l0.143,0.472h0.446l-0.569-1.839h-0.547l-0.562,1.839h0.431L26.706,26.17z M26.875,25.47
		c0.031-0.107,0.058-0.246,0.086-0.355h0.005c0.027,0.109,0.06,0.245,0.092,0.355l0.115,0.391h-0.407L26.875,25.47z"/>
</g>
</svg>
