<?xml version="1.0" encoding="utf-8"?>
<!-- Generator: Adobe Illustrator 16.0.0, SVG Export Plug-In . SVG Version: 6.00 Build 0)  -->
<!DOCTYPE svg PUBLIC "-//W3C//DTD SVG 1.1//EN" "http://www.w3.org/Graphics/SVG/1.1/DTD/svg11.dtd">
<svg version="1.1" id="Layer_1" xmlns="http://www.w3.org/2000/svg" xmlns:xlink="http://www.w3.org/1999/xlink" x="0px" y="0px"
	 width="50px" height="50px" viewBox="0 0 50 50" enable-background="new 0 0 50 50" xml:space="preserve">
<g>
	<path d="M20.093,23.551c-0.855-2.337-3.055-4.441-2.39-5.151c2.271-2.421,2.225-6.84,2.676-10.518
		c-2.392,1.517-5.953,4.514-6.184,7.065c-0.332,3.665,3.57,7.379,3.645,9.245c0.106,2.619-3.083,3.823-3.365,6.064
		c-0.37,2.942,4.937,6.878,3.948,11.862c2.061-5.642-1.551-9.309-1.038-11.527C17.746,29.026,21.04,26.139,20.093,23.551z
		 M17.033,13.661c-0.167,0.422-0.499,0.688-0.74,0.591c-0.242-0.095-0.301-0.515-0.135-0.938c0.167-0.422,0.499-0.688,0.74-0.591
		C17.141,12.818,17.199,13.238,17.033,13.661z"/>
	<path d="M27.815,23.551c-0.855-2.337-3.055-4.441-2.39-5.151c2.271-2.421,2.225-6.84,2.676-10.518
		c-2.392,1.517-5.953,4.514-6.184,7.065c-0.332,3.665,3.57,7.379,3.645,9.245c0.106,2.619-3.083,3.823-3.365,6.064
		c-0.37,2.942,4.937,6.878,3.949,11.862c2.06-5.642-1.552-9.309-1.039-11.527C25.469,29.026,28.763,26.139,27.815,23.551z
		 M24.756,13.661c-0.167,0.422-0.499,0.688-0.74,0.591c-0.242-0.095-0.301-0.515-0.135-0.938c0.167-0.422,0.499-0.688,0.74-0.591
		C24.863,12.818,24.922,13.238,24.756,13.661z"/>
	<path d="M35.538,23.551c-0.855-2.337-3.055-4.441-2.389-5.151c2.271-2.421,2.224-6.84,2.675-10.518
		c-2.392,1.517-5.953,4.514-6.184,7.065c-0.332,3.665,3.57,7.379,3.645,9.245c0.106,2.619-3.083,3.823-3.365,6.064
		c-0.37,2.942,4.937,6.878,3.949,11.862c2.06-5.642-1.552-9.309-1.039-11.527C33.191,29.026,36.485,26.139,35.538,23.551z
		 M32.479,13.661c-0.168,0.422-0.5,0.688-0.741,0.591c-0.242-0.095-0.301-0.515-0.135-0.938c0.167-0.422,0.499-0.688,0.74-0.591
		C32.586,12.818,32.646,13.238,32.479,13.661z"/>
</g>
</svg>
