<?xml version="1.0" encoding="utf-8"?>
<!-- Generator: Adobe Illustrator 16.0.0, SVG Export Plug-In . SVG Version: 6.00 Build 0)  -->
<!DOCTYPE svg PUBLIC "-//W3C//DTD SVG 1.1//EN" "http://www.w3.org/Graphics/SVG/1.1/DTD/svg11.dtd">
<svg version="1.1" id="Layer_1" xmlns="http://www.w3.org/2000/svg" xmlns:xlink="http://www.w3.org/1999/xlink" x="0px" y="0px"
	 width="50px" height="50px" viewBox="0 0 50 50" enable-background="new 0 0 50 50" xml:space="preserve">
<g>
	<path d="M41.358,33.935c-0.29-0.516-0.999-2.284-1.399-2.239c-0.4,0.044-1.823,3.112-1.69,3.646
		c0.134,0.534,1.955,0.117,2.535,0.151C41.383,35.527,41.648,34.452,41.358,33.935z"/>
	<path d="M39.336,30.806c-0.133-0.488-0.889-2.29-1.422-2.534c-0.534-0.245-3.558,6.292-2.802,6.581
		c0.756,0.289,2.268,0.334,2.534,0.223C37.914,34.963,39.47,31.295,39.336,30.806z"/>
	<path d="M37.113,26.861c-0.312-0.832-1.645-3.88-2.757-4.014c-1.111-0.133-5.758,10.556-4.933,11.126
		c0.826,0.571,4.088,0.634,4.666,0.523C34.668,34.385,37.424,27.693,37.113,26.861z"/>
	<path d="M32.867,19.646c-0.34-0.663-1.51-3.696-5.979-4.915c-2.978-0.812-11.928-0.156-15.075,1.58
		c-1.173,0.647,4.396,1.937,7.382,6.759c2.537,4.098,1.756,7.692,4.964,9.798c1.449,0.951,2.425,0.983,3.41,0.788
		c1.038-0.206,1.995-2.681,3.23-5.806C32.134,24.475,33.387,20.661,32.867,19.646z"/>
	<path d="M19.732,27.418c-1.375-0.312-3,2.25-6.645,1.639c-2.121-0.355-2.959-1.296-2.668-3.794c0.375-3.22,2.688-4.876,2.875-6.121
		c0.081-0.539-1.034-1.48-1.575-1.26c-1.394,0.567-3.195,5.334-3.196,7.381c-0.002,3.002,1.927,4.446,3.824,5.306
		c1.896,0.859,6.854,1.943,8.893,1.129C22.064,31.368,20.629,27.622,19.732,27.418z"/>
</g>
</svg>
