<?xml version="1.0" encoding="utf-8"?>
<!-- Generator: Adobe Illustrator 16.0.0, SVG Export Plug-In . SVG Version: 6.00 Build 0)  -->
<!DOCTYPE svg PUBLIC "-//W3C//DTD SVG 1.1//EN" "http://www.w3.org/Graphics/SVG/1.1/DTD/svg11.dtd">
<svg version="1.1" id="Layer_1" xmlns="http://www.w3.org/2000/svg" xmlns:xlink="http://www.w3.org/1999/xlink" x="0px" y="0px"
	 width="50px" height="50px" viewBox="0 0 50 50" enable-background="new 0 0 50 50" xml:space="preserve">
<g>
	<path d="M30.028,13.078c0.267,0.038,0.514-0.148,0.553-0.417c0.039-0.27-0.149-0.517-0.418-0.555
		c-0.27-0.037-0.517,0.148-0.554,0.417C29.57,12.795,29.759,13.042,30.028,13.078z"/>
	<path d="M29.165,17.427c-0.496,0.133-0.791,0.643-0.659,1.137c0.135,0.496,0.644,0.79,1.141,0.657
		c0.493-0.132,0.787-0.644,0.653-1.138C30.168,17.589,29.659,17.293,29.165,17.427z"/>
	<path d="M40.888,20.517l-3.963-5.336l-3.727-1.822c0.044-0.105,0.076-0.213,0.092-0.316c0.064-0.472-0.129-1.072-0.83-1.407
		c0.057-0.15,0.091-0.302,0.102-0.452c0.035-0.452-0.138-0.864-0.481-1.132c-0.222-0.174-0.491-0.267-0.775-0.267
		c-0.22,0-0.524,0.055-0.855,0.282c-0.411-0.493-0.881-0.556-1.091-0.556c-0.162,0-0.319,0.03-0.47,0.092
		c-0.317,0.128-0.559,0.364-0.693,0.684c-0.069,0.165-0.134,0.409-0.11,0.732c-0.256,0.042-0.465,0.129-0.631,0.243
		c-0.126-0.22-0.308-0.399-0.532-0.528c-0.226-0.131-0.47-0.197-0.729-0.197c-0.307,0-0.854,0.104-1.39,0.715
		c-0.535-0.611-1.08-0.715-1.389-0.715c-0.258,0-0.5,0.066-0.726,0.195c-0.344,0.198-0.581,0.507-0.685,0.898
		c-0.098,0.359-0.07,0.767,0.075,1.196c-1.037,0.21-1.51,0.902-1.51,1.573c0,0.672,0.473,1.363,1.51,1.573
		c-0.337,1.003,0.025,1.758,0.606,2.093c0.225,0.131,0.469,0.197,0.727,0.197c0.186,0,0.49-0.043,0.835-0.249l0.105,0.211
		c0.184,0.319,0.472,0.59,0.854,0.817l-10.408,7.855c0,0-1.219,1.264-3.527,0.914c-2.308-0.348-2.482,0.175-1.833,0.69
		c0.561,0.447,2.835,1.921,4.099,1.88c2.656-0.087,9.798-4.052,12.194-3.528c-2.831,2.832-8.101,10.715-9.407,11.151
		c-1.307,0.434-3.833,0.479-4.051,1.088c-0.218,0.61,2.918,1.437,4.616,1.395c1.699-0.044,7.274-5.098,9.539-5.882
		c2.265-0.782,5.227-1.349,5.574-2.962c0.349-1.61-1.263-2.263-1.132-3.526C31.001,26.854,40.888,20.517,40.888,20.517z
		 M28.746,11.784c0.204,0.028,0.411,0.115,0.595,0.219c-0.146-0.152-0.278-0.33-0.356-0.521c-0.257-0.628-0.121-1.038,0.19-1.164
		c0.315-0.128,0.692,0.076,0.947,0.705c0.076,0.189,0.105,0.411,0.105,0.623c0.06-0.203,0.147-0.408,0.273-0.57
		c0.417-0.534,0.837-0.626,1.106-0.417c0.267,0.209,0.279,0.639-0.14,1.173c-0.124,0.162-0.303,0.295-0.485,0.404
		c0.206-0.051,0.426-0.078,0.63-0.05c0.672,0.096,0.962,0.412,0.915,0.749c-0.05,0.336-0.413,0.562-1.086,0.469
		c-0.203-0.029-0.408-0.116-0.594-0.222c0.147,0.154,0.282,0.332,0.358,0.521c0.254,0.629,0.122,1.04-0.193,1.166
		c-0.312,0.127-0.692-0.075-0.946-0.704c-0.074-0.192-0.103-0.411-0.104-0.625c-0.061,0.206-0.148,0.408-0.274,0.571
		c-0.417,0.534-0.837,0.625-1.104,0.416c-0.27-0.208-0.282-0.639,0.137-1.173c0.126-0.161,0.303-0.295,0.488-0.402
		c-0.207,0.051-0.43,0.075-0.633,0.046c-0.67-0.093-0.959-0.411-0.913-0.746C27.71,11.915,28.077,11.689,28.746,11.784z
		 M24.534,16.6c-0.479,0.827-1.05,1.04-1.464,0.799c-0.413-0.239-0.517-0.836-0.038-1.664c0.147-0.251,0.366-0.475,0.604-0.66
		c-0.281,0.11-0.584,0.19-0.874,0.19c-0.956,0-1.423-0.386-1.423-0.865s0.467-0.865,1.423-0.865c0.29,0,0.593,0.08,0.874,0.19
		c-0.238-0.188-0.457-0.408-0.602-0.66c-0.481-0.828-0.378-1.426,0.035-1.664c0.417-0.239,0.985-0.029,1.464,0.799
		c0.145,0.251,0.225,0.554,0.269,0.851c0.043-0.297,0.127-0.6,0.271-0.851c0.478-0.829,1.047-1.038,1.46-0.799
		c0.416,0.238,0.517,0.836,0.041,1.664c-0.146,0.253-0.367,0.473-0.602,0.659c0.279-0.109,0.581-0.189,0.87-0.189
		c0.433,0,0.757,0.081,0.99,0.212c-0.369,0.231-0.653,0.712-0.618,1.494c-0.115,0.015-0.237,0.024-0.372,0.024
		c-0.292,0-0.595-0.08-0.873-0.19c0.237,0.186,0.458,0.407,0.603,0.66c0.093,0.161,0.16,0.311,0.209,0.454
		c-0.754-0.134-1.372-0.013-1.747,0.317c-0.116-0.232-0.194-0.493-0.232-0.758C24.759,16.047,24.679,16.348,24.534,16.6z
		 M28.991,21.266c-0.103-0.377-0.103-0.794-0.057-1.196c-0.16,0.371-0.369,0.735-0.646,1.01c-0.907,0.907-1.716,0.981-2.168,0.527
		c-0.456-0.454-0.381-1.263,0.526-2.17c0.276-0.274,0.639-0.484,1.008-0.646c-0.4,0.048-0.818,0.047-1.194-0.054
		c-1.239-0.331-1.708-0.996-1.542-1.615c0.165-0.619,0.904-0.96,2.143-0.628c0.377,0.101,0.742,0.312,1.064,0.552
		c-0.24-0.324-0.452-0.688-0.551-1.064c-0.333-1.234,0.006-1.971,0.62-2.141c-0.035,0.132-0.054,0.263-0.038,0.383
		c0.025,0.201,0.122,0.373,0.276,0.495c0.132,0.101,0.287,0.155,0.452,0.155c0.16,0,0.385-0.055,0.639-0.254
		c0.113,0.213,0.211,0.463,0.292,0.76c0.101,0.377,0.103,0.796,0.055,1.197c0.16-0.372,0.372-0.734,0.646-1.009
		c0.198-0.199,0.391-0.35,0.576-0.472l0.011-0.003l0.132-0.086c0.604-0.341,1.121-0.295,1.449,0.032
		c0.455,0.454,0.381,1.263-0.527,2.17c-0.272,0.276-0.638,0.484-1.008,0.645c0.4-0.047,0.819-0.045,1.197,0.055
		c1.238,0.333,1.705,0.996,1.54,1.616c-0.165,0.618-0.905,0.959-2.143,0.627c-0.377-0.101-0.739-0.309-1.062-0.55
		c0.24,0.323,0.449,0.688,0.55,1.062c0.331,1.239-0.008,1.978-0.628,2.145C29.984,22.975,29.322,22.505,28.991,21.266z"/>
	<circle cx="24.803" cy="14.399" r="0.691"/>
</g>
</svg>
