<?xml version="1.0" encoding="utf-8"?>
<!-- Generator: Adobe Illustrator 16.0.0, SVG Export Plug-In . SVG Version: 6.00 Build 0)  -->
<!DOCTYPE svg PUBLIC "-//W3C//DTD SVG 1.1//EN" "http://www.w3.org/Graphics/SVG/1.1/DTD/svg11.dtd">
<svg version="1.1" id="Layer_1" xmlns="http://www.w3.org/2000/svg" xmlns:xlink="http://www.w3.org/1999/xlink" x="0px" y="0px"
	 width="50px" height="50px" viewBox="0 0 50 50" enable-background="new 0 0 50 50" xml:space="preserve">
<g>
	<path d="M37.664,23.735c0-6.994-5.671-12.664-12.665-12.664c-6.993,0-12.664,5.67-12.664,12.664c0,2.2-0.704,6.798,0.282,8.6
		c2.151,3.93,7.587,6.594,12.382,6.594c4.795,0,10.232-2.664,12.382-6.594C38.368,30.534,37.664,25.935,37.664,23.735z
		 M17.168,23.735c0-1.397,1.47-2.529,3.282-2.529c1.814,0,3.284,1.132,3.284,2.529s-1.47,2.53-3.284,2.53
		C18.638,26.265,17.168,25.132,17.168,23.735z M25,34.644c-2.794,0-5.059-0.85-5.059-1.897c0-1.048,2.265-1.897,5.059-1.897
		s5.06,0.85,5.06,1.897C30.06,33.794,27.794,34.644,25,34.644z M29.549,26.265c-1.812,0-3.284-1.133-3.284-2.53
		s1.472-2.529,3.284-2.529c1.813,0,3.284,1.132,3.284,2.529S31.362,26.265,29.549,26.265z"/>
</g>
</svg>
