<?xml version="1.0" encoding="utf-8"?>
<!-- Generator: Adobe Illustrator 16.0.0, SVG Export Plug-In . SVG Version: 6.00 Build 0)  -->
<!DOCTYPE svg PUBLIC "-//W3C//DTD SVG 1.1//EN" "http://www.w3.org/Graphics/SVG/1.1/DTD/svg11.dtd">
<svg version="1.1" id="Layer_1" xmlns="http://www.w3.org/2000/svg" xmlns:xlink="http://www.w3.org/1999/xlink" x="0px" y="0px"
	 width="50px" height="50px" viewBox="0 0 50 50" enable-background="new 0 0 50 50" xml:space="preserve">
<g>
	<path d="M27.615,25.849c-0.196-0.01-0.393-0.019-0.592-0.026c-0.201-0.007-0.402-0.015-0.605-0.021
		c-0.207-0.005-0.415-0.009-0.625-0.012c-0.26-0.005-0.523-0.009-0.792-0.009s-0.532,0.003-0.792,0.009
		c-0.209,0.003-0.418,0.007-0.625,0.012c-0.204,0.005-0.404,0.013-0.605,0.021c-0.199,0.008-0.397,0.017-0.593,0.026
		c-7.639,0.365-13.474,2.297-13.474,4.631c0,2.594,7.203,4.697,16.089,4.697c8.885,0,16.088-2.103,16.088-4.697
		C41.089,28.146,35.253,26.214,27.615,25.849z M34.55,27.585c0,0.875-4.275,1.585-9.549,1.585c-5.274,0-9.55-0.71-9.55-1.585
		c0-0.255,0.371-0.495,1.015-0.708c0.685-0.127,1.427-0.239,2.218-0.334c-0.278,0.128-0.437,0.267-0.437,0.413
		c0,0.648,3.023,1.174,6.753,1.174c3.729,0,6.753-0.526,6.753-1.174c0-0.146-0.159-0.284-0.437-0.413
		c0.791,0.095,1.533,0.207,2.217,0.334C34.179,27.09,34.55,27.331,34.55,27.585z M30.596,26.624c0,0.409-2.505,0.74-5.595,0.74
		c-3.091,0-5.596-0.332-5.596-0.74c0-0.061,0.073-0.12,0.179-0.177c1.657-0.164,3.486-0.257,5.417-0.257s3.76,0.093,5.417,0.257
		C30.523,26.503,30.596,26.562,30.596,26.624z M25,32.112c-7.362,0-13.331-1.326-13.331-2.961c0-0.649,0.952-1.248,2.547-1.736
		c-0.472,0.275-0.742,0.571-0.742,0.881c0,1.389,5.16,2.515,11.525,2.515c6.365,0,11.525-1.125,11.525-2.515
		c0-0.311-0.27-0.606-0.742-0.881c1.595,0.488,2.547,1.087,2.547,1.736C38.331,30.787,32.362,32.112,25,32.112z"/>
	<path d="M25,14.823c-1.465,0-2.653,1.188-2.653,2.653c0,1.466,2.653,5.983,2.653,5.983s2.653-4.517,2.653-5.983
		C27.653,16.01,26.465,14.823,25,14.823z"/>
	<path d="M25,24.417c-0.25,0-0.453,0.327-0.453,0.729S25,26.791,25,26.791s0.453-1.242,0.453-1.645S25.25,24.417,25,24.417z"/>
</g>
</svg>
