<?xml version="1.0" encoding="utf-8"?>
<!-- Generator: Adobe Illustrator 16.0.0, SVG Export Plug-In . SVG Version: 6.00 Build 0)  -->
<!DOCTYPE svg PUBLIC "-//W3C//DTD SVG 1.1//EN" "http://www.w3.org/Graphics/SVG/1.1/DTD/svg11.dtd">
<svg version="1.1" id="Layer_1" xmlns="http://www.w3.org/2000/svg" xmlns:xlink="http://www.w3.org/1999/xlink" x="0px" y="0px"
	 width="50px" height="50px" viewBox="0 0 50 50" enable-background="new 0 0 50 50" xml:space="preserve">
<g>
	<path d="M30.751,8.22c0.479-0.189,0.776-0.567,0.776-0.567s-0.478-0.07-0.954,0.118c-0.478,0.189-0.775,0.567-0.775,0.567
		l0.025,0.003c-0.095,0.057-0.188,0.118-0.282,0.179c-0.023-0.06-0.158-0.387-0.46-0.644c-0.333-0.282-0.735-0.354-0.735-0.354
		s0.138,0.385,0.47,0.667c0.293,0.249,0.624,0.33,0.703,0.346c-0.266,0.173-0.528,0.353-0.782,0.548
		c-0.049-0.09-0.26-0.445-0.651-0.698c-0.446-0.29-0.943-0.316-0.943-0.316s0.226,0.445,0.671,0.736
		c0.357,0.232,0.744,0.293,0.885,0.309c-0.258,0.2-0.514,0.408-0.759,0.63c-0.128-0.18-0.384-0.49-0.762-0.711
		c-0.559-0.328-1.166-0.332-1.166-0.332s0.298,0.529,0.857,0.857c0.347,0.204,0.712,0.282,0.94,0.313
		c-0.302,0.28-0.593,0.578-0.874,0.889c-0.162-0.194-0.542-0.6-1.088-0.851c-0.737-0.34-1.496-0.269-1.496-0.269
		s0.438,0.623,1.176,0.963c0.516,0.238,1.036,0.274,1.306,0.274c-0.363,0.411-0.71,0.841-1.036,1.298
		c-0.207-0.236-0.609-0.636-1.17-0.895c-0.833-0.385-1.69-0.307-1.69-0.307s0.494,0.705,1.328,1.09
		c0.528,0.244,1.063,0.301,1.386,0.311c-0.373,0.539-0.714,1.112-1.033,1.705c-0.318-0.265-0.915-0.691-1.682-0.909
		c-1.156-0.328-2.248-0.052-2.248-0.052s0.784,0.81,1.94,1.138c0.713,0.204,1.4,0.176,1.823,0.125
		c-0.319,0.62-0.602,1.268-0.86,1.933c-0.342-0.291-1.073-0.836-2.03-1.1c-1.337-0.369-2.594-0.039-2.594-0.039
		s0.912,0.927,2.248,1.295c0.935,0.258,1.82,0.174,2.274,0.1c-0.77,2.07-1.213,4.325-1.315,6.614h-1.379
		c-0.673,0-1.222,0.548-1.222,1.222c0,0.252,0.08,0.491,0.219,0.688c-0.199,0.336-0.318,0.71-0.345,1.096l-0.967,13.803
		c-0.046,0.657,0.171,1.279,0.611,1.75s1.044,0.731,1.704,0.731h3.665c0.659,0,1.264-0.26,1.703-0.731
		c0.44-0.472,0.657-1.093,0.611-1.75l-0.966-13.803c-0.028-0.385-0.147-0.76-0.346-1.096c0.139-0.198,0.219-0.437,0.219-0.688
		c0-0.674-0.548-1.222-1.221-1.222h-1.29c0.103-2.159,0.436-4.309,1.051-6.323c0.391,0.303,1.034,0.721,1.835,0.943
		c1.336,0.368,2.594,0.038,2.594,0.038s-0.912-0.927-2.248-1.295c-0.789-0.217-1.543-0.19-2.035-0.132
		c0.215-0.653,0.458-1.289,0.732-1.904c0.309,0.261,0.919,0.711,1.716,0.937c1.156,0.329,2.248,0.052,2.248,0.052
		s-0.783-0.811-1.939-1.139c-0.764-0.217-1.492-0.17-1.903-0.113c0.271-0.583,0.565-1.147,0.892-1.688
		c0.205,0.236,0.609,0.639,1.172,0.898c0.833,0.385,1.69,0.306,1.69,0.306s-0.495-0.705-1.328-1.09
		c-0.543-0.25-1.091-0.303-1.41-0.311c0.286-0.46,0.592-0.904,0.922-1.326c0.181,0.208,0.541,0.566,1.044,0.798
		c0.738,0.34,1.496,0.27,1.496,0.27s-0.439-0.623-1.176-0.963c-0.474-0.219-0.953-0.268-1.238-0.275
		c0.253-0.314,0.52-0.617,0.797-0.907c0.1,0.154,0.376,0.53,0.813,0.787c0.559,0.328,1.167,0.331,1.167,0.331
		s-0.299-0.529-0.858-0.857c-0.415-0.244-0.855-0.309-1.055-0.325c0.221-0.228,0.446-0.45,0.682-0.661
		c0.096,0.149,0.292,0.418,0.601,0.619c0.447,0.29,0.944,0.315,0.944,0.315s-0.226-0.444-0.672-0.735
		c-0.279-0.181-0.577-0.259-0.763-0.292c0.208-0.182,0.424-0.356,0.645-0.524c0.057,0.125,0.193,0.384,0.438,0.59
		c0.333,0.282,0.734,0.354,0.734,0.354s-0.138-0.385-0.47-0.668c-0.236-0.2-0.502-0.291-0.639-0.329
		c0.1-0.076,0.205-0.145,0.308-0.218C30.133,8.356,30.441,8.344,30.751,8.22z M24.458,23.796c0.336,0,0.61,0.275,0.61,0.611
		c0,0.282-0.199,0.512-0.461,0.58c0.332,0.328,0.555,0.765,0.589,1.247l0.203,2.897h-2.277v7.33h-0.993v-7.33h-2.277l0.202-2.897
		c0.035-0.482,0.258-0.919,0.589-1.247c-0.262-0.068-0.461-0.298-0.461-0.58c0-0.336,0.275-0.611,0.611-0.611h1.354
		c-0.002,0.15-0.019,0.298-0.019,0.449v4.887h0.993v-4.887c0.002-0.15,0.016-0.299,0.02-0.449H24.458z"/>
</g>
</svg>
