<?xml version="1.0" encoding="utf-8"?>
<!-- Generator: Adobe Illustrator 16.0.0, SVG Export Plug-In . SVG Version: 6.00 Build 0)  -->
<!DOCTYPE svg PUBLIC "-//W3C//DTD SVG 1.1//EN" "http://www.w3.org/Graphics/SVG/1.1/DTD/svg11.dtd">
<svg version="1.1" id="Layer_1" xmlns="http://www.w3.org/2000/svg" xmlns:xlink="http://www.w3.org/1999/xlink" x="0px" y="0px"
	 width="50px" height="50px" viewBox="0 0 50 50" enable-background="new 0 0 50 50" xml:space="preserve">
<g>
	<path d="M36.195,13.924c0-0.569-0.388-1.06-1.153-1.321c0.533-0.609,0.624-1.227,0.338-1.721c-0.286-0.493-0.865-0.724-1.659-0.567
		c0.158-0.795-0.072-1.375-0.566-1.659c-0.495-0.284-1.113-0.195-1.723,0.338c-0.26-0.767-0.75-1.154-1.32-1.153
		c-0.569,0-1.061,0.387-1.322,1.153C28.18,8.459,27.562,8.37,27.07,8.655c-0.495,0.284-0.727,0.865-0.569,1.66
		c-0.793-0.157-1.374,0.074-1.657,0.566c-0.286,0.494-0.197,1.112,0.337,1.721c-0.768,0.261-1.154,0.751-1.154,1.321h-8.184h-1.582
		l0.654,1.44c0.958,2.106,0.51,3.412-0.108,5.22c-0.47,1.371-1.002,2.924-1.002,5.059c0,4.799,4.956,6.374,8.042,6.596v7.732
		c-4.236,0.185-7.022,2.189-7.022,2.189h7.022h1.24h7.023c0,0-2.786-2.005-7.023-2.189v-7.735c3.116-0.23,8.042-1.809,8.042-6.594
		c0-2.135-0.532-3.688-1.001-5.059c-0.072-0.211-0.141-0.415-0.207-0.613l0.191,0.037c0.568,0.001,1.059-0.386,1.319-1.154
		c0.609,0.534,1.228,0.625,1.723,0.34c0.494-0.285,0.725-0.866,0.566-1.661c0.794,0.158,1.375-0.073,1.659-0.566
		c0.287-0.495,0.195-1.113-0.338-1.721C35.808,14.985,36.195,14.494,36.195,13.924z M22.468,31.248c0,0-7.644-0.127-7.644-5.605
		c0-4.778,2.93-6.497,1.019-10.7h13.248c-1.911,4.204,1.02,5.922,1.02,10.7C30.11,31.121,22.468,31.248,22.468,31.248z
		 M30.11,16.049c-0.119,0-0.233-0.017-0.346-0.036c0.072-0.21,0.151-0.423,0.254-0.649l0.654-1.44h-1.582h-1.105
		c0-1.174,0.951-2.125,2.125-2.125s2.125,0.952,2.125,2.125C32.235,15.097,31.284,16.049,30.11,16.049z"/>
	<path d="M27.807,20.038h-10.68c-0.12,0.41-0.257,0.81-0.392,1.206c-0.439,1.28-0.893,2.604-0.893,4.399
		c0,4.317,6.26,4.574,6.626,4.585c0.469-0.012,6.622-0.257,6.622-4.585c0-1.795-0.453-3.119-0.891-4.399
		C28.064,20.848,27.927,20.448,27.807,20.038z"/>
</g>
</svg>
