<?xml version="1.0" encoding="utf-8"?>
<!-- Generator: Adobe Illustrator 16.0.0, SVG Export Plug-In . SVG Version: 6.00 Build 0)  -->
<!DOCTYPE svg PUBLIC "-//W3C//DTD SVG 1.1//EN" "http://www.w3.org/Graphics/SVG/1.1/DTD/svg11.dtd">
<svg version="1.1" id="Layer_1" xmlns="http://www.w3.org/2000/svg" xmlns:xlink="http://www.w3.org/1999/xlink" x="0px" y="0px"
	 width="50px" height="50px" viewBox="0 0 50 50" enable-background="new 0 0 50 50" xml:space="preserve">
<g>
	<path d="M42.486,19.229c-0.263-1.525-1.482-1.198-1.482-1.198s-5.642,1.51-6.5,1.74c-0.857,0.23-1.769,5.313-1.769,5.313
		l-9.586,6.294l0.108,0.404c0,0,7.899-2.115,9.434-2.526c1.039-0.277,1.885-7.068,2.43-7.182c0.545-0.115,6.551-1.368,6.551-1.368
		S42.751,20.755,42.486,19.229z"/>
	<path d="M22.787,31.19c-0.069-0.201-0.272-0.327-0.483-0.274c-0.152,0.037-0.235,0.162-0.271,0.305l-0.126-0.053l-0.142,0.06
		L21.7,31.075l0.101,0.042c0.229,0,0.415-0.187,0.415-0.415s-0.186-0.413-0.415-0.413c-0.229,0-0.414,0.185-0.414,0.413
		c0,0.096,0.047,0.173,0.101,0.243l-0.102-0.042c-0.19,0-0.326,0.143-0.374,0.317l-0.125-0.053l-0.022,0.011l0.038-0.191
		c0-0.339-0.274-0.613-0.613-0.613l-0.033,0.007c-0.044-0.158-0.146-0.287-0.287-0.365c0.188-0.104,0.32-0.299,0.32-0.528
		c0-0.338-0.274-0.613-0.613-0.613c-0.18,0-0.338,0.079-0.45,0.203c-0.202-0.143-0.451-0.227-0.718-0.198l-0.214,0.068
		c-0.11-0.183-0.279-0.318-0.473-0.407l0.208-0.164c0.054,0.281,0.292,0.499,0.591,0.499c0.339,0,0.613-0.274,0.613-0.612
		c0-0.339-0.274-0.614-0.613-0.614c-0.19,0-0.354,0.092-0.466,0.227c-0.055-0.282-0.292-0.499-0.591-0.499
		c-0.215,0-0.396,0.118-0.506,0.285l-0.031-0.017l0.008-0.077c-0.02-0.183-0.095-0.337-0.192-0.479
		c0.063-0.096,0.108-0.203,0.108-0.327c0-0.338-0.274-0.613-0.613-0.613c-0.271,0-0.493,0.179-0.574,0.421l-0.241-0.061
		l-0.093-0.166c0.064-0.097,0.11-0.208,0.11-0.332c0-0.339-0.274-0.614-0.613-0.614c-0.308,0-0.551,0.23-0.596,0.525l-0.199,0.062
		c-0.1-0.069-0.214-0.119-0.346-0.119c-0.339,0-0.613,0.275-0.613,0.613c0,0.242,0.143,0.447,0.347,0.547l-0.001,0.019
		c0.014,0.13,0.057,0.248,0.113,0.357l-0.123-0.012l0.004-0.014c0-0.339-0.275-0.614-0.614-0.614c-0.23,0-0.424,0.134-0.528,0.32
		c-0.297,0.043-0.528,0.288-0.528,0.596c0,0.145,0.057,0.271,0.141,0.376c-0.326,0.102-0.581,0.335-0.689,0.646l-0.235-0.047
		c-0.308,0-0.55,0.23-0.595,0.524c-0.075-0.056-0.161-0.102-0.263-0.102c-0.244,0-0.442,0.185-0.442,0.413
		c0,0.228,0.198,0.414,0.442,0.414c0.184,0,0.312-0.12,0.379-0.271l0.195,0.17l-0.114,0.217l-0.137,0.113l-0.209-0.042
		c-0.339,0-0.613,0.275-0.613,0.614l0.014,0.071l-0.017,0.003c-0.005-0.223-0.199-0.404-0.439-0.404
		c-0.243,0-0.441,0.185-0.441,0.413c0,0.205,0.168,0.356,0.376,0.391l-0.041,0.201l0.003,0.015
		c-0.077-0.126-0.193-0.226-0.359-0.226c-0.244,0-0.442,0.186-0.442,0.415c0,0.228,0.198,0.414,0.442,0.414
		c0.221,0,0.385-0.162,0.417-0.357c0.098,0.205,0.307,0.353,0.552,0.353c0.273,0,0.497-0.182,0.576-0.429
		c0.217,0.287,0.56,0.467,0.943,0.427l0.164-0.051l0.139,0.058c0.187,0,0.318-0.137,0.37-0.307c0.108-0.059,0.197-0.146,0.253-0.257
		c0.026,0.313,0.282,0.563,0.604,0.563l0.198-0.04c0.114,0.028,0.232,0.047,0.356,0.033l0.228-0.071l0.187,0.078
		c0.156,0,0.267-0.101,0.338-0.227h0.003l0.221-0.045c0.11,0.159,0.286,0.271,0.495,0.271c0.288,0,0.518-0.202,0.584-0.469
		l0.178,0.017c0.104-0.011,0.194-0.055,0.276-0.109c0.028,0.313,0.282,0.562,0.602,0.562c0.271,0,0.494-0.178,0.575-0.422
		c0.112,0.073,0.234,0.122,0.368,0.149c0.111,0.159,0.287,0.272,0.498,0.272c0.281,0,0.508-0.193,0.581-0.45
		c0.112,0.134,0.274,0.224,0.463,0.224l0.22-0.045c0.111,0.159,0.287,0.271,0.496,0.271c0.265,0,0.485-0.17,0.571-0.402l0.037,0.006
		l0.192-0.038l-0.008,0.021c0,0.228,0.186,0.414,0.414,0.414c0.19,0,0.326-0.142,0.374-0.316l0.124,0.051l0.143-0.059
		c0.045,0.179,0.183,0.324,0.376,0.324c0.188,0,0.322-0.141,0.372-0.312l0.092,0.013c0.055,0.165,0.183,0.299,0.366,0.299
		c0.229,0,0.415-0.187,0.415-0.414C23.15,31.374,22.988,31.221,22.787,31.19z"/>
	<circle cx="20.973" cy="30.101" r="0.415"/>
	<ellipse cx="8.355" cy="30.703" rx="0.443" ry="0.414"/>
	<ellipse cx="9.324" cy="29.932" rx="0.443" ry="0.414"/>
	<ellipse cx="7.913" cy="31.583" rx="0.441" ry="0.415"/>
</g>
</svg>
