<?xml version="1.0" encoding="utf-8"?>
<!-- Generator: Adobe Illustrator 16.0.0, SVG Export Plug-In . SVG Version: 6.00 Build 0)  -->
<!DOCTYPE svg PUBLIC "-//W3C//DTD SVG 1.1//EN" "http://www.w3.org/Graphics/SVG/1.1/DTD/svg11.dtd">
<svg version="1.1" id="Layer_1" xmlns="http://www.w3.org/2000/svg" xmlns:xlink="http://www.w3.org/1999/xlink" x="0px" y="0px"
	 width="50px" height="50px" viewBox="0 0 50 50" enable-background="new 0 0 50 50" xml:space="preserve">
<g>
	<path d="M36.912,25.138c2.407-1.015,2.367-4.049-0.343-4.614c2.386-1.942,0.421-4.418-1.74-3.925
		c0.947-2.435-1.092-3.924-3.235-2.831c0.041-1.941-2.428-3.071-3.801-1.624c-0.972-1.814-1.903-2.017-2.792-2.017
		s-1.82,0.202-2.792,2.017c-1.374-1.447-3.842-0.317-3.801,1.624c-2.144-1.093-4.182,0.396-3.235,2.831
		c-2.161-0.493-4.126,1.982-1.74,3.925c-2.71,0.565-2.75,3.6-0.344,4.614c-2.487,1.25-1.557,4.77,1.396,4.567
		c-2.104,1.659-0.994,4.135,1.82,3.958c4.49-0.283,5.258,6.21,8.697,6.21s4.207-6.493,8.697-6.21
		c2.814,0.177,3.924-2.299,1.82-3.958C38.47,29.907,39.4,26.388,36.912,25.138z M25,34.923c-2.916,0-5.279-2.363-5.279-5.279
		c0-2.914,2.363-5.278,5.279-5.278s5.279,2.364,5.279,5.278C30.279,32.56,27.916,34.923,25,34.923z"/>
</g>
</svg>
