<?xml version="1.0" encoding="utf-8"?>
<!-- Generator: Adobe Illustrator 16.0.0, SVG Export Plug-In . SVG Version: 6.00 Build 0)  -->
<!DOCTYPE svg PUBLIC "-//W3C//DTD SVG 1.1//EN" "http://www.w3.org/Graphics/SVG/1.1/DTD/svg11.dtd">
<svg version="1.1" id="Layer_1" xmlns="http://www.w3.org/2000/svg" xmlns:xlink="http://www.w3.org/1999/xlink" x="0px" y="0px"
	 width="50px" height="50px" viewBox="0 0 50 50" enable-background="new 0 0 50 50" xml:space="preserve">
<g>
	<polygon points="30.835,26.315 28.975,32.815 29.191,32.849 31.887,29.524 32.186,31.223 35.005,28.539 34.429,28.38 
		38.072,25.164 36.555,25.171 39.835,20.973 34.468,23.402 34.498,21.691 31.153,24.934 30.909,23.522 29.284,25.564 29.124,27.079 
			"/>
	<polygon points="13.446,25.171 11.928,25.164 15.571,28.38 14.995,28.539 17.814,31.223 18.113,29.524 20.809,32.848 
		21.012,32.817 19.117,26.539 20.92,27.212 20.757,25.617 19.091,23.522 18.847,24.934 15.502,21.691 15.532,23.402 10.165,20.973 	
		"/>
	<polygon points="27.563,32.285 28.22,33.292 29.841,27.632 28.423,28.264 29.129,21.581 27.705,22.715 27.848,14.539 26.66,16.294 
		25,8.669 23.528,16.504 22.104,14.348 22.221,22.214 20.836,20.746 21.611,28.331 20.111,27.771 21.779,33.293 22.437,32.285 
		23.802,35.505 25,36.762 26.198,35.505 	"/>
	<polygon points="38.967,32.813 43.749,30.058 35.512,30.886 35.545,29.02 31.832,32.555 31.562,31.016 28.45,34.853 27.659,33.64 
		26.139,37.228 26.778,40.748 30.639,41.331 34.606,39.852 33.299,39.216 37.022,36.731 35.469,36.312 40.653,32.806 	"/>
	<polygon points="21.55,34.853 18.438,31.016 18.169,32.555 14.455,29.02 14.488,30.886 6.251,30.058 11.033,32.813 9.348,32.806 
		14.531,36.312 12.978,36.731 16.701,39.216 15.394,39.852 19.361,41.331 23.222,40.748 23.861,37.228 22.341,33.64 	"/>
</g>
</svg>
