<?xml version="1.0" encoding="utf-8"?>
<!-- Generator: Adobe Illustrator 16.0.0, SVG Export Plug-In . SVG Version: 6.00 Build 0)  -->
<!DOCTYPE svg PUBLIC "-//W3C//DTD SVG 1.1//EN" "http://www.w3.org/Graphics/SVG/1.1/DTD/svg11.dtd">
<svg version="1.1" id="Layer_1" xmlns="http://www.w3.org/2000/svg" xmlns:xlink="http://www.w3.org/1999/xlink" x="0px" y="0px"
	 width="50px" height="50px" viewBox="0 0 50 50" enable-background="new 0 0 50 50" xml:space="preserve">
<g>
	<path d="M39.008,23.87c-1.604-0.152-11.374-0.504-12.778,0c-1.404,0.502-7.855,5.734-9.439,6.891s0.461,3.325,2.324,2.065
		c1.863-1.257,4.82-3.129,6.123-3.975c1.303-0.847,2.795,0.705,1.664,1.811c-0.84,0.821-5.857,4.479-6.922,4.528
		c-1.065,0.051-5.855,0-8.52,0c-2.661,0-2.395,3.222,0,3.222c1.598,0,11.78,0.554,12.779,0c0.998-0.553,8.52-6.34,9.443-6.547
		c0.927-0.206,3.135,0,5.325,0S40.611,24.02,39.008,23.87z"/>
	<path d="M18.334,18.924c1.917-0.791,7.042-2.25,10.25-2.25c-3.25,0.75-6.112,2.133-10.011,4.5
		c-3.406,2.069-5.563,5.267-7.973,6.915c9.032,0.226,29.838-11.781,29.838-16.747c-4.229,1.833-12.916,2.136-17.625,2.104
		c-9.116-0.062-12.991,3.433-13.229,13.493C11.429,23.362,13.418,20.952,18.334,18.924z"/>
</g>
</svg>
