<?xml version="1.0" encoding="utf-8"?>
<!-- Generator: Adobe Illustrator 16.0.0, SVG Export Plug-In . SVG Version: 6.00 Build 0)  -->
<!DOCTYPE svg PUBLIC "-//W3C//DTD SVG 1.1//EN" "http://www.w3.org/Graphics/SVG/1.1/DTD/svg11.dtd">
<svg version="1.1" id="Layer_1" xmlns="http://www.w3.org/2000/svg" xmlns:xlink="http://www.w3.org/1999/xlink" x="0px" y="0px"
	 width="50px" height="50px" viewBox="0 0 50 50" enable-background="new 0 0 50 50" xml:space="preserve">
<g>
	<path d="M40.474,31.818c0-1.701-6.929-0.616-15.475-0.616c-8.545,0-15.474-1.085-15.474,0.616c0,1.127,3.05,2.65,7.584,3.552
		c-2.189,0.659-3.715,1.568-3.715,2.592c0,0.341,0.274,0.633,0.613,0.633c0.342,0,0.616-0.259,0.616-0.599
		c0.179-0.525,2.423-1.562,5.81-2.114c1.443,0.158,2.976,0.249,4.565,0.249c1.591,0,3.125-0.091,4.57-0.249
		c3.384,0.55,5.626,1.579,5.802,2.08c0,0.341,0.277,0.617,0.615,0.617c0.342,0,0.617-0.276,0.617-0.617
		c0-1.024-1.526-1.934-3.714-2.592C37.425,34.468,40.474,32.945,40.474,31.818z"/>
	<path d="M25.816,25.853v-7.678c0.001-0.426-0.346-0.77-0.77-0.77c-0.426,0-0.772,0.345-0.77,0.77l-0.001,7.678
		c0,0.315,0.192,0.584,0.463,0.704l-0.003,3.107c0.002,0.171,0.14,0.308,0.31,0.308s0.308-0.137,0.31-0.308l-0.001-3.107
		C25.623,26.438,25.816,26.168,25.816,25.853z"/>
	<path d="M25,16.562c2.25-2.229-1.541-3.771,0-6.375C22.625,12.625,26.208,14.583,25,16.562z"/>
</g>
</svg>
