<?xml version="1.0" encoding="utf-8"?>
<!-- Generator: Adobe Illustrator 16.0.0, SVG Export Plug-In . SVG Version: 6.00 Build 0)  -->
<!DOCTYPE svg PUBLIC "-//W3C//DTD SVG 1.1//EN" "http://www.w3.org/Graphics/SVG/1.1/DTD/svg11.dtd">
<svg version="1.1" id="Layer_1" xmlns="http://www.w3.org/2000/svg" xmlns:xlink="http://www.w3.org/1999/xlink" x="0px" y="0px"
	 width="50px" height="50px" viewBox="0 0 50 50" enable-background="new 0 0 50 50" xml:space="preserve">
<g>
	<path d="M28.536,31.021l1.116-0.299L23.264,6.877l-4.502,1.207l6.389,23.845l1.392-0.372c-0.287,2.471-1.253,7.422-4.48,9.363
		c2.128,1.46,5.28,2.458,7.648,2.145c0.177-0.023,2.599-2.753,0.561-8.342c2.296,3.757,1.274,6.78,0.489,8.197
		C34.837,38.876,30.672,33.354,28.536,31.021z"/>
	<path d="M19.84,36.418c1.026-1.061,0.501-2.434-0.688-2.438c-0.993-0.005-1.757,1.236-1.616,2.32
		c0.129,1.009,1.326,2.332,3.093,2.701C19.449,38.222,19.07,37.211,19.84,36.418z"/>
	<path d="M22.42,36.59c1.021,0.062,1.501-0.831,0.971-1.458c-0.444-0.524-1.441-0.363-1.945,0.199
		c-0.473,0.52-0.629,1.746-0.023,2.838C21.3,37.197,21.66,36.544,22.42,36.59z"/>
</g>
</svg>
