<?xml version="1.0" encoding="utf-8"?>
<!-- Generator: Adobe Illustrator 16.0.0, SVG Export Plug-In . SVG Version: 6.00 Build 0)  -->
<!DOCTYPE svg PUBLIC "-//W3C//DTD SVG 1.1//EN" "http://www.w3.org/Graphics/SVG/1.1/DTD/svg11.dtd">
<svg version="1.1" id="Layer_1" xmlns="http://www.w3.org/2000/svg" xmlns:xlink="http://www.w3.org/1999/xlink" x="0px" y="0px"
	 width="50px" height="50px" viewBox="0 0 50 50" enable-background="new 0 0 50 50" xml:space="preserve">
<g>
	<path d="M41.129,28.021c-0.007-0.226-0.198-2.57-0.442-5.479c-1.696-3.487-4.517-6.316-7.988-8.027
		c-0.119-0.262-0.277-0.494-0.467-0.683c-0.662-0.662-1.61-0.821-2.607-0.49c-0.685-0.188-1.389-0.33-2.104-0.433
		c0.194-0.814,0.005-1.589-0.539-2.132c-0.409-0.409-0.938-0.625-1.528-0.625c-0.486,0-1.208,0.156-2.053,0.825
		c-0.607-1.515-1.778-2.294-3.003-1.963c-0.974,0.262-1.911,1.255-1.618,3.201c-1.625-0.237-2.879,0.415-3.201,1.62
		c-0.142,0.527-0.074,1.059,0.181,1.546c-2.763,1.73-5.008,4.208-6.444,7.161c-0.244,2.909-0.436,5.254-0.442,5.479
		c-0.016,0.5-0.533,2.74-0.125,4.31l0.097-0.207c0.135-0.09,0.739-0.397,0.931-0.229c0.194,0.168,0.119,0.227,0.13,0.964l-0.79,0.44
		c0.129,0.236,0.318,0.438,0.667,0.505c0.621,0.121,1.087-0.234,1.087-0.234s0.41,2.913,1.023,3.26
		c0.616,0.347,1.062,0.262,1.062,0.262s0.464,1.111,1.061,1.391c0.598,0.28,1.177,0.159,1.177,0.159s0.024,1.726,1.416,1.935
		c1.394,0.209,1.794-1.02,1.794-1.02s0.47,1.602,2.523,1.502c3.334-0.165,3.378-2.709,3.334-3.581
		c-0.044-0.872-0.156-2.378-0.081-5.138c0.071-2.655,0.295-5.648,0.178-7.231c0.341-0.168,0.684-0.386,1.019-0.67
		c0.082,0.227,0.176,0.435,0.275,0.634c-0.124,1.572,0.104,4.593,0.175,7.267c0.075,2.76-0.037,4.266-0.08,5.138
		c-0.045,0.871,0,3.416,3.333,3.581c2.054,0.1,2.524-1.502,2.524-1.502s0.399,1.229,1.793,1.02c1.393-0.209,1.417-1.935,1.417-1.935
		s0.578,0.121,1.176-0.159c0.597-0.28,1.061-1.391,1.061-1.391s0.446,0.085,1.062-0.262c0.613-0.348,1.024-3.26,1.024-3.26
		s0.465,0.355,1.086,0.234c0.35-0.067,0.538-0.269,0.668-0.505l-0.79-0.44c0.01-0.737-0.065-0.795,0.129-0.964
		c0.191-0.167,0.796,0.14,0.931,0.229l0.097,0.207C41.662,30.761,41.145,28.521,41.129,28.021z M11.796,36.367
		c-0.01-0.235-0.244-0.914,0.082-1.131c0.134-0.09,0.435-0.167,0.629,0c0.191,0.168,0.31,0.394,0.319,1.131H11.796z M13.709,37.889
		c-0.012-0.235,0-1.006,0.378-1.224c0.156-0.09,0.543-0.118,0.767,0.05c0.226,0.168,0.201,0.554,0.213,1.292L13.709,37.889z
		 M15.863,39.673c-0.013-0.225,0-0.964,0.437-1.173c0.18-0.087,0.625-0.112,0.883,0.048c0.259,0.161,0.231,0.531,0.244,1.238
		L15.863,39.673z M18.026,19.733c-0.571-0.571-0.478-1.589,0.664-2.732c0.349-0.346,0.803-0.611,1.271-0.812
		c-0.506,0.059-1.032,0.057-1.506-0.07c-1.561-0.417-2.151-1.253-1.942-2.033c0.208-0.78,1.139-1.209,2.699-0.791
		c0.473,0.128,0.932,0.391,1.34,0.695c-0.305-0.409-0.567-0.867-0.694-1.34c-0.418-1.56,0.009-2.49,0.79-2.7
		c0.78-0.208,1.616,0.383,2.035,1.942c0.127,0.475,0.128,1.002,0.066,1.507c0.203-0.468,0.468-0.924,0.814-1.271
		c1.142-1.142,2.16-1.236,2.731-0.666c0.308,0.307,0.413,0.745,0.278,1.259c-0.511-0.428-1.106-0.594-1.719-0.43
		c-0.973,0.262-1.887,1.396-1.261,3.732l0.068,0.225l-0.226-0.069l-0.244-0.051c0.128-0.249,0.177-0.541,0.099-0.832
		c-0.167-0.624-0.809-0.995-1.433-0.827c-0.624,0.167-0.995,0.809-0.826,1.433l0.104,0.207c-0.732,0.204-1.251,0.658-1.431,1.333
		c-0.167,0.624-0.002,1.259,0.462,1.786l0.204,0.19C19.391,20.22,18.531,20.24,18.026,19.733z M19.257,39.253
		c-0.027-0.383-0.002-1.64,0.874-1.995c0.363-0.147,1.258-0.191,1.777,0.083c0.519,0.273,0.464,0.902,0.492,2.104L19.257,39.253z
		 M30.744,39.253l-3.144,0.191c0.027-1.202-0.027-1.831,0.492-2.104c0.519-0.274,1.413-0.229,1.776-0.083
		C30.745,37.613,30.771,38.87,30.744,39.253z M30.171,22.004c-0.552-0.147-1.084-0.453-1.557-0.806
		c0.353,0.475,0.657,1.007,0.807,1.557c0.484,1.813-0.012,2.896-0.919,3.139c-0.908,0.242-1.88-0.446-2.365-2.26
		c-0.148-0.551-0.148-1.164-0.079-1.752c-0.237,0.544-0.542,1.076-0.946,1.479c-1.328,1.327-2.515,1.438-3.177,0.771
		c-0.665-0.664-0.556-1.848,0.771-3.177c0.404-0.401,0.934-0.71,1.479-0.944c-0.59,0.069-1.202,0.067-1.753-0.081
		c-1.813-0.485-2.5-1.457-2.258-2.364c0.243-0.908,1.325-1.406,3.139-0.92c0.551,0.149,1.084,0.454,1.558,0.809
		c-0.354-0.475-0.659-1.007-0.807-1.558c-0.486-1.814,0.011-2.895,0.917-3.139c0.908-0.242,1.88,0.445,2.366,2.258
		c0.147,0.552,0.148,1.165,0.078,1.752c0.236-0.544,0.544-1.074,0.946-1.477c1.327-1.328,2.512-1.437,3.177-0.775
		c0.665,0.666,0.555,1.85-0.772,3.178c-0.403,0.404-0.935,0.71-1.477,0.945c0.587-0.068,1.201-0.066,1.752,0.08
		c1.812,0.486,2.5,1.458,2.256,2.366C33.065,21.993,31.983,22.491,30.171,22.004z M22.037,20.312
		c0.091,0.028,0.174,0.062,0.27,0.087l0.229,0.053l-0.172,0.161l-0.07,0.078C22.203,20.581,22.117,20.456,22.037,20.312z
		 M32.573,39.786c0.013-0.708-0.015-1.077,0.244-1.238c0.258-0.16,0.703-0.135,0.883-0.048c0.437,0.209,0.449,0.949,0.437,1.173
		L32.573,39.786z M34.934,38.007c0.012-0.738-0.013-1.124,0.213-1.292c0.224-0.167,0.61-0.14,0.767-0.05
		c0.379,0.218,0.39,0.989,0.379,1.224L34.934,38.007z M38.204,36.367h-1.03c0.01-0.738,0.128-0.963,0.319-1.131
		c0.194-0.167,0.495-0.09,0.629,0C38.448,35.453,38.214,36.132,38.204,36.367z"/>
	<circle cx="26.742" cy="19.326" r="1.359"/>
</g>
</svg>
