<?xml version="1.0" encoding="utf-8"?>
<!-- Generator: Adobe Illustrator 16.0.0, SVG Export Plug-In . SVG Version: 6.00 Build 0)  -->
<!DOCTYPE svg PUBLIC "-//W3C//DTD SVG 1.1//EN" "http://www.w3.org/Graphics/SVG/1.1/DTD/svg11.dtd">
<svg version="1.1" id="Layer_1" xmlns="http://www.w3.org/2000/svg" xmlns:xlink="http://www.w3.org/1999/xlink" x="0px" y="0px"
	 width="50px" height="50px" viewBox="0 0 50 50" enable-background="new 0 0 50 50" xml:space="preserve">
<g>
	<path d="M20.875,18.242c-0.599,0-1.223,0.167-1.801,0.396c0.487-0.386,0.943-0.841,1.244-1.364c0.988-1.71,0.777-2.947-0.08-3.44
		c-0.856-0.494-2.032-0.061-3.02,1.651c-0.302,0.521-0.47,1.144-0.559,1.761c-0.09-0.617-0.258-1.24-0.559-1.761
		c-0.987-1.71-2.164-2.146-3.019-1.651c-0.859,0.493-1.069,1.729-0.08,3.44c0.3,0.52,0.756,0.978,1.245,1.365
		c-0.579-0.229-1.204-0.397-1.805-0.397c-1.977,0.001-2.94,0.801-2.94,1.791s0.964,1.79,2.94,1.789
		c0.601,0.001,1.225-0.164,1.805-0.396c-0.489,0.387-0.945,0.847-1.247,1.365c-0.987,1.713-0.775,2.949,0.082,3.441
		c0.854,0.495,2.032,0.059,3.019-1.651c0.302-0.521,0.469-1.144,0.559-1.761c0.091,0.616,0.259,1.24,0.56,1.759
		c0.987,1.711,2.164,2.148,3.019,1.653c0.857-0.493,1.067-1.73,0.079-3.442c-0.299-0.521-0.755-0.978-1.244-1.365
		c0.578,0.23,1.202,0.397,1.802,0.396c1.978,0.001,2.941-0.799,2.941-1.789C23.816,19.044,22.852,18.242,20.875,18.242z
		 M17.375,21.272c-0.685,0.395-1.56,0.161-1.955-0.523c-0.396-0.685-0.161-1.56,0.524-1.955c0.685-0.396,1.559-0.161,1.953,0.523
		C18.293,20.001,18.061,20.878,17.375,21.272z"/>
	<path d="M37.246,30.288c-0.776-0.206-1.643-0.208-2.471-0.113c0.766-0.331,1.514-0.763,2.084-1.333
		c1.874-1.875,2.028-3.547,1.091-4.485c-0.938-0.936-2.611-0.782-4.484,1.093c-0.568,0.568-1.002,1.317-1.334,2.084
		c0.098-0.829,0.097-1.694-0.111-2.473c-0.687-2.558-2.059-3.529-3.339-3.187c-1.279,0.344-1.982,1.87-1.295,4.43
		c0.208,0.778,0.641,1.528,1.138,2.199c-0.668-0.499-1.42-0.931-2.198-1.141c-2.56-0.686-4.085,0.018-4.428,1.299
		c-0.343,1.28,0.625,2.652,3.186,3.336c0.777,0.208,1.643,0.211,2.473,0.114c-0.769,0.33-1.516,0.765-2.086,1.333
		c-1.873,1.875-2.027,3.547-1.09,4.483c0.936,0.939,2.61,0.783,4.484-1.089c0.571-0.569,1.002-1.319,1.334-2.087
		c-0.097,0.83-0.095,1.695,0.113,2.473c0.685,2.559,2.057,3.531,3.338,3.189c1.28-0.344,1.982-1.871,1.297-4.431
		c-0.21-0.777-0.64-1.527-1.139-2.197c0.668,0.499,1.419,0.929,2.198,1.138c2.56,0.687,4.085-0.016,4.426-1.296
		C40.775,32.346,39.805,30.974,37.246,30.288z M31.664,32.996c-1.024,0.275-2.077-0.333-2.35-1.355
		c-0.276-1.023,0.332-2.076,1.357-2.35c1.023-0.276,2.075,0.333,2.349,1.356C33.292,31.668,32.686,32.723,31.664,32.996z"/>
	<path d="M33.434,11.164c-0.26,0.334-0.441,0.757-0.563,1.179c-0.004-0.44-0.06-0.895-0.219-1.29
		c-0.525-1.298-1.308-1.721-1.958-1.457c-0.648,0.262-0.921,1.108-0.396,2.408c0.16,0.394,0.435,0.76,0.739,1.079
		c-0.382-0.216-0.805-0.397-1.227-0.455c-1.386-0.195-2.143,0.272-2.24,0.966s0.501,1.351,1.888,1.544
		c0.42,0.06,0.876,0.006,1.305-0.098c-0.381,0.221-0.746,0.5-1.009,0.833c-0.863,1.105-0.835,1.994-0.284,2.424
		c0.553,0.432,1.421,0.244,2.283-0.861c0.261-0.335,0.442-0.755,0.567-1.179c0.001,0.441,0.06,0.895,0.217,1.292
		c0.525,1.298,1.309,1.717,1.957,1.455c0.652-0.26,0.923-1.108,0.396-2.408c-0.16-0.393-0.434-0.761-0.739-1.08
		c0.384,0.217,0.805,0.396,1.228,0.456c1.386,0.196,2.143-0.272,2.242-0.966c0.095-0.695-0.502-1.352-1.891-1.548
		c-0.42-0.059-0.875-0.003-1.304,0.101c0.38-0.223,0.746-0.498,1.007-0.834c0.864-1.104,0.838-1.993,0.284-2.424
		C35.166,9.869,34.297,10.058,33.434,11.164z M33.599,14.441c-0.078,0.556-0.592,0.94-1.145,0.863
		c-0.556-0.078-0.944-0.59-0.865-1.146c0.078-0.555,0.59-0.941,1.146-0.863C33.289,13.373,33.678,13.886,33.599,14.441z"/>
</g>
</svg>
