<?xml version="1.0" encoding="utf-8"?>
<!-- Generator: Adobe Illustrator 16.0.0, SVG Export Plug-In . SVG Version: 6.00 Build 0)  -->
<!DOCTYPE svg PUBLIC "-//W3C//DTD SVG 1.1//EN" "http://www.w3.org/Graphics/SVG/1.1/DTD/svg11.dtd">
<svg version="1.1" id="Layer_1" xmlns="http://www.w3.org/2000/svg" xmlns:xlink="http://www.w3.org/1999/xlink" x="0px" y="0px"
	 width="50px" height="50px" viewBox="0 0 50 50" enable-background="new 0 0 50 50" xml:space="preserve">
<g>
	<path d="M27.053,22.258c2.92-3.603,0.139-8.32-3.045-10.995c0.595,2.911-4.234,7.003-1.111,11c-3.995,0.208-6.979,0.98-6.979,1.912
		v12.589c0,1.088,4.066,1.972,9.081,1.972c5.016,0,9.082-0.883,9.082-1.972V24.175C34.081,23.24,31.074,22.461,27.053,22.258z
		 M24.999,25.749c-5.729,0-8.683-1.103-8.683-1.574c0-0.474,2.442-1.333,6.903-1.525c0.308,0.337,0.655,0.673,1.092,1.007
		c-0.444-0.401-0.727-0.795-0.907-1.186l-0.104-0.231c-0.688-1.959,1.354-3.852,1.748-6.178c1.396,2.259,2.568,4.44,1.649,6.312
		l-0.061,0.116c-0.135,0.25-0.3,0.494-0.516,0.731c0.223-0.186,0.412-0.38,0.597-0.574c4.502,0.186,6.964,1.054,6.964,1.53
		C33.683,24.646,30.728,25.749,24.999,25.749z"/>
	<path d="M25,20.376c-0.219,0-0.397,0.178-0.397,0.398v3.401c0,0.22,0.179,0.397,0.397,0.397c0.22,0,0.398-0.178,0.398-0.397v-3.401
		C25.398,20.554,25.22,20.376,25,20.376z"/>
</g>
</svg>
