<?xml version="1.0" encoding="utf-8"?>
<!-- Generator: Adobe Illustrator 16.0.0, SVG Export Plug-In . SVG Version: 6.00 Build 0)  -->
<!DOCTYPE svg PUBLIC "-//W3C//DTD SVG 1.1//EN" "http://www.w3.org/Graphics/SVG/1.1/DTD/svg11.dtd">
<svg version="1.1" id="Layer_1" xmlns="http://www.w3.org/2000/svg" xmlns:xlink="http://www.w3.org/1999/xlink" x="0px" y="0px"
	 width="50px" height="50px" viewBox="0 0 50 50" enable-background="new 0 0 50 50" xml:space="preserve">
<g>
	<path d="M31.313,16.199l-6.108-1.629V8.536c0-0.113-0.092-0.205-0.205-0.205s-0.205,0.092-0.205,0.205v6.034l-6.108,1.629
		c-0.328,0.087-0.523,0.425-0.436,0.753s0.423,0.526,0.753,0.437L25,15.79l5.996,1.599l0.159,0.021c0.272,0,0.521-0.182,0.594-0.457
		C31.837,16.624,31.642,16.286,31.313,16.199z"/>
	<rect x="19.358" y="17.614" width="0.41" height="7.181"/>
	<rect x="18.948" y="25.615" width="1.231" height="9.848"/>
	<rect x="22.077" y="16.794" width="0.41" height="7.181"/>
	<rect x="21.666" y="24.795" width="1.231" height="9.848"/>
	<rect x="27.513" y="16.794" width="0.41" height="7.181"/>
	<rect x="27.103" y="24.795" width="1.231" height="9.848"/>
	<rect x="30.231" y="17.614" width="0.41" height="7.181"/>
	<rect x="29.821" y="25.615" width="1.231" height="9.848"/>
	<path d="M25.205,35.688V16.127h-0.41v19.562C23.237,35.796,22,37.085,22,38.669c0,1.653,1.346,3,3,3s3-1.347,3-3
		C28,37.085,26.763,35.796,25.205,35.688z M25,40.438c-0.976,0-1.77-0.795-1.77-1.77c0-0.976,0.794-1.77,1.77-1.77
		s1.77,0.794,1.77,1.77C26.77,39.644,25.976,40.438,25,40.438z"/>
</g>
</svg>
