<?xml version="1.0" encoding="utf-8"?>
<!-- Generator: Adobe Illustrator 16.0.0, SVG Export Plug-In . SVG Version: 6.00 Build 0)  -->
<!DOCTYPE svg PUBLIC "-//W3C//DTD SVG 1.1//EN" "http://www.w3.org/Graphics/SVG/1.1/DTD/svg11.dtd">
<svg version="1.1" id="Layer_1" xmlns="http://www.w3.org/2000/svg" xmlns:xlink="http://www.w3.org/1999/xlink" x="0px" y="0px"
	 width="50px" height="50px" viewBox="0 0 50 50" enable-background="new 0 0 50 50" xml:space="preserve">
<g>
	<path d="M12.792,21.907c0.135-0.102,0.242-0.218,0.317-0.332c0.04,0.131,0.111,0.272,0.213,0.406
		c0.265,0.353,0.63,0.525,0.815,0.387c0.185-0.14,0.119-0.539-0.146-0.891c-0.102-0.135-0.218-0.242-0.333-0.316
		c0.131-0.041,0.272-0.113,0.407-0.215c0.352-0.265,0.525-0.629,0.386-0.814c-0.14-0.185-0.538-0.119-0.89,0.146
		c-0.135,0.102-0.243,0.218-0.318,0.333c-0.039-0.132-0.11-0.272-0.212-0.408c-0.266-0.352-0.63-0.524-0.815-0.385
		s-0.12,0.538,0.146,0.89c0.102,0.135,0.218,0.243,0.333,0.317c-0.132,0.04-0.273,0.112-0.408,0.213
		c-0.352,0.266-0.524,0.63-0.385,0.815S12.44,22.173,12.792,21.907z M12.919,20.752c0.189-0.143,0.457-0.104,0.6,0.083
		c0.142,0.188,0.104,0.457-0.084,0.6c-0.188,0.142-0.457,0.104-0.6-0.085C12.693,21.161,12.731,20.894,12.919,20.752z"/>
	<path d="M14.933,11.99c0.265,0,0.51-0.044,0.713-0.118c-0.074,0.203-0.118,0.448-0.118,0.713c0,0.692,0.295,1.254,0.658,1.254
		c0.364,0,0.659-0.562,0.659-1.254c0-0.265-0.044-0.51-0.118-0.713c0.203,0.074,0.448,0.117,0.713,0.117
		c0.692,0,1.254-0.294,1.254-0.658c0-0.363-0.562-0.658-1.254-0.658c-0.266,0-0.51,0.044-0.713,0.117
		c0.074-0.202,0.118-0.447,0.118-0.712c0-0.692-0.295-1.254-0.659-1.254c-0.363,0-0.658,0.562-0.658,1.254
		c0,0.265,0.044,0.51,0.118,0.712c-0.203-0.073-0.448-0.117-0.713-0.117c-0.692,0-1.254,0.295-1.254,0.659
		C13.679,11.695,14.24,11.99,14.933,11.99z M16.186,10.66c0.371,0,0.672,0.301,0.672,0.671c0,0.371-0.301,0.672-0.672,0.672
		c-0.37,0-0.671-0.301-0.671-0.672C15.515,10.961,15.815,10.66,16.186,10.66z"/>
	<path d="M19.991,12.855c0,0.221,0.341,0.399,0.762,0.399c0.161,0,0.311-0.026,0.434-0.071c-0.045,0.123-0.071,0.272-0.071,0.434
		c0,0.42,0.179,0.762,0.399,0.762c0.222,0,0.401-0.342,0.401-0.762c0-0.161-0.027-0.311-0.072-0.434
		c0.123,0.045,0.272,0.071,0.434,0.071c0.42,0,0.762-0.179,0.762-0.4c0-0.221-0.342-0.399-0.762-0.399
		c-0.162,0-0.311,0.026-0.434,0.07c0.045-0.122,0.072-0.271,0.072-0.433c0-0.421-0.18-0.762-0.401-0.762
		c-0.221,0-0.399,0.341-0.399,0.762c0,0.161,0.026,0.311,0.071,0.433c-0.123-0.044-0.272-0.07-0.434-0.07
		C20.332,12.455,19.991,12.634,19.991,12.855z M21.515,12.447c0.226,0,0.408,0.183,0.408,0.407c0,0.226-0.183,0.408-0.408,0.408
		c-0.225,0-0.407-0.183-0.407-0.408C21.107,12.63,21.29,12.447,21.515,12.447z"/>
	<path d="M25.379,27.166c-0.152,0-0.293,0.025-0.41,0.067c0.043-0.116,0.068-0.257,0.068-0.409c0-0.398-0.17-0.722-0.38-0.722
		c-0.209,0-0.379,0.323-0.379,0.722c0,0.152,0.025,0.293,0.068,0.409c-0.117-0.042-0.258-0.067-0.41-0.067
		c-0.398,0-0.722,0.17-0.722,0.38c0,0.209,0.323,0.378,0.722,0.378c0.152,0,0.293-0.025,0.41-0.067
		c-0.043,0.116-0.068,0.258-0.068,0.41c0,0.398,0.17,0.721,0.379,0.721c0.21,0,0.38-0.322,0.38-0.721
		c0-0.152-0.025-0.294-0.068-0.41c0.117,0.042,0.258,0.067,0.41,0.067c0.398,0,0.722-0.169,0.722-0.379
		C26.101,27.336,25.777,27.166,25.379,27.166z M24.657,27.932c-0.213,0-0.386-0.173-0.386-0.387c0-0.213,0.173-0.386,0.386-0.386
		c0.214,0,0.387,0.173,0.387,0.386C25.044,27.759,24.871,27.932,24.657,27.932z"/>
	<path d="M35.957,22.184c-0.189,0-0.363,0.032-0.508,0.084c0.053-0.145,0.084-0.318,0.084-0.507l-0.003-0.031l0.618-0.151
		c0.269-0.065,0.433-0.336,0.367-0.604s-0.338-0.434-0.604-0.367l-2.434,0.594c0.192-0.219,0.327-0.601,0.327-1.058
		c0-0.265-0.044-0.51-0.118-0.713c0.203,0.074,0.448,0.117,0.713,0.117c0.692,0,1.254-0.294,1.254-0.658
		c0-0.363-0.562-0.658-1.254-0.658c-0.266,0-0.51,0.044-0.713,0.117c0.074-0.202,0.118-0.447,0.118-0.712
		c0-0.692-0.295-1.254-0.659-1.254c-0.363,0-0.658,0.562-0.658,1.254c0,0.265,0.044,0.51,0.118,0.712
		c-0.203-0.073-0.448-0.117-0.713-0.117c-0.692,0-1.254,0.295-1.254,0.659c0,0.363,0.562,0.658,1.254,0.658
		c0.265,0,0.51-0.044,0.713-0.118c-0.074,0.203-0.118,0.448-0.118,0.713c0,0.569,0.203,1.03,0.476,1.184l-6.093,1.488l-0.17,0.076
		l-0.463,0.325c-0.042-0.238-0.146-0.508-0.326-0.768c-0.15-0.219-0.326-0.395-0.502-0.52c0.209-0.055,0.436-0.157,0.653-0.308
		c0.569-0.395,0.863-0.956,0.656-1.256c-0.206-0.299-0.836-0.222-1.405,0.172c-0.218,0.15-0.395,0.326-0.519,0.502
		c-0.056-0.209-0.158-0.436-0.31-0.653c-0.394-0.569-0.955-0.863-1.255-0.656c-0.299,0.206-0.222,0.836,0.172,1.405
		c0.15,0.218,0.326,0.395,0.503,0.52c-0.21,0.055-0.437,0.157-0.654,0.309c-0.569,0.394-0.863,0.955-0.657,1.254
		c0.207,0.3,0.837,0.223,1.406-0.171c0.218-0.15,0.395-0.326,0.52-0.502c0.055,0.209,0.158,0.435,0.309,0.652
		c0.182,0.263,0.399,0.459,0.61,0.582l-6.125,4.309l-0.151-0.047l-1.079-3.896c0.141-0.037,0.291-0.104,0.437-0.214
		c0.135-0.102,0.242-0.218,0.317-0.332c0.04,0.131,0.111,0.272,0.213,0.406c0.265,0.353,0.63,0.525,0.815,0.387
		c0.185-0.14,0.119-0.539-0.146-0.891c-0.102-0.135-0.218-0.242-0.333-0.316c0.131-0.041,0.272-0.113,0.407-0.215
		c0.352-0.265,0.525-0.629,0.386-0.814c-0.14-0.185-0.538-0.119-0.89,0.146c-0.135,0.102-0.243,0.218-0.318,0.333
		c-0.039-0.132-0.11-0.272-0.212-0.408c-0.266-0.352-0.63-0.524-0.815-0.385s-0.12,0.538,0.146,0.89
		c0.102,0.135,0.218,0.243,0.333,0.317c-0.132,0.04-0.273,0.112-0.408,0.213l-0.14,0.131l-1.708-6.169l1.061-1.442
		c0.229,0.164,0.579,0.277,0.995,0.277c0.265,0,0.51-0.044,0.713-0.118c-0.074,0.203-0.118,0.448-0.118,0.713
		c0,0.692,0.295,1.254,0.658,1.254c0.364,0,0.659-0.562,0.659-1.254c0-0.265-0.044-0.51-0.118-0.713
		c0.203,0.074,0.448,0.117,0.713,0.117c0.692,0,1.254-0.294,1.254-0.658c0-0.363-0.562-0.658-1.254-0.658
		c-0.266,0-0.51,0.044-0.713,0.117c0.074-0.202,0.118-0.447,0.118-0.712c0-0.692-0.295-1.254-0.659-1.254l-0.173,0.066l1.338-1.819
		c0.164-0.222,0.116-0.535-0.106-0.698c-0.22-0.164-0.534-0.117-0.698,0.106l-4.618,6.279c-0.091,0.123-0.12,0.281-0.079,0.43
		l1.856,6.705l-0.059-0.006c-0.266,0-0.51,0.044-0.713,0.117c0.074-0.202,0.118-0.447,0.118-0.712c0-0.692-0.295-1.254-0.659-1.254
		c-0.363,0-0.658,0.562-0.658,1.254c0,0.265,0.044,0.51,0.118,0.712c-0.203-0.073-0.448-0.117-0.713-0.117
		c-0.692,0-1.254,0.295-1.254,0.659c0,0.363,0.562,0.658,1.254,0.658c0.265,0,0.51-0.044,0.713-0.118
		c-0.074,0.203-0.118,0.448-0.118,0.713c0,0.692,0.295,1.254,0.658,1.254c0.364,0,0.659-0.562,0.659-1.254
		c0-0.265-0.044-0.51-0.118-0.713c0.203,0.074,0.448,0.117,0.713,0.117c0.146,0,0.279-0.02,0.409-0.043l0.853,3.077l-0.169,0.2
		l-6.15,11.188c-0.267,0.483-0.09,1.092,0.395,1.357c0.152,0.084,0.317,0.124,0.48,0.124c0.354,0,0.695-0.188,0.877-0.519
		l4.102-7.46c0.15,0.034,0.316,0.053,0.49,0.053c0.265,0,0.51-0.044,0.713-0.118c-0.074,0.203-0.118,0.448-0.118,0.713
		c0,0.692,0.295,1.254,0.658,1.254c0.364,0,0.659-0.562,0.659-1.254c0-0.265-0.044-0.51-0.118-0.713
		c0.203,0.074,0.448,0.117,0.713,0.117c0.692,0,1.254-0.294,1.254-0.658l-0.089-0.231c0.067,0.121,0.157,0.198,0.258,0.198
		c0.21,0,0.38-0.322,0.38-0.721c0-0.152-0.025-0.294-0.068-0.41c0.117,0.042,0.258,0.067,0.41,0.067
		c0.398,0,0.722-0.169,0.722-0.379c0-0.209-0.323-0.379-0.722-0.379c-0.152,0-0.293,0.025-0.41,0.067
		c0.043-0.116,0.068-0.257,0.068-0.409c0-0.398-0.17-0.722-0.38-0.722c-0.209,0-0.379,0.323-0.379,0.722
		c0,0.152,0.025,0.293,0.068,0.409c-0.117-0.042-0.258-0.067-0.41-0.067c-0.398,0-0.722,0.17-0.722,0.38
		c0,0.209,0.323,0.378,0.722,0.378c0.152,0,0.293-0.025,0.41-0.067c-0.043,0.116-0.068,0.258-0.068,0.41
		c0,0.191,0.041,0.364,0.105,0.493c-0.193-0.233-0.634-0.397-1.149-0.397c-0.266,0-0.51,0.044-0.713,0.117
		c0.074-0.202,0.118-0.447,0.118-0.712c0-0.692-0.295-1.254-0.659-1.254l-0.041,0.016l0.347-0.63l0.038-0.12l0.169,0.018
		c0.152,0,0.293-0.025,0.41-0.067c-0.043,0.116-0.068,0.258-0.068,0.41c0,0.398,0.17,0.721,0.379,0.721
		c0.21,0,0.38-0.322,0.38-0.721c0-0.152-0.025-0.294-0.068-0.41c0.117,0.042,0.258,0.067,0.41,0.067
		c0.398,0,0.722-0.169,0.722-0.379c0-0.209-0.323-0.379-0.722-0.379c-0.152,0-0.293,0.025-0.41,0.067
		c0.043-0.116,0.068-0.257,0.068-0.409l-0.021-0.189l5.597-3.938c-0.111,0.126-0.19,0.348-0.19,0.612
		c0,0.152,0.025,0.293,0.068,0.409c-0.117-0.042-0.258-0.067-0.41-0.067c-0.398,0-0.722,0.17-0.722,0.38
		c0,0.209,0.323,0.378,0.722,0.378c0.152,0,0.293-0.025,0.41-0.067c-0.043,0.116-0.068,0.258-0.068,0.41
		c0,0.398,0.17,0.721,0.379,0.721c0.21,0,0.38-0.322,0.38-0.721c0-0.152-0.025-0.294-0.068-0.41c0.117,0.042,0.258,0.067,0.41,0.067
		c0.398,0,0.722-0.169,0.722-0.379c0-0.209-0.323-0.379-0.722-0.379c-0.152,0-0.293,0.025-0.41,0.067
		c0.043-0.116,0.068-0.257,0.068-0.409c0-0.398-0.17-0.722-0.38-0.722l-0.072,0.027l0.417-0.293l7.427-1.813
		c0.014,0.109,0.02,0.227,0.053,0.317c-0.145-0.052-0.319-0.084-0.508-0.084c-0.493,0-0.894,0.211-0.894,0.47s0.4,0.47,0.894,0.47
		c0.188,0,0.363-0.032,0.508-0.085c-0.053,0.146-0.084,0.319-0.084,0.508c0,0.493,0.21,0.894,0.469,0.894
		c0.26,0,0.47-0.4,0.47-0.894c0-0.188-0.031-0.362-0.084-0.508c0.145,0.053,0.319,0.084,0.508,0.084c0.493,0,0.893-0.21,0.893-0.469
		S36.45,22.184,35.957,22.184z M32.476,18.89c0-0.37,0.301-0.671,0.671-0.671c0.371,0,0.672,0.301,0.672,0.671
		c0,0.371-0.301,0.672-0.672,0.672C32.776,19.562,32.476,19.261,32.476,18.89z M25.04,22.345c-0.306,0.211-0.724,0.135-0.935-0.171
		c-0.211-0.305-0.135-0.723,0.171-0.934c0.305-0.211,0.723-0.135,0.934,0.17C25.421,21.716,25.345,22.134,25.04,22.345z
		 M18.647,22.775c0.189-0.143,0.457-0.104,0.6,0.083c0.142,0.188,0.104,0.457-0.084,0.6c-0.188,0.142-0.457,0.104-0.6-0.085
		C18.422,23.185,18.46,22.917,18.647,22.775z M20.148,15.398c0,0.371-0.301,0.672-0.672,0.672c-0.37,0-0.671-0.301-0.671-0.672
		c0-0.37,0.301-0.671,0.671-0.671C19.848,14.728,20.148,15.028,20.148,15.398z M18.937,14.857c-0.203-0.073-0.448-0.117-0.713-0.117
		l-0.25,0.026l0.972-1.32c-0.074,0.202-0.127,0.435-0.127,0.699S18.862,14.655,18.937,14.857z M15.684,25.285
		c-0.37,0-0.671-0.301-0.671-0.672c0-0.37,0.301-0.671,0.671-0.671c0.371,0,0.672,0.301,0.672,0.671
		C16.355,24.984,16.055,25.285,15.684,25.285z M21.768,31.114c0-0.213,0.173-0.386,0.386-0.386c0.214,0,0.387,0.173,0.387,0.386
		c0,0.214-0.173,0.387-0.387,0.387C21.94,31.501,21.768,31.328,21.768,31.114z M27.241,25.472c0,0.214-0.173,0.387-0.387,0.387
		c-0.213,0-0.386-0.173-0.386-0.387c0-0.213,0.173-0.386,0.386-0.386C27.068,25.086,27.241,25.259,27.241,25.472z M20.148,32.59
		c0,0.371-0.301,0.672-0.672,0.672c-0.37,0-0.671-0.301-0.671-0.672c0-0.37,0.301-0.671,0.671-0.671
		C19.848,31.919,20.148,32.22,20.148,32.59z M18.937,32.049c-0.15-0.055-0.329-0.085-0.517-0.102l0.413-0.753l-0.015,0.143
		C18.818,31.602,18.862,31.847,18.937,32.049z M21.097,28.987c0,0.214-0.173,0.387-0.387,0.387c-0.213,0-0.386-0.173-0.386-0.387
		c0-0.213,0.173-0.386,0.386-0.386C20.924,28.602,21.097,28.774,21.097,28.987z M20.399,28.676l-0.146-0.024l0.128-0.09
		L20.399,28.676z M35.063,23.132c-0.264,0-0.478-0.215-0.478-0.479s0.214-0.479,0.478-0.479c0.265,0,0.479,0.215,0.479,0.479
		S35.328,23.132,35.063,23.132z"/>
	<path d="M37.353,15.913c-0.189,0-0.363,0.032-0.508,0.084c0.053-0.145,0.084-0.318,0.084-0.507c0-0.493-0.21-0.894-0.47-0.894
		c-0.259,0-0.469,0.4-0.469,0.894c0,0.188,0.031,0.362,0.084,0.507c-0.145-0.052-0.319-0.084-0.508-0.084
		c-0.493,0-0.894,0.211-0.894,0.47s0.4,0.47,0.894,0.47c0.188,0,0.363-0.032,0.508-0.085c-0.053,0.146-0.084,0.319-0.084,0.508
		c0,0.493,0.21,0.894,0.469,0.894c0.26,0,0.47-0.4,0.47-0.894c0-0.188-0.031-0.362-0.084-0.508c0.145,0.053,0.319,0.084,0.508,0.084
		c0.493,0,0.893-0.21,0.893-0.469S37.846,15.913,37.353,15.913z M36.459,16.861c-0.264,0-0.478-0.215-0.478-0.479
		s0.214-0.479,0.478-0.479c0.265,0,0.479,0.215,0.479,0.479S36.724,16.861,36.459,16.861z"/>
</g>
</svg>
