<?xml version="1.0" encoding="utf-8"?>
<!-- Generator: Adobe Illustrator 16.0.0, SVG Export Plug-In . SVG Version: 6.00 Build 0)  -->
<!DOCTYPE svg PUBLIC "-//W3C//DTD SVG 1.1//EN" "http://www.w3.org/Graphics/SVG/1.1/DTD/svg11.dtd">
<svg version="1.1" id="Layer_1" xmlns="http://www.w3.org/2000/svg" xmlns:xlink="http://www.w3.org/1999/xlink" x="0px" y="0px"
	 width="50px" height="50px" viewBox="0 0 50 50" enable-background="new 0 0 50 50" xml:space="preserve">
<g>
	<path d="M44.561,21.569c-0.363-0.419-0.992-0.464-1.411-0.104l-9.045,7.799H30.25c0.146-0.045,0.292-0.099,0.43-0.18l9-5.279
		c0.953-0.56,1.272-1.785,0.714-2.737c-0.561-0.953-1.786-1.271-2.737-0.714l-9,5.279c-0.301,0.177-0.529,0.423-0.696,0.702
		l-9.048-2.749c-0.271-0.083-0.563-0.069-0.827,0.036l-10,4c-0.642,0.256-0.953,0.983-0.696,1.624
		c0.195,0.489,0.664,0.786,1.16,0.786c0.155,0,0.312-0.028,0.464-0.09l1.076-0.431l-0.073,0.05L6.4,33.226
		c-0.388,0.393-0.384,1.026,0.01,1.414c0.194,0.192,0.448,0.288,0.702,0.288c0.258,0,0.517-0.1,0.712-0.298l3.321-3.366h23.056
		l5.944,3.524c0.16,0.095,0.335,0.14,0.509,0.14c0.342,0,0.675-0.175,0.861-0.49c0.281-0.475,0.125-1.088-0.351-1.37l-4.982-2.954
		l8.273-7.133C44.874,22.619,44.921,21.988,44.561,21.569z M10.728,29.264l-0.036,0.007l7.914-3.165l10.393,3.158H10.728z"/>
	<circle cx="37.525" cy="16.155" r="3.612"/>
</g>
</svg>
