<?xml version="1.0" encoding="utf-8"?>
<!-- Generator: Adobe Illustrator 16.0.0, SVG Export Plug-In . SVG Version: 6.00 Build 0)  -->
<!DOCTYPE svg PUBLIC "-//W3C//DTD SVG 1.1//EN" "http://www.w3.org/Graphics/SVG/1.1/DTD/svg11.dtd">
<svg version="1.1" id="Layer_1" xmlns="http://www.w3.org/2000/svg" xmlns:xlink="http://www.w3.org/1999/xlink" x="0px" y="0px"
	 width="50px" height="50px" viewBox="0 0 50 50" enable-background="new 0 0 50 50" xml:space="preserve">
<g>
	<path d="M10.271,21.086c0.614,3.356,2.459,8.692,7.189,11.549v1.962h0.037c0.368,1.014,3.586,1.806,7.503,1.806
		s7.135-0.792,7.503-1.806h0.037v-1.962c4.73-2.857,6.575-8.193,7.189-11.549C37.16,23.397,31.058,24.597,25,24.597
		S12.84,23.397,10.271,21.086z"/>
	<path d="M11.256,20.597c2.315-1.765,7.595-3,13.744-3c6.15,0,11.429,1.235,13.744,3c0.804-0.613,1.256-1.289,1.256-2
		c0-2.762-6.715-5-15-5c-8.284,0-15,2.238-15,5C10,19.309,10.452,19.984,11.256,20.597z"/>
	<path d="M31.623,21.419c0.153-0.382-0.28-0.792-1.423-0.998c-0.348-0.061-0.733-0.062-1.104-0.033
		c0.342-0.099,0.675-0.228,0.931-0.398c0.837-0.561,0.906-1.06,0.487-1.341c-0.419-0.28-1.167-0.234-2.003,0.326
		c-0.254,0.17-0.449,0.394-0.598,0.623c0.044-0.248,0.044-0.506-0.05-0.739c-0.307-0.764-0.919-1.054-1.491-0.953
		c-0.572,0.103-0.886,0.559-0.579,1.324c0.094,0.233,0.286,0.457,0.509,0.657c-0.299-0.149-0.636-0.278-0.982-0.341
		c-0.473-0.084-0.846-0.084-1.156-0.044c-0.154-0.044-0.341-0.076-0.592-0.076c-0.202,0-0.411,0.038-0.605,0.089
		c0.164-0.087,0.316-0.189,0.418-0.307c0.332-0.385,0.261-0.662-0.026-0.773c-0.288-0.111-0.684-0.014-1.016,0.371
		c-0.101,0.117-0.158,0.258-0.188,0.396c-0.03-0.138-0.086-0.279-0.188-0.396c-0.331-0.384-0.728-0.482-1.014-0.371
		c-0.289,0.111-0.36,0.388-0.027,0.773c0.101,0.117,0.254,0.22,0.418,0.307c-0.194-0.052-0.404-0.089-0.606-0.089
		c-0.664,0-0.987,0.18-0.987,0.402c0,0.222,0.323,0.402,0.987,0.402c0.202,0,0.412-0.037,0.606-0.089
		c-0.164,0.086-0.317,0.19-0.419,0.307c-0.332,0.385-0.26,0.663,0.028,0.773c0.286,0.112,0.683,0.014,1.014-0.371
		c0.102-0.117,0.157-0.257,0.188-0.396c0.03,0.138,0.088,0.278,0.188,0.396c0.332,0.384,0.728,0.482,1.016,0.371
		c0.287-0.11,0.357-0.389,0.025-0.773c-0.101-0.117-0.253-0.22-0.418-0.307c0.119,0.032,0.244,0.054,0.37,0.07
		c0.102,0.291,0.559,0.565,1.43,0.721c0.347,0.062,0.733,0.062,1.105,0.034c-0.344,0.098-0.679,0.229-0.934,0.398
		c-0.836,0.561-0.905,1.06-0.487,1.34c0.419,0.282,1.167,0.234,2.004-0.325c0.256-0.17,0.449-0.394,0.597-0.624
		c-0.043,0.248-0.042,0.507,0.052,0.739c0.306,0.765,0.918,1.056,1.491,0.954c0.57-0.103,0.886-0.56,0.579-1.325
		c-0.094-0.232-0.285-0.457-0.509-0.657c0.299,0.15,0.633,0.278,0.981,0.341C30.789,22.012,31.472,21.802,31.623,21.419z
		 M22.396,20.107c-0.23,0.089-0.524,0.036-0.656-0.118c-0.133-0.154-0.054-0.351,0.177-0.439c0.229-0.088,0.523-0.036,0.656,0.118
		C22.704,19.822,22.627,20.018,22.396,20.107z M27.705,21.23c-0.456,0.083-0.927-0.099-1.05-0.405
		c-0.123-0.305,0.148-0.62,0.606-0.702c0.457-0.082,0.928,0.1,1.051,0.406C28.434,20.833,28.162,21.149,27.705,21.23z"/>
</g>
</svg>
