<?xml version="1.0" encoding="utf-8"?>
<!-- Generator: Adobe Illustrator 16.0.0, SVG Export Plug-In . SVG Version: 6.00 Build 0)  -->
<!DOCTYPE svg PUBLIC "-//W3C//DTD SVG 1.1//EN" "http://www.w3.org/Graphics/SVG/1.1/DTD/svg11.dtd">
<svg version="1.1" id="Layer_1" xmlns="http://www.w3.org/2000/svg" xmlns:xlink="http://www.w3.org/1999/xlink" x="0px" y="0px"
	 width="50px" height="50px" viewBox="0 0 50 50" enable-background="new 0 0 50 50" xml:space="preserve">
<g>
	<path d="M39.925,24.08l-1.989-0.398c-2.525-0.505-3.008-2.31-1.073-4.01l1.522-1.34c1.937-1.7,1.523-2.416-0.918-1.591l-1.922,0.65
		c-2.439,0.826-3.763-0.496-2.938-2.937l0.65-1.92c0.825-2.441,0.109-2.854-1.591-0.919l-1.339,1.522
		c-1.701,1.936-3.506,1.452-4.012-1.075l-0.397-1.988c-0.506-2.527-1.333-2.527-1.839,0l-0.396,1.988
		c-0.506,2.527-2.311,3.011-4.012,1.075l-1.339-1.522c-1.7-1.935-2.417-1.522-1.59,0.919l0.649,1.92
		c0.826,2.441-0.497,3.762-2.937,2.937l-1.921-0.65c-2.439-0.825-2.854-0.109-0.918,1.591l1.523,1.34
		c1.938,1.701,1.452,3.505-1.073,4.01l-1.991,0.398c-2.526,0.506-2.526,1.332,0,1.837l1.989,0.397
		c2.525,0.505,3.011,2.31,1.075,4.011l-1.524,1.34c-1.935,1.701-1.523,2.417,0.919,1.591l1.92-0.651
		c2.44-0.826,3.763,0.497,2.938,2.936l-0.651,1.923c-0.825,2.441-0.108,2.854,1.592,0.918l1.339-1.524
		c1.701-1.935,3.506-1.452,4.011,1.075l0.399,1.991c0.504,2.526,1.331,2.526,1.836,0l0.399-1.991
		c0.505-2.527,2.309-3.01,4.011-1.075l1.339,1.525c1.701,1.935,2.416,1.522,1.591-0.919l-0.65-1.923
		c-0.825-2.439,0.496-3.762,2.938-2.936l1.922,0.651c2.441,0.826,2.854,0.11,0.92-1.591l-1.524-1.34
		c-1.935-1.701-1.45-3.505,1.075-4.011l1.987-0.397C42.449,25.413,42.449,24.586,39.925,24.08z M25.001,30.875
		c-3.246,0-5.877-2.63-5.877-5.875c0-3.246,2.631-5.875,5.877-5.875c3.245,0,5.874,2.63,5.874,5.875
		C30.875,28.245,28.246,30.875,25.001,30.875z"/>
</g>
</svg>
