<?xml version="1.0" encoding="utf-8"?>
<!-- Generator: Adobe Illustrator 16.0.0, SVG Export Plug-In . SVG Version: 6.00 Build 0)  -->
<!DOCTYPE svg PUBLIC "-//W3C//DTD SVG 1.1//EN" "http://www.w3.org/Graphics/SVG/1.1/DTD/svg11.dtd">
<svg version="1.1" id="Layer_1" xmlns="http://www.w3.org/2000/svg" xmlns:xlink="http://www.w3.org/1999/xlink" x="0px" y="0px"
	 width="50px" height="50px" viewBox="0 0 50 50" enable-background="new 0 0 50 50" xml:space="preserve">
<g>
	<path d="M36.385,27.457H36.09c0.705-0.388,1.341-0.745,1.701-0.966c1.348-0.831,1.348-1.876,1.348-3.034
		c0-1.51-1.158-2.74-2.63-2.885c0.663-0.365,1.254-0.699,1.596-0.909c1.348-0.831,1.348-1.876,1.348-3.034
		c0-1.606-1.307-2.914-2.914-2.914H19.074c-1.41,0-7.042,2.661-7.821,4.471l-0.008,0.026c-0.237,0.421-0.384,0.9-0.384,1.417
		c0,1.606,1.307,2.914,2.914,2.914h0.048c-1.368,0.801-2.555,1.71-2.883,2.471l-0.008,0.026c-0.237,0.421-0.384,0.9-0.384,1.417
		c0,1.606,1.307,2.914,2.914,2.914h0.666c-1.43,0.821-2.688,1.77-3.028,2.557l-0.008,0.025c-0.237,0.421-0.384,0.9-0.384,1.417
		c0,1.606,1.307,2.914,2.914,2.914h3.097h14.666h1.181l0.233-0.058c0.164-0.086,4.023-2.127,5.151-2.822
		c1.348-0.831,1.348-1.876,1.348-3.034C39.298,28.764,37.991,27.457,36.385,27.457z M36.538,14.716c1.055,0,1.914,0.858,1.914,1.964
		c0,1.062,0,1.595-0.872,2.132c-0.578,0.356-1.941,1.101-3.113,1.731h-0.176c0.096-0.289,0.161-0.593,0.161-0.914
		c0-1.606-1.307-2.914-2.914-2.914H14.425c1.729-1.038,3.917-2,4.648-2H36.538z M17.532,22.543h14.006h1.181l0.233-0.058
		c0.071-0.037,0.833-0.44,1.767-0.942h1.506c1.055,0,1.914,0.858,1.914,1.964c0,1.062,0,1.595-0.872,2.132
		c-0.604,0.373-2.068,1.17-3.273,1.818h-0.042c0.115-0.313,0.188-0.647,0.188-1c0-1.606-1.307-2.914-2.914-2.914H14.112
		c0.591-0.355,1.232-0.698,1.854-1H17.532z M37.426,32.553c-0.613,0.378-2.11,1.193-3.325,1.845
		c0.122-0.321,0.197-0.665,0.197-1.027c0-1.606-1.307-2.914-2.914-2.914H14.271c0.647-0.389,1.355-0.766,2.032-1.086h0.916h14.006
		h1.181l0.233-0.058c0.067-0.035,0.748-0.396,1.605-0.855h2.14c1.055,0,1.914,0.858,1.914,1.964
		C38.299,31.482,38.299,32.016,37.426,32.553z"/>
</g>
</svg>
