<?xml version="1.0" encoding="utf-8"?>
<!-- Generator: Adobe Illustrator 16.0.0, SVG Export Plug-In . SVG Version: 6.00 Build 0)  -->
<!DOCTYPE svg PUBLIC "-//W3C//DTD SVG 1.1//EN" "http://www.w3.org/Graphics/SVG/1.1/DTD/svg11.dtd">
<svg version="1.1" id="Layer_1" xmlns="http://www.w3.org/2000/svg" xmlns:xlink="http://www.w3.org/1999/xlink" x="0px" y="0px"
	 width="50px" height="50px" viewBox="0 0 50 50" enable-background="new 0 0 50 50" xml:space="preserve">
<g>
	<path d="M36.371,34.811c-1.074-1.925-1.707-3.475-1.882-4.605c-0.506-3.274-1.597-5.283-2.394-6.75
		c-0.228-0.418-0.442-0.812-0.614-1.183c-0.107-0.23-0.239-0.51-0.39-0.828c-0.529-1.12-1.254-2.655-1.905-4.177
		c-0.17-0.398-0.324-0.798-0.471-1.18c-0.621-1.609-1.444-3.025-2.417-2.83c-0.208,0.042-0.372,0.134-0.465,0.305
		c-0.331,0.601,0.205,1.857,1.125,3.855c0.553,1.199,1.241,2.693,1.071,3.107l-0.028,0.054c-0.289-0.071-1.022-1.667-1.559-2.832
		l-0.569-1.231c-1.534-3.311-2.785-5.841-3.752-5.841l-0.233,0.049c-0.263,0.12-0.442,0.32-0.534,0.599
		c-0.41,1.249,1.12,3.968,2.467,6.364c0.833,1.48,1.87,3.321,1.646,3.713c-0.283,0-1.374-1.243-3.22-4.671
		c-1.588-2.941-3.222-5.662-4.404-5.662c-0.222,0-0.418,0.091-0.582,0.268c-0.84,0.907,0.638,3.319,2.203,5.875
		c0.259,0.424,0.516,0.841,0.753,1.241c2.054,3.462,2.13,4.372,2.066,4.602l-0.032,0.056l-0.136,0.037
		c-0.475,0-1.146-1.214-1.738-2.284l-0.42-0.763c-1.445-2.63-2.637-4.644-3.708-4.644c-0.246,0-0.466,0.104-0.656,0.312
		c-0.84,0.917,0.542,3.246,2.144,5.944c0.726,1.223,1.475,2.485,2.006,3.616l0.071,0.148c0.622,1.317,1.561,3.31,1.345,4.501
		c-0.033,0.183-0.121,0.35-0.54,0.35c-0.46,0-1.121-0.208-1.759-0.412c-0.646-0.205-1.255-0.398-1.721-0.408h-0.073
		c-1.008,0-2.584,0.47-3.234,1.146c-0.208,0.215-0.309,0.439-0.301,0.666c0.016,0.417,0.681,0.633,2.317,1.125
		c0.71,0.214,1.515,0.456,2.301,0.745c1.48,0.547,2.859,1.353,3.6,1.786c0.156,0.093,0.283,0.165,0.373,0.215
		c1.232,0.681,2.335,0.954,3.222,1.175c0.369,0.093,0.687,0.171,0.963,0.267c0.723,0.249,1.552,1.077,2.537,2.538l0.106,0.157
		l7.516-4.339L36.371,34.811z M26.459,15.116c-0.101-0.248-0.591-0.991-0.011-1.324c0.581-0.332,0.922,0.411,1.136,0.763
		S26.641,15.562,26.459,15.116z M21.953,12.719c-0.148-0.286-0.52-1.092,0.06-1.425c0.58-0.331,1.069,0.484,1.221,0.722
		C23.484,12.406,22.203,13.203,21.953,12.719z M17.641,13.062c-0.141-0.245-0.532-1.034,0.017-1.417
		c0.548-0.382,1.128,0.273,1.312,0.573C19.266,12.703,18,13.688,17.641,13.062z M16.047,17.438c-0.056-0.167-0.57-1.025-0.021-1.407
		c0.549-0.383,1.12,0.452,1.271,0.642C17.547,16.984,16.219,17.953,16.047,17.438z M16.031,32.062
		c-0.341-0.075-1.952-0.44-1.952-0.746c0-0.67,2.199-0.456,2.382-0.379S16.373,32.138,16.031,32.062z"/>
</g>
</svg>
