<?xml version="1.0" encoding="utf-8"?>
<!-- Generator: Adobe Illustrator 16.0.0, SVG Export Plug-In . SVG Version: 6.00 Build 0)  -->
<!DOCTYPE svg PUBLIC "-//W3C//DTD SVG 1.1//EN" "http://www.w3.org/Graphics/SVG/1.1/DTD/svg11.dtd">
<svg version="1.1" id="Layer_1" xmlns="http://www.w3.org/2000/svg" xmlns:xlink="http://www.w3.org/1999/xlink" x="0px" y="0px"
	 width="50px" height="50px" viewBox="0 0 50 50" enable-background="new 0 0 50 50" xml:space="preserve">
<g>
	<path d="M38.632,22.525l-0.927-0.617c-0.174-0.117-0.264-0.451-0.171-0.64l0.493-0.996c0.473-0.959,0.469-1.982-0.012-2.816
		c-0.482-0.834-1.369-1.352-2.431-1.419l-1.11-0.072c-0.209-0.014-0.455-0.26-0.468-0.47l-0.073-1.106
		c-0.105-1.647-1.254-2.798-2.795-2.798c-0.485,0-0.969,0.118-1.437,0.35l-0.999,0.494c-0.167,0.082-0.535-0.015-0.639-0.171
		l-0.617-0.926C26.882,10.488,25.991,10,25.003,10s-1.879,0.488-2.444,1.338l-0.618,0.927c-0.102,0.155-0.479,0.249-0.639,0.171
		l-0.997-0.492c-0.47-0.233-0.954-0.353-1.44-0.353c-1.539,0-2.688,1.15-2.795,2.798l-0.071,1.109
		c-0.015,0.207-0.259,0.456-0.466,0.468l-1.113,0.071c-1.065,0.067-1.951,0.585-2.433,1.419c-0.481,0.834-0.487,1.857-0.013,2.814
		l0.492,0.998c0.093,0.188,0.004,0.522-0.17,0.64l-0.926,0.617c-0.888,0.591-1.398,1.481-1.398,2.444
		c0,0.964,0.51,1.854,1.398,2.445l0.927,0.617c0.175,0.117,0.264,0.452,0.171,0.64l-0.493,0.998
		c-0.474,0.956-0.468,1.981,0.013,2.815c0.482,0.834,1.369,1.351,2.434,1.418l1.112,0.07c0.209,0.013,0.454,0.259,0.468,0.468
		l0.071,1.11c0.107,1.646,1.256,2.796,2.795,2.796c0.484,0,0.968-0.117,1.439-0.351l0.992-0.49c0.171-0.086,0.54,0.016,0.643,0.169
		l0.618,0.927C23.149,39.49,24.041,40,25.003,40c0.962,0,1.854-0.51,2.444-1.397l0.618-0.927c0.102-0.153,0.479-0.252,0.639-0.171
		l0.997,0.492c0.47,0.233,0.954,0.353,1.439,0.353c1.54,0,2.688-1.15,2.795-2.798l0.072-1.109c0.014-0.208,0.259-0.456,0.467-0.469
		l1.108-0.07c1.064-0.067,1.95-0.584,2.433-1.418c0.48-0.834,0.486-1.859,0.013-2.815l-0.492-0.998
		c-0.093-0.188-0.003-0.522,0.171-0.64l0.923-0.617c0.888-0.592,1.398-1.481,1.398-2.445C40.028,24.008,39.519,23.116,38.632,22.525
		z M38.366,27.019l-0.923,0.617c-0.375,0.25-0.534,0.844-0.334,1.248l0.493,0.997c0.401,0.81,0.401,1.674,0,2.366
		c-0.4,0.693-1.146,1.124-2.049,1.181l-1.109,0.069c-0.447,0.032-0.882,0.468-0.911,0.916l-0.072,1.109
		c-0.09,1.385-1.045,2.351-2.321,2.351c-0.411,0-0.824-0.103-1.228-0.303l-1.001-0.495c-0.11-0.053-0.236-0.078-0.375-0.078
		c-0.294,0-0.676,0.127-0.868,0.414l-0.618,0.927c-0.501,0.754-1.248,1.186-2.048,1.186c-0.8,0-1.546-0.432-2.048-1.186
		l-0.619-0.927c-0.167-0.248-0.514-0.414-0.868-0.414c-0.139,0-0.266,0.025-0.379,0.079l-0.995,0.494
		c-0.403,0.2-0.817,0.301-1.228,0.301c-1.275,0-2.23-0.966-2.32-2.349l-0.071-1.111c-0.029-0.448-0.463-0.882-0.912-0.914
		l-1.113-0.069c-0.902-0.057-1.649-0.487-2.05-1.181c-0.401-0.692-0.4-1.557,0-2.366l0.494-0.997
		c0.198-0.404,0.041-0.998-0.333-1.248l-0.927-0.618c-0.754-0.499-1.186-1.247-1.186-2.048c0-0.8,0.432-1.547,1.186-2.049
		l0.926-0.617c0.374-0.25,0.532-0.844,0.333-1.247L12.4,20.06c-0.4-0.81-0.401-1.674,0-2.366c0.4-0.693,1.146-1.124,2.049-1.18
		l1.115-0.071c0.447-0.03,0.88-0.467,0.909-0.915l0.072-1.109c0.09-1.385,1.045-2.351,2.32-2.351c0.412,0,0.825,0.102,1.229,0.303
		l1,0.495c0.388,0.183,1.013,0.008,1.243-0.336l0.618-0.927c0.476-0.715,1.223-1.126,2.048-1.126c0.825,0,1.572,0.411,2.048,1.126
		l0.617,0.925c0.232,0.349,0.861,0.528,1.245,0.335l1-0.493c0.403-0.201,0.815-0.302,1.226-0.302c1.277,0,2.232,0.966,2.321,2.351
		l0.072,1.107c0.028,0.449,0.462,0.884,0.912,0.915l1.11,0.073c0.902,0.056,1.648,0.486,2.048,1.18
		c0.401,0.692,0.4,1.557-0.001,2.367l-0.493,0.996c-0.199,0.403-0.041,0.997,0.333,1.249l0.927,0.618
		c0.751,0.499,1.184,1.246,1.184,2.046C39.552,25.771,39.12,26.519,38.366,27.019z"/>
	<path d="M22.878,22.567h-0.035c-0.08,0.514-0.194,1.314-0.274,1.759l-0.286,1.601h1.097l-0.251-1.611
		C23.049,23.846,22.947,23.081,22.878,22.567z"/>
	<path d="M37.707,23.913l-0.925-0.617c-0.872-0.581-1.206-1.826-0.741-2.766l0.492-0.998c0.465-0.939-0.011-1.764-1.057-1.832
		l-1.108-0.072c-1.045-0.066-1.958-0.979-2.024-2.024l-0.072-1.109c-0.067-1.045-0.892-1.521-1.832-1.057l-0.997,0.491
		c-0.94,0.465-2.184,0.132-2.766-0.74l-0.617-0.925c-0.582-0.873-1.533-0.873-2.114,0l-0.618,0.926
		c-0.582,0.873-1.825,1.206-2.765,0.74l-0.998-0.492c-0.94-0.465-1.764,0.012-1.831,1.057l-0.072,1.111
		c-0.068,1.046-0.979,1.958-2.025,2.024l-1.112,0.07c-1.046,0.068-1.521,0.893-1.057,1.832l0.493,0.998
		c0.465,0.939,0.131,2.185-0.741,2.766l-0.927,0.617c-0.872,0.58-0.872,1.533,0,2.113l0.928,0.618
		c0.872,0.581,1.206,1.826,0.741,2.766l-0.494,0.998c-0.464,0.939,0.012,1.764,1.057,1.832l1.114,0.069
		c1.045,0.068,1.957,0.98,2.024,2.025l0.071,1.109c0.068,1.046,0.891,1.522,1.832,1.057l0.994-0.49
		c0.94-0.466,2.185-0.133,2.766,0.74l0.619,0.927c0.582,0.873,1.533,0.873,2.114,0l0.618-0.927c0.582-0.873,1.826-1.206,2.766-0.74
		l0.998,0.492c0.94,0.465,1.763-0.012,1.831-1.057l0.072-1.111c0.068-1.045,0.979-1.957,2.025-2.025l1.108-0.069
		c1.045-0.068,1.521-0.893,1.057-1.832l-0.494-0.998c-0.464-0.939-0.131-2.185,0.741-2.766l0.925-0.618
		C38.578,25.446,38.578,24.493,37.707,23.913z M17.494,28.921c-0.617,0-1.223-0.16-1.474-0.309l0.217-1.291
		c0.309,0.171,0.834,0.297,1.268,0.297c0.709,0,1.052-0.366,1.052-0.869c0-0.561-0.342-0.834-0.994-1.256
		c-1.052-0.641-1.452-1.452-1.452-2.149c0-1.234,0.822-2.264,2.434-2.264c0.502,0,0.983,0.138,1.212,0.276l-0.24,1.291
		c-0.218-0.138-0.549-0.264-0.983-0.264c-0.64,0-0.949,0.389-0.949,0.8c0,0.458,0.229,0.698,1.063,1.201
		c1.017,0.617,1.395,1.393,1.395,2.205C20.042,27.994,19.001,28.921,17.494,28.921z M23.85,28.852l-0.332-1.76h-1.383l-0.343,1.76
		h-1.452l1.668-7.702h1.794l1.497,7.702H23.85z M29.624,28.852h-3.475v-7.702h1.498v6.434h1.977V28.852z M33.98,28.852h-3.486
		v-7.702h3.349v1.304h-1.852v1.771h1.76v1.245h-1.76v2.081h1.989V28.852z"/>
</g>
</svg>
