<?xml version="1.0" encoding="utf-8"?>
<!-- Generator: Adobe Illustrator 16.0.0, SVG Export Plug-In . SVG Version: 6.00 Build 0)  -->
<!DOCTYPE svg PUBLIC "-//W3C//DTD SVG 1.1//EN" "http://www.w3.org/Graphics/SVG/1.1/DTD/svg11.dtd">
<svg version="1.1" id="Layer_1" xmlns="http://www.w3.org/2000/svg" xmlns:xlink="http://www.w3.org/1999/xlink" x="0px" y="0px"
	 width="50px" height="50px" viewBox="0 0 50 50" enable-background="new 0 0 50 50" xml:space="preserve">
<g>
	<path d="M31.635,19.588v7.623l5.391-5.39C35.599,20.497,33.715,19.666,31.635,19.588z"/>
	<path d="M30.993,36.384v-7.624l-5.391,5.391C27.028,35.475,28.912,36.306,30.993,36.384z"/>
	<path d="M39.712,27.666c-0.079-2.081-0.909-3.964-2.233-5.392l-5.392,5.392H39.712z"/>
	<path d="M31.635,36.384c2.081-0.079,3.964-0.909,5.391-2.233l-5.391-5.39V36.384z"/>
	<path d="M37.479,33.699c1.323-1.428,2.154-3.311,2.233-5.392h-7.624L37.479,33.699z"/>
	<path d="M31.314,18.36c-0.41,0-0.81,0.037-1.207,0.089c-1.851-3.594-5.591-6.062-9.905-6.062c-6.145,0-11.143,4.999-11.143,11.142
		c0,6.144,4.998,11.143,11.143,11.143c1.285,0,2.515-0.229,3.665-0.632c1.766,2.17,4.438,3.573,7.447,3.573
		c5.309,0,9.626-4.319,9.626-9.627C40.94,22.678,36.623,18.36,31.314,18.36z M9.802,23.529c0-5.734,4.666-10.399,10.4-10.399
		c5.734,0,10.399,4.665,10.399,10.399s-4.665,10.4-10.399,10.4C14.467,33.929,9.802,29.263,9.802,23.529z M31.314,36.971
		c-2.729,0-5.16-1.238-6.808-3.165c4.013-1.688,6.838-5.658,6.838-10.277c0-1.581-0.334-3.083-0.932-4.446
		c0.299-0.034,0.594-0.082,0.901-0.082c4.955,0,8.984,4.031,8.984,8.984C40.298,32.939,36.269,36.971,31.314,36.971z"/>
	<path d="M10.48,23.901c0.092,2.408,1.052,4.588,2.583,6.24l6.241-6.24H10.48z"/>
	<path d="M20.573,13.808v8.824l6.241-6.24C25.162,14.861,22.981,13.898,20.573,13.808z"/>
	<path d="M13.063,16.917c-1.531,1.653-2.493,3.833-2.583,6.241h8.825L13.063,16.917z"/>
	<path d="M19.831,22.632v-8.825c-2.409,0.091-4.589,1.053-6.242,2.584L19.831,22.632z"/>
	<path d="M19.831,33.25v-8.825l-6.241,6.242C15.241,32.197,17.422,33.16,19.831,33.25z"/>
	<path d="M29.923,23.158c-0.091-2.408-1.052-4.589-2.584-6.241l-6.241,6.241H29.923z"/>
	<path d="M20.573,33.25c2.409-0.09,4.589-1.053,6.241-2.583l-6.241-6.241V33.25z"/>
	<path d="M21.099,23.901l6.24,6.24c1.532-1.652,2.493-3.832,2.584-6.24H21.099z"/>
</g>
</svg>
