<?xml version="1.0" encoding="utf-8"?>
<!-- Generator: Adobe Illustrator 16.0.0, SVG Export Plug-In . SVG Version: 6.00 Build 0)  -->
<!DOCTYPE svg PUBLIC "-//W3C//DTD SVG 1.1//EN" "http://www.w3.org/Graphics/SVG/1.1/DTD/svg11.dtd">
<svg version="1.1" id="Layer_1" xmlns="http://www.w3.org/2000/svg" xmlns:xlink="http://www.w3.org/1999/xlink" x="0px" y="0px"
	 width="50px" height="50px" viewBox="0 0 50 50" enable-background="new 0 0 50 50" xml:space="preserve">
<g>
	<path d="M28.732,14.726c-3.388-1.183-5.157-0.586-4.438,0.897c0.875,1.803,7.768,0.265,11.127,5.049
		C34.396,17.768,31.68,15.753,28.732,14.726z"/>
	<path d="M24.999,10.649c-7.912,0-14.35,6.438-14.35,14.352c0,7.912,6.438,14.35,14.35,14.35c7.913,0,14.352-6.438,14.352-14.35
		C39.351,17.087,32.912,10.649,24.999,10.649z M28.551,37.478c0.214-0.178,0.426-0.359,0.604-0.568
		c-3.104-0.867-16.742-5.446-13.608-18.288c-0.696,11.851,11.45,15.865,14.513,16.686C31.358,31.82,29.577,26.648,25,25
		c-6.548-2.358-8.128-9.513-3.683-12.445c1.168-0.346,2.4-0.539,3.682-0.539c7.159,0,12.984,5.824,12.984,12.984
		C37.983,30.927,33.988,35.927,28.551,37.478z"/>
</g>
</svg>
