<?xml version="1.0" encoding="utf-8"?>
<!-- Generator: Adobe Illustrator 16.0.0, SVG Export Plug-In . SVG Version: 6.00 Build 0)  -->
<!DOCTYPE svg PUBLIC "-//W3C//DTD SVG 1.1//EN" "http://www.w3.org/Graphics/SVG/1.1/DTD/svg11.dtd">
<svg version="1.1" id="Layer_1" xmlns="http://www.w3.org/2000/svg" xmlns:xlink="http://www.w3.org/1999/xlink" x="0px" y="0px"
	 width="50px" height="50px" viewBox="0 0 50 50" enable-background="new 0 0 50 50" xml:space="preserve">
<g>
	<path d="M12.113,29.973c0.492-0.321,0.74-0.47,1.259-0.326c0.519,0.143,0.254,0.481,0.603,0.807
		c0.244,0.227,1.432,0.157,1.441-0.124c0.011-0.332-0.431-0.715-0.813-0.824c-0.345-0.101-0.553-0.549-0.725-0.763
		c-0.17-0.213-0.254-0.358-0.593-0.617c-0.654-0.5-1.075,0.81-1.075,0.81s-0.195,0.692-0.521,0.851s-0.61-0.33-0.979-0.035
		c-0.37,0.296-0.641,1.134-0.641,1.134s0.566-0.419,0.862-0.345c0.296,0.073,0.222,0.788,0.222,0.788S11.621,30.293,12.113,29.973z
		 M14.652,29.823l0.154,0.154l-0.154,0.153l-0.154-0.153L14.652,29.823z"/>
	<rect x="20.982" y="22.801" transform="matrix(0.3126 0.9499 -0.9499 0.3126 36.1809 -4.2724)" width="0.12" height="0.12"/>
	<rect x="21.209" y="27.983" transform="matrix(0.7071 -0.7071 0.7071 0.7071 -13.6135 23.2854)" width="0.185" height="0.184"/>
	<path d="M23.075,34.067c0.259-0.739,0.11-1.398,0.148-1.886c0.038-0.485,0.628-1.293,0.591-2.327
		c-0.037-1.036-0.531-3.419-0.924-5.951c-0.394-2.532,0.259-6.169,0.291-6.922c0.031-0.752-0.882-2.207-0.882-3.057
		c0-0.851,0.591-3.844,0.591-3.844l-5.655,1.736c0,0,0,1.331,0,1.959c0,0.629-0.702,1.294-0.629,2.069
		c0.072,0.775,0.396,1.417,0.558,1.79c0.162,0.372-0.779,4.9-0.963,7.377c-0.185,2.476-0.048,4.434,0,5.506
		c0.048,1.073,0.277,1.479,0.68,1.462c0.078,0.497-0.033,1.274,0.783,1.046c-0.04,1.004,0.496,1.521,1.244,1.038
		c-0.009,1.168,0.934,1.573,1.394,0.929c0.224,0.552,0.497,0.964,1.276,0.922C22.357,35.872,22.816,34.807,23.075,34.067z
		 M19.163,21.762c0.256-0.054,0.273,0.258,0.473,0.262c0.2,0.004,0.469-0.286,0.469-0.286s0.535-0.538,0.731-0.129
		c0.102,0.212,0.105,0.305,0.136,0.45c0.03,0.148,0.021,0.422,0.165,0.557c0.16,0.15,0.281,0.45,0.192,0.609
		c-0.075,0.137-0.676-0.128-0.738-0.301c-0.089-0.246,0.125-0.346-0.094-0.547c-0.218-0.2-0.378-0.189-0.699-0.156
		c-0.322,0.034-0.811,0.426-0.811,0.426s0.214-0.332,0.088-0.442c-0.126-0.111-0.51-0.047-0.51-0.047S18.907,21.813,19.163,21.762z
		 M20.796,32.98c-0.066,0.262-0.411,0.865-0.411,0.865s-0.049-0.702,0.017-0.965c0.066-0.262,0.208-0.453,0.316-0.425
		C20.827,32.482,20.862,32.719,20.796,32.98z M20.727,28.478c-0.296-0.275-0.072-0.562-0.511-0.682
		c-0.439-0.122-0.65,0.003-1.066,0.274s-0.812,1.146-0.812,1.146s0.062-0.604-0.188-0.666c-0.25-0.063-0.73,0.293-0.73,0.293
		s0.229-0.71,0.543-0.961c0.312-0.251,0.554,0.163,0.829,0.029c0.276-0.134,0.441-0.719,0.441-0.719s0.356-1.11,0.911-0.688
		c0.287,0.22,0.357,0.344,0.501,0.522c0.145,0.182,0.322,0.562,0.614,0.646c0.323,0.094,0.698,0.419,0.688,0.699
		C21.939,28.611,20.933,28.669,20.727,28.478z"/>
	<path d="M15.568,34.293c-0.417,0.102-0.898-0.238-1.201-0.357c-0.303-0.118-0.476-0.218-0.979-0.287
		c-0.971-0.128-0.629,1.476-0.629,1.476s0.209,0.831-0.033,1.188c-0.244,0.356-0.828,0.021-1.034,0.545
		c-0.207,0.524,0.011,1.551,0.011,1.551s0.336-0.769,0.686-0.868s0.697,0.683,0.697,0.683s-0.13-1.347,0.188-1.97
		s0.486-0.923,1.107-1.082c0.621-0.162,0.548,0.347,1.101,0.474c0.387,0.091,1.573-0.686,1.416-0.982
		C16.712,34.312,16.028,34.179,15.568,34.293z M15.992,34.911l-0.25-0.068l0.067-0.251l0.251,0.067
		C16.11,34.75,16.08,34.859,15.992,34.911z"/>
	<path d="M39.168,29.845c-0.44-0.353-0.779,0.229-1.167,0.041c-0.388-0.188-0.62-1.012-0.62-1.012s-0.501-1.561-1.279-0.965
		c-0.403,0.309-0.503,0.481-0.706,0.734c-0.204,0.255-0.452,0.788-0.863,0.907c-0.455,0.132-0.982,0.588-0.968,0.982
		c0.011,0.334,1.425,0.417,1.716,0.146c0.415-0.386,0.1-0.789,0.717-0.958c0.618-0.172,0.914,0.005,1.499,0.387
		c0.585,0.382,1.143,1.613,1.143,1.613s-0.087-0.851,0.264-0.939c0.352-0.087,1.026,0.412,1.026,0.412S39.609,30.196,39.168,29.845z
		 M34.474,30.297c-0.101,0-0.183-0.081-0.183-0.183c0-0.101,0.083-0.184,0.183-0.184c0.101,0,0.184,0.083,0.184,0.184
		C34.658,30.216,34.575,30.297,34.474,30.297z"/>
	<path d="M33.854,37.495c-0.204-0.3-0.028-0.996-0.028-0.996s0.288-1.347-0.528-1.239c-0.423,0.058-0.567,0.142-0.822,0.241
		c-0.255,0.1-0.659,0.385-1.008,0.3c-0.386-0.096-0.96,0.017-1.116,0.31c-0.132,0.249,0.864,0.9,1.188,0.825
		c0.463-0.108,0.403-0.534,0.924-0.398c0.521,0.134,0.662,0.386,0.929,0.908c0.267,0.523,0.158,1.654,0.158,1.654
		s0.292-0.657,0.585-0.574c0.293,0.084,0.576,0.729,0.576,0.729s0.183-0.862,0.009-1.302C34.548,37.512,34.058,37.794,33.854,37.495
		z M31.322,36.262l-0.21,0.058l-0.057-0.211l0.211-0.057L31.322,36.262z"/>
	<path d="M31.03,33.026c0.816,0.229,0.705-0.549,0.783-1.046c0.403,0.017,0.632-0.389,0.68-1.462c0.048-1.072,0.185-3.03,0-5.506
		c-0.185-2.477-1.125-7.005-0.963-7.377c0.162-0.373,0.486-1.015,0.558-1.79c0.073-0.775-0.629-1.44-0.629-2.069
		c0-0.628,0-1.959,0-1.959l-5.655-1.736c0,0,0.591,2.993,0.591,3.844c0,0.85-0.914,2.305-0.882,3.057
		c0.031,0.753,0.684,4.39,0.291,6.922c-0.394,2.532-0.887,4.915-0.924,5.951c-0.038,1.034,0.553,1.842,0.591,2.327
		c0.038,0.487-0.111,1.146,0.147,1.886s0.718,1.805,1.498,1.848c0.78,0.042,1.053-0.37,1.277-0.922
		c0.459,0.645,1.402,0.239,1.393-0.929C30.534,34.547,31.07,34.03,31.03,33.026z M28.31,33.846c0,0-0.346-0.604-0.412-0.865
		s-0.031-0.498,0.078-0.524c0.109-0.028,0.251,0.163,0.317,0.425C28.358,33.144,28.31,33.846,28.31,33.846z M30.188,27.108
		c0,0,0.109-1.131-0.158-1.654c-0.267-0.522-0.408-0.774-0.929-0.908c-0.521-0.136-0.46,0.29-0.924,0.398
		c-0.325,0.075-1.32-0.576-1.188-0.825c0.156-0.294,0.73-0.405,1.116-0.311c0.35,0.086,0.753-0.2,1.008-0.3
		c0.254-0.099,0.399-0.184,0.822-0.24c0.816-0.107,0.528,1.238,0.528,1.238s-0.176,0.697,0.027,0.997
		c0.205,0.299,0.694,0.017,0.868,0.458c0.174,0.439-0.009,1.302-0.009,1.302s-0.283-0.646-0.576-0.729
		C30.479,26.451,30.188,27.108,30.188,27.108z"/>
	<rect x="27.716" y="24.085" transform="matrix(-0.2614 -0.9652 0.9652 -0.2614 11.7463 57.3759)" width="0.219" height="0.218"/>
	<path d="M34.243,26.108c0.079-0.219-0.112-0.306,0.08-0.482c0.192-0.179,0.332-0.171,0.616-0.143
		c0.285,0.029,0.719,0.37,0.719,0.37s-0.192-0.291-0.081-0.39c0.111-0.098,0.45-0.044,0.45-0.044s-0.305-0.302-0.531-0.347
		c-0.225-0.044-0.239,0.23-0.415,0.236c-0.177,0.004-0.416-0.251-0.416-0.251s-0.475-0.473-0.646-0.109
		c-0.087,0.188-0.091,0.269-0.117,0.399c-0.026,0.13-0.016,0.37-0.143,0.49c-0.141,0.133-0.245,0.397-0.166,0.539
		C33.66,26.497,34.189,26.261,34.243,26.108z M33.809,25.988l0.102,0.032l-0.033,0.101l-0.101-0.032L33.809,25.988z"/>
	<path d="M25.46,38.159c-0.203-0.3-0.027-0.997-0.027-0.997s0.288-1.346-0.528-1.238c-0.423,0.057-0.568,0.142-0.822,0.241
		c-0.255,0.099-0.659,0.385-1.008,0.3c-0.386-0.096-0.96,0.017-1.116,0.31c-0.132,0.249,0.864,0.9,1.188,0.825
		c0.464-0.108,0.403-0.534,0.924-0.398c0.521,0.134,0.663,0.386,0.93,0.908c0.267,0.523,0.158,1.654,0.158,1.654
		s0.292-0.657,0.585-0.574c0.293,0.084,0.576,0.729,0.576,0.729s0.183-0.862,0.009-1.302C26.155,38.176,25.665,38.458,25.46,38.159z
		 M22.929,36.926l-0.21,0.058l-0.057-0.211l0.211-0.057L22.929,36.926z"/>
</g>
</svg>
