<?xml version="1.0" encoding="utf-8"?>
<!-- Generator: Adobe Illustrator 16.0.0, SVG Export Plug-In . SVG Version: 6.00 Build 0)  -->
<!DOCTYPE svg PUBLIC "-//W3C//DTD SVG 1.1//EN" "http://www.w3.org/Graphics/SVG/1.1/DTD/svg11.dtd">
<svg version="1.1" id="Layer_1" xmlns="http://www.w3.org/2000/svg" xmlns:xlink="http://www.w3.org/1999/xlink" x="0px" y="0px"
	 width="50px" height="50px" viewBox="0 0 50 50" enable-background="new 0 0 50 50" xml:space="preserve">
<g>
	<path d="M32.635,17.904c0.029,0.162,0.056,0.325,0.081,0.489c3.474,0.229,6.25,1.66,6.25,3.333v6.746
		c0,1.826-3.305,3.369-7.219,3.369H18.254c-3.914,0-7.219-1.542-7.219-3.369v-6.746c0-1.809,3.245-3.337,7.11-3.366
		c-0.031-0.158-0.061-0.319-0.091-0.479c-4.14,0.054-7.501,1.763-7.501,3.846v6.746v9.635c0,2.116,3.469,3.851,7.701,3.851h13.492
		c4.231,0,7.701-1.734,7.701-3.851v-9.635v-6.746C39.447,19.761,36.452,18.127,32.635,17.904z"/>
	<path d="M13.433,21.727v6.746c0,1.327,2.167,2.411,4.821,2.411h13.492c2.654,0,4.821-1.084,4.821-2.411v-6.746
		c0-1.141-1.605-2.097-3.741-2.345c0.107,1.461-0.057,3.039-0.837,4.767c1.47,0.025,2.876,0.266,4.097,0.716v3.608
		c0,0.913-1.783,1.929-4.34,1.929H18.254c-2.558,0-4.34-1.016-4.34-1.929v-3.608c1.289-0.475,2.781-0.726,4.34-0.726h0.733
		c-0.009-1.129-0.296-3.163-0.56-4.41c-0.029-0.136-0.058-0.275-0.087-0.414h-0.086C15.6,19.315,13.433,20.4,13.433,21.727z"/>
	<path d="M20.23,26.868c-0.77-0.416-1.98-0.579-2.756-0.369l-1.286,0.348c-0.133,0.036-0.212,0.173-0.176,0.307
		s0.174,0.212,0.307,0.176l1.286-0.348c0.645-0.173,1.738-0.024,2.387,0.326c0.774,0.42,2.034,0.42,2.809,0
		c0.633-0.342,1.702-0.342,2.333,0c0.787,0.427,2.022,0.428,2.81,0c0.632-0.343,1.701-0.343,2.333,0
		c0.542,0.293,1.303,0.461,1.977,0.461c0.283,0,0.55-0.03,0.78-0.092l1.286-0.348c0.133-0.036,0.212-0.173,0.176-0.307
		c-0.036-0.133-0.172-0.211-0.307-0.176l-1.286,0.348c-0.644,0.172-1.738,0.025-2.387-0.326c-0.774-0.419-2.034-0.42-2.809,0
		c-0.633,0.342-1.702,0.342-2.333,0c-0.786-0.426-2.021-0.426-2.81,0C21.931,27.211,20.862,27.21,20.23,26.868z"/>
	<path d="M34.189,28.417l-1.286,0.348c-0.646,0.174-1.739,0.024-2.388-0.326c-0.774-0.42-2.035-0.42-2.809,0
		c-0.634,0.342-1.702,0.342-2.334,0c-0.786-0.426-2.021-0.427-2.81,0c-0.632,0.342-1.701,0.341-2.333,0
		c-0.77-0.416-1.979-0.579-2.756-0.37l-1.286,0.348c-0.133,0.036-0.212,0.173-0.176,0.307s0.174,0.211,0.307,0.176l1.285-0.348
		c0.646-0.174,1.738-0.025,2.388,0.327c0.774,0.419,2.034,0.419,2.809,0c0.633-0.342,1.702-0.342,2.333,0
		c0.787,0.427,2.021,0.426,2.81,0c0.632-0.343,1.701-0.341,2.333,0c0.542,0.293,1.303,0.46,1.977,0.46
		c0.282,0,0.55-0.029,0.779-0.091l1.285-0.348c0.133-0.036,0.212-0.173,0.176-0.306C34.459,28.46,34.32,28.38,34.189,28.417z"/>
	<path d="M20.908,24.169c2.905-5.019-0.839-8.206,0-13.782C17.758,13.653,21.583,20.982,20.908,24.169z"/>
	<path d="M25.323,21.824c2.904-5.019-0.84-8.206,0-13.782C22.173,11.308,25.997,18.636,25.323,21.824z"/>
	<path d="M29.738,24.169c2.904-5.019-0.84-8.206,0-13.782C26.587,13.653,30.412,20.982,29.738,24.169z"/>
</g>
</svg>
