<?xml version="1.0" encoding="utf-8"?>
<!-- Generator: Adobe Illustrator 16.0.0, SVG Export Plug-In . SVG Version: 6.00 Build 0)  -->
<!DOCTYPE svg PUBLIC "-//W3C//DTD SVG 1.1//EN" "http://www.w3.org/Graphics/SVG/1.1/DTD/svg11.dtd">
<svg version="1.1" id="Layer_1" xmlns="http://www.w3.org/2000/svg" xmlns:xlink="http://www.w3.org/1999/xlink" x="0px" y="0px"
	 width="50px" height="50px" viewBox="0 0 50 50" enable-background="new 0 0 50 50" xml:space="preserve">
<g>
	<path d="M34.954,32.219c0.205-0.203,0.204-0.535,0-0.74l-3.448-3.448l0.033-0.201c0.074-0.418-0.039-0.811-0.313-1.083
		l-5.523-5.524c-0.874,0.873,0.559,2.514-0.644,2.852l4.419,4.419c0.272,0.271,0.666,0.386,1.084,0.313l0.2-0.035l3.449,3.448
		C34.416,32.425,34.749,32.425,34.954,32.219z"/>
	<path d="M35.506,32.771c0.508-0.508,0.508-1.336,0-1.846l-3.17-3.168c0.048-0.593-0.15-1.156-0.558-1.564l-7.37-7.37
		c1.024-1.202,1.611-2.163,1.392-2.382l-3.013-3.014c-0.16-0.161-0.722,0.114-1.48,0.672l-4.011-4.012
		c-1.237-1.237-3.241-1.237-4.476,0c-1.235,1.234-1.235,3.237,0,4.475l4.012,4.01c-0.558,0.759-0.833,1.32-0.672,1.481l3.014,3.013
		c0.219,0.222,1.181-0.367,2.383-1.39l7.37,7.37c0.407,0.405,0.966,0.604,1.562,0.555l3.171,3.172
		C34.168,33.28,34.997,33.28,35.506,32.771z M30.629,29.19c-0.504,0.089-1.038-0.033-1.427-0.423l-7.35-7.348
		c0.382-0.339,0.78-0.71,1.187-1.115c0.407-0.405,0.776-0.804,1.113-1.185l7.351,7.35c0.391,0.391,0.511,0.923,0.422,1.428
		l3.304,3.306c0.357,0.355,0.358,0.935,0.001,1.293c-0.357,0.356-0.938,0.356-1.295,0L30.629,29.19z"/>
	<path d="M35.888,33.153c0,0-2.219,4.247-2.219,5.471s0.995,2.218,2.219,2.218s2.218-0.994,2.218-2.218S35.888,33.153,35.888,33.153
		z"/>
</g>
</svg>
