<?xml version="1.0" encoding="utf-8"?>
<!-- Generator: Adobe Illustrator 16.0.0, SVG Export Plug-In . SVG Version: 6.00 Build 0)  -->
<!DOCTYPE svg PUBLIC "-//W3C//DTD SVG 1.1//EN" "http://www.w3.org/Graphics/SVG/1.1/DTD/svg11.dtd">
<svg version="1.1" id="Layer_1" xmlns="http://www.w3.org/2000/svg" xmlns:xlink="http://www.w3.org/1999/xlink" x="0px" y="0px"
	 width="50px" height="50px" viewBox="0 0 50 50" enable-background="new 0 0 50 50" xml:space="preserve">
<g>
	<path d="M19.123,27.934H16.94c-0.121,0-0.22,0.098-0.22,0.219c0,0.123,0.099,0.221,0.22,0.221h2.12
		c-0.067,0.539-0.114,1.103-0.114,1.715c0,0.107,0.087,0.195,0.194,0.195s0.194-0.088,0.194-0.195c0-0.615,0.047-1.178,0.115-1.715
		h1.89c0.122,0,0.22-0.098,0.22-0.221c0-0.121-0.099-0.219-0.22-0.219h-1.826c0.15-0.897,0.389-1.686,0.732-2.318h-0.423
		C19.498,26.267,19.269,27.051,19.123,27.934z"/>
	<path d="M32.409,10.965h-8.665l-4.674,4.673v8.422h-6.154v14.976h12.446V34.82h11.721V15.638L32.409,10.965z M28.256,14.997
		c-0.627,1.433-0.592,3.529-0.562,5.38c0.034,2.048,0.061,3.666-0.74,4.145c-0.385,0.23-0.908,0.158-1.591-0.224l-0.549-0.238
		c-1.088-0.457-2.168-0.471-3.058,0l-0.118,0.047c-0.562,0.33-1.028,0.84-1.391,1.509h3.561v11.864h-9.334V25.615h5.35
		c0.323-0.646,0.731-1.17,1.221-1.556c0.129-0.103,0.257-0.206,0.397-0.288c1.174-0.688,2.671-0.62,4.105,0.184
		c0.546,0.306,0.953,0.386,1.208,0.232c0.608-0.363,0.581-2.035,0.551-3.805c-0.031-1.888-0.066-4.03,0.594-5.54
		c0.044-0.1,0.157-0.149,0.256-0.101C28.253,14.784,28.298,14.9,28.256,14.997z"/>
</g>
</svg>
