<?xml version="1.0" encoding="utf-8"?>
<!-- Generator: Adobe Illustrator 16.0.0, SVG Export Plug-In . SVG Version: 6.00 Build 0)  -->
<!DOCTYPE svg PUBLIC "-//W3C//DTD SVG 1.1//EN" "http://www.w3.org/Graphics/SVG/1.1/DTD/svg11.dtd">
<svg version="1.1" id="Layer_1" xmlns="http://www.w3.org/2000/svg" xmlns:xlink="http://www.w3.org/1999/xlink" x="0px" y="0px"
	 width="50px" height="50px" viewBox="0 0 50 50" enable-background="new 0 0 50 50" xml:space="preserve">
<g>
	<path d="M13.742,34.631l2.157-2.185h15.667c0.239,0,0.472-0.086,0.653-0.243l6.317-5.446c0.418-0.36,0.465-0.992,0.104-1.41
		c-0.36-0.418-0.992-0.465-1.41-0.104l-6.036,5.204H15.481c-0.267,0-0.524,0.107-0.711,0.297l-2.45,2.482
		c-0.388,0.393-0.384,1.026,0.009,1.414C12.721,35.028,13.354,35.024,13.742,34.631z"/>
	<path d="M16.953,20.132h2.995c0,0,1.09-5.799,5.99-5.799C18.587,14.333,16.953,20.132,16.953,20.132z"/>
	<path d="M25.938,14.333c4.9,0,5.99,5.799,5.99,5.799h2.995C34.922,20.132,33.288,14.333,25.938,14.333z"/>
	<path d="M22.943,20.132h5.989c0,0-0.545-5.799-2.995-5.799S22.943,20.132,22.943,20.132z"/>
	<rect x="25.562" y="19.833" width="0.75" height="11.613"/>
</g>
</svg>
