<?xml version="1.0" encoding="utf-8"?>
<!-- Generator: Adobe Illustrator 16.0.0, SVG Export Plug-In . SVG Version: 6.00 Build 0)  -->
<!DOCTYPE svg PUBLIC "-//W3C//DTD SVG 1.1//EN" "http://www.w3.org/Graphics/SVG/1.1/DTD/svg11.dtd">
<svg version="1.1" id="Layer_1" xmlns="http://www.w3.org/2000/svg" xmlns:xlink="http://www.w3.org/1999/xlink" x="0px" y="0px"
	 width="50px" height="50px" viewBox="0 0 50 50" enable-background="new 0 0 50 50" xml:space="preserve">
<g>
	<path d="M37.091,13.173l-3.595-2.396c-0.147-0.099-0.32-0.151-0.498-0.151H22.215c-0.496,0-0.899,0.402-0.899,0.898
		s0.403,0.899,0.899,0.899h2.734c0.205,0.243,0.48,0.507,0.769,0.759c-1.346,0.347-2.306,1.211-2.306,2.229v0.001v2.496
		c0,0.482,1.609,0.874,3.595,0.874s3.595-0.392,3.595-0.874v-2.496v-0.001c0-1.019-0.96-1.883-2.305-2.229
		c0.287-0.252,0.562-0.516,0.769-0.759h3.66l3.368,2.245c0.153,0.103,0.326,0.15,0.497,0.15c0.29,0,0.576-0.14,0.749-0.399
		C37.615,14.006,37.504,13.448,37.091,13.173z"/>
	<path d="M31.347,18.992c-0.841,0-2.062,0.362-4.34,0.37h-0.073c-2.241,0-3.446-0.357-4.278-0.357
		c-0.883-0.001-1.347,0.403-2.186,2.066c-0.397,0.788-0.752,1.712-1.063,2.696c0.139-0.007,0.275-0.021,0.415-0.021
		c0.179,0,0.354,0.016,0.529,0.026c0.274-0.834,0.58-1.62,0.922-2.297c0.793-1.572,1.04-1.572,1.383-1.572
		c0.253,0,0.591,0.047,1.019,0.105c0.762,0.106,1.804,0.252,3.26,0.252h0.077c1.471-0.006,2.526-0.154,3.297-0.262
		c0.437-0.062,0.782-0.109,1.039-0.109c0.347,0,0.596,0,1.395,1.584c1.474,2.916,2.354,7.736,2.354,10.711
		c0,5.84-3.353,6.291-8.088,6.291c-0.649,0-1.27-0.011-1.861-0.04c-0.359,0.3-0.746,0.565-1.152,0.802
		c0.943,0.105,1.955,0.137,3.014,0.137c4.965,0,8.986-0.574,8.986-7.189c0-3.185-0.93-8.108-2.449-11.117
		C32.702,19.399,32.237,18.992,31.347,18.992z"/>
	<path d="M26.031,37.567c0.312,0.007,0.637,0.011,0.976,0.011c5.306,0,7.189-0.815,7.189-5.393c0-1.336-0.189-3.055-0.526-4.792
		h-6.973c0.906,1.331,1.438,2.938,1.438,4.666C28.135,34.173,27.335,36.099,26.031,37.567z"/>
	<path d="M26.886,30.167c-1.044-3.895-5.062-6.214-8.957-5.171c-3.894,1.044-6.214,5.062-5.17,8.956s5.062,6.215,8.955,5.171
		C25.608,38.079,27.93,34.062,26.886,30.167z M21.626,38.795c-3.713,0.995-7.544-1.217-8.539-4.931s1.217-7.545,4.93-8.539
		c3.715-0.996,7.546,1.216,8.541,4.93S25.341,37.8,21.626,38.795z"/>
	<path d="M13.5,34.015c0.484,1.566,1.5,2.829,2.796,3.646l3.002-5.199L13.5,34.015z"/>
	<path d="M22.91,26.205c-1.354-0.714-2.958-0.962-4.557-0.599l1.554,5.799L22.91,26.205z"/>
	<path d="M13.967,28.971c-0.715,1.356-0.962,2.958-0.598,4.557l5.798-1.554L13.967,28.971z"/>
	<path d="M17.866,25.737c-1.566,0.484-2.83,1.5-3.646,2.797l5.2,3.002L17.866,25.737z"/>
	<path d="M16.734,37.913c1.354,0.716,2.956,0.964,4.555,0.599l-1.554-5.798L16.734,37.913z"/>
	<path d="M26.145,30.104c-0.484-1.565-1.5-2.83-2.799-3.646l-3,5.199L26.145,30.104z"/>
	<path d="M21.777,38.382c1.565-0.483,2.83-1.5,3.646-2.798l-5.2-3.001L21.777,38.382z"/>
	<path d="M20.477,32.146l5.198,3.002c0.716-1.355,0.965-2.957,0.601-4.557L20.477,32.146z"/>
</g>
</svg>
