<?xml version="1.0" encoding="utf-8"?>
<!-- Generator: Adobe Illustrator 16.0.0, SVG Export Plug-In . SVG Version: 6.00 Build 0)  -->
<!DOCTYPE svg PUBLIC "-//W3C//DTD SVG 1.1//EN" "http://www.w3.org/Graphics/SVG/1.1/DTD/svg11.dtd">
<svg version="1.1" id="Layer_1" xmlns="http://www.w3.org/2000/svg" xmlns:xlink="http://www.w3.org/1999/xlink" x="0px" y="0px"
	 width="50px" height="50px" viewBox="0 0 50 50" enable-background="new 0 0 50 50" xml:space="preserve">
<g>
	<path d="M40.5,18.818h-1.555l0.039-0.196c0-2.931-2.385-5.316-5.316-5.316c-0.908,0-1.751,0.25-2.5,0.654
		c-0.748-0.404-1.592-0.654-2.5-0.654c-2.931,0-5.315,2.385-5.315,5.316v0.196H9.5c-0.276,0-0.5,0.224-0.5,0.5v16.875
		c0,0.276,0.224,0.5,0.5,0.5h31c0.276,0,0.5-0.224,0.5-0.5V19.318C41,19.042,40.776,18.818,40.5,18.818z M33.668,14.807
		c2.104,0,3.816,1.712,3.816,3.816l0.039,0.196h-3.578l0.039-0.196c0-1.404-0.558-2.673-1.449-3.625
		C32.896,14.885,33.271,14.807,33.668,14.807z M28.668,14.807c0.397,0,0.773,0.078,1.134,0.191
		c-0.204,0.218-0.396,0.446-0.562,0.695h-2.986C26.913,15.148,27.747,14.807,28.668,14.807z M25.395,16.693h3.334
		c-0.177,0.449-0.278,0.931-0.325,1.429h-3.5C24.972,17.605,25.141,17.124,25.395,16.693z M29.853,18.623
		c0-1.144,0.517-2.16,1.315-2.859c0.8,0.7,1.316,1.716,1.316,2.859l0.039,0.196h-2.671V18.623z M24.853,22.123h3.5v2h-3.5V22.123z
		 M24.853,21.123v-1.304h3.5v1.304H24.853z M23.353,19.818v7.552c0.496-0.082,0.994-0.165,1.5-0.25v-1.997h3.5v1.433
		c0.501-0.076,1.003-0.155,1.5-0.219v-6.518H40v7.672c-8.683-2.226-23.529,4.069-30,0.437v-8.109H23.353z"/>
</g>
</svg>
