<?xml version="1.0" encoding="utf-8"?>
<!-- Generator: Adobe Illustrator 16.0.0, SVG Export Plug-In . SVG Version: 6.00 Build 0)  -->
<!DOCTYPE svg PUBLIC "-//W3C//DTD SVG 1.1//EN" "http://www.w3.org/Graphics/SVG/1.1/DTD/svg11.dtd">
<svg version="1.1" id="Layer_1" xmlns="http://www.w3.org/2000/svg" xmlns:xlink="http://www.w3.org/1999/xlink" x="0px" y="0px"
	 width="50px" height="50px" viewBox="0 0 50 50" enable-background="new 0 0 50 50" xml:space="preserve">
<g>
	<path d="M18.974,20.424L19,19.615c0.008-0.258,0.221-0.462,0.478-0.462l0.016,0c0.264,0.008,0.471,0.229,0.462,0.493l-0.026,0.811
		c1.34,0.545,2.569,3.189,3.412,5.497c0.263-0.935,0.48-1.756,0.567-2.385c0.553-3.908-0.518-8.927-4.288-8.927
		c-3.769,0-7.032,4.524-7.032,8.927c0,1.246,0.133,2.141,0.33,2.882C14.318,24.535,17.112,20.983,18.974,20.424z"/>
	<path d="M22.079,30.799c0.226-1.112,0.517-2.209,0.804-3.232c-1.08-3.259-2.54-6.267-3.444-6.267c-1.195,0-4.199,3.525-6.147,6.264
		c0.384,0.964,0.838,1.811,1.124,3.234c0.348,1.704-0.572,4.654-0.551,6.905c0.021,2.25,0.652,4.338,4.383,4.338
		c3.731,0,4.389-2.094,4.389-4.341C22.636,35.454,21.736,32.502,22.079,30.799z"/>
	<path d="M31.026,13.741L31,12.931c-0.008-0.258-0.221-0.461-0.478-0.461l-0.016,0c-0.264,0.008-0.471,0.229-0.462,0.493l0.027,0.81
		c-1.341,0.545-2.57,3.188-3.413,5.497c-0.263-0.935-0.48-1.756-0.567-2.385c-0.553-3.907,0.518-8.927,4.288-8.927
		c3.769,0,7.032,4.524,7.032,8.927c0,1.246-0.133,2.14-0.33,2.882C35.682,17.852,32.888,14.299,31.026,13.741z"/>
	<path d="M27.921,24.116c-0.226-1.112-0.517-2.21-0.804-3.232c1.08-3.259,2.54-6.267,3.444-6.267c1.195,0,4.199,3.524,6.147,6.264
		c-0.384,0.963-0.838,1.81-1.124,3.234c-0.348,1.703,0.572,4.654,0.551,6.904c-0.021,2.25-0.652,4.339-4.383,4.339
		c-3.731,0-4.388-2.094-4.388-4.342C27.365,28.771,28.264,25.819,27.921,24.116z"/>
</g>
</svg>
