<?xml version="1.0" encoding="utf-8"?>
<!-- Generator: Adobe Illustrator 16.0.0, SVG Export Plug-In . SVG Version: 6.00 Build 0)  -->
<!DOCTYPE svg PUBLIC "-//W3C//DTD SVG 1.1//EN" "http://www.w3.org/Graphics/SVG/1.1/DTD/svg11.dtd">
<svg version="1.1" id="Layer_1" xmlns="http://www.w3.org/2000/svg" xmlns:xlink="http://www.w3.org/1999/xlink" x="0px" y="0px"
	 width="50px" height="50px" viewBox="0 0 50 50" enable-background="new 0 0 50 50" xml:space="preserve">
<g>
	<path d="M38.597,22.506c-0.451-1.688-7.94-0.645-9.399-1.365c-1.458-0.72-2.116-9.856-4.201-9.708
		c-2.087,0.148-2.036,8.293-4.203,9.708c-2.167,1.415-9.056-0.62-9.399,1.365c-0.343,1.986,6.601,3.476,6.803,5.438
		c0.2,1.961-3.033,9.658-1.606,10.552c1.425,0.894,6.27-6.853,8.406-6.803c2.135,0.05,6.752,7.697,8.404,6.803
		c1.653-0.894-2.248-8.292-1.604-10.552C32.438,25.684,39.048,24.195,38.597,22.506z M13.282,23.06
		c0.056-0.247,8.633,0.871,9.07,1.104c0.437,0.233,0.51,0.655-0.144,0.825C21.554,25.158,13.229,23.305,13.282,23.06z
		 M18.254,35.412c-0.208-0.143,4.007-7.696,4.386-8.016c0.379-0.319,0.798-0.231,0.713,0.439
		C23.267,28.506,18.462,35.553,18.254,35.412z M25.47,22.784c-0.155,0.47-0.56,0.615-0.839,0c-0.279-0.616,0.116-9.136,0.368-9.125
		C25.252,13.671,25.624,22.313,25.47,22.784z M26.401,27.836c-0.085-0.67,0.334-0.758,0.712-0.439
		c0.38,0.32,4.595,7.873,4.387,8.016C31.291,35.553,26.486,28.506,26.401,27.836z M27.545,24.989
		c-0.654-0.17-0.58-0.592-0.144-0.825c0.437-0.233,9.014-1.352,9.07-1.104C36.525,23.305,28.199,25.158,27.545,24.989z"/>
</g>
</svg>
