<?xml version="1.0" encoding="utf-8"?>
<!-- Generator: Adobe Illustrator 16.0.0, SVG Export Plug-In . SVG Version: 6.00 Build 0)  -->
<!DOCTYPE svg PUBLIC "-//W3C//DTD SVG 1.1//EN" "http://www.w3.org/Graphics/SVG/1.1/DTD/svg11.dtd">
<svg version="1.1" id="Layer_1" xmlns="http://www.w3.org/2000/svg" xmlns:xlink="http://www.w3.org/1999/xlink" x="0px" y="0px"
	 width="50px" height="50px" viewBox="0 0 50 50" enable-background="new 0 0 50 50" xml:space="preserve">
<g>
	<path d="M25,34.749c-0.204,0-0.768-0.3-1.348-0.3c-1.021,0-2.187,0.301-2.187,0.3c0,0,0.873,0.521,2.165,0.581
		c0.412,0.019,0.896-0.108,1.369-0.108c0.574,0,1.117,0.091,1.596,0.064c1.152-0.063,1.938-0.537,1.938-0.537
		s-0.966-0.257-1.874-0.257C25.928,34.492,25.252,34.749,25,34.749z"/>
	<path d="M25,32.656c-2.206,0-4,2.093-4,2.093s1.794,2.527,4,2.527c2.207,0,4-2.527,4-2.527S27.207,32.656,25,32.656z M25,36.586
		c-2.207,0-3.534-1.837-3.534-1.837s1.958-1.386,2.423-1.353C24.354,33.429,25,33.922,25,33.922s0.812-0.526,1.377-0.526
		s2.157,1.353,2.157,1.353S27.207,36.586,25,36.586z"/>
	<path d="M23.785,28.149c0-1.394-1.134-2.527-2.527-2.527c-1.395,0-2.527,1.133-2.527,2.527c0,1.394,1.133,2.527,2.527,2.527
		C22.651,30.676,23.785,29.543,23.785,28.149z M22.172,27.477c0.633,0.305,0.797,0.987,0.836,1.256
		c0.039,0.27-0.535,0.101-0.554-0.071c-0.013-0.12,0.032-0.306-0.263-0.583l-0.009,0.173c-0.226,0.392-0.728,0.526-1.118,0.3
		c-0.391-0.226-0.525-0.723-0.303-1.114c-0.606-0.095-1.256-0.108-1.256-0.108S21.322,27.066,22.172,27.477z M19.743,28.396
		c0,0,0.575,0.265,1.081,0.37c0.456,0.095,1.59,0.146,1.59,0.146s-0.97,0.141-1.484,0.141
		C20.416,29.052,19.743,28.396,19.743,28.396z"/>
	<path d="M37.724,23.015c0.012-0.221,0.036-0.439,0.036-0.664c0-7.036-5.725-12.76-12.76-12.76s-12.76,5.725-12.76,12.76
		c0,3.763,1.646,7.141,4.247,9.478c1.663,4.968,6.347,8.58,8.513,8.58s6.85-3.612,8.513-8.58c1.03-0.926,1.903-2.021,2.591-3.234
		c0.158-0.12,0.293-0.255,0.383-0.414l0.3-0.524l-0.155-0.08l0.002-0.005l0.345-0.199c0.748-0.431,1.191-1.565,1.287-2.438
		C38.355,24.113,38.16,23.436,37.724,23.015z M36.524,21.985l0.005,0.067l-0.045-0.07L36.524,21.985z M25,10.806
		c5.494,0,10.094,3.861,11.251,9.011c-0.562-0.836-1.486-1.466-2.377-1.466l-0.247,0.028c-4.689-4.368-11.547-5.307-16.623-4.334
		C19.08,12.044,21.896,10.806,25,10.806z M28.936,28.552c-0.391,0.226-0.893,0.092-1.118-0.3l-0.009-0.173
		c-0.295,0.277-0.25,0.463-0.263,0.583c-0.019,0.171-0.593,0.34-0.554,0.071c0.039-0.269,0.203-0.951,0.836-1.256
		c0.85-0.411,2.666-0.147,2.666-0.147s-0.649,0.014-1.256,0.108C29.461,27.829,29.326,28.327,28.936,28.552z M30.257,28.396
		c0,0-0.673,0.656-1.187,0.656c-0.515,0-1.484-0.141-1.484-0.141s1.134-0.051,1.59-0.146C29.682,28.661,30.257,28.396,30.257,28.396
		z M31.553,18.231c-0.623,0.124-1.196,0.44-1.638,0.973c-0.101,0.122-0.175,0.266-0.26,0.401c-1.364-0.716-2.952-1.07-4.655-1.07
		c-1.6,0-3.104,0.307-4.41,0.938c0.088-0.088,0.169-0.182,0.26-0.268c2.086-1.964,4.765-2.959,7.551-2.798
		C29.507,16.883,30.564,17.496,31.553,18.231z M15.961,29.512c-1.564-1.97-2.506-4.456-2.506-7.16c0-2.513,0.816-4.833,2.184-6.73
		c2.736-0.836,6.328-1.022,9.825-0.185c-2.007,0.434-3.88,1.408-5.447,2.884c-1.521,1.432-2.624,3.223-3.159,5
		c-0.617,1.345-0.973,2.979-0.973,4.936C15.885,28.681,15.912,29.1,15.961,29.512z M25,39.604c-3.098,0-8.25-6.293-8.25-11.616
		c0-4.631,3.693-8.384,8.25-8.384c1.521,0,2.943,0.426,4.167,1.156c-0.122,0.525-0.146,1.077-0.046,1.607l0.104,0.509l-0.083,0.167
		c-0.347,0.844-0.302,1.789,0.089,2.629c-0.158-0.031-0.321-0.049-0.488-0.049c-1.394,0-2.527,1.133-2.527,2.527
		c0,1.394,1.134,2.527,2.527,2.527c1.395,0,2.527-1.133,2.527-2.527c0-0.316-0.064-0.615-0.171-0.894l0.7,0.138
		c0.021,0.192,0.066,0.373,0.143,0.538c0.231,0.501,0.713,0.809,1.255,0.98C32.662,34.012,27.921,39.604,25,39.604z M31.607,26.417
		c-0.01-0.106,0.136-0.302,0.383-0.534c-0.09,0.307-0.16,0.625-0.189,0.932L31.607,26.417z M34.039,29.512
		c0.018-0.143,0.015-0.291,0.026-0.436c0.091,0.006,0.183,0.011,0.271,0.011C34.235,29.228,34.146,29.376,34.039,29.512z
		 M36.689,26.875c-1.094-2.118-2.638-2.515-2.638-2.515s0.595,2.851,1.935,3.536c-0.497,0.868-3.04,0.837-3.521-0.206
		c-0.48-1.043,0.822-3.385,0.822-3.385s-2.677,1.372-2.198,2.361c-1.033-0.202-2.051-1.851-1.414-3.405
		c0.468-1.142,3.113,0.128,3.113,0.128s-2.509-2.174-3.101-1.129c-0.341-1.812,0.935-3.907,2.892-3.476
		c-1.549,1.425,0.746,4.055,0.746,4.055s-0.854-2.868-0.221-3.577c0.939-1.054,3.089,0.564,3.102,2.119
		c-1.101-0.083-2.141,2.11-2.141,2.11s2.399-0.852,3.246-0.082C38.155,24.183,37.521,26.396,36.689,26.875z M35.759,26.454
		c-0.041,0.107-0.079,0.215-0.124,0.32c-0.229-0.331-0.435-0.737-0.602-1.161C35.268,25.825,35.516,26.106,35.759,26.454z
		 M35.419,22.58l-0.108,0.009l0.068-0.077L35.419,22.58z"/>
</g>
</svg>
