<?xml version="1.0" encoding="utf-8"?>
<!-- Generator: Adobe Illustrator 16.0.0, SVG Export Plug-In . SVG Version: 6.00 Build 0)  -->
<!DOCTYPE svg PUBLIC "-//W3C//DTD SVG 1.1//EN" "http://www.w3.org/Graphics/SVG/1.1/DTD/svg11.dtd">
<svg version="1.1" id="Layer_1" xmlns="http://www.w3.org/2000/svg" xmlns:xlink="http://www.w3.org/1999/xlink" x="0px" y="0px"
	 width="50px" height="50px" viewBox="0 0 50 50" enable-background="new 0 0 50 50" xml:space="preserve">
<g>
	<path d="M31.938,25.506l-1.64-0.609c-0.751-0.278-2.023-0.507-2.824-0.507h-4.947c-0.801,0-2.073,0.229-2.824,0.507l-1.64,0.609
		c-0.751,0.278-1.238,1.15-1.081,1.936l2.343,11.718c0.157,0.786,0.942,1.43,1.744,1.43h7.863c0.801,0,1.586-0.644,1.744-1.43
		l2.343-11.718C33.176,26.656,32.69,25.784,31.938,25.506z M29.889,31.033c0,0.401-0.328,0.729-0.729,0.729h-8.319
		c-0.401,0-0.729-0.328-0.729-0.729v-2.368c0-0.401,0.328-0.729,0.729-0.729h8.319c0.401,0,0.729,0.329,0.729,0.729V31.033z"/>
	<polygon points="27.474,9.41 22.527,9.41 21.069,22.932 28.932,22.932 	"/>
</g>
</svg>
