<?xml version="1.0" encoding="utf-8"?>
<!-- Generator: Adobe Illustrator 16.0.0, SVG Export Plug-In . SVG Version: 6.00 Build 0)  -->
<!DOCTYPE svg PUBLIC "-//W3C//DTD SVG 1.1//EN" "http://www.w3.org/Graphics/SVG/1.1/DTD/svg11.dtd">
<svg version="1.1" id="Layer_1" xmlns="http://www.w3.org/2000/svg" xmlns:xlink="http://www.w3.org/1999/xlink" x="0px" y="0px"
	 width="50px" height="50px" viewBox="0 0 50 50" enable-background="new 0 0 50 50" xml:space="preserve">
<g>
	<path d="M22.879,22.567h-0.035c-0.08,0.514-0.193,1.314-0.274,1.759l-0.286,1.601h1.098l-0.251-1.611
		C23.049,23.846,22.947,23.081,22.879,22.567z"/>
	<path d="M21.062,24.735c0-0.442-0.17-0.846-0.624-0.846c-0.755,0-1.157,1.365-1.157,2.158c0,0.494,0.194,0.884,0.637,0.884
		C20.685,26.932,21.062,25.477,21.062,24.735z"/>
	<path d="M23.611,19.591c0-0.356-0.259-0.472-0.565-0.472c-0.148,0-0.253,0.011-0.319,0.027l-0.208,1.093
		c0.082,0.017,0.17,0.027,0.302,0.027C23.298,20.267,23.611,19.959,23.611,19.591z"/>
	<path d="M26.384,19.854c-0.017-0.203-0.039-0.5-0.056-0.725h-0.011c-0.094,0.225-0.197,0.511-0.297,0.725l-0.368,0.797h0.803
		L26.384,19.854z"/>
	<path d="M25.832,27.387c-0.754,0-1.157,1.379-1.157,2.172c0,0.507,0.195,0.884,0.638,0.884c0.767,0,1.144-1.469,1.144-2.21
		C26.456,27.79,26.287,27.387,25.832,27.387z"/>
	<path d="M37.707,23.913l-0.926-0.617c-0.872-0.581-1.205-1.826-0.74-2.766l0.492-0.998c0.465-0.939-0.012-1.764-1.058-1.832
		l-1.108-0.072c-1.045-0.066-1.957-0.979-2.024-2.024l-0.072-1.109c-0.067-1.045-0.892-1.521-1.831-1.057l-0.997,0.491
		c-0.94,0.465-2.185,0.132-2.766-0.74l-0.616-0.925c-0.582-0.873-1.533-0.873-2.115,0l-0.617,0.926
		c-0.582,0.873-1.826,1.206-2.766,0.74l-0.998-0.492c-0.939-0.465-1.764,0.012-1.83,1.057l-0.072,1.111
		c-0.068,1.046-0.979,1.958-2.025,2.024l-1.111,0.07c-1.047,0.068-1.521,0.893-1.058,1.832l0.493,0.998
		c0.465,0.939,0.131,2.185-0.74,2.766l-0.928,0.617c-0.871,0.58-0.871,1.533,0,2.113l0.928,0.618
		c0.873,0.581,1.206,1.826,0.742,2.766l-0.494,0.998c-0.464,0.939,0.012,1.764,1.057,1.832l1.115,0.069
		c1.045,0.068,1.956,0.98,2.023,2.025l0.071,1.109c0.067,1.046,0.892,1.522,1.831,1.057l0.994-0.49
		c0.941-0.466,2.186-0.133,2.766,0.74l0.619,0.927c0.582,0.873,1.533,0.873,2.115,0l0.617-0.927c0.582-0.873,1.826-1.206,2.766-0.74
		l0.998,0.492c0.939,0.465,1.763-0.012,1.83-1.057l0.072-1.111c0.068-1.045,0.979-1.957,2.025-2.025l1.107-0.069
		c1.046-0.068,1.521-0.893,1.058-1.832l-0.493-0.998c-0.465-0.939-0.132-2.185,0.74-2.766l0.926-0.618
		C38.578,25.446,38.578,24.493,37.707,23.913z M25.944,18.515h1.016l0.434,3.702h-0.829l-0.077-0.961h-1.065l-0.439,0.961h-0.841
		L25.944,18.515z M22.057,18.586c0.236-0.061,0.609-0.099,0.967-0.099c0.329,0,0.714,0.055,0.983,0.247
		c0.247,0.17,0.4,0.428,0.4,0.785c0,0.467-0.214,0.818-0.505,1.044c-0.302,0.236-0.73,0.341-1.181,0.341
		c-0.132,0-0.242-0.012-0.324-0.022l-0.253,1.335H21.37L22.057,18.586z M18.449,21.359c0.22,0.133,0.533,0.236,0.873,0.236
		c0.308,0,0.588-0.143,0.588-0.434c0-0.209-0.159-0.346-0.5-0.521c-0.396-0.215-0.769-0.5-0.769-0.983
		c0-0.747,0.653-1.203,1.461-1.203c0.45,0,0.714,0.099,0.873,0.187L20.729,19.3c-0.12-0.065-0.384-0.17-0.691-0.165
		c-0.368,0-0.561,0.188-0.561,0.391c0,0.214,0.226,0.346,0.538,0.521c0.45,0.236,0.736,0.538,0.736,0.978
		c0,0.824-0.682,1.247-1.505,1.247c-0.517,0-0.885-0.132-1.061-0.264L18.449,21.359z M17.85,26.009c0-1.689,1.105-3.198,2.77-3.198
		c1.183,0,1.872,0.819,1.872,1.938c0,1.859-1.184,3.263-2.717,3.263C18.656,28.011,17.85,27.271,17.85,26.009z M20.269,31.547H19.15
		l6.279-8.736h1.104L20.269,31.547z M25.156,31.521c-1.105,0-1.911-0.741-1.911-2.002c0-1.678,1.105-3.211,2.77-3.211
		c1.183,0,1.872,0.818,1.872,1.937C27.887,30.104,26.703,31.521,25.156,31.521z M29.576,31.547c-0.638,0-1.054-0.455-1.054-1.065
		c0-0.689,0.521-1.3,1.248-1.3c0.638,0,1.079,0.455,1.079,1.092C30.85,31.015,30.304,31.547,29.576,31.547z M30.733,28.531H29.29
		l0.845-5.89h2.016L30.733,28.531z"/>
</g>
</svg>
