<?xml version="1.0" encoding="utf-8"?>
<!-- Generator: Adobe Illustrator 16.0.0, SVG Export Plug-In . SVG Version: 6.00 Build 0)  -->
<!DOCTYPE svg PUBLIC "-//W3C//DTD SVG 1.1//EN" "http://www.w3.org/Graphics/SVG/1.1/DTD/svg11.dtd">
<svg version="1.1" id="Layer_1" xmlns="http://www.w3.org/2000/svg" xmlns:xlink="http://www.w3.org/1999/xlink" x="0px" y="0px"
	 width="50px" height="50px" viewBox="0 0 50 50" enable-background="new 0 0 50 50" xml:space="preserve">
<g>
	<path d="M40.474,31.818c0-1.701-6.929-0.616-15.475-0.616c-8.545,0-15.474-1.085-15.474,0.616c0,1.127,3.05,2.65,7.584,3.552
		c-2.189,0.659-3.715,1.568-3.715,2.592c0,0.341,0.274,0.633,0.613,0.633c0.342,0,0.616-0.259,0.616-0.599
		c0.179-0.525,2.423-1.562,5.81-2.114c1.443,0.158,2.976,0.249,4.565,0.249c1.591,0,3.125-0.091,4.57-0.249
		c3.384,0.55,5.626,1.579,5.802,2.08c0,0.341,0.277,0.617,0.615,0.617c0.342,0,0.617-0.276,0.617-0.617
		c0-1.024-1.526-1.934-3.714-2.592C37.425,34.468,40.474,32.945,40.474,31.818z"/>
	<path d="M16.571,12.028c-0.411,0.11-0.654,0.532-0.544,0.943l3.538,13.211c0.083,0.304,0.337,0.515,0.631,0.56L21,29.744
		c0.044,0.165,0.212,0.262,0.378,0.218c0.163-0.044,0.26-0.212,0.217-0.377l-0.805-3.001c0.232-0.186,0.348-0.495,0.266-0.8
		l-3.541-13.21C17.404,12.162,16.98,11.918,16.571,12.028z"/>
	<path d="M33.429,12.028c-0.411-0.11-0.835,0.134-0.943,0.545l-3.541,13.21c-0.082,0.305,0.033,0.614,0.266,0.8l-0.807,3.001
		c-0.043,0.165,0.056,0.333,0.22,0.377c0.163,0.044,0.331-0.053,0.377-0.218l0.804-3.001c0.292-0.045,0.546-0.255,0.628-0.56
		l3.541-13.211C34.083,12.56,33.838,12.138,33.429,12.028z"/>
	<path d="M25.047,11.405c-0.426,0-0.772,0.345-0.77,0.77l-0.001,13.678c0,0.315,0.192,0.584,0.463,0.704l-0.003,3.107
		c0.002,0.171,0.14,0.308,0.31,0.308s0.308-0.137,0.31-0.308l-0.001-3.107c0.269-0.119,0.462-0.389,0.462-0.704V12.175
		C25.817,11.75,25.471,11.405,25.047,11.405z"/>
</g>
</svg>
