<?xml version="1.0" encoding="utf-8"?>
<!-- Generator: Adobe Illustrator 16.0.0, SVG Export Plug-In . SVG Version: 6.00 Build 0)  -->
<!DOCTYPE svg PUBLIC "-//W3C//DTD SVG 1.1//EN" "http://www.w3.org/Graphics/SVG/1.1/DTD/svg11.dtd">
<svg version="1.1" id="Layer_1" xmlns="http://www.w3.org/2000/svg" xmlns:xlink="http://www.w3.org/1999/xlink" x="0px" y="0px"
	 width="50px" height="50px" viewBox="0 0 50 50" enable-background="new 0 0 50 50" xml:space="preserve">
<g>
	<path d="M34.338,13.086c-0.738-0.591-3.346-2.989-4.233-2.685c-0.888,0.304-2.167,2.121-2.743,2.685
		c-0.575,0.564-2.25,4.703-2.691,5.569c-0.44,0.867-1.222,15.855-1.222,15.855s-0.401-15.184,0-16.11
		c0.4-0.927,1.744-4.18,2.039-4.887s-2.327-3.192-3.177-3.112s-3.793,1.934-4.438,2.685c-0.645,0.752-6.068,6.801-6.101,7.592
		c-0.033,0.79,2.327,2.509,3.065,2.451c0.738-0.058,4.016-3.634,4.116-2.539s-1.721,18.818-0.963,19.004
		c0.758,0.185,4.723-0.464,5.115-1.024c0.391-0.56,0.224-2.517,0.224-2.517s1.21,1.595,1.671,1.734
		c0.461,0.139,7.391,1.902,7.996,1.456c0.605-0.445-1.78-19.245-1.342-19.529c0.437-0.284,4.988,2.913,5.598,2.675
		c0.609-0.239,0.749-2.291,0.966-2.957C38.435,18.766,35.076,13.678,34.338,13.086z M30.402,29.072c0,0-0.58,2.729-2.151,2.729
		S26.1,29.072,26.1,29.072s-0.275-0.994,0-1.241s4.101-0.19,4.303,0S30.402,29.072,30.402,29.072z"/>
</g>
</svg>
