<?xml version="1.0" encoding="utf-8"?>
<!-- Generator: Adobe Illustrator 16.0.0, SVG Export Plug-In . SVG Version: 6.00 Build 0)  -->
<!DOCTYPE svg PUBLIC "-//W3C//DTD SVG 1.1//EN" "http://www.w3.org/Graphics/SVG/1.1/DTD/svg11.dtd">
<svg version="1.1" id="Layer_1" xmlns="http://www.w3.org/2000/svg" xmlns:xlink="http://www.w3.org/1999/xlink" x="0px" y="0px"
	 width="50px" height="50px" viewBox="0 0 50 50" enable-background="new 0 0 50 50" xml:space="preserve">
<g>
	<path d="M35.567,17.818c0.628,0,1.137-1.08,1.137-2.414c0-1.333-1.137-3.899-1.137-3.899s-1.137,2.566-1.137,3.899
		C34.43,16.738,34.938,17.818,35.567,17.818z"/>
	<path d="M36.859,30.184c-0.062-0.394-0.167-0.776-0.27-1.159c-0.031-0.112-0.046-0.229-0.08-0.34
		c-0.932-3.03-3.116-5.604-5.468-6.792c-3.116-1.571-1.131-8.597,0-9.484c0.879-0.691,1.848-1.489,4.18-1.489
		c0.091,0,0.182,0.001,0.276,0.003c-0.91-0.75-2.776-1.011-4.939-1.011c-5.017,0-11.632,1.407-11.632,1.407l0.009,0.004
		c-2.786,0.496-4.954,0.979-5.679,2.44c-0.396,0.795-0.305,1.731,0.275,2.861c1.339,2.606,3.128,3.49,4.435,4.137
		c1.052,0.52,1.612,0.826,1.824,1.575l0.169-0.047c-2.071,1.243-3.944,3.632-4.785,6.4c-0.038,0.123-0.056,0.251-0.089,0.375
		c-0.099,0.372-0.199,0.742-0.259,1.123c-0.082,0.514-0.126,1.035-0.126,1.558c0,3.325,1.463,6.301,3.773,8.342H33.21
		c2.309-2.042,3.774-5.017,3.774-8.342C36.984,31.219,36.94,30.697,36.859,30.184z M18.624,19.431
		c-1.245-0.617-2.656-1.314-3.771-3.484c-0.345-0.671-0.435-1.184-0.267-1.521c0.454-0.913,2.818-1.328,5.321-1.766l0.818-0.145
		c0.804,1.043,2.683,7.259,0.348,9.102C20.598,20.452,19.61,19.917,18.624,19.431z M21.269,23.241
		c0.871-0.404,1.979-1.327,2.319-3.431c0.394-2.433-0.418-5.861-1.316-7.596c2.146-0.353,5.087-0.753,7.667-0.81
		c-1.28,1.268-2.277,5.006-2.009,7.699c0.25,2.51,1.465,3.623,2.443,4.116c1.072,0.54,2.16,1.499,3.065,2.706H18.225
		C19.126,24.699,20.21,23.733,21.269,23.241z"/>
</g>
</svg>
