<?xml version="1.0" encoding="utf-8"?>
<!-- Generator: Adobe Illustrator 16.0.0, SVG Export Plug-In . SVG Version: 6.00 Build 0)  -->
<!DOCTYPE svg PUBLIC "-//W3C//DTD SVG 1.1//EN" "http://www.w3.org/Graphics/SVG/1.1/DTD/svg11.dtd">
<svg version="1.1" id="Layer_1" xmlns="http://www.w3.org/2000/svg" xmlns:xlink="http://www.w3.org/1999/xlink" x="0px" y="0px"
	 width="50px" height="50px" viewBox="0 0 50 50" enable-background="new 0 0 50 50" xml:space="preserve">
<g>
	<path d="M34.761,25.101c0.045,0.208,0.074,0.35,0.081,0.387l0.014,0.072l0.219,0.036c0.763,0.251,1.2,0.535,1.2,0.837
		c0,1.033-5.048,1.87-11.275,1.87c-6.227,0-11.274-0.837-11.274-1.87c0-0.302,0.438-0.586,1.197-0.837
		c0.092-0.018,0.194-0.031,0.288-0.048l0.028-0.113c0.008-0.031,0.04-0.156,0.095-0.352c-5.58,0.965-9.33,2.735-9.33,4.767
		c0,3.063,8.506,5.546,18.996,5.546c10.492,0,18.997-2.482,18.997-5.546C43.996,27.83,40.288,26.068,34.761,25.101z M24.999,31.777
		c-8.692,0-15.739-1.565-15.739-3.496c0-0.767,1.123-1.474,3.007-2.051c-0.557,0.324-0.876,0.675-0.876,1.042
		c0,1.64,6.093,2.968,13.608,2.968s13.608-1.328,13.608-2.968c0-0.367-0.318-0.718-0.876-1.042c1.884,0.577,3.008,1.284,3.008,2.051
		C40.739,30.212,33.692,31.777,24.999,31.777z"/>
	<path d="M26.483,16.575c-0.71-0.821-1.501-1.541-2.351-1.97c-0.776,0.579-1.622,2.165-2.331,3.768
		c0.318,0.423,0.719,0.864,1.182,1.314C24.025,18.664,25.274,17.506,26.483,16.575z"/>
	<path d="M30.139,24.948l1.241,0.731c1.38,0,2.445,0,2.445,0s-1.475-7.537-4.136-9.974c-1.505,0.305-4.153,2.669-6.081,4.562
		C25.761,22.186,28.707,24.104,30.139,24.948z"/>
	<path d="M29.707,25.68c0,0-8.399-4.95-9.398-8.275c-2.661,2.438-4.136,8.275-4.136,8.275s5.022,1,8.68,1S29.707,25.68,29.707,25.68
		z"/>
</g>
</svg>
