<?xml version="1.0" encoding="utf-8"?>
<!-- Generator: Adobe Illustrator 16.0.0, SVG Export Plug-In . SVG Version: 6.00 Build 0)  -->
<!DOCTYPE svg PUBLIC "-//W3C//DTD SVG 1.1//EN" "http://www.w3.org/Graphics/SVG/1.1/DTD/svg11.dtd">
<svg version="1.1" id="Layer_1" xmlns="http://www.w3.org/2000/svg" xmlns:xlink="http://www.w3.org/1999/xlink" x="0px" y="0px"
	 width="50px" height="50px" viewBox="0 0 50 50" enable-background="new 0 0 50 50" xml:space="preserve">
<g>
	<path d="M27.284,28.269l-7.042,1.062l-1.928-9.91c-0.211-1.084-1.258-1.798-2.345-1.581c-1.084,0.211-1.792,1.261-1.581,2.345
		l2,10.279c0.134,0.688,0.607,1.22,1.211,1.466h-3.35c-0.553,0-1,0.447-1,1s0.447,1,1,1h9.6c0.553,0,1-0.447,1-1s-0.447-1-1-1
		h-4.072l6.682-1.007l1.631,8.928c0.11,0.604,0.636,1.025,1.229,1.025l0.226-0.021c0.679-0.124,1.129-0.775,1.005-1.454L28.7,29.28
		C28.58,28.616,27.964,28.177,27.284,28.269z"/>
	<circle cx="17.494" cy="13.877" r="3.612"/>
	<path d="M27.151,26.438c4.65-2.946-3.185-4.985,0-8.429C22.242,21.232,29.65,23.822,27.151,26.438z"/>
	<path d="M31.502,19.643c-4.908,3.224,2.498,5.813,0,8.429C36.152,25.126,28.316,23.086,31.502,19.643z"/>
	<path d="M33.449,14.863c-4.909,3.223,2.499,5.812,0,8.429C38.1,20.344,30.264,18.307,33.449,14.863z"/>
</g>
</svg>
