<?xml version="1.0" encoding="utf-8"?>
<!-- Generator: Adobe Illustrator 16.0.0, SVG Export Plug-In . SVG Version: 6.00 Build 0)  -->
<!DOCTYPE svg PUBLIC "-//W3C//DTD SVG 1.1//EN" "http://www.w3.org/Graphics/SVG/1.1/DTD/svg11.dtd">
<svg version="1.1" id="Layer_1" xmlns="http://www.w3.org/2000/svg" xmlns:xlink="http://www.w3.org/1999/xlink" x="0px" y="0px"
	 width="50px" height="50px" viewBox="0 0 50 50" enable-background="new 0 0 50 50" xml:space="preserve">
<g>
	<path d="M40.474,31.818c0-1.701-6.929-0.616-15.475-0.616c-8.545,0-15.474-1.085-15.474,0.616c0,1.127,3.05,2.65,7.584,3.552
		c-2.189,0.659-3.715,1.568-3.715,2.592c0,0.341,0.274,0.633,0.613,0.633c0.342,0,0.616-0.259,0.616-0.599
		c0.179-0.525,2.423-1.562,5.81-2.114c1.443,0.158,2.976,0.249,4.565,0.249c1.591,0,3.125-0.091,4.57-0.249
		c3.384,0.55,5.626,1.579,5.802,2.08c0,0.341,0.277,0.617,0.615,0.617c0.342,0,0.617-0.276,0.617-0.617
		c0-1.024-1.526-1.934-3.714-2.592C37.425,34.468,40.474,32.945,40.474,31.818z"/>
	<path d="M25.001,29.973c2.698,0,4.883-0.476,4.883-1.061v-10.77c0-0.502-1.615-0.92-3.777-1.031
		c1.569-1.938,0.072-4.475-1.639-5.912c0.32,1.565-2.279,3.766-0.599,5.916c-2.146,0.11-3.751,0.527-3.751,1.027v10.77
		C20.118,29.497,22.306,29.973,25.001,29.973z M24.045,17.322c0.164,0.181,0.351,0.362,0.584,0.542
		c-0.238-0.216-0.389-0.429-0.486-0.639l-0.055-0.125c-0.37-1.053,0.727-2.071,0.939-3.322c0.752,1.215,1.383,2.388,0.888,3.395
		l-0.031,0.063c-0.075,0.132-0.162,0.264-0.278,0.391c0.12-0.098,0.221-0.204,0.322-0.309c2.418,0.1,3.744,0.567,3.744,0.822
		c0,0.254-1.59,0.848-4.67,0.848c-3.082,0-4.669-0.594-4.669-0.848C20.333,17.887,21.647,17.425,24.045,17.322z"/>
	<path d="M25.003,18.356c0.117,0,0.213-0.096,0.213-0.215v-1.83c0-0.118-0.096-0.213-0.213-0.213c-0.118,0-0.215,0.095-0.215,0.213
		v1.83C24.789,18.261,24.885,18.356,25.003,18.356z"/>
</g>
</svg>
