<?xml version="1.0" encoding="utf-8"?>
<!-- Generator: Adobe Illustrator 16.0.0, SVG Export Plug-In . SVG Version: 6.00 Build 0)  -->
<!DOCTYPE svg PUBLIC "-//W3C//DTD SVG 1.1//EN" "http://www.w3.org/Graphics/SVG/1.1/DTD/svg11.dtd">
<svg version="1.1" id="Layer_1" xmlns="http://www.w3.org/2000/svg" xmlns:xlink="http://www.w3.org/1999/xlink" x="0px" y="0px"
	 width="50px" height="50px" viewBox="0 0 50 50" enable-background="new 0 0 50 50" xml:space="preserve">
<g>
	<path d="M15.741,27.217c0-1.367-6.524-4.84-6.524-2.63s0,2.63,0,2.63c0,2.649,1.017,4.648,2.749,6.112l0.708,3.357h0.62
		l0.456-2.164c2.863,1.529,6.843,2.164,11.25,2.164s8.387-0.635,11.25-2.164l0.456,2.164h0.62l0.708-3.357
		c1.732-1.464,2.749-3.463,2.749-6.112H15.741z"/>
	<path d="M22.869,21.376l1.206-1.205l0.07,0.013c0.146,0.025,0.284-0.016,0.379-0.11l1.545-1.545
		c-0.421-0.118,0.08-0.692-0.226-0.997l-1.932,1.932c-0.095,0.095-0.135,0.232-0.109,0.378l0.012,0.071l-1.206,1.205l0,0.259H22.869
		z"/>
	<path d="M23.062,21.571l1.108-1.109c0.208,0.017,0.404-0.053,0.546-0.195l2.577-2.577c0.421,0.358,0.757,0.564,0.833,0.486
		l1.054-1.054c0.057-0.057-0.04-0.252-0.235-0.518l1.403-1.403c0.433-0.432,0.433-1.133,0-1.564c-0.432-0.433-1.132-0.433-1.565,0
		l-1.403,1.403c-0.265-0.195-0.462-0.291-0.518-0.234l-1.054,1.053c-0.076,0.077,0.128,0.413,0.487,0.833L23.72,19.27
		c-0.143,0.143-0.212,0.34-0.195,0.548l-1.109,1.106c-0.178,0.179-0.178,0.468,0,0.646C22.594,21.748,22.884,21.748,23.062,21.571z
		 M22.513,21.021l1.156-1.156c-0.031-0.177,0.011-0.362,0.148-0.499l2.571-2.57c0.118,0.133,0.247,0.272,0.389,0.415
		c0.142,0.141,0.281,0.271,0.415,0.39l-2.57,2.568c-0.136,0.138-0.322,0.18-0.499,0.149l-1.156,1.155
		c-0.125,0.124-0.328,0.124-0.453,0C22.388,21.349,22.388,21.146,22.513,21.021z"/>
	<path d="M22.283,25.135c0.428,0,0.776-0.349,0.776-0.775c0-0.428-0.776-1.914-0.776-1.914s-0.776,1.486-0.776,1.914
		C21.507,24.786,21.854,25.135,22.283,25.135z"/>
</g>
</svg>
