<?xml version="1.0" encoding="utf-8"?>
<!-- Generator: Adobe Illustrator 16.0.0, SVG Export Plug-In . SVG Version: 6.00 Build 0)  -->
<!DOCTYPE svg PUBLIC "-//W3C//DTD SVG 1.1//EN" "http://www.w3.org/Graphics/SVG/1.1/DTD/svg11.dtd">
<svg version="1.1" id="Layer_1" xmlns="http://www.w3.org/2000/svg" xmlns:xlink="http://www.w3.org/1999/xlink" x="0px" y="0px"
	 width="50px" height="50px" viewBox="0 0 50 50" enable-background="new 0 0 50 50" xml:space="preserve">
<g>
	<path d="M24.94,15.091c0.489,0,1.547-0.817,1.923-1.939c0.232-0.209,0.43-0.456,0.585-0.729l0.086-0.095l0.068-0.118l-0.035-0.018
		l0-0.002l0.078-0.044c0.169-0.098,0.27-0.354,0.291-0.551c0.021-0.187-0.023-0.339-0.123-0.435l0.008-0.149
		c0-1.59-1.293-2.883-2.882-2.883c-1.59,0-2.883,1.293-2.883,2.883c0,0.85,0.372,1.612,0.959,2.141
		C23.393,14.273,24.451,15.091,24.94,15.091z"/>
	<path d="M21.922,27.782l1.186,13.336c0,0.416,0.337,0.754,0.753,0.754s0.753-0.338,0.753-0.754l0.374-12.949
		c-1.328-0.002-2.465-0.255-3.043-0.621L21.922,27.782z"/>
	<path d="M25.011,28.169l0.374,12.949c0,0.416,0.337,0.754,0.753,0.754c0.417,0,0.753-0.338,0.753-0.754l1.187-13.336l-0.024-0.234
		C27.476,27.916,26.338,28.167,25.011,28.169z"/>
	<path d="M25,15.091c-2.548,0-4.616,0.859-4.616,1.923l0.385,9.231c0,0.247,0.286,0.476,0.769,0.663v-9.51
		c0,0.638,1.55,1.153,3.462,1.153s3.462-0.516,3.462-1.153h0v9.51c0.483-0.188,0.769-0.416,0.769-0.663l0.385-9.231
		C29.616,15.95,27.548,15.091,25,15.091z"/>
</g>
</svg>
