<?xml version="1.0" encoding="utf-8"?>
<!-- Generator: Adobe Illustrator 16.0.0, SVG Export Plug-In . SVG Version: 6.00 Build 0)  -->
<!DOCTYPE svg PUBLIC "-//W3C//DTD SVG 1.1//EN" "http://www.w3.org/Graphics/SVG/1.1/DTD/svg11.dtd">
<svg version="1.1" id="Layer_1" xmlns="http://www.w3.org/2000/svg" xmlns:xlink="http://www.w3.org/1999/xlink" x="0px" y="0px"
	 width="50px" height="50px" viewBox="0 0 50 50" enable-background="new 0 0 50 50" xml:space="preserve">
<g>
	<path d="M40.616,28.399c0.115-1.439-0.893-3.205-4.071-3.569c0.832-1.298,1.168-2.536,0.972-3.596
		c-0.14-0.76-0.542-1.387-1.163-1.813c-0.466-0.321-1.011-0.491-1.574-0.491c-0.223,0-0.445,0.035-0.668,0.086l0.054-0.185v-3.542
		c0-1.182-5.549-2.14-12.396-2.14c-6.846,0-12.396,0.958-12.396,2.14v3.542c0,1.181,5.55,2.14,12.396,2.14
		c1.068,0,2.101-0.026,3.09-0.07c-0.042,0.297-0.053,0.609-0.025,0.938c-1.162,0.046-2.229,0.061-3.064,0.061
		c-3.09,0-9.322-0.183-12.02-1.535l-0.06,0.219v13.008c0,1.241,5.408,2.246,12.079,2.246c1.132,0,2.222-0.031,3.261-0.085
		l0.033,0.03c0.466,0.322,1.01,0.492,1.574,0.492c0.758,0,1.524-0.303,2.252-0.872c0.712-0.097,1.363-0.208,1.945-0.331
		c1.099,1.501,2.272,1.779,2.953,1.779c0.409,0,0.808-0.091,1.182-0.269c0.682-0.322,1.18-0.877,1.439-1.604
		c0.363-1.017,0.229-2.294-0.386-3.709c0.143,0.006,0.282,0.01,0.417,0.01C39.348,31.279,40.503,29.792,40.616,28.399z
		 M21.77,16.964c-7.485,0-11.688-1.089-11.934-1.652c0.246-0.609,4.446-1.698,11.934-1.698s11.688,1.089,11.934,1.653
		C33.457,15.875,29.255,16.964,21.77,16.964z M32.369,19.936c-0.396,0.333-0.779,0.74-1.142,1.228
		c-0.165-0.321-0.335-0.602-0.508-0.854C31.346,20.195,31.896,20.07,32.369,19.936z M21.77,32.585
		c-5.981,0-9.665-0.783-10.686-1.299v-7.118c3.129,0.816,7.604,0.974,10.445,0.982c-0.449,0.496-0.682,1.082-0.728,1.654
		c-0.061,0.753,0.172,1.462,0.674,2.051c0.698,0.821,1.87,1.342,3.398,1.516c-0.485,0.758-0.797,1.486-0.938,2.178
		C23.252,32.572,22.529,32.585,21.77,32.585z M35.777,30.251c-0.748-0.059-1.508-0.329-2.204-0.674
		c0.568,0.531,1.093,1.146,1.412,1.824c1.059,2.229,0.675,3.749-0.442,4.277c-1.114,0.53-2.537-0.131-3.593-2.361
		c-0.322-0.676-0.47-1.47-0.521-2.246c-0.174,0.759-0.442,1.518-0.872,2.136c-1.399,2.029-2.91,2.454-3.924,1.752
		c-1.016-0.699-1.157-2.258,0.245-4.292c0.426-0.614,1.039-1.141,1.688-1.574c-0.745,0.231-1.539,0.374-2.286,0.312
		c-2.46-0.196-3.58-1.29-3.48-2.521c0.099-1.231,1.379-2.13,3.839-1.934c0.748,0.06,1.51,0.332,2.207,0.675
		c-0.568-0.531-1.092-1.146-1.412-1.824c-1.061-2.229-0.674-3.747,0.443-4.275c1.114-0.53,2.536,0.13,3.593,2.359
		c0.322,0.678,0.469,1.471,0.519,2.248c0.174-0.759,0.445-1.519,0.873-2.136c1.4-2.032,2.909-2.454,3.926-1.753
		c1.019,0.7,1.155,2.26-0.245,4.291c-0.428,0.621-1.042,1.141-1.686,1.573c0.742-0.226,1.536-0.372,2.281-0.312
		c2.46,0.198,3.581,1.294,3.482,2.524C39.52,29.551,38.239,30.451,35.777,30.251z"/>
	<circle cx="30.709" cy="27.602" r="1.787"/>
</g>
</svg>
