<?xml version="1.0" encoding="utf-8"?>
<!-- Generator: Adobe Illustrator 16.0.0, SVG Export Plug-In . SVG Version: 6.00 Build 0)  -->
<!DOCTYPE svg PUBLIC "-//W3C//DTD SVG 1.1//EN" "http://www.w3.org/Graphics/SVG/1.1/DTD/svg11.dtd">
<svg version="1.1" id="Layer_1" xmlns="http://www.w3.org/2000/svg" xmlns:xlink="http://www.w3.org/1999/xlink" x="0px" y="0px"
	 width="50px" height="50px" viewBox="0 0 50 50" enable-background="new 0 0 50 50" xml:space="preserve">
<g>
	<path d="M22.096,27.312c0,0-0.263,0.037-0.447,0.223c-0.186,0.185-0.225,0.446-0.225,0.446s0.263-0.037,0.447-0.223
		C22.057,27.574,22.096,27.312,22.096,27.312z"/>
	<path d="M21.425,28.317c0,0,0.038,0.262,0.224,0.447c0.185,0.185,0.447,0.224,0.447,0.224s-0.039-0.262-0.225-0.448
		C21.687,28.354,21.425,28.317,21.425,28.317z"/>
	<path d="M21.494,28.149c0,0,0.212,0.158,0.475,0.158c0.262,0,0.475-0.158,0.475-0.158s-0.213-0.158-0.475-0.158
		C21.706,27.992,21.494,28.149,21.494,28.149z"/>
	<path d="M21.258,25.938c-1.219,0-2.211,0.992-2.211,2.211c0,1.219,0.992,2.211,2.211,2.211s2.212-0.992,2.212-2.211
		C23.47,26.93,22.477,25.938,21.258,25.938z M21.258,30.203c-1.135,0-2.053-0.919-2.053-2.053s0.918-2.054,2.053-2.054
		c1.134,0,2.053,0.919,2.053,2.054S22.392,30.203,21.258,30.203z"/>
	<path d="M20.42,27.312c0,0,0.039,0.261,0.224,0.446c0.185,0.186,0.446,0.223,0.446,0.223s-0.038-0.261-0.223-0.446
		C20.682,27.35,20.42,27.312,20.42,27.312z"/>
	<path d="M20.42,28.986c0,0,0.262-0.037,0.447-0.222c0.185-0.185,0.223-0.446,0.223-0.446s-0.262,0.037-0.447,0.223
		C20.458,28.726,20.42,28.986,20.42,28.986z"/>
	<path d="M21.02,28.149c0,0-0.211-0.158-0.473-0.158c-0.263,0-0.474,0.158-0.474,0.158s0.211,0.158,0.474,0.158
		C20.809,28.307,21.02,28.149,21.02,28.149z"/>
	<path d="M21.1,28.86c0,0.261,0.158,0.475,0.158,0.475s0.158-0.213,0.158-0.475c0-0.261-0.158-0.474-0.158-0.474
		S21.1,28.599,21.1,28.86z"/>
	<path d="M25,34.749c-0.204,0-0.768-0.3-1.348-0.3c-1.021,0-2.187,0.301-2.187,0.3c0,0,0.873,0.521,2.165,0.581
		c0.412,0.019,0.896-0.108,1.369-0.108c0.574,0,1.117,0.091,1.596,0.064c1.152-0.063,1.938-0.537,1.938-0.537
		s-0.966-0.257-1.874-0.257C25.928,34.492,25.252,34.749,25,34.749z"/>
	<path d="M21.1,27.438c0,0.261,0.158,0.474,0.158,0.474s0.158-0.213,0.158-0.474c0-0.261-0.158-0.474-0.158-0.474
		S21.1,27.177,21.1,27.438z"/>
	<path d="M27.906,27.312c0,0,0.037,0.261,0.223,0.446c0.185,0.186,0.446,0.223,0.446,0.223s-0.038-0.261-0.224-0.446
		C28.167,27.35,27.906,27.312,27.906,27.312z"/>
	<path d="M28.91,28.317c0,0,0.038,0.262,0.223,0.447c0.186,0.185,0.447,0.224,0.447,0.224s-0.039-0.262-0.224-0.448
		C29.172,28.354,28.91,28.317,28.91,28.317z"/>
	<path d="M28.584,28.86c0,0.261,0.158,0.475,0.158,0.475S28.9,29.121,28.9,28.86c0-0.261-0.158-0.474-0.158-0.474
		S28.584,28.599,28.584,28.86z"/>
	<path d="M29.58,27.312c0,0-0.262,0.037-0.447,0.223c-0.185,0.185-0.224,0.446-0.224,0.446s0.263-0.037,0.447-0.223
		C29.541,27.574,29.58,27.312,29.58,27.312z"/>
	<path d="M28.979,28.149c0,0,0.213,0.158,0.475,0.158c0.263,0,0.475-0.158,0.475-0.158s-0.212-0.158-0.475-0.158
		C29.191,27.992,28.979,28.149,28.979,28.149z"/>
	<path d="M28.584,27.438c0,0.261,0.158,0.474,0.158,0.474s0.158-0.213,0.158-0.474c0-0.261-0.158-0.474-0.158-0.474
		S28.584,27.177,28.584,27.438z"/>
	<path d="M27.904,28.986c0,0,0.263-0.037,0.447-0.222c0.186-0.185,0.224-0.446,0.224-0.446s-0.263,0.037-0.448,0.223
		C27.943,28.726,27.904,28.986,27.904,28.986z"/>
	<path d="M28.506,28.149c0,0-0.212-0.158-0.475-0.158c-0.262,0-0.473,0.158-0.473,0.158s0.211,0.158,0.473,0.158
		C28.294,28.307,28.506,28.149,28.506,28.149z"/>
	<path d="M37.724,23.015c0.012-0.221,0.036-0.439,0.036-0.664c0-7.036-5.725-12.76-12.76-12.76s-12.76,5.725-12.76,12.76
		c0,3.763,1.646,7.141,4.247,9.478c1.663,4.968,6.347,8.58,8.513,8.58s6.85-3.612,8.513-8.58c1.03-0.926,1.903-2.021,2.591-3.234
		c0.158-0.12,0.293-0.255,0.383-0.414l0.3-0.524l-0.155-0.08l0.002-0.005l0.345-0.199c0.748-0.431,1.191-1.565,1.287-2.438
		C38.355,24.113,38.161,23.436,37.724,23.015z M36.524,21.985l0.005,0.067l-0.045-0.07L36.524,21.985z M25,10.806
		c5.495,0,10.094,3.861,11.251,9.011c-0.562-0.836-1.486-1.466-2.377-1.466l-0.247,0.028c-4.69-4.368-11.547-5.307-16.623-4.334
		C19.08,12.044,21.896,10.806,25,10.806z M31.553,18.231c-0.622,0.124-1.196,0.44-1.638,0.973c-0.102,0.122-0.175,0.266-0.26,0.401
		c-1.363-0.716-2.952-1.07-4.655-1.07c-1.6,0-3.104,0.307-4.41,0.938c0.088-0.088,0.169-0.182,0.26-0.268
		c2.086-1.964,4.765-2.959,7.551-2.798C29.507,16.883,30.564,17.496,31.553,18.231z M15.885,28.257c0,0.424,0.027,0.842,0.076,1.254
		c-1.564-1.97-2.506-4.456-2.506-7.16c0-2.513,0.816-4.833,2.184-6.73c2.736-0.836,6.328-1.022,9.825-0.185
		c-2.007,0.434-3.88,1.408-5.447,2.884c-1.521,1.432-2.624,3.223-3.159,5C16.24,24.667,15.885,26.3,15.885,28.257z M18.73,28.149
		c0-1.394,1.133-2.527,2.527-2.527c1.394,0,2.527,1.133,2.527,2.527c0,1.394-1.134,2.527-2.527,2.527
		C19.863,30.676,18.73,29.543,18.73,28.149z M25,36.586c-2.207,0-3.534-1.837-3.534-1.837s1.958-1.386,2.423-1.353
		C24.354,33.429,25,33.922,25,33.922s0.812-0.526,1.377-0.526s2.157,1.353,2.157,1.353S27.207,36.586,25,36.586z M28.742,30.676
		c-1.394,0-2.527-1.133-2.527-2.527c0-1.394,1.134-2.527,2.527-2.527c0.167,0,0.33,0.018,0.487,0.049l0.076,0.187l0.136,0.204
		c-0.221-0.074-0.453-0.124-0.699-0.124c-1.219,0-2.211,0.992-2.211,2.211c0,1.219,0.992,2.211,2.211,2.211s2.212-0.992,2.212-2.211
		c0-0.368-0.099-0.709-0.259-1.015c0.095,0.035,0.188,0.078,0.283,0.097l0.12,0.024c0.106,0.278,0.171,0.578,0.171,0.894
		C31.27,29.543,30.137,30.676,28.742,30.676z M29.588,26.282c0.254,0.333,0.556,0.599,0.884,0.768
		c0.203,0.318,0.324,0.694,0.324,1.1c0,1.134-0.919,2.053-2.054,2.053c-1.134,0-2.053-0.919-2.053-2.053s0.919-2.054,2.053-2.054
		C29.045,26.096,29.329,26.165,29.588,26.282z M34.039,29.512c0.017-0.143,0.015-0.291,0.026-0.436
		c0.091,0.006,0.183,0.011,0.271,0.011C34.235,29.228,34.146,29.376,34.039,29.512z M36.689,26.875
		c-1.094-2.118-2.638-2.515-2.638-2.515s0.595,2.851,1.935,3.536c-0.497,0.868-3.04,0.837-3.521-0.206
		c-0.48-1.043,0.822-3.385,0.822-3.385s-2.677,1.372-2.198,2.361c-1.033-0.202-2.051-1.851-1.414-3.405
		c0.468-1.142,3.113,0.128,3.113,0.128s-2.509-2.174-3.101-1.129c-0.341-1.812,0.935-3.907,2.892-3.476
		c-1.549,1.425,0.746,4.055,0.746,4.055s-0.854-2.868-0.221-3.577c0.939-1.054,3.089,0.564,3.102,2.119
		c-1.101-0.083-2.141,2.11-2.141,2.11s2.399-0.852,3.246-0.082C38.155,24.183,37.521,26.396,36.689,26.875z M35.759,26.454
		c-0.041,0.107-0.079,0.215-0.123,0.32c-0.229-0.331-0.436-0.737-0.603-1.161C35.268,25.825,35.516,26.106,35.759,26.454z
		 M35.419,22.58l-0.108,0.009l0.067-0.077L35.419,22.58z"/>
</g>
</svg>
