<?xml version="1.0" encoding="utf-8"?>
<!-- Generator: Adobe Illustrator 16.0.0, SVG Export Plug-In . SVG Version: 6.00 Build 0)  -->
<!DOCTYPE svg PUBLIC "-//W3C//DTD SVG 1.1//EN" "http://www.w3.org/Graphics/SVG/1.1/DTD/svg11.dtd">
<svg version="1.1" id="Layer_1" xmlns="http://www.w3.org/2000/svg" xmlns:xlink="http://www.w3.org/1999/xlink" x="0px" y="0px"
	 width="50px" height="50px" viewBox="0 0 50 50" enable-background="new 0 0 50 50" xml:space="preserve">
<g>
	<path d="M21.268,26.801c2.916-1.905,4.389-2.786,7.465-1.935c3.078,0.847,1.508,2.854,3.573,4.783
		c1.448,1.344,8.493,0.934,8.547-0.736c0.067-1.967-2.556-4.238-4.824-4.887c-2.043-0.597-3.28-3.254-4.296-4.521
		c-1.011-1.263-1.506-2.126-3.516-3.662c-3.876-2.965-6.373,4.803-6.373,4.803s-1.159,4.105-3.09,5.044
		c-1.932,0.938-3.617-1.958-5.809-0.209c-2.195,1.754-3.799,6.723-3.799,6.723s3.359-2.484,5.111-2.042
		c1.754,0.434,0.552,3.171,1.318,4.672C16.217,33.73,18.351,28.701,21.268,26.801z M36.327,25.913c0.501,0,0.915,0.414,0.915,0.917
		s-0.414,0.908-0.915,0.908c-0.503,0-0.912-0.405-0.912-0.908S35.824,25.913,36.327,25.913z"/>
</g>
</svg>
