<?xml version="1.0" encoding="utf-8"?>
<!-- Generator: Adobe Illustrator 16.0.0, SVG Export Plug-In . SVG Version: 6.00 Build 0)  -->
<!DOCTYPE svg PUBLIC "-//W3C//DTD SVG 1.1//EN" "http://www.w3.org/Graphics/SVG/1.1/DTD/svg11.dtd">
<svg version="1.1" id="Layer_1" xmlns="http://www.w3.org/2000/svg" xmlns:xlink="http://www.w3.org/1999/xlink" x="0px" y="0px"
	 width="50px" height="50px" viewBox="0 0 50 50" enable-background="new 0 0 50 50" xml:space="preserve">
<g>
	<circle cx="34.174" cy="28.756" r="0.928"/>
	<path d="M37.385,27.895c1.148-1.213,0.957-2.25,0.429-2.781c-0.663-0.661-1.779-0.517-2.779,0.431
		c-0.34-1.132-1.038-1.802-1.818-1.807v-3.226c0.38-0.112,0.654-0.395,0.654-0.73s-0.274-0.617-0.654-0.73v-0.056h-0.352H20.717
		l-0.96-1.665c0.239-0.138,0.356-0.386,0.263-0.551c-0.095-0.165-0.369-0.186-0.608-0.048l-4.477-7.754
		c0.239-0.139,0.357-0.386,0.262-0.551c-0.095-0.165-0.368-0.187-0.607-0.048l-3.486,2.012c-0.239,0.138-0.356,0.386-0.262,0.55
		c0.095,0.165,0.368,0.187,0.608,0.048l4.477,7.754c-0.113,0.066-0.197,0.157-0.245,0.252h-0.42h-0.352v0.056
		c-0.38,0.113-0.654,0.395-0.654,0.73s0.274,0.618,0.654,0.73v6.532c0,6.899,2.808,9.114,6.64,9.675v1.876
		c-2.929,0.282-5.03,1.079-5.03,2.33h14.828c0.426,0.503,0.946,0.787,1.519,0.787c0.153,0,0.309-0.021,0.461-0.062
		c0.604-0.161,1.056-0.604,1.271-1.248c0.212-0.628,0.195-1.41-0.05-2.325l-0.036-0.124l0.125,0.036
		c0.485,0.13,0.94,0.196,1.354,0.196c1.152,0,1.98-0.53,2.215-1.416c0.251-0.938-0.247-2.246-2.479-2.844l-0.129-0.032l0.095-0.091
		c0.099-0.099,0.17-0.194,0.256-0.291c0.255-0.177,0.454-0.434,0.569-0.765c0.345-0.594,0.457-1.134,0.406-1.59
		c0.16,0.022,0.332,0.061,0.479,0.061c0.903,0,1.554-0.422,1.741-1.13C39.337,29.367,38.985,28.373,37.385,27.895z M30.105,39.363
		l0.256-0.226l0.092-0.098l0.032,0.129c0.042,0.158,0.092,0.304,0.144,0.449C30.472,39.527,30.296,39.443,30.105,39.363z
		 M37.719,36.639c-0.226,0.854-1.245,1.322-2.95,0.865c-0.521-0.141-1.021-0.426-1.467-0.76c0.334,0.447,0.62,0.948,0.761,1.466
		c0.457,1.708-0.012,2.726-0.865,2.954c-0.854,0.229-1.77-0.419-2.226-2.125c-0.14-0.519-0.142-1.097-0.077-1.65
		c-0.221,0.513-0.51,1.013-0.89,1.392c-1.25,1.249-2.365,1.353-2.989,0.726c-0.626-0.625-0.522-1.741,0.728-2.99
		c0.381-0.378,0.875-0.669,1.389-0.889c-0.551,0.065-1.13,0.062-1.647-0.075c-1.709-0.458-2.355-1.373-2.126-2.226
		c0.229-0.855,1.245-1.324,2.954-0.867c0.519,0.14,1.021,0.429,1.466,0.761c-0.332-0.447-0.62-0.947-0.759-1.466
		c-0.415-1.542-0.069-2.515,0.632-2.859c0.312,0.309,0.746,0.554,1.312,0.722c-0.445,0.47-0.719,0.944-0.812,1.408
		c-0.107,0.53,0.029,1.017,0.383,1.37c0.662,0.664,1.776,0.52,2.781-0.428c0.312,1.043,0.906,1.689,1.625,1.791
		c-0.307,0.225-0.639,0.425-0.991,0.579c0.552-0.064,1.129-0.062,1.647,0.076C37.303,34.869,37.947,35.785,37.719,36.639z
		 M26.578,37.196v-0.491c0.122-0.018,0.253-0.025,0.373-0.047C26.808,36.838,26.685,37.018,26.578,37.196z M38.658,29.958
		c-0.164,0.62-0.902,0.959-2.141,0.627c-0.379-0.101-0.741-0.309-1.065-0.551c0.242,0.324,0.449,0.688,0.553,1.064
		c0.331,1.239-0.009,1.979-0.628,2.144c-0.62,0.166-1.285-0.305-1.616-1.543c-0.101-0.376-0.103-0.796-0.056-1.198
		c-0.159,0.372-0.369,0.735-0.645,1.011c-0.908,0.906-1.718,0.982-2.17,0.527c-0.454-0.454-0.379-1.264,0.528-2.171
		c0.276-0.274,0.636-0.485,1.007-0.645c-0.4,0.047-0.82,0.045-1.196-0.054c-1.24-0.332-1.708-0.997-1.542-1.616
		c0.166-0.62,0.903-0.96,2.144-0.629c0.377,0.101,0.741,0.311,1.063,0.552c-0.24-0.325-0.449-0.687-0.55-1.064
		c-0.333-1.239,0.007-1.978,0.626-2.145c0.62-0.166,1.285,0.305,1.617,1.543c0.1,0.377,0.1,0.796,0.053,1.197
		c0.162-0.372,0.372-0.734,0.647-1.01c0.905-0.907,1.716-0.981,2.17-0.529c0.454,0.455,0.38,1.264-0.529,2.172
		c-0.275,0.275-0.638,0.484-1.007,0.644c0.4-0.045,0.82-0.045,1.196,0.055C38.356,28.674,38.824,29.339,38.658,29.958z"/>
	<circle cx="31.542" cy="34.983" r="1.279"/>
</g>
</svg>
