<?xml version="1.0" encoding="utf-8"?>
<!-- Generator: Adobe Illustrator 16.0.0, SVG Export Plug-In . SVG Version: 6.00 Build 0)  -->
<!DOCTYPE svg PUBLIC "-//W3C//DTD SVG 1.1//EN" "http://www.w3.org/Graphics/SVG/1.1/DTD/svg11.dtd">
<svg version="1.1" id="Layer_1" xmlns="http://www.w3.org/2000/svg" xmlns:xlink="http://www.w3.org/1999/xlink" x="0px" y="0px"
	 width="50px" height="50px" viewBox="0 0 50 50" enable-background="new 0 0 50 50" xml:space="preserve">
<g>
	<path d="M29,20.515V18.24h1v-1V16v-1h-1h-1v-2.686h-6V15h-1h-1v1v1.24v1h1v2.275c-4.041,1.623-6.708,5.525-6.708,9.931
		c0,2.514,0.892,4.958,2.51,6.883l0.3,0.356h0.466h14.866h0.466l0.3-0.357c1.618-1.926,2.51-4.37,2.51-6.882
		C35.709,26.04,33.042,22.137,29,20.515z M32.434,36.686H17.567c-1.419-1.688-2.275-3.862-2.275-6.239
		c0-4.314,2.815-7.966,6.708-9.23V17.24h-1V16h1.282l1.412,3.439h2.611L27.718,16H29v1.24h-1v3.975
		c3.893,1.264,6.709,4.917,6.709,9.231C34.709,32.823,33.852,34.998,32.434,36.686z"/>
	<path d="M32.401,25.897H17.6c-0.822,1.338-1.308,2.893-1.308,4.549c0,1.891,0.621,3.734,1.757,5.239h13.903
		c1.136-1.506,1.757-3.349,1.757-5.239C33.709,28.791,33.224,27.236,32.401,25.897z M28.301,26.357c0.365,0,0.661,0.296,0.661,0.662
		s-0.296,0.662-0.661,0.662s-0.662-0.296-0.662-0.662S27.936,26.357,28.301,26.357z M28.063,32.321
		c-0.839,0-1.521-0.682-1.521-1.521c0-0.84,0.683-1.522,1.521-1.522c0.84,0,1.522,0.682,1.522,1.522
		C29.586,31.64,28.903,32.321,28.063,32.321z M30.559,29.278c-0.537,0-0.973-0.436-0.973-0.973s0.436-0.974,0.973-0.974
		s0.974,0.436,0.974,0.974S31.096,29.278,30.559,29.278z"/>
</g>
</svg>
