<?xml version="1.0" encoding="utf-8"?>
<!-- Generator: Adobe Illustrator 16.0.0, SVG Export Plug-In . SVG Version: 6.00 Build 0)  -->
<!DOCTYPE svg PUBLIC "-//W3C//DTD SVG 1.1//EN" "http://www.w3.org/Graphics/SVG/1.1/DTD/svg11.dtd">
<svg version="1.1" id="Layer_1" xmlns="http://www.w3.org/2000/svg" xmlns:xlink="http://www.w3.org/1999/xlink" x="0px" y="0px"
	 width="50px" height="50px" viewBox="0 0 50 50" enable-background="new 0 0 50 50" xml:space="preserve">
<g>
	<path d="M39.314,29.133c-0.403,0.004-3.734,0.957-6.864,0.957c-3.256-0.001-6.32-0.957-6.809-0.957c-0.962,0-1.021,0.723,0,1.089
		c5.564,2,3.144,10.631,4.535,10.669c1.75,0.047,2.988-9.083,9.138-10.669C40.323,29.962,40.14,29.129,39.314,29.133z"/>
	<path d="M15.752,24.73c0.09,0,0.195-0.025,0.292-0.036c0.267,2.083,2.336,3.712,4.879,3.712c2.725,0,4.932-1.862,4.932-4.158
		c0-2.296-2.207-4.158-4.932-4.158c-0.522,0-1.017,0.087-1.49,0.214c-3.796-2.631-5.583-5.4-4.937-7.753
		c0.526-1.916,2.7-3.307,5.168-3.307c3.512,0,6.927,3.614,8.953,6.996c0.967,1.615,1.496,2.941,1.73,3.888
		c-2.517,0.19-4.493,1.951-4.493,4.121c0,2.295,2.207,4.158,4.934,4.158c2.54,0,4.61-1.63,4.877-3.713l0.21,0.031
		c0.354,0,0.695-0.138,0.99-0.408c0.932-0.855,1.328-3.136,0.406-5.043c-0.596-1.236-2.205-3.216-6.238-2.576
		c-0.227,0.036-0.381,0.249-0.346,0.476c0.036,0.226,0.238,0.379,0.476,0.346c2.595-0.414,4.504,0.338,5.36,2.115
		c0.729,1.509,0.48,3.427-0.218,4.069c-0.197,0.178-0.403,0.226-0.635,0.152c-0.226-1.993-2.102-3.562-4.47-3.73
		c-0.285-1.287-1.026-2.903-1.87-4.313c-2.144-3.577-5.808-7.4-9.667-7.4c-2.835,0-5.347,1.648-5.971,3.919
		c-0.438,1.596-0.279,4.655,4.792,8.322c-1.355,0.655-2.294,1.827-2.448,3.205c-1.271,0.185-1.699-1.056-2.262-3.083
		c-0.546-1.97-1.165-4.203-3.362-4.203c-0.229,0-0.416,0.186-0.416,0.415c0,0.23,0.187,0.417,0.416,0.417
		c1.455,0,1.958,1.422,2.562,3.594C13.462,22.759,14.009,24.73,15.752,24.73z"/>
	<polygon points="15.389,31.836 11.957,37.825 16.966,40.888 18.241,39.278 18.318,41.393 24.608,41.587 25.217,34.732 
		25.916,32.361 16.088,29.465 	"/>
</g>
</svg>
