<?xml version="1.0" encoding="utf-8"?>
<!-- Generator: Adobe Illustrator 16.0.0, SVG Export Plug-In . SVG Version: 6.00 Build 0)  -->
<!DOCTYPE svg PUBLIC "-//W3C//DTD SVG 1.1//EN" "http://www.w3.org/Graphics/SVG/1.1/DTD/svg11.dtd">
<svg version="1.1" id="Layer_1" xmlns="http://www.w3.org/2000/svg" xmlns:xlink="http://www.w3.org/1999/xlink" x="0px" y="0px"
	 width="50px" height="50px" viewBox="0 0 50 50" enable-background="new 0 0 50 50" xml:space="preserve">
<g>
	<circle cx="33.733" cy="26.061" r="1.011"/>
	<path d="M38.905,25.885c-0.316-0.358-0.765-0.643-1.34-0.852c1.12-1.327,0.868-2.468,0.266-3.073
		c-0.304-0.303-0.699-0.433-1.122-0.459c0.003-0.109,0.017-0.216,0.017-0.326c0-7.212-26.118-7.212-26.118,0
		c0,7.211,5.847,13.059,13.059,13.059c3.626,0,6.905-1.48,9.271-3.866c0.44,0.848,1.084,1.353,1.843,1.353
		c0.151,0,0.302-0.02,0.453-0.06c0.823-0.221,1.61-1.084,1.304-2.795c0.25,0.044,0.488,0.067,0.713,0.067
		c1.073,0,1.85-0.514,2.079-1.371C39.489,26.972,39.338,26.376,38.905,25.885z M12.606,20.575c0-1.628,4.954-2.95,11.062-2.95
		c6.108,0,11.062,1.321,11.062,2.95c0,0.274-0.151,0.539-0.415,0.792c-0.536-0.764-1.293-1.114-2.083-0.904
		c-0.747,0.201-1.456,0.937-1.353,2.346c-1.937,0.446-4.453,0.716-7.211,0.716C17.56,23.524,12.606,22.203,12.606,20.575z
		 M38.618,27.371c-0.18,0.676-0.984,1.046-2.333,0.684c-0.411-0.11-0.807-0.337-1.159-0.6c0.263,0.354,0.49,0.749,0.601,1.159
		c0.361,1.35-0.009,2.154-0.684,2.336c-0.675,0.18-1.398-0.333-1.759-1.682c-0.111-0.41-0.112-0.866-0.061-1.303
		c-0.175,0.405-0.402,0.8-0.704,1.1c-0.988,0.987-1.87,1.069-2.364,0.573c-0.494-0.493-0.413-1.375,0.575-2.363
		c0.301-0.299,0.695-0.529,1.101-0.702c-0.438,0.051-0.895,0.049-1.304-0.061c-1.35-0.361-1.861-1.084-1.68-1.759
		c0.181-0.676,0.985-1.046,2.334-0.685c0.411,0.111,0.807,0.338,1.16,0.602c-0.262-0.353-0.491-0.749-0.6-1.159
		c-0.362-1.35,0.009-2.154,0.683-2.335c0.676-0.18,1.399,0.332,1.761,1.68c0.11,0.412,0.11,0.867,0.058,1.304
		c0.176-0.405,0.404-0.799,0.704-1.098c0.987-0.989,1.87-1.07,2.364-0.577c0.494,0.495,0.414,1.377-0.575,2.365
		c-0.301,0.3-0.695,0.528-1.099,0.703c0.437-0.05,0.894-0.049,1.303,0.059C38.288,25.972,38.8,26.696,38.618,27.371z"/>
</g>
</svg>
