<?xml version="1.0" encoding="utf-8"?>
<!-- Generator: Adobe Illustrator 16.0.0, SVG Export Plug-In . SVG Version: 6.00 Build 0)  -->
<!DOCTYPE svg PUBLIC "-//W3C//DTD SVG 1.1//EN" "http://www.w3.org/Graphics/SVG/1.1/DTD/svg11.dtd">
<svg version="1.1" id="Layer_1" xmlns="http://www.w3.org/2000/svg" xmlns:xlink="http://www.w3.org/1999/xlink" x="0px" y="0px"
	 width="50px" height="50px" viewBox="0 0 50 50" enable-background="new 0 0 50 50" xml:space="preserve">
<g>
	<path d="M23.327,14.703l-0.101-0.065l-0.117-0.032c-0.082-0.023-2.023-0.565-5.14-0.565c-3.115,0-5.057,0.542-5.14,0.565
		l-0.116,0.032l-0.103,0.065c-0.621,0.398-1.071,1.222-1.071,1.96v23.251c0,0.908,0.737,1.646,1.646,1.646h9.568
		c0.909,0,1.646-0.738,1.646-1.646V16.663C24.4,15.925,23.949,15.102,23.327,14.703z M23.576,39.914
		c0,0.375-0.256,0.679-0.599,0.778V23.293c0-0.151-0.124-0.401-0.253-0.534c-0.508-0.124-2.242-0.488-4.755-0.488
		s-4.246,0.364-4.755,0.488c-0.128,0.133-0.252,0.383-0.252,0.534v17.399c-0.343-0.1-0.601-0.403-0.601-0.778V16.663
		c0-0.454,0.312-1.022,0.693-1.267c0,0,1.878-0.534,4.914-0.534c3.037,0,4.914,0.534,4.914,0.534
		c0.381,0.244,0.692,0.812,0.692,1.267V39.914z"/>
	<rect x="14.035" y="8.44" width="7.87" height="4.784"/>
	<path d="M33.382,17.396h3.434c0.904,0,1.646-0.196,1.646-0.438s-0.741-0.438-1.646-0.438h-3.106
		c0.471-0.862,1.258-1.435,2.146-1.435c1.432,0,2.605-0.244,2.605-0.543c0-0.298-1.482-0.543-3.292-0.543h-3.843
		c-1.809,0-3.292,1.482-3.292,3.293V38.23c0,1.809,1.483,3.292,3.292,3.292h3.843c1.81,0,3.292-0.244,3.292-0.543
		c0-0.301-1.174-0.545-2.605-0.545c-0.889,0-1.676-0.569-2.146-1.434h3.106c0.904,0,1.646-0.195,1.646-0.437
		c0-0.24-0.741-0.438-1.646-0.438h-3.434c-0.079-0.312-0.134-0.64-0.134-0.983v-0.303h3.567c0.904,0,1.646-0.197,1.646-0.438
		c0-0.241-0.741-0.438-1.646-0.438h-3.567v-1.285h3.567c0.904,0,1.646-0.196,1.646-0.438s-0.741-0.437-1.646-0.437h-3.567v-1.286
		h3.567c0.904,0,1.646-0.196,1.646-0.438s-0.741-0.438-1.646-0.438h-3.567v-1.285h3.567c0.904,0,1.646-0.196,1.646-0.438
		c0-0.24-0.741-0.437-1.646-0.437h-3.567v-1.285h3.567c0.904,0,1.646-0.196,1.646-0.438s-0.741-0.438-1.646-0.438h-3.567v-1.287
		h3.567c0.904,0,1.646-0.195,1.646-0.437s-0.741-0.438-1.646-0.438h-3.567v-1.286h3.567c0.904,0,1.646-0.195,1.646-0.437
		s-0.741-0.438-1.646-0.438h-3.567v-1.285h3.567c0.904,0,1.646-0.196,1.646-0.438s-0.741-0.437-1.646-0.437h-3.567v-1.287h3.567
		c0.904,0,1.646-0.196,1.646-0.438s-0.741-0.437-1.646-0.437h-3.567V18.38C33.248,18.036,33.303,17.71,33.382,17.396z"/>
</g>
</svg>
