<?xml version="1.0" encoding="utf-8"?>
<!-- Generator: Adobe Illustrator 16.0.0, SVG Export Plug-In . SVG Version: 6.00 Build 0)  -->
<!DOCTYPE svg PUBLIC "-//W3C//DTD SVG 1.1//EN" "http://www.w3.org/Graphics/SVG/1.1/DTD/svg11.dtd">
<svg version="1.1" id="Layer_1" xmlns="http://www.w3.org/2000/svg" xmlns:xlink="http://www.w3.org/1999/xlink" x="0px" y="0px"
	 width="50px" height="50px" viewBox="0 0 50 50" enable-background="new 0 0 50 50" xml:space="preserve">
<g>
	<path d="M20.392,24.586v-8.797c0-0.23-0.188-0.417-0.417-0.417h-0.702c-0.229,0-0.417,0.187-0.417,0.417v0.728
		c0,0.23-0.187,0.417-0.416,0.417h-2.654v-1.043h-0.417v1.043h-2.654c-0.229,0-0.416-0.187-0.416-0.417v-0.728
		c0-0.23-0.188-0.417-0.417-0.417h-0.702c-0.229,0-0.417,0.187-0.417,0.417v8.797c0,0.228,0.188,0.414,0.417,0.414h8.796
		C20.204,25,20.392,24.813,20.392,24.586z"/>
	<path d="M15.368,15.477c2.524,0.728,1.451-3.254,0.6-3.539c0,0,0,1.481-0.6,0.987c-0.539-0.444-0.182-1.275,0.208-1.898
		C14.457,11.572,12.844,14.747,15.368,15.477z"/>
	<path d="M38.822,15.372H38.12c-0.229,0-0.417,0.187-0.417,0.417v0.728c0,0.23-0.187,0.417-0.416,0.417h-2.654v-1.043h-0.417v1.043
		h-2.654c-0.229,0-0.416-0.187-0.416-0.417v-0.728c0-0.23-0.188-0.417-0.417-0.417h-0.702c-0.229,0-0.417,0.187-0.417,0.417v8.797
		c0,0.228,0.188,0.414,0.417,0.414h8.796c0.229,0,0.417-0.187,0.417-0.414v-8.797C39.239,15.559,39.052,15.372,38.822,15.372z"/>
	<path d="M34.216,15.477c2.524,0.728,1.451-3.254,0.6-3.539c0,0,0,1.481-0.6,0.987c-0.539-0.444-0.181-1.275,0.209-1.898
		C33.305,11.572,31.691,14.747,34.216,15.477z"/>
	<path d="M29.397,29.346h-0.702c-0.229,0-0.417,0.187-0.417,0.417v0.728c0,0.23-0.187,0.417-0.415,0.417h-2.655v-1.043h-0.417v1.043
		h-2.654c-0.229,0-0.416-0.187-0.416-0.417v-0.728c0-0.23-0.188-0.417-0.417-0.417h-0.702c-0.229,0-0.417,0.187-0.417,0.417v8.797
		c0,0.228,0.188,0.414,0.417,0.414h8.796c0.229,0,0.417-0.187,0.417-0.414v-8.797C29.814,29.532,29.627,29.346,29.397,29.346z"/>
	<path d="M24.791,29.45c2.524,0.728,1.451-3.254,0.6-3.539c0,0,0,1.481-0.6,0.987C24.252,26.454,24.61,25.623,25,25
		C23.881,25.546,22.267,28.721,24.791,29.45z"/>
</g>
</svg>
