<?xml version="1.0" encoding="utf-8"?>
<!-- Generator: Adobe Illustrator 16.0.0, SVG Export Plug-In . SVG Version: 6.00 Build 0)  -->
<!DOCTYPE svg PUBLIC "-//W3C//DTD SVG 1.1//EN" "http://www.w3.org/Graphics/SVG/1.1/DTD/svg11.dtd">
<svg version="1.1" id="Layer_1" xmlns="http://www.w3.org/2000/svg" xmlns:xlink="http://www.w3.org/1999/xlink" x="0px" y="0px"
	 width="50px" height="50px" viewBox="0 0 50 50" enable-background="new 0 0 50 50" xml:space="preserve">
<g>
	<path d="M28.103,15.311c0.916,0.935,1.69,1.961,2.302,3.036c1.419-0.827,3.093-1.384,4.958-1.515
		c-2.515,1.919-0.583,9.999-4.287,12.425l-0.067,0.107c8.034,0.142,6.122-12.815,9.457-15.707
		C35.427,11.403,30.972,12.643,28.103,15.311z"/>
	<path d="M22.14,21.77c2.83,2.933,4.013,16.103,4.013,16.103l2.301-2.367C28.454,35.505,26.77,24.033,22.14,21.77z"/>
	<path d="M32.607,18.927c-0.908,0.443-1.625,1.448-2.184,2.584c-2.021-6.619-10.12-12.517-20.888-7.51
		c6.952,1.119,2.227,17.895,13.694,18.15c-3.929-1.902-1.724-8.497-4.537-12.8c7.756-1.229,11.035,6.93,9.946,11.188
		c1.805-1.863,2.48-4.342,2.225-6.875C31.259,21.742,31.833,19.728,32.607,18.927z"/>
</g>
</svg>
