<?xml version="1.0" encoding="utf-8"?>
<!-- Generator: Adobe Illustrator 16.0.0, SVG Export Plug-In . SVG Version: 6.00 Build 0)  -->
<!DOCTYPE svg PUBLIC "-//W3C//DTD SVG 1.1//EN" "http://www.w3.org/Graphics/SVG/1.1/DTD/svg11.dtd">
<svg version="1.1" id="Layer_1" xmlns="http://www.w3.org/2000/svg" xmlns:xlink="http://www.w3.org/1999/xlink" x="0px" y="0px"
	 width="50px" height="50px" viewBox="0 0 50 50" enable-background="new 0 0 50 50" xml:space="preserve">
<g>
	<path d="M38.81,33.814c-0.3-1.101-1.377-1.795-2.502-1.623l-8.618,1.326V21.411h0.688l1.578,7.881
		c0.095,0.473,0.436,0.858,0.892,1.012l5.377,1.792c0.143,0.046,0.284,0.068,0.425,0.068c0.564,0,1.087-0.354,1.276-0.918
		c0.235-0.706-0.146-1.466-0.85-1.702l-4.637-1.545l-1.641-8.196c-0.125-0.628-0.678-1.08-1.318-1.08h-2.854
		c-0.452-0.346-1.011-0.56-1.625-0.56s-1.173,0.214-1.624,0.56h-2.855c-0.641,0-1.192,0.452-1.317,1.08l-1.642,8.196l-4.637,1.545
		c-0.702,0.236-1.085,0.996-0.85,1.702c0.234,0.701,0.985,1.074,1.701,0.85l5.377-1.792c0.456-0.153,0.798-0.539,0.893-1.012
		l1.577-7.881h0.688v12.106l-8.619-1.326c-1.125-0.172-2.202,0.522-2.502,1.623c-0.301,1.098,0.271,2.248,1.329,2.669l8.961,3.585
		c1.145,0.46,2.45-0.098,2.91-1.247c0.058-0.143,0.1-0.288,0.127-0.432l0.141,0.021c0.229,0.036,0.456,0.036,0.684,0l0.141-0.021
		c0.027,0.144,0.069,0.289,0.127,0.432c0.349,0.876,1.19,1.408,2.08,1.408c0.277,0,0.56-0.051,0.831-0.161l8.96-3.585
		C38.538,36.062,39.11,34.912,38.81,33.814z"/>
	<path d="M25,17.957c2.262,0,4.094-1.83,4.094-4.095c0-2.261-1.832-4.091-4.094-4.091s-4.094,1.83-4.094,4.091
		C20.906,16.127,22.738,17.957,25,17.957z"/>
</g>
</svg>
