<?xml version="1.0" encoding="utf-8"?>
<!-- Generator: Adobe Illustrator 16.0.0, SVG Export Plug-In . SVG Version: 6.00 Build 0)  -->
<!DOCTYPE svg PUBLIC "-//W3C//DTD SVG 1.1//EN" "http://www.w3.org/Graphics/SVG/1.1/DTD/svg11.dtd">
<svg version="1.1" id="Layer_1" xmlns="http://www.w3.org/2000/svg" xmlns:xlink="http://www.w3.org/1999/xlink" x="0px" y="0px"
	 width="50px" height="50px" viewBox="0 0 50 50" enable-background="new 0 0 50 50" xml:space="preserve">
<g>
	<path d="M32.286,21.071c-0.839-1.663-1.303-2.067-2.186-2.066c-0.832,0-2.037,0.357-4.278,0.357h-0.073
		c-2.278-0.008-3.499-0.371-4.34-0.371c-0.891,0-1.355,0.408-2.197,2.077c-1.52,3.008-2.449,7.932-2.449,11.117
		c0,6.615,4.021,7.189,8.986,7.189c4.963,0,8.986-0.574,8.986-7.189C34.735,29.002,33.804,24.08,32.286,21.071z M25.749,38.477
		c-4.735,0-8.088-0.451-8.088-6.291c0-2.975,0.88-7.794,2.354-10.711c0.799-1.584,1.048-1.584,1.395-1.584
		c0.257,0,0.603,0.048,1.039,0.109c0.771,0.108,1.826,0.256,3.297,0.262h0.077c1.456,0,2.498-0.145,3.26-0.251
		c0.428-0.06,0.766-0.106,1.019-0.106c0.343,0,0.59,0,1.383,1.572c1.474,2.919,2.353,7.737,2.353,10.709
		C33.836,38.025,30.484,38.477,25.749,38.477z"/>
	<path d="M23.69,12.423c0.206,0.243,0.481,0.506,0.769,0.759c-1.345,0.346-2.305,1.211-2.305,2.229v0v0v2.496
		c0,0.482,1.609,0.874,3.595,0.874s3.595-0.392,3.595-0.874v-2.496v-0.001c0-1.018-0.96-1.883-2.306-2.229
		c0.288-0.253,0.563-0.516,0.769-0.759h2.734c0.496,0,0.899-0.403,0.899-0.899s-0.403-0.898-0.899-0.898H19.758
		c-0.178,0-0.351,0.053-0.498,0.151l-3.595,2.396c-0.413,0.275-0.524,0.833-0.249,1.246c0.173,0.26,0.459,0.4,0.749,0.4
		c0.171,0,0.344-0.048,0.497-0.151l3.368-2.245H23.69z"/>
	<path d="M32.41,27.394H19.086c-0.337,1.737-0.526,3.457-0.526,4.792c0,4.577,1.884,5.392,7.189,5.392
		c5.305,0,7.188-0.815,7.188-5.392C32.938,30.851,32.748,29.131,32.41,27.394z M28.283,28.21c0.365,0,0.661,0.296,0.661,0.662
		s-0.296,0.662-0.661,0.662s-0.662-0.296-0.662-0.662S27.918,28.21,28.283,28.21z M28.046,34.174c-0.839,0-1.521-0.682-1.521-1.521
		c0-0.84,0.683-1.522,1.521-1.522c0.84,0,1.522,0.682,1.522,1.522C29.568,33.492,28.886,34.174,28.046,34.174z M30.541,31.13
		c-0.537,0-0.973-0.436-0.973-0.973s0.436-0.974,0.973-0.974s0.974,0.436,0.974,0.974S31.078,31.13,30.541,31.13z"/>
</g>
</svg>
