<?xml version="1.0" encoding="utf-8"?>
<!-- Generator: Adobe Illustrator 16.0.0, SVG Export Plug-In . SVG Version: 6.00 Build 0)  -->
<!DOCTYPE svg PUBLIC "-//W3C//DTD SVG 1.1//EN" "http://www.w3.org/Graphics/SVG/1.1/DTD/svg11.dtd">
<svg version="1.1" id="Layer_1" xmlns="http://www.w3.org/2000/svg" xmlns:xlink="http://www.w3.org/1999/xlink" x="0px" y="0px"
	 width="50px" height="50px" viewBox="0 0 50 50" enable-background="new 0 0 50 50" xml:space="preserve">
<g>
	<path d="M33.055,11.094H16.277c-1.478,0-2.769,0.803-3.469,1.992h1.737c0.469-0.4,1.069-0.65,1.731-0.65
		c1.481,0,2.685,1.205,2.685,2.685v23.115c0,0.371,0.3,0.671,0.671,0.671H36.41c0.371,0,0.672-0.3,0.672-0.671V15.12
		C37.082,12.9,35.275,11.094,33.055,11.094z M33.055,12.436c1.481,0,2.686,1.205,2.686,2.685v14.894H20.304V15.12
		c0-1.032-0.394-1.971-1.033-2.685H33.055z M20.304,30.77H35.74v1.342H20.304V30.77z M20.304,37.564v-2.014H35.74v2.014H20.304z"/>
	<path d="M16.277,26.168h-2.684v-9.014h-1.343v9.685c0,0.371,0.301,0.671,0.671,0.671h3.355c0.371,0,0.672-0.3,0.672-0.671
		C16.949,26.469,16.648,26.168,16.277,26.168z"/>
	<path d="M41.043,13.379c-0.584,0-1.1,0.291-1.415,0.734h-1.986c0.071,0.325,0.111,0.661,0.111,1.006v1.007h1.875
		c0.315,0.443,0.831,0.734,1.415,0.734c0.962,0,1.741-0.779,1.741-1.741C42.784,14.159,42.005,13.379,41.043,13.379z"/>
	<path d="M10.372,14.114c-0.315-0.443-0.831-0.734-1.415-0.734c-0.962,0-1.741,0.78-1.741,1.741c0,0.962,0.779,1.741,1.741,1.741
		c0.584,0,1.1-0.291,1.415-0.734h7.919V15.12c0-0.368-0.107-0.709-0.28-1.006H10.372z"/>
</g>
</svg>
