<?xml version="1.0" encoding="utf-8"?>
<!-- Generator: Adobe Illustrator 16.0.0, SVG Export Plug-In . SVG Version: 6.00 Build 0)  -->
<!DOCTYPE svg PUBLIC "-//W3C//DTD SVG 1.1//EN" "http://www.w3.org/Graphics/SVG/1.1/DTD/svg11.dtd">
<svg version="1.1" id="Layer_1" xmlns="http://www.w3.org/2000/svg" xmlns:xlink="http://www.w3.org/1999/xlink" x="0px" y="0px"
	 width="50px" height="50px" viewBox="0 0 50 50" enable-background="new 0 0 50 50" xml:space="preserve">
<g>
	<path d="M34.827,9.03H15.173c-1.694,0-3.071,1.378-3.071,3.071v25.797c0,1.694,1.377,3.071,3.071,3.071h19.654
		c1.694,0,3.071-1.377,3.071-3.071V12.102C37.898,10.408,36.521,9.03,34.827,9.03z M34.438,19.799
		c0.308,1.15-0.008,1.835-0.583,1.99c-0.575,0.153-1.191-0.283-1.498-1.433c-0.095-0.351-0.095-0.738-0.052-1.111
		c-0.148,0.345-0.343,0.683-0.6,0.938c-0.842,0.842-1.593,0.911-2.013,0.489c-0.423-0.421-0.354-1.172,0.489-2.015
		c0.255-0.254,0.591-0.449,0.936-0.599c-0.372,0.045-0.761,0.044-1.109-0.05c-1.15-0.308-1.586-0.925-1.432-1.5
		c0.153-0.574,0.839-0.891,1.989-0.583c0.349,0.094,0.688,0.289,0.987,0.513c-0.224-0.302-0.419-0.639-0.511-0.987
		c-0.309-1.147,0.006-1.831,0.576-1.988c-0.033,0.123-0.05,0.244-0.035,0.355c0.022,0.188,0.111,0.347,0.256,0.459
		c0.122,0.094,0.266,0.145,0.419,0.145c0.15,0,0.357-0.051,0.594-0.235c0.104,0.196,0.197,0.43,0.271,0.705
		c0.094,0.351,0.095,0.739,0.049,1.112c0.15-0.346,0.346-0.683,0.601-0.937c0.185-0.185,0.363-0.325,0.536-0.439l0.009-0.001
		l0.123-0.08c0.56-0.317,1.041-0.275,1.346,0.029c0.421,0.421,0.352,1.172-0.489,2.015c-0.256,0.257-0.593,0.449-0.936,0.599
		c0.371-0.043,0.76-0.042,1.109,0.05c0.571,0.154,0.965,0.384,1.198,0.647v1.241c-0.315,0.306-0.908,0.422-1.756,0.194
		c-0.351-0.094-0.688-0.287-0.986-0.511C34.15,19.112,34.344,19.449,34.438,19.799z M26.575,14.785
		c-0.888,0-1.321-0.358-1.321-0.804s0.434-0.804,1.321-0.804c0.27,0,0.551,0.074,0.811,0.178c-0.219-0.174-0.425-0.379-0.559-0.613
		c-0.445-0.769-0.351-1.324,0.035-1.545c0.385-0.222,0.912-0.026,1.356,0.741c0.136,0.233,0.21,0.515,0.251,0.79
		c0.04-0.275,0.116-0.557,0.252-0.79c0.442-0.769,0.972-0.963,1.355-0.741c0.386,0.221,0.479,0.776,0.037,1.545
		c-0.136,0.235-0.341,0.439-0.56,0.611c0.261-0.102,0.54-0.176,0.809-0.176c0.401,0,0.703,0.075,0.92,0.196
		c-0.344,0.216-0.607,0.663-0.574,1.389c-0.106,0.013-0.221,0.022-0.346,0.022c-0.27,0-0.551-0.074-0.81-0.178
		c0.22,0.173,0.425,0.378,0.56,0.613c0.086,0.15,0.147,0.289,0.194,0.422c-0.701-0.124-1.274-0.012-1.624,0.294
		c-0.107-0.215-0.178-0.458-0.214-0.703c-0.041,0.277-0.115,0.557-0.251,0.791c-0.444,0.768-0.973,0.965-1.356,0.741
		c-0.385-0.222-0.48-0.776-0.036-1.545c0.135-0.232,0.341-0.44,0.56-0.613C27.126,14.711,26.845,14.785,26.575,14.785z
		 M32.131,11.554c0.189,0.026,0.38,0.107,0.552,0.204c-0.137-0.144-0.261-0.308-0.332-0.485c-0.208-0.511-0.129-0.855,0.087-1.014
		h0.555c0.152,0.105,0.299,0.298,0.415,0.588c0.071,0.177,0.097,0.382,0.099,0.578c0.055-0.188,0.137-0.379,0.253-0.529
		c0.388-0.496,0.778-0.581,1.026-0.387c0.249,0.194,0.261,0.593-0.128,1.089c-0.116,0.15-0.282,0.273-0.452,0.374
		c0.193-0.047,0.396-0.071,0.585-0.045c0.624,0.089,0.893,0.383,0.85,0.695c-0.045,0.311-0.384,0.522-1.007,0.435
		c-0.189-0.027-0.379-0.108-0.552-0.205c0.137,0.143,0.261,0.309,0.332,0.484c0.236,0.583,0.114,0.965-0.179,1.082
		c-0.29,0.117-0.643-0.07-0.879-0.653c-0.069-0.179-0.096-0.382-0.098-0.581c-0.055,0.19-0.137,0.379-0.254,0.53
		c-0.388,0.495-0.777,0.581-1.025,0.387c-0.248-0.193-0.261-0.593,0.128-1.089c0.118-0.149,0.281-0.274,0.452-0.374
		c-0.191,0.047-0.396,0.071-0.586,0.043c-0.623-0.086-0.892-0.381-0.848-0.693C31.169,11.676,31.508,11.466,32.131,11.554z
		 M36.67,16.99c-0.156-0.099-0.326-0.192-0.525-0.273c0.269-0.336,0.435-0.677,0.525-1.016V16.99z M36.67,12.102v2.59
		c-0.075-0.229-0.198-0.441-0.377-0.62c-0.196-0.196-0.431-0.332-0.689-0.401c0.467-0.197,0.693-0.594,0.745-0.949
		c0.06-0.437-0.12-0.994-0.771-1.306c0.053-0.14,0.084-0.28,0.094-0.42c0.017-0.201-0.016-0.395-0.085-0.568
		C36.224,10.717,36.67,11.356,36.67,12.102z M34.827,39.741H15.173c-1.017,0-1.843-0.827-1.843-1.843V12.102
		c0-1.016,0.826-1.843,1.843-1.843h16.418c-0.052,0.149-0.093,0.335-0.075,0.584c-0.236,0.039-0.431,0.119-0.586,0.226
		c-0.117-0.203-0.284-0.37-0.494-0.49c-0.207-0.121-0.436-0.183-0.676-0.183c-0.286,0-0.794,0.097-1.29,0.663
		c-0.497-0.566-1.005-0.663-1.29-0.663c-0.238,0-0.464,0.062-0.673,0.182c-0.32,0.184-0.54,0.47-0.637,0.833
		c-0.091,0.334-0.065,0.712,0.07,1.111c-0.963,0.194-1.401,0.837-1.401,1.46c0,0.624,0.438,1.266,1.401,1.46
		c-0.313,0.932,0.024,1.633,0.562,1.943c0.209,0.121,0.436,0.183,0.676,0.183c0.173,0,0.456-0.039,0.774-0.23l0.098,0.195
		c0.242,0.42,0.671,0.758,1.285,1.003c-0.848,1.075-0.714,2.078-0.15,2.642c0.631,0.634,1.669,0.604,2.641-0.151
		c0.378,0.954,1.031,1.508,1.807,1.508c0.136,0,0.272-0.018,0.407-0.055c0.465-0.124,0.835-0.446,1.044-0.906
		c0.184-0.407,0.235-0.896,0.152-1.452c0.556,0.083,1.039,0.01,1.434-0.165v17.943C36.67,38.914,35.844,39.741,34.827,39.741z"/>
	<circle cx="28.47" cy="13.981" r="0.642"/>
	<path d="M32.519,16.792c-0.461,0.124-0.734,0.597-0.611,1.056c0.124,0.46,0.597,0.733,1.058,0.609
		c0.458-0.122,0.731-0.598,0.607-1.056C33.449,16.942,32.978,16.669,32.519,16.792z"/>
	<circle cx="33.382" cy="12.305" r="0.456"/>
	<path d="M17.63,26.639H25c0.509,0,0.921-0.412,0.921-0.921S25.509,24.796,25,24.796h-7.37c-0.509,0-0.922,0.413-0.922,0.922
		S17.121,26.639,17.63,26.639z"/>
	<path d="M32.37,28.105H17.63c-0.509,0-0.922,0.413-0.922,0.922s0.413,0.921,0.922,0.921h14.74c0.509,0,0.922-0.412,0.922-0.921
		S32.879,28.105,32.37,28.105z"/>
	<path d="M32.37,31.416H17.63c-0.509,0-0.922,0.412-0.922,0.921s0.413,0.921,0.922,0.921h14.74c0.509,0,0.922-0.412,0.922-0.921
		S32.879,31.416,32.37,31.416z"/>
	<path d="M32.37,34.726H17.63c-0.509,0-0.922,0.412-0.922,0.921s0.413,0.922,0.922,0.922h14.74c0.509,0,0.922-0.413,0.922-0.922
		S32.879,34.726,32.37,34.726z"/>
</g>
</svg>
