<?xml version="1.0" encoding="utf-8"?>
<!-- Generator: Adobe Illustrator 16.0.0, SVG Export Plug-In . SVG Version: 6.00 Build 0)  -->
<!DOCTYPE svg PUBLIC "-//W3C//DTD SVG 1.1//EN" "http://www.w3.org/Graphics/SVG/1.1/DTD/svg11.dtd">
<svg version="1.1" id="Layer_1" xmlns="http://www.w3.org/2000/svg" xmlns:xlink="http://www.w3.org/1999/xlink" x="0px" y="0px"
	 width="50px" height="50px" viewBox="0 0 50 50" enable-background="new 0 0 50 50" xml:space="preserve">
<g>
	<path d="M30.212,25.359c2.684-0.931,4.469-2.554,4.469-4.406v-0.001v-0.001c-0.005-0.541-2.488-1.003-6.008-1.196l-0.015-0.096
		c-0.077-0.286-0.235-0.562-0.418-0.808c0.246,0.183,0.521,0.341,0.808,0.418c0.941,0.252,1.502-0.006,1.628-0.477
		c0.126-0.471-0.23-0.976-1.172-1.228c-0.285-0.076-0.604-0.077-0.909-0.042c0.282-0.123,0.557-0.281,0.767-0.491
		c0.689-0.689,0.746-1.304,0.401-1.649c-0.344-0.344-0.96-0.288-1.649,0.401c-0.209,0.209-0.368,0.484-0.491,0.767
		c0.036-0.305,0.036-0.623-0.041-0.91c-0.253-0.94-0.757-1.298-1.229-1.172c-0.47,0.126-0.729,0.688-0.476,1.629
		c0.076,0.286,0.235,0.562,0.418,0.808c-0.246-0.183-0.522-0.342-0.808-0.419c-0.941-0.251-1.502,0.007-1.628,0.478
		c-0.126,0.471,0.23,0.975,1.172,1.227c0.286,0.076,0.604,0.078,0.909,0.042c-0.283,0.122-0.558,0.281-0.768,0.49
		c-0.337,0.337-0.521,0.657-0.582,0.936c-5.151,0.029-9.265,0.594-9.271,1.291v0.001v0.001c0,1.852,1.784,3.475,4.469,4.406
		c-3.595,1.882-6.052,5.643-6.052,9.981c0,2.55,0.858,4.896,2.286,6.784h3.997c-0.792-1.048-1.268-2.349-1.268-3.763
		c0-3.452,2.798-6.25,6.249-6.25s6.248,2.798,6.248,6.25c0,1.414-0.475,2.715-1.267,3.763h3.997
		c1.428-1.889,2.287-4.234,2.287-6.784C36.264,31.001,33.807,27.241,30.212,25.359z M26.893,19.683l-0.241-0.005
		c0.099-0.149,0.188-0.307,0.26-0.472C26.893,19.364,26.886,19.524,26.893,19.683z M27.085,17.197
		c0.376-0.101,0.763,0.123,0.864,0.499c0.1,0.376-0.123,0.763-0.499,0.864c-0.376,0.101-0.764-0.122-0.865-0.499
		C26.485,17.686,26.708,17.298,27.085,17.197z M25,21.873c-5.06,0-8.454-0.514-9.203-0.919c0.729-0.395,3.962-0.89,8.792-0.917
		c0.029,0.13,0.09,0.245,0.184,0.338c0.331,0.332,0.912,0.285,1.567-0.327c0.205,0.004,0.408,0.008,0.606,0.013l0.008,0.055
		c0.252,0.942,0.756,1.299,1.228,1.173c0.382-0.103,0.608-0.506,0.55-1.152c2.973,0.17,4.926,0.522,5.472,0.817
		C33.453,21.358,30.057,21.873,25,21.873z"/>
	<path d="M25.599,37.311c0.853-1.053,0.039-2.431-0.891-3.212c0.174,0.851-1.238,2.046-0.325,3.213
		c-1.166,0.061-2.038,0.287-2.038,0.558v3.678c0,0.318,1.188,0.576,2.653,0.576c1.466,0,2.653-0.258,2.653-0.576v-3.678
		C27.651,37.598,26.774,37.371,25.599,37.311z M24.998,38.331c-1.674,0-2.536-0.323-2.536-0.46c0-0.138,0.714-0.389,2.017-0.445
		c0.089,0.098,0.191,0.197,0.318,0.294c-0.129-0.117-0.211-0.232-0.265-0.347l-0.029-0.068c-0.202-0.572,0.394-1.125,0.51-1.805
		c0.408,0.66,0.751,1.297,0.482,1.844l-0.017,0.034l-0.151,0.212l0.175-0.167c1.314,0.055,2.034,0.308,2.034,0.447
		C27.535,38.008,26.671,38.331,24.998,38.331z"/>
	<polygon points="25,36.761 24.883,36.877 24.883,37.871 25,37.987 25.115,37.871 25.115,36.877 	"/>
	<path d="M20.381,14.451c0.221,0,0.45-0.061,0.664-0.146c-0.18,0.143-0.348,0.312-0.458,0.502c-0.363,0.63-0.285,1.084,0.03,1.266
		c0.314,0.182,0.747,0.021,1.11-0.607c0.111-0.191,0.172-0.421,0.206-0.647c0.033,0.226,0.095,0.456,0.206,0.646
		c0.363,0.629,0.796,0.79,1.11,0.608c0.315-0.181,0.393-0.636,0.029-1.266c-0.11-0.191-0.278-0.359-0.458-0.502
		c0.213,0.085,0.442,0.146,0.663,0.146c0.728,0,1.082-0.294,1.082-0.658c0-0.363-0.354-0.658-1.082-0.658
		c-0.22,0-0.45,0.061-0.663,0.145c0.179-0.142,0.347-0.309,0.458-0.501c0.363-0.629,0.286-1.084-0.029-1.266
		c-0.315-0.182-0.748-0.022-1.111,0.607c-0.111,0.191-0.173,0.421-0.206,0.648c-0.033-0.227-0.095-0.457-0.206-0.648
		c-0.363-0.629-0.796-0.789-1.11-0.607c-0.316,0.182-0.393,0.636-0.029,1.266c0.11,0.191,0.278,0.359,0.458,0.502
		c-0.213-0.085-0.443-0.146-0.664-0.146c-0.728,0-1.082,0.294-1.082,0.658S19.654,14.451,20.381,14.451z M21.669,13.337
		c0.252-0.146,0.573-0.059,0.718,0.192c0.146,0.252,0.06,0.574-0.192,0.719s-0.574,0.059-0.719-0.192
		C21.332,13.804,21.417,13.482,21.669,13.337z"/>
	<path d="M26.639,11.993c0.155,0.022,0.322,0.002,0.48-0.036c-0.14,0.082-0.274,0.184-0.371,0.306
		c-0.317,0.407-0.307,0.733-0.104,0.892c0.203,0.159,0.522,0.09,0.84-0.316c0.096-0.123,0.163-0.277,0.208-0.434
		c0,0.162,0.022,0.329,0.08,0.475c0.193,0.478,0.481,0.631,0.719,0.535c0.24-0.096,0.339-0.408,0.146-0.885
		c-0.059-0.145-0.16-0.28-0.272-0.397c0.142,0.08,0.296,0.146,0.452,0.168c0.51,0.072,0.788-0.1,0.825-0.355
		c0.035-0.256-0.185-0.497-0.695-0.569c-0.155-0.021-0.322-0.001-0.479,0.038c0.14-0.082,0.274-0.184,0.371-0.307
		c0.318-0.406,0.308-0.733,0.104-0.891c-0.203-0.159-0.522-0.089-0.84,0.317c-0.096,0.123-0.163,0.279-0.207,0.434
		c-0.001-0.162-0.022-0.329-0.081-0.474c-0.193-0.478-0.481-0.633-0.72-0.536c-0.238,0.097-0.339,0.408-0.146,0.886
		c0.059,0.145,0.16,0.28,0.271,0.396c-0.141-0.08-0.295-0.146-0.451-0.167c-0.51-0.072-0.788,0.1-0.824,0.355
		C25.909,11.68,26.129,11.921,26.639,11.993z M27.845,11.315c0.203,0.028,0.347,0.217,0.317,0.421
		c-0.028,0.204-0.217,0.346-0.421,0.317c-0.204-0.029-0.347-0.217-0.318-0.421C27.452,11.428,27.64,11.287,27.845,11.315z"/>
</g>
</svg>
