<?xml version="1.0" standalone="no"?>
<!-- Generator: Adobe Fireworks 10, Export SVG Extension by Aaron Beall (http://fireworks.abeall.com) . Version: 0.6.1  -->
<!DOCTYPE svg PUBLIC "-//W3C//DTD SVG 1.1//EN" "http://www.w3.org/Graphics/SVG/1.1/DTD/svg11.dtd">
<svg id="Untitled-P%E1gina%201" viewBox="0 0 183 183" style="background-color:#ffffff00" version="1.1"
	xmlns="http://www.w3.org/2000/svg" xmlns:xlink="http://www.w3.org/1999/xlink" xml:space="preserve"
	x="0px" y="0px" width="183px" height="183px"
>
	<g id="Capa%201">
		<path d="M 182.0225 75.5525 C 178.1694 76.4333 174.2783 76.5222 170.8584 75.7605 C 165.9756 74.6755 162.5381 72.0271 161.4263 68.4998 C 159.4854 62.321 165.1597 54.7322 174.0645 51.0193 C 170.8281 44.3884 166.8052 38.1696 162.084 32.4958 C 156.748 37.4323 150.0781 39.9343 144.9063 38.7839 C 143.2783 38.4216 141.876 37.7097 140.7373 36.6657 C 135.9673 32.2868 137.0903 22.8659 142.9556 15.195 C 136.9302 11.1267 130.355 7.738 123.3062 5.1569 C 120.4111 14.4568 113.2739 20.8591 106.9092 19.4431 C 100.5825 18.0359 96.8442 9.3122 98.0933 -0.2669 C 90.6079 -0.8001 83.2192 -0.3948 76.0503 0.8474 C 78.2021 10.3552 75.2236 19.4812 68.9961 21.4411 C 67.5249 21.904 65.9521 21.9548 64.3237 21.5935 C 59.2021 20.4529 54.2656 15.4431 51.5093 8.8093 C 44.8818 12.0446 38.6646 16.0661 32.9932 20.7859 C 39.5967 27.9411 41.5718 37.322 37.1631 42.1277 C 34.6631 44.8523 30.4292 45.7927 25.5464 44.7068 C 22.1875 43.9607 18.7646 42.279 15.6914 39.9138 C 11.623 45.9392 8.2354 52.5154 5.6538 59.5642 C 14.9531 62.4578 21.354 69.5935 19.9375 75.9617 C 18.5313 82.2869 9.8091 86.0252 0.2295 84.7762 C -0.3042 92.2596 0.1011 99.6502 1.3452 106.8181 C 5.1982 105.9392 9.0884 105.8533 12.5063 106.614 C 17.3896 107.7 20.8281 110.3445 21.938 113.8728 C 23.8804 120.0516 18.2061 127.6404 9.3008 131.3524 C 12.5366 137.9832 16.5596 144.2029 21.2817 149.8768 C 26.6172 144.9383 33.2861 142.4363 38.457 143.5877 C 40.085 143.949 41.4878 144.6629 42.626 145.7068 C 47.3984 150.0848 46.2759 159.5067 40.4102 167.1776 C 46.436 171.245 53.0112 174.6327 60.0601 177.2147 C 62.9556 167.9198 70.0908 161.5155 76.458 162.9295 C 82.7832 164.3387 86.522 173.0614 85.2725 182.6414 C 92.7573 183.1756 100.146 182.7694 107.3154 181.5252 C 105.1641 172.0155 108.144 162.8914 114.3701 160.9315 C 115.8394 160.4686 117.4131 160.4168 119.0415 160.7791 C 124.1636 161.9178 129.1006 166.9276 131.8574 173.5663 C 138.4854 170.3299 144.7026 166.3065 150.3735 161.5877 C 143.77 154.4315 141.7925 145.0496 146.2021 140.241 C 148.7031 137.5203 152.9365 136.5799 157.8198 137.6668 C 161.1777 138.4139 164.6021 140.0945 167.6777 142.4598 C 171.7446 136.4334 175.1328 129.8563 177.7139 122.8113 C 168.415 119.9158 162.0132 112.7781 163.4268 106.4099 C 164.833 100.0857 173.5586 96.3455 183.1382 97.5965 C 183.6719 90.1131 183.2661 82.7224 182.0225 75.5525 ZM 130.5327 99.8279 C 125.7603 121.282 104.4976 134.8084 83.043 130.0359 C 61.5859 125.2625 48.062 104.0008 52.834 82.5447 C 57.6069 61.0876 78.8682 47.5642 100.3242 52.3367 C 121.7798 57.1091 135.3052 78.3699 130.5327 99.8279 Z" fill="#53647f"/>
	</g>
</svg>