<?xml version="1.0" standalone="no"?>
<!DOCTYPE svg PUBLIC "-//W3C//DTD SVG 1.1//EN" "http://www.w3.org/Graphics/SVG/1.1/DTD/svg11.dtd" >
<svg xmlns="http://www.w3.org/2000/svg">
<metadata>
This is a custom SVG webfont generated by Font Squirrel.
</metadata>
<defs>
<font id="webfont" horiz-adv-x="1507" vert-adv-y="2048" >
<font-face units-per-em="2048" ascent="1473" descent="-575" />
<missing-glyph horiz-adv-x="500" />
<glyph  unicode="!" horiz-adv-x="671" vert-adv-y="2455" d="M338 332q74 0 127 -53.5t53 -126.5q0 -76 -53 -129q-57 -53 -129 -54q-74 0 -127 53.5t-53 129.5q0 70 53 127q53 53 129 53zM193 477v1059h286v-1059h-286z" />
<glyph  unicode="&#x22;" horiz-adv-x="892" vert-adv-y="2455" d="M104 1565h258l-24 -621h-178zM530 1565h258l-24 -621h-176z" />
<glyph  unicode="#" horiz-adv-x="1333" vert-adv-y="2455" d="M1260 1116v-215h-240l-31 -235h215v-217h-241l-58 -472l-217 29l55 443h-241l-62 -472l-217 29l53 445h-217v215h248l29 235h-221v215h247l56 443l215 -31l-49 -412h241l56 443l215 -31l-54 -412h218zM797 901h-240l-31 -235h244z" />
<glyph  unicode="$" horiz-adv-x="1304" vert-adv-y="2455" d="M834 1624v-96q80 -20 131 -47q70 -39 157 -123l-151 -193q-63 68 -115 92q-66 33 -129 33q-82 0 -135 -45q-61 -45 -62 -121q0 -55 50 -98q33 -31 120 -68l21 -8q20 -8 33 -14q184 -78 264 -139q84 -66 119 -135q37 -76 37 -183q0 -233 -173 -373q-49 -41 -167 -86v-110 h-279v90q-96 20 -152 43q-61 27 -110 61q-68 45 -162 168l170 179q88 -113 162 -156q84 -47 174 -47q115 0 182 67q55 55 55 140q0 70 -45 114q-47 45 -170 97l-86 36q-133 57 -194 107q-139 109 -139 299q0 203 161 340q43 39 154 82v94h279z" />
<glyph  unicode="%" horiz-adv-x="1718" vert-adv-y="2455" d="M434 1610q188 0 305 -119q117 -117 117 -299q0 -184 -117 -301q-119 -119 -309 -119t-309 119q-117 117 -117 299q0 181 117 301q116 119 313 119zM1212 1604l211 -117l-897 -1557l-215 119zM1300 756q188 0 308 -119q115 -115 114.5 -297t-116.5 -299 q-123 -119 -310 -119q-188 0 -307 119q-115 113 -115 299q0 184 115 299q116 117 311 117zM430 1417q-84 0 -139 -55q-66 -66 -66 -172.5t68 -173.5q57 -57 139 -57.5t139 57.5q68 68 68 172q0 106 -68 174q-55 55 -141 55zM1296 569q-82 0 -139 -57q-66 -66 -65.5 -172.5 t65.5 -171.5q57 -57 141 -57q82 0 138 55q66 66 65 174q0 104 -65 174q-56 55 -140 55z" />
<glyph  unicode="&#x26;" horiz-adv-x="1603" vert-adv-y="2455" d="M858 825l252 -290l172 167l31 29l176 -176l-37 -37l-43 -43l-63 -57l-68 -66l309 -352h-370l-152 174q-156 -125 -258 -164q-115 -45 -236 -45q-219 0 -358 139q-121 121 -121 304q0 176 137 313q20 20 90 63l13 9l43 26q10 6 18 10q4 2 8.5 4.5t6.5 4.5q6 6 8 6 q14 4 35 18q4 2 8 6q-94 106 -125 174q-33 78 -33 146q0 158 107 264q119 119 311 119q199 0 317 -121q102 -102 103 -248q0 -137 -101 -244q-49 -51 -180 -133zM901 360l-291 334q-125 -84 -166 -131q-51 -57 -51 -121q0 -82 62 -143q68 -70 170 -70q72 0 155 45 q33 18 121 86zM715 983q94 63 127 102q49 57 49 119q0 68 -41 109q-43 43 -117 43q-68 0 -106 -41q-43 -43 -43 -109q0 -47 30 -96q27 -43 101 -127z" />
<glyph  unicode="'" horiz-adv-x="499" vert-adv-y="2455" d="M150 903l-46 633h291l-45 -633h-200z" />
<glyph  unicode="(" horiz-adv-x="595" vert-adv-y="2455" d="M330 1831l215 -121q-88 -207 -117 -334q-72 -309 -72 -616q0 -365 86 -690q23 -88 103 -269l-215 -123l-39 80q-47 100 -74 187q-55 178 -84 395q-31 225 -31 430q0 383 99 739q29 109 129 322z" />
<glyph  unicode=")" horiz-adv-x="600" vert-adv-y="2455" d="M272 -322l-217 123q90 219 119 351q68 291 68 598q0 356 -80 665q-27 106 -107 295l217 121l41 -80q45 -98 68 -172q47 -143 82 -373q37 -246 37 -469q0 -377 -97 -721q-41 -148 -131 -338z" />
<glyph  unicode="*" horiz-adv-x="899" vert-adv-y="2455" d="M571 1180l177 -283l-175 -94l-145 295l-213 -252l-145 135l235 229l-305 127l84 181l295 -156l20 332l199 -25l-55 -326l319 80l39 -196z" />
<glyph  unicode="+" horiz-adv-x="2312" vert-adv-y="2455" d="M1014 1024v518q0 27 28 27h242q29 0 29 -31v-520q0 -25 22 -25h574q27 0 26 -22v-256q0 -31 -30 -31h-566q-14 0 -20 -6t-6 -25v-616q0 -37 -31 -37h-240q-29 0 -28 27v626q0 31 -31 31h-573q-31 0 -31 27v254q0 18 6 22q6 6 25 6h569q35 0 35 31z" />
<glyph  unicode="," horiz-adv-x="495" vert-adv-y="2455" d="M147 -332l-45 633h291l-45 -633h-201z" />
<glyph  unicode="-" horiz-adv-x="460" vert-adv-y="2455" d="M0 575h461v-208h-461v208z" />
<glyph  unicode="." horiz-adv-x="583" vert-adv-y="2455" d="M295 330q72 0 125 -54q51 -51 51 -126q0 -74 -51 -127q-53 -53 -127 -54q-76 0 -129 53.5t-53 125t53 128.5q53 54 131 54z" />
<glyph  unicode="/" horiz-adv-x="1226" vert-adv-y="2455" d="M924 1776h282l-837 -1999h-281z" />
<glyph  unicode="0" vert-adv-y="2455" d="M758 1575q203 0 354 -143q125 -115 186 -312q51 -156 52 -354q0 -373 -181 -598q-164 -207 -413 -207q-268 0 -434 232q-162 227 -162 573q0 422 227 653q152 156 371 156zM756 1309q-82 0 -150 -68q-72 -72 -106 -188q-39 -123 -39 -287q0 -200 61 -344 q83 -197 234 -197q127 0 207 144q88 156 88 397q0 244 -88 401q-51 98 -138 129q-34 13 -69 13z" />
<glyph  unicode="1" vert-adv-y="2455" d="M662 1276h-222v260h521v-1536h-299v1276z" />
<glyph  unicode="2" vert-adv-y="2455" d="M739 260h557v-260h-1116l453 514q190 215 258 315q94 137 94 246q0 100 -65 166q-68 68 -172 68q-96 0 -152 -58q-57 -59 -72 -194h-319q18 147 47 213q63 143 176 217q131 88 315 88q248 0 404 -156q137 -137 137 -338q0 -127 -65 -254q-68 -127 -213 -282z" />
<glyph  unicode="3" vert-adv-y="2455" d="M694 707v215h62q82 0 135 53q55 55 55 149q0 96 -55 152q-57 57 -154 57q-88 0 -139 -51q-46 -46 -61 -147h-285q25 129 57 192q57 113 160 174q121 74 281 74q233 0 366 -133q117 -115 117 -299q0 -147 -82 -240q-18 -23 -98 -82q84 -43 116 -71q117 -102 117 -297 q0 -209 -131 -340q-152 -152 -410 -152q-260 0 -419 166q-82 86 -111 174q-16 45 -27 141h299q12 -68 25 -94q25 -53 82 -86q66 -37 143 -37q111 0 183 72q68 68 67.5 170t-69.5 172q-66 68 -158 68h-66z" />
<glyph  unicode="4" vert-adv-y="2455" d="M1180 512h180v-242h-180v-270h-283v270h-747v136l757 1157h273v-1051zM897 512v608l-393 -608h393z" />
<glyph  unicode="5" vert-adv-y="2455" d="M1233 1276h-508l-59 -240l26 4q33 4 80 4q227 0 375 -147q154 -154 153 -387q0 -231 -149 -381q-168 -168 -457 -168q-162 0 -305 66q-68 33 -180 135l98 260q100 -111 174 -146q100 -51 201 -51q143 0 233 90q86 82 86 203q0 150 -127 242q-96 70 -223 69 q-82 0 -168 -30q-39 -12 -129 -70h-14l180 807h713v-260z" />
<glyph  unicode="6" vert-adv-y="2455" d="M834 1597l233 -131l-348 -450q188 -8 280 -37q150 -49 246 -188q90 -131 90 -297q0 -221 -143 -367q-166 -166 -440 -166q-270 0 -437 166q-145 145 -145 356q0 223 197 490zM754 772q-115 0 -199 -84q-84 -88 -84 -205q0 -121 84 -204q82 -82 199 -82q119 0 200.5 81.5 t81.5 206.5q0 121 -82 205q-79 82 -200 82z" />
<glyph  unicode="7" vert-adv-y="2455" d="M901 1276h-713v260h1184l-930 -1579l-243 143z" />
<glyph  unicode="8" vert-adv-y="2455" d="M498 803q-86 47 -125 90q-98 108 -99 246q0 178 121 299q137 137 365 137q225 0 360 -137q121 -121 121 -299q0 -150 -100 -248q-35 -35 -129 -88q113 -51 151 -88q123 -113 123 -291q0 -186 -125 -311q-152 -152 -399 -152q-225 0 -377 123q-164 133 -164 342 q0 178 125 289q43 37 152 88zM758 1356q-88 0 -151.5 -63.5t-63.5 -153.5t61 -150q63 -63 154 -63q88 0 149.5 61.5t61.5 151.5q0 92 -64 155q-61 62 -147 62zM754 678q-94 0 -162 -68q-70 -70 -70 -172t70 -171.5t164 -69.5t162 67q72 72 71 176q0 100 -69 170 q-68 68 -166 68z" />
<glyph  unicode="9" vert-adv-y="2455" d="M676 -61l-236 131l353 450q-190 9 -283 37q-152 49 -248 188q-92 131 -92 299q0 215 145 365q166 166 441 166q270 0 436 -166q143 -143 143 -356q0 -237 -190 -492zM752 1337q-115 0 -197 -82q-84 -84 -84 -204q0 -123 84 -207q80 -80 195 -80q121 0 202 82 q84 84 84 207q0 121 -81.5 202.5t-202.5 81.5z" />
<glyph  unicode=":" horiz-adv-x="727" vert-adv-y="2455" d="M364.5 330q73.5 0 127 -53.5t53.5 -127t-53.5 -127t-126.5 -53.5q-76 0 -129 54q-51 51 -52 124q0 76 53.5 129.5t127 53.5zM365 1032q74 0 127 -53t53 -127t-53.5 -127t-126.5 -53q-72 0 -129 53q-51 51 -52 125q0 78 54 131q51 51 127 51z" />
<glyph  unicode=";" horiz-adv-x="729" vert-adv-y="2455" d="M364.5 1028q77.5 0 129 -51t51.5 -127q0 -78 -51 -129q-53 -53 -129 -53t-129 53q-51 51 -52 129q0 76 51.5 127t129 51zM264 -332l-43 633h291l-45 -633h-203z" />
<glyph  unicode="&#x3c;" horiz-adv-x="1150" vert-adv-y="2455" d="M1075 1405v-297l-682 -340l680 -338v-295l-995 508v252z" />
<glyph  unicode="=" horiz-adv-x="2201" vert-adv-y="2455" d="M1706 743v-305h-1210v305h1210zM1706 1227v-309h-1210v309h1210z" />
<glyph  unicode="&#x3e;" horiz-adv-x="1150" vert-adv-y="2455" d="M78 135v297l682 338l-682 340v295l997 -510v-252z" />
<glyph  unicode="?" horiz-adv-x="1101" vert-adv-y="2455" d="M346 477v441q47 -8 80 -9q127 0 209 66q80 65 80 166q0 76 -51.5 127t-124.5 51q-68 0 -115 -47q-49 -49 -49 -119v-27h-297v4v13q0 2 -1 8t-1 10q0 150 117 266q139 139 354 140q205 0 340 -135q123 -123 123 -299q0 -139 -82 -246q-57 -74 -152 -125q-53 -27 -147 -53 v-232h-283zM496 330q70 0 123 -53.5t53 -126.5q0 -78 -51.5 -129.5t-128.5 -51.5q-74 0 -127.5 53.5t-53.5 124.5q0 76 53.5 129.5t131.5 53.5z" />
<glyph  unicode="@" horiz-adv-x="1552" vert-adv-y="2455" d="M1217 1171l-62 -524q-4 -35 -4 -100.5t39 -65.5q20 0 49 17q74 45 119 145q45 98 45 223q0 217 -150 371q-86 86 -196 127q-109 41 -240 41q-272 0 -455 -182q-184 -184 -184 -453q0 -227 135 -399q111 -141 279 -197q104 -33 250 -33q127 0 225 27q90 25 236 88l16 6 l20 12l68 -168l-18 -10l-13 -4q-143 -63 -186 -78q-166 -49 -350 -49q-268 0 -463 109q-184 104 -290.5 290.5t-106.5 403.5q0 332 231 563q125 123 285 182q147 57 315 58q233 0 420 -107q162 -94 256 -252q90 -156 90 -338q0 -242 -137 -415q-119 -150 -277 -150 q-121 0 -176 117q-59 -61 -102 -84q-68 -37 -158 -37q-154 0 -258 105q-125 125 -125 327.5t131 333.5q119 119 289 119q166 0 252 -96l8 77h193zM987 786v17q0 90 -74 145q-59 41 -133 41q-106 0 -168 -86q-51 -70 -51 -174q0 -102 51 -166q47 -59 123 -59q117 0 197 110 q55 80 55 172z" />
<glyph  unicode="A" horiz-adv-x="1568" vert-adv-y="2455" d="M1100 324h-627l-139 -324h-318l664 1569h225l647 -1569h-321zM1008 567l-217 551l-224 -551h441z" />
<glyph  unicode="B" horiz-adv-x="1288" vert-adv-y="2455" d="M162 0v1536h379q262 0 377 -92q66 -53 100 -135q37 -86 37 -181t-37 -178q-20 -49 -62 -84q-18 -14 -67 -45q127 -31 182 -80q127 -115 127 -309q0 -193 -131 -309q-137 -123 -387 -123h-518zM461 895h86q231 0 231 201q0 199 -227 198h-90v-399zM461 244h129 q299 0 299 209q0 115 -88 172q-39 25 -88 34q-39 8 -140 9h-112v-424z" />
<glyph  unicode="C" horiz-adv-x="1372" vert-adv-y="2455" d="M1280 1180v-25q0 -14 -12 -14q-6 0 -17 10q-129 131 -336 131q-221 0 -370.5 -149.5t-149.5 -370.5q0 -213 142 -354q156 -152 403 -152q200 0 313 111q8 8 15 12h2q6 0 12 -17v-24v-260q0 -28 -43 -49q-127 -63 -342 -64q-221 0 -410 109q-180 104 -288 288 q-106 182 -106.5 399.5t106.5 403.5q106 188 301 299q186 106 403 107q158 0 324 -70l24 -10q29 -12 29 -39v-272z" />
<glyph  unicode="D" horiz-adv-x="1515" vert-adv-y="2455" d="M162 0v1536h438q256 0 457 -115q174 -98 268 -264q98 -172 98 -381q0 -233 -118 -422q-117 -186 -322 -280q-160 -74 -385 -74h-436zM461 260h80q184 0 299 49q123 53 200 185q76 127 76 274q0 145 -74 272q-76 129 -204 187q-111 49 -297 49h-80v-1016z" />
<glyph  unicode="E" horiz-adv-x="1103" vert-adv-y="2455" d="M1012 1276h-551v-340h530v-260h-530v-416h551v-260h-850v1536h850v-260z" />
<glyph  unicode="F" horiz-adv-x="1052" vert-adv-y="2455" d="M975 1276h-514v-340h481v-260h-481v-676h-299v1536h813v-260z" />
<glyph  unicode="G" horiz-adv-x="1736" vert-adv-y="2455" d="M944 821h701v-47q0 -383 -220 -606q-201 -203 -526 -203q-356 0 -584 228q-223 223 -223 569q0 348 227 577q231 231 586 232q305 0 516 -189q68 -61 144 -174l-262 -141q-57 86 -99 121q-115 106 -301 106q-209 0 -352 -143q-152 -156 -152 -389q0 -236 150 -385 q141 -141 350 -141q137 0 246 65q74 47 123 139q22 40 37 123h-361v258z" />
<glyph  unicode="H" horiz-adv-x="1570" vert-adv-y="2455" d="M461 944h649v592h299v-1536h-299v684h-649v-684h-299v1536h299v-592z" />
<glyph  unicode="I" horiz-adv-x="622" vert-adv-y="2455" d="M461 1536v-1536h-299v1536h299z" />
<glyph  unicode="J" horiz-adv-x="944" vert-adv-y="2455" d="M784 1536v-1036q0 -238 -79 -361q-51 -82 -145.5 -129t-199.5 -47q-74 0 -157 25q-100 27 -203 121l182 217q59 -84 146 -84q96 0 133 82q25 57 24 223v989h299z" />
<glyph  unicode="K" horiz-adv-x="1449" vert-adv-y="2455" d="M461 887l565 649h377l-649 -709l684 -827h-394l-546 690l-37 -37v-653h-299v1536h299v-649z" />
<glyph  unicode="L" horiz-adv-x="976" vert-adv-y="2455" d="M461 1536v-1276h473v-260h-772v1536h299z" />
<glyph  unicode="M" horiz-adv-x="1992" vert-adv-y="2455" d="M92 0l287 1565h203l419 -1006l437 1006h207l256 -1565h-304l-135 946l-424 -966h-82l-407 966l-156 -946h-301z" />
<glyph  unicode="N" horiz-adv-x="1763" vert-adv-y="2455" d="M397 1536l908 -1034v1034h299v-1536h-234l-909 1038v-1038h-299v1536h235z" />
<glyph  unicode="O" horiz-adv-x="1826" vert-adv-y="2455" d="M918 1571q225 0 423 -115q180 -104 285 -285q109 -186 109 -403t-109 -403q-106 -180 -289 -287q-197 -113 -426 -113q-233 0 -426 113q-188 109 -290 289q-102 174 -103 387q0 342 236 581q117 117 276 181q145 55 314 55zM907 1298q-203 0 -352 -149 q-154 -158 -154 -377q0 -229 156 -385q147 -150 356 -149.5t359 149.5q154 157 153 381q0 221 -155 381q-148 149 -363 149z" />
<glyph  unicode="P" horiz-adv-x="1222" vert-adv-y="2455" d="M461 569v-569h-299v1536h448q145 0 242 -27q145 -41 229 -161q90 -127 90 -299q0 -209 -124 -342q-129 -137 -392 -138h-194zM461 829h123q279 0 278 220q0 119 -78 178q-63 49 -219 49h-104v-447z" />
<glyph  unicode="Q" horiz-adv-x="1832" vert-adv-y="2455" d="M1647 94l-174 -153l-130 141q-100 -59 -167 -80q-123 -37 -252 -37q-242 0 -437 113q-184 104 -288 282q-106 182 -107 408q0 332 232 563q121 121 280 182q147 57 314 58q231 0 421 -111q188 -109 295 -293q106 -186 107 -407q0 -164 -64 -311q-33 -84 -151 -234z M1163 596l150 -152q61 72 82 121q37 82 37 199q0 229 -154 383q-145 147 -362.5 147t-364.5 -147q-152 -152 -152 -381q0 -230 148 -381q145 -145 368 -145q117 0 213 61l-139 137z" />
<glyph  unicode="R" horiz-adv-x="1288" vert-adv-y="2455" d="M801 647l483 -647h-371l-413 618h-39v-618h-299v1536h444q260 0 393 -109q72 -59 111 -151q41 -94 41 -195q0 -123 -55 -231q-82 -158 -295 -203zM461 829h86q168 0 241 80q53 55 54 154q0 231 -291 231h-90v-465z" />
<glyph  unicode="S" horiz-adv-x="1245" vert-adv-y="2455" d="M1100 1393l-156 -205q-57 59 -100 86q-66 37 -146 37q-92 0 -157 -49q-61 -49 -62 -123q0 -61 53 -107q33 -27 111 -59l127 -47q164 -59 250 -133q135 -117 135 -324q0 -215 -139 -358q-152 -147 -398 -148q-205 0 -350 107q-86 63 -176 186l195 186q111 -205 319 -204 q113 0 180 67q59 63 60 146q0 78 -51 131q-33 33 -80 53q-27 12 -166 65q-172 66 -242 121q-137 104 -137 293q0 184 127 311q137 137 356 138q240 0 447 -170z" />
<glyph  unicode="T" horiz-adv-x="1019" vert-adv-y="2455" d="M659 0h-299v1276h-344v260h990v-260h-347v-1276z" />
<glyph  unicode="U" horiz-adv-x="1554" vert-adv-y="2455" d="M461 1536v-879q0 -127 8 -174q18 -94 86 -161q84 -84 223 -84q119 0 203 63q76 59 100 154q14 51 15 202v879h301v-938q0 -266 -113 -412q-78 -100 -215 -161q-137 -59 -291 -60q-211 0 -368 101q-143 90 -201 237q-47 119 -47 295v938h299z" />
<glyph  unicode="V" horiz-adv-x="1505" vert-adv-y="2455" d="M342 1536l410 -1032l415 1032h326l-666 -1575h-159l-652 1575h326z" />
<glyph  unicode="W" horiz-adv-x="2271" vert-adv-y="2455" d="M332 1536l344 -1044l377 1060h164l356 -1060l369 1044h315l-578 -1565h-211l-342 1004l-356 -1004h-211l-543 1565h316z" />
<glyph  unicode="X" horiz-adv-x="1423" vert-adv-y="2455" d="M559 811l-459 725h361l270 -477l283 477h360l-473 -725l524 -811h-352l-344 563l-360 -563h-353z" />
<glyph  unicode="Y" horiz-adv-x="1366" vert-adv-y="2455" d="M528 705l-528 831h354l332 -532l326 532h356l-539 -831v-705h-301v705z" />
<glyph  unicode="Z" horiz-adv-x="1306" vert-adv-y="2455" d="M528 260h709v-260h-1206l751 1276h-635v260h1129z" />
<glyph  unicode="[" horiz-adv-x="731" vert-adv-y="2455" d="M434 1559v-1600h207v-246h-457v2091h457v-245h-207z" />
<glyph  unicode="\" horiz-adv-x="1036" vert-adv-y="2455" d="M147 1776l836 -1999h-283l-835 1999h282z" />
<glyph  unicode="]" horiz-adv-x="733" vert-adv-y="2455" d="M301 -41v1600h-209v245h459v-2091h-459v246h209z" />
<glyph  unicode="^" horiz-adv-x="1157" vert-adv-y="2455" d="M326 770h-312l369 774h393l369 -774h-311l-254 537z" />
<glyph  unicode="_" horiz-adv-x="1150" vert-adv-y="2455" d="M0 -106h1153v-269h-1153v269z" />
<glyph  unicode="`" horiz-adv-x="718" vert-adv-y="2455" d="M219 1483l205 129l274 -348l-133 -93z" />
<glyph  unicode="a" horiz-adv-x="1306" vert-adv-y="2455" d="M901 965h281v-965h-281v125l-39 -45q-120 -111 -289 -111q-201 0 -340 140q-150 150 -149 376q0 223 147 371q137 139 338 139q106 0 201 -47q59 -29 131 -108v125zM649 752q-113 0 -196 -80q-80 -80 -80 -189q0 -111 80 -188q82 -82 200.5 -82t200.5 82q78 78 78 184 q0 109 -78 191q-80 82 -205 82z" />
<glyph  unicode="b" horiz-adv-x="1308" vert-adv-y="2455" d="M406 1536v-696q20 25 36 41l4 2q4 2 5 4q39 39 108 71q84 37 180 37q201 0 338 -139q147 -147 148 -371q0 -227 -150 -376q-139 -139 -342 -140q-98 0 -192 43q-72 33 -135 113v-125h-281v1536h281zM653 752q-114 0 -196 -80q-80 -80 -80 -188.5t80 -188.5 q86 -82 198 -82q119 0 203 84q78 78 78 182q0 111 -80 191q-80 82 -203 82z" />
<glyph  unicode="c" horiz-adv-x="970" vert-adv-y="2455" d="M887 938v-266q-113 80 -225 80q-129 0 -211 -80q-78 -78 -78 -191q0 -106 76 -186q86 -82 215 -82q63 0 124 23q39 14 99 57v-264q-127 -59 -256 -60q-244 0 -400 156q-147 147 -147 354q0 213 149 361q156 156 398 155q61 0 123 -10q65 -14 133 -47z" />
<glyph  unicode="d" horiz-adv-x="1306" vert-adv-y="2455" d="M901 1536h281v-1536h-281v125l-39 -45q-120 -111 -289 -111q-201 0 -340 140q-150 150 -149 376q0 223 147 371q137 139 338 139q109 0 203 -47q57 -27 129 -108v696zM649 752q-113 0 -196 -80q-80 -80 -80 -189q0 -111 80 -188q82 -82 200.5 -82t200.5 82q78 78 78 184 q0 109 -78 191q-80 82 -205 82z" />
<glyph  unicode="e" horiz-adv-x="1200" vert-adv-y="2455" d="M1118 438h-747q6 -82 20 -121q55 -137 225 -137q94 0 156 43q33 23 80 86l258 -41q-59 -129 -152 -198q-131 -100 -337 -101q-252 0 -398 146q-139 137 -139 366q0 233 139 373q141 141 383 141q250 0 387 -151q125 -141 125 -371v-35zM852 610q-55 193 -238 193 q-188 0 -233 -193h471z" />
<glyph  unicode="f" horiz-adv-x="679" vert-adv-y="2455" d="M414 731v-731h-281v731h-108v234h108v151q0 127 37 207q45 94 133 150q100 63 223 63q66 0 144 -33v-246q-82 35 -123 35q-84 0 -115 -67q-18 -37 -18 -148v-112h256v-234h-256z" />
<glyph  unicode="g" horiz-adv-x="1302" vert-adv-y="2455" d="M1178 965v-914q0 -152 -25 -231q-41 -135 -168 -226q-138 -98 -344 -98q-322 0 -483 252q-37 57 -47 152h301q27 -92 88 -133q59 -41 149 -41q119 0 185 71q63 70 63 201v131l-41 -41q-66 -63 -121 -84q-78 -35 -178 -35q-200 0 -332 135q-141 141 -141 367 q0 236 149 385q139 139 340 139q100 0 189 -41q63 -31 135 -114v125h281zM649 752q-114 0 -196 -80q-80 -80 -80 -189q0 -111 80 -188q82 -82 200.5 -82t200.5 82q78 78 78 184q0 111 -80 191q-80 82 -203 82z" />
<glyph  unicode="h" horiz-adv-x="1210" vert-adv-y="2455" d="M125 1536h281v-696l8 10l12 14q20 25 25 27q106 104 268 104q182 0 289 -116q43 -49 61 -110.5t18 -162.5v-606h-280v528q0 109 -21 152q-43 88 -170 88q-211 0 -210 -274v-494h-281v1536z" />
<glyph  unicode="i" horiz-adv-x="540" vert-adv-y="2455" d="M410 965v-965h-279v965h279zM268 1556q66 0 117 -51q47 -51 47 -114.5t-47 -114.5q-51 -51 -119 -51q-66 0 -116 51q-47 51 -47.5 114.5t47.5 114.5q50 51 118 51z" />
<glyph  unicode="j" horiz-adv-x="540" vert-adv-y="2455" d="M410 965v-1479h-279v1479h279zM268 1556q66 0 117 -51q47 -51 47 -114.5t-47 -114.5q-51 -51 -119 -51q-66 0 -116 51q-47 51 -47.5 114.5t47.5 114.5q50 51 118 51z" />
<glyph  unicode="k" horiz-adv-x="1193" vert-adv-y="2455" d="M406 1536v-924l372 353h379l-469 -424l504 -541h-383l-373 414l-30 -29v-385h-281v1536h281z" />
<glyph  unicode="l" horiz-adv-x="528" vert-adv-y="2455" d="M406 1536v-1536h-281v1536h281z" />
<glyph  unicode="m" horiz-adv-x="1802" vert-adv-y="2455" d="M125 965h281v-111q4 4 15 16.5t17 18.5q106 106 275 106q127 0 207 -61q49 -35 100 -115q57 80 119 119q88 57 204 57q123 0 211 -61q125 -88 125 -309v-625h-280v528q0 98 -19 142q-41 98 -145 98q-68 0 -119 -43q-43 -37 -61 -102q-12 -45 -13 -127v-496h-278v512 q0 98 -16 152q-16 45 -56 71q-49 33 -98 33q-65 0 -117 -43q-43 -33 -59 -92q-12 -47 -12 -137v-496h-281v965z" />
<glyph  unicode="n" horiz-adv-x="1210" vert-adv-y="2455" d="M125 965h281v-119q4 2 8 8t8 10q6 6 12 13.5t10.5 11.5t6.5 6q102 100 268 100q181 0 289 -116q43 -49 61 -109q18 -57 18 -158v-612h-280v535q0 106 -21 147q-43 86 -170 86q-211 0 -210 -268v-500h-281v965z" />
<glyph  unicode="o" horiz-adv-x="1310" vert-adv-y="2455" d="M662 995q184 0 323 -82q113 -68 176 -176q66 -115 66 -256q0 -209 -137 -348q-160 -164 -435 -164q-272 0 -434 162q-137 137 -137 344q0 217 141 361q161 159 437 159zM653 752q-119 0 -200 -82q-80 -77 -80 -185q0 -106 78 -188q84 -84 204.5 -84t202.5 82 q80 80 80 188q0 106 -76 183q-83 86 -209 86z" />
<glyph  unicode="p" horiz-adv-x="1308" vert-adv-y="2455" d="M406 -500h-281v1465h281v-125l34 41q109 115 295 114q201 0 342 -141q147 -147 147.5 -372.5t-147.5 -372.5q-139 -139 -338 -140q-98 0 -202 49q-59 29 -131 107v-625zM653 752q-113 0 -196 -80q-80 -80 -80 -188.5t80 -188.5q86 -82 198 -82q119 0 203 84q78 78 78 182 q0 109 -78 191q-82 82 -205 82z" />
<glyph  unicode="q" horiz-adv-x="1306" vert-adv-y="2455" d="M901 -500v625l-12 -14q-127 -141 -322 -142q-197 0 -336 140q-147 147 -147 372.5t147 372.5q137 141 342 141q100 0 193 -41q68 -33 135 -114v125h281v-1465h-281zM649 752q-113 0 -196 -80q-80 -80 -80 -189q0 -111 80 -188q82 -82 200.5 -82t200.5 82q78 78 78 184 q0 109 -78 191q-80 82 -205 82z" />
<glyph  unicode="r" horiz-adv-x="854" vert-adv-y="2455" d="M125 965h281v-146q41 70 83 107q88 70 211 69q45 0 117 -22l-39 -254q-63 33 -125 33q-123 0 -186 -70q-61 -68 -61 -219v-463h-281v965z" />
<glyph  unicode="s" horiz-adv-x="919" vert-adv-y="2455" d="M807 897l-137 -158q-84 63 -164 64q-49 0 -80 -24.5t-31 -57.5t35 -57q27 -20 164 -66q109 -37 156 -70q109 -78 108 -215q0 -164 -135 -262q-113 -82 -281 -82q-221 0 -381 160l146 166q119 -115 231 -115q57 0 92 29q39 33 39 78q0 51 -49 75q-41 25 -147 62 q-115 41 -150 68q-98 68 -98 200q0 123 84 207q100 100 272 100q119 0 217 -38q52 -21 109 -64z" />
<glyph  unicode="t" horiz-adv-x="643" vert-adv-y="2455" d="M438 731v-731h-280v731h-111v234h111v327h280v-327h197v-234h-197z" />
<glyph  unicode="u" horiz-adv-x="1216" vert-adv-y="2455" d="M406 965v-547q0 -219 202.5 -219t202.5 219v547h279v-592q0 -186 -119 -293q-123 -111 -363 -111q-264 0 -389 135q-94 100 -94 269v592h281z" />
<glyph  unicode="v" horiz-adv-x="1150" vert-adv-y="2455" d="M313 965l262 -545l263 545h313l-514 -985h-127l-510 985h313z" />
<glyph  unicode="w" horiz-adv-x="1818" vert-adv-y="2455" d="M313 965l262 -557l273 581h119l272 -590l268 566h312l-516 -985h-127l-271 587l-266 -587h-129l-510 985h313z" />
<glyph  unicode="x" horiz-adv-x="1288" vert-adv-y="2455" d="M475 524l-385 441h352l207 -250l211 250h354l-393 -441l469 -524h-356l-287 336l-289 -336h-358z" />
<glyph  unicode="y" horiz-adv-x="1226" vert-adv-y="2455" d="M471 145l-471 820h326l299 -549l284 549h318l-797 -1465h-315z" />
<glyph  unicode="z" horiz-adv-x="1150" vert-adv-y="2455" d="M539 233h528v-233h-1020l567 735h-479v232h969z" />
<glyph  unicode="{" horiz-adv-x="835" vert-adv-y="2455" d="M743 1503h-24q-92 -4 -117 -30q-25 -29 -29 -170v-355q0 -104 -28 -168q-25 -53 -109 -106q66 -43 94 -84q43 -55 43 -131v-428q0 -104 21 -140q10 -20 43 -34q31 -10 82 -11h24v-233h-6q-25 0 -30 -2h-21h-12h-15h-30h-21l-6 -2h-14q-143 4 -207 74q-65 74 -68 258v485 q0 106 -129 143v228q74 18 101 57q29 41 28 129v440q0 121 29 189q35 76 102 104q51 25 146 25h4h18h23h8h6l2 -2h6h7h22h39h18v-236z" />
<glyph  unicode="|" horiz-adv-x="528" vert-adv-y="2455" d="M406 1536v-1536h-281v1536h281z" />
<glyph  unicode="}" horiz-adv-x="835" vert-adv-y="2455" d="M92 -154h25q92 4 114 29q29 31 31 174v354q0 98 19 148q20 47 49 74q16 16 71 51q-139 90 -139 217v428q0 102 -20 137q-10 20 -43 35q-31 10 -82 10h-25v234l2 2h12h13h8l20 2h31h58q102 0 151 -25q74 -33 105 -104q31 -63 30 -201v-485q0 -102 129 -144v-227 q-65 -18 -92 -49q-35 -41 -37 -137v-441q-4 -193 -80 -262q-59 -53 -194 -57h-4l-19 2h-24h-29h-22l-19 2h-20h-19v233z" />
<glyph  unicode="~" horiz-adv-x="1536" vert-adv-y="2455" d="M373 1290l-166 109q10 20 18 39q12 31 29 63q104 217 299 217q82 0 262 -67q16 -6 42 -14.5t28 -8.5l6 -2l4 -2q55 -18 100 -18q76 0 119 49q12 12 45 67l170 -98q-61 -126 -98 -172q-111 -135 -273 -135q-18 0 -47 4q-23 4 -184 59q-20 8 -35 13q-57 20 -71 22 q-53 16 -80 17q-61 0 -107 -43q-21 -22 -61 -99z" />
<glyph  horiz-adv-x="1378" vert-adv-y="2455" d="M1272 289l-37 -305q-108 -18 -197 -19q-316 0 -540 203q-227 205 -260 514h-160v260h176q25 131 115 268q111 170 290 265q182 96 388 96q197 0 366 -101l-37 -305q-141 117 -319 117q-172 0 -305 -94q-137 -96 -187 -246h785l-31 -260h-776q27 -193 174 -309.5 t366 -116.5q95 0 189 33z" />
<glyph  unicode="&#x20ac;" horiz-adv-x="1378" vert-adv-y="2455" d="M1272 289l-37 -305q-108 -18 -197 -19q-316 0 -540 203q-227 205 -260 514h-160v260h176q25 131 115 268q111 170 290 265q182 96 388 96q197 0 366 -101l-37 -305q-141 117 -319 117q-172 0 -305 -94q-137 -96 -187 -246h785l-31 -260h-776q27 -193 174 -309.5 t366 -116.5q95 0 189 33z" />
<glyph  unicode="&#xa0;" horiz-adv-x="573" vert-adv-y="2455" />
<glyph  unicode="&#xa1;" horiz-adv-x="571" vert-adv-y="2455" d="M289 1192q72 0 125 -53.5t53 -124.5q0 -74 -53.5 -127t-126.5 -53q-72 0 -125 53t-53 125q0 76 53 129q51 51 127 51zM145 723h283v-1090h-283v1090z" />
<glyph  unicode="&#xa2;" horiz-adv-x="1298" vert-adv-y="2455" d="M836 1466v-180q4 0 6 -1t6 -1q41 -6 86 -16q31 -6 82 -31v-281q-43 41 -92 70q-57 31 -123 31q-121 0 -199 -80q-82 -82 -82 -213q0 -127 80 -207q78 -78 195 -78q127 0 221 101v-285q-109 -39 -180 -45v-193h-146v187q-119 20 -188 57q-133 70 -209 199q-70 119 -70 268 q0 203 117 342q72 84 178 133q55 27 172 51v172h146z" />
<glyph  unicode="&#xa3;" horiz-adv-x="1323" vert-adv-y="2455" d="M119 545v209h147q-90 170 -90 313q0 199 141 340q164 164 431 164q248 0 382 -150q84 -90 113 -225q12 -51 19 -158l-301 -34q4 53 4 63q0 104 -68 172t-172 68t-176 -72q-74 -74 -74 -184q0 -98 53 -209l31 -62l12 -26h344v-209h-276q6 -49 6 -86q0 -82 -27 -160l48 -16 l110 -37q115 -39 170 -39q63 0 103 45q25 29 41 78l204 -45q-29 -92 -55 -146q-94 -174 -303 -174q-80 0 -264 60q-176 59 -254 59q-70 0 -111 -37q-23 -20 -45 -67l-215 38q37 82 66 138q96 154 268 163q27 68 27 121q0 47 -19 105h-270z" />
<glyph  unicode="&#xa4;" horiz-adv-x="1529" vert-adv-y="2455" d="M45 313l238 238q-102 154 -103 315q0 100 37 193q22 52 68 123l-242 237l164 164l237 -240q74 47 138 70q92 33 184 33q100 0 192 -35q51 -20 123 -65l236 235l160 -162l-234 -233q57 -96 76 -142q31 -86 31 -178q0 -104 -35 -188q-25 -57 -68 -125l238 -236l-160 -163 l-235 235q-164 -102 -328 -102q-63 0 -154 22q-61 18 -166 78l-235 -233zM766 1180q-129 0 -219 -90q-92 -92 -92 -226q0 -131 90 -221t221 -90q129 0 219 90t90 221t-92 226q-88 90 -217 90z" />
<glyph  unicode="&#xa5;" horiz-adv-x="1298" vert-adv-y="2455" d="M428 834h-289v206h166l-289 490h328l307 -533l301 533h332l-295 -490h172v-206h-299l-80 -144h379v-211h-379v-479h-274v479h-369v211h369z" />
<glyph  unicode="&#xa6;" horiz-adv-x="499" vert-adv-y="2455" d="M375 643v-643h-250v643h250zM375 1571v-643h-250v643h250z" />
<glyph  unicode="&#xa7;" horiz-adv-x="1349" vert-adv-y="2455" d="M1118 1329h-278q-20 186 -160 187q-68 0 -113 -46q-43 -43 -43 -104q0 -76 78 -127q35 -25 225 -106q166 -72 236 -148q104 -111 104 -270q0 -162 -100 -271q-57 -63 -170 -122q95 -46 141 -105q68 -82 68 -205q0 -163 -111 -276q-127 -127 -329 -127q-206 0 -320 123 q-74 77 -98 184q-14 63 -19 129h285q2 -76 33 -125q45 -76 133 -76q70 0 119 49.5t49 120.5q0 98 -84 150q-39 25 -164 67q-127 45 -186 76q-92 47 -152 137q-66 102 -65 238q0 158 82 260q63 80 182 117q-90 41 -137 102q-68 83 -68 209q0 158 100 258q115 115 316 115 q213 0 336 -117q77 -74 98 -166q10 -41 12 -131zM680 889q-78 0 -133 -58q-59 -59 -60 -143q0 -82 60 -145q55 -55 133 -55.5t133 55.5q59 63 59 145t-59 146q-55 55 -133 55z" />
<glyph  unicode="&#xa8;" horiz-adv-x="1038" vert-adv-y="2455" d="M283 1516q66 0 114.5 -49.5t48.5 -116.5q0 -68 -49 -117t-114 -49q-68 0 -119 51q-49 49 -49 115q0 70 49 118q47 48 119 48zM762 1516q68 0 117 -50q47 -47 47 -116q0 -68 -49.5 -117t-116.5 -49q-70 0 -119 49q-47 47 -47 115q0 72 49 120q47 48 119 48z" />
<glyph  unicode="&#xa9;" horiz-adv-x="1748" vert-adv-y="2455" d="M881 1571q205 0 391 -106.5t293 -290.5q109 -188 108.5 -405.5t-106.5 -399.5q-111 -193 -293 -297q-182 -106 -395 -107q-217 0 -400 107q-188 109 -295 297q-106 182 -106 399q0 326 235 567q131 131 308 195q115 41 260 41zM879 1427q-166 0 -318 -86 q-152 -88 -235 -235q-88 -152 -88 -338q0 -279 192 -471q188 -188 447 -188q260 0 444 186q94 94 147 229q45 115 45 244q0 276 -196 475q-182 184 -438 184zM1178 1188v-250l-11 10l-6 6l-8 9q-51 45 -92 67q-57 31 -127 31q-125 0 -207 -82q-86 -86 -86 -215 q0 -125 82 -207t215 -82q121 0 215 94l25 25v-250q-129 -57 -246 -57q-225 0 -377 151q-135 135 -135 326q0 199 141 336q150 150 373 149q123 0 235 -57z" />
<glyph  unicode="&#xaa;" horiz-adv-x="776" vert-adv-y="2455" d="M535 1511h165v-593h-165v77q-40 -46 -74 -67q-49 -31 -119 -31q-119 0 -201 82q-92 92 -92 238q0 143 90 233q82 80 199 80q109 0 197 -96v77zM72 829h624v-124h-624v124zM385 1378q-68 0 -117 -49q-47 -47 -47 -116.5t47 -116.5t117 -47t119 49q47 47 47 112 q0 70 -49 119t-117 49z" />
<glyph  unicode="&#xab;" horiz-adv-x="1128" vert-adv-y="2455" d="M758 500l280 -371l-164 -117l-358 488l358 493l162 -112zM305 500l283 -371l-164 -117l-361 488l361 493l160 -112z" />
<glyph  unicode="&#xac;" horiz-adv-x="1150" vert-adv-y="2455" d="M776 0v346h-698v268h997v-614h-299z" />
<glyph  unicode="&#xad;" horiz-adv-x="460" vert-adv-y="2455" d="M0 575h461v-208h-461v208z" />
<glyph  unicode="&#xae;" horiz-adv-x="1748" vert-adv-y="2455" d="M881 1571q205 0 391 -106.5t293 -290.5q109 -188 108.5 -405.5t-106.5 -399.5q-111 -193 -293 -297q-182 -106 -395 -107q-217 0 -400 107q-188 109 -295 297q-106 182 -106 399q0 326 235 567q131 131 308 195q115 41 260 41zM879 1427q-166 0 -318 -86 q-152 -88 -235 -235q-88 -152 -88 -338q0 -279 192 -471q188 -188 447 -188q260 0 444 186q94 94 147 229q45 115 45 244q0 276 -196 475q-182 184 -438 184zM981 688l305 -381h-270l-256 359v-359h-217v922h291q195 0 286 -99q66 -72 66 -182q0 -197 -205 -260zM758 819h39 q168 0 168 121q0 117 -164 117h-43v-238z" />
<glyph  unicode="&#xb0;" horiz-adv-x="1380" vert-adv-y="2455" d="M694 1567q125 0 215 -90.5t90 -217t-90 -217t-217 -90.5t-219 92q-88 88 -88 213q0 127 90 222q88 88 219 88zM690 1413q-61 0 -106 -45t-45 -106q0 -66 45 -109q43 -43 108.5 -43t108.5 43q45 45 45 107q0 63 -45 108q-43 45 -111 45z" />
<glyph  unicode="&#xb1;" horiz-adv-x="1298" vert-adv-y="2455" d="M137 856h420v422h184v-422h422v-184h-422v-404h-184v404h-420v184zM137 137h1026v-182h-1026v182z" />
<glyph  unicode="&#xb2;" horiz-adv-x="708" vert-adv-y="2455" d="M340 979h250v-117h-502l203 232q90 106 117 143q43 61 43 109q0 45 -29 73q-31 31 -80 31q-86 0 -100 -113h-144q6 57 23 95q61 139 221 139q113 0 180 -70q61 -61 62 -153q0 -55 -29 -113q-23 -45 -96 -127z" />
<glyph  unicode="&#xb3;" horiz-adv-x="720" vert-adv-y="2455" d="M338 1180v96h29q37 0 59 22q25 25 25 68q0 45 -25 70q-27 27 -68 26q-76 0 -92 -90h-127q12 66 25 86q63 113 198 113q109 0 170 -66q47 -53 48 -131q0 -70 -35 -106q-4 -4 -45 -37q41 -20 53 -33q51 -45 51 -131q0 -96 -59 -156q-68 -68 -185 -67q-106 0 -182 69 q-31 29 -49 70q-14 27 -18 78h135q8 -37 10 -41q33 -57 102 -57q49 0 80 30.5t31 77.5q0 49 -31 80q-33 29 -69 29h-31z" />
<glyph  unicode="&#xb4;" horiz-adv-x="894" vert-adv-y="2455" d="M885 1483l-344 -312l-135 93l272 348z" />
<glyph  unicode="&#xb5;" horiz-adv-x="1226" vert-adv-y="2455" d="M410 -530h-277v1525h277v-569q0 -119 61 -174q53 -47 141 -47q203 0 203 227v561h279v-608q0 -199 -125 -309q-125 -109 -355 -109q-72 0 -112 8q-45 10 -115 37z" />
<glyph  unicode="&#xb6;" horiz-adv-x="1318" vert-adv-y="2455" d="M358 -211v989h-26q-147 0 -240 94q-102 106 -102 279q0 385 461 385h774v-260h-170v-1487h-252v1487h-193v-1487h-252z" />
<glyph  unicode="&#xb7;" horiz-adv-x="274" vert-adv-y="2455" d="M137 930q59 0 103 -43q39 -39 39 -94q0 -61 -41 -102.5t-101 -41.5q-51 0 -94 39q-43 43 -43 105q0 57 41 98q39 39 96 39z" />
<glyph  unicode="&#xb8;" horiz-adv-x="1075" vert-adv-y="2455" d="M834 -205l-267 -287l-139 82l227 306z" />
<glyph  unicode="&#xb9;" horiz-adv-x="391" vert-adv-y="2455" d="M162 1454h-99v117h234v-690h-135v573z" />
<glyph  unicode="&#xba;" horiz-adv-x="770" vert-adv-y="2455" d="M389 1530q152 0 248 -92q88 -88 88 -226q0 -133 -88 -221q-94 -94 -252 -94q-156 0 -250 94q-86 86 -86 219q0 139 88 228q92 92 252 92zM82 829h627v-124h-627v124zM385 1378q-68 0 -117 -49q-47 -47 -47 -115q0 -72 47 -118.5t117 -46.5q72 0 121 49q47 47 47 114 q0 66 -49 115q-51 51 -119 51z" />
<glyph  unicode="&#xbb;" horiz-adv-x="1128" vert-adv-y="2455" d="M375 500l-279 381l160 112l360 -493l-360 -488l-164 117zM825 500l-278 381l162 112l358 -493l-358 -488l-166 117z" />
<glyph  unicode="&#xbc;" horiz-adv-x="882" vert-adv-y="2455" d="M807 1581l123 -70l-912 -1574l-120 69zM162 1454h-99v117h234v-690h-135v573zM760 229h82v-108h-82v-121h-127v121h-336v61l342 520h121v-473zM633 229v275l-176 -275h176z" />
<glyph  unicode="&#xbd;" horiz-adv-x="1017" vert-adv-y="2455" d="M807 1581l123 -70l-912 -1574l-120 69zM162 1454h-99v117h234v-690h-135v573zM721 117h250v-117h-502l203 231q82 94 116 144q43 61 43 108q0 43 -30 74q-33 33 -76 33q-86 0 -102 -115h-144q10 68 23 94q66 139 221 140q111 0 180 -70q61 -61 62 -154q0 -55 -29 -112 q-25 -49 -96 -127z" />
<glyph  unicode="&#xbe;" horiz-adv-x="1247" vert-adv-y="2455" d="M1051 1581l120 -70l-909 -1574l-123 69zM1001 229h82v-108h-82v-121h-124v121h-338v61l342 520h120v-473zM877 229v275l-179 -275h179zM338 1180v96h29q37 0 59 22q25 25 25 68q0 45 -25 70q-27 27 -68 26q-76 0 -92 -90h-127q12 66 25 86q63 113 198 113q109 0 170 -66 q47 -53 48 -131q0 -70 -35 -106q-4 -4 -45 -37q41 -20 53 -33q51 -45 51 -131q0 -96 -59 -156q-68 -68 -185 -67q-106 0 -182 69q-31 29 -49 70q-14 27 -18 78h135q8 -37 10 -41q33 -57 102 -57q49 0 80 30.5t31 77.5q0 49 -31 80q-33 29 -69 29h-31z" />
<glyph  unicode="&#xbf;" horiz-adv-x="1155" vert-adv-y="2455" d="M774 666v-398h-90q-121 0 -199 -63q-80 -66 -79 -164q0 -76 53 -129q49 -51 120.5 -51t120.5 49q45 45 45 106v7v8v8l-2 8v6h299v-6v-8v-8q0 -6 2 -8v-23q0 -109 -79 -207q-70 -86 -183 -135q-98 -45 -209 -45q-201 0 -335 135q-125 125 -125 297q0 213 176 340 q55 41 203 86v195h282zM629 1208q70 0 127 -53q53 -57 53 -129q0 -74 -51 -125q-53 -53 -127 -53q-80 0 -131 51t-51 127t53 129t127 53z" />
<glyph  unicode="&#xc0;" horiz-adv-x="1568" vert-adv-y="2455" d="M1100 324h-627l-139 -324h-318l664 1569h225l647 -1569h-321zM1008 567l-217 551l-224 -551h441zM543 1853l155 142l316 -275l-96 -100z" />
<glyph  unicode="&#xc1;" horiz-adv-x="1568" vert-adv-y="2455" d="M1100 324h-627l-139 -324h-318l664 1569h225l647 -1569h-321zM1008 567l-217 551l-224 -551h441zM1014 1853l-373 -233l-98 100l317 275z" />
<glyph  unicode="&#xc2;" horiz-adv-x="1568" vert-adv-y="2455" d="M1100 324h-627l-139 -324h-318l664 1569h225l647 -1569h-321zM1008 567l-217 551l-224 -551h441zM461 1708l350 289l358 -289l-129 -123l-229 191l-225 -191z" />
<glyph  unicode="&#xc3;" horiz-adv-x="1568" vert-adv-y="2455" d="M1100 324h-627l-139 -324h-318l664 1569h225l647 -1569h-321zM1008 567l-217 551l-224 -551h441zM551 1622h-143q23 117 63 174q63 88 160 88q61 0 178 -49l18 -6q6 -2 47 -17q35 -10 52 -10q33 0 55 23q16 16 35 55h145q-25 -109 -67 -174q-72 -109 -172 -109 q-33 0 -78 25q-139 76 -211 76q-31 0 -53 -25q-15 -18 -29 -51z" />
<glyph  unicode="&#xc4;" horiz-adv-x="1568" vert-adv-y="2455" d="M606.5 1894q63.5 0 106.5 -43t43 -102q0 -70 -72 -123q-45 -31 -82 -31q-59 0 -102 43t-43 106.5t43 106.5t106.5 43zM981 1894q59 0 106 -43q43 -43 43 -106q0 -61 -43 -107q-43 -43 -106 -43t-106.5 43t-43.5 109q0 61 43.5 104t106.5 43zM1100 324h-627l-139 -324 h-318l664 1569h225l647 -1569h-321zM1008 567l-217 551l-224 -551h441z" />
<glyph  unicode="&#xc5;" horiz-adv-x="1568" vert-adv-y="2455" d="M805 1956q66 0 113 -47t47 -115q0 -63 -47 -115q-45 -45 -113 -45q-66 0 -113 47.5t-47 110.5q0 68 47 119q45 45 113 45zM805 1860q-29 0 -47 -21q-18 -18 -19 -43q0 -29 18.5 -47t47.5 -18t47 18t18 47q0 27 -18 45.5t-47 18.5zM1100 324h-627l-139 -324h-318l664 1569 h225l647 -1569h-321zM1008 567l-217 551l-224 -551h441z" />
<glyph  unicode="&#xc6;" horiz-adv-x="2191" vert-adv-y="2455" d="M1094 324h-627l-133 -324h-318l660 1536h811l102 -260h-565l139 -344h555l105 -260h-555l168 -412h567l98 -260h-876zM1001 565l-210 522l-226 -522h436z" />
<glyph  unicode="&#xc7;" horiz-adv-x="1421" vert-adv-y="2455" d="M1026 -27v-120h-248v114l-49 13q-301 74 -473 292q-164 207 -164 486q0 338 234 571q121 121 280 182q144 55 301 56q178 0 338 -74q25 -12 27 -14q8 -8 8 -29v-270v-25q0 -14 -12 -14q-6 0 -17 10q-53 55 -133 94q-104 49 -217 49q-203 0 -346 -143q-154 -154 -154 -387 q0 -231 150 -381q145 -145 348 -145q135 0 264 75q70 43 90 70q8 8 15 8q10 0 10 -16v-25v-276q0 -16 -27 -35q-23 -16 -49 -25q-2 0 -21.5 -5l-56.5 -14t-80 -18z" />
<glyph  unicode="&#xc8;" horiz-adv-x="1101" vert-adv-y="2455" d="M1010 1276h-549v-342h530v-260h-530v-414h549v-260h-848v1536h133l-25 63h584l23 -63h133v-260z" />
<glyph  unicode="&#xc9;" horiz-adv-x="1103" vert-adv-y="2455" d="M1012 1536v-260h-551v-340h530v-260h-530v-416h551v-260h-850v1536h133l22 63h584l-24 -63h135z" />
<glyph  unicode="&#xca;" horiz-adv-x="1101" vert-adv-y="2455" d="M1010 1276h-549v-342h530v-260h-530v-414h549v-260h-848v1536h133l22 63h537l23 -63h133v-260z" />
<glyph  unicode="&#xcb;" horiz-adv-x="1116" vert-adv-y="2455" d="M1026 1276h-551v-340h531v-260h-531v-416h551v-260h-850v1536h850v-260zM418 1894q61 0 104 -43t43 -102q0 -72 -71 -123q-43 -31 -82 -31q-59 0 -102.5 43t-43.5 106.5t43 106.5t109 43zM791 1894q61 0 106 -43q43 -43 43 -106.5t-43 -106.5t-106 -43q-61 0 -107 43 q-43 43 -43 109q0 61 43.5 104t106.5 43z" />
<glyph  unicode="&#xcc;" horiz-adv-x="632" vert-adv-y="2455" d="M461 1536v-1536h-299v1536h299zM86 1853l154 142l315 -275l-96 -100z" />
<glyph  unicode="&#xcd;" horiz-adv-x="647" vert-adv-y="2455" d="M475 1530v-1530h-299v1530h299zM543 1853l-373 -233l-98 100l317 275z" />
<glyph  unicode="&#xce;" horiz-adv-x="507" vert-adv-y="2455" d="M403 1536v-1536h-299v1536h299zM-100 1708l350 289l358 -289l-129 -123l-229 191l-225 -191z" />
<glyph  unicode="&#xcf;" horiz-adv-x="626" vert-adv-y="2455" d="M463 1536v-1536h-299v1536h299zM137 1894q61 0 105 -43q45 -45 45 -102q0 -71 -74 -123q-43 -31 -82 -31q-57 0 -100 43q-45 45 -45 106.5t45 106.5q43 43 106 43zM512 1894q63 0 106.5 -43t43.5 -106q0 -57 -46 -107q-43 -43 -104 -43t-106 43q-45 45 -46 109 q0 59 46 104q43 43 106 43z" />
<glyph  unicode="&#xd0;" horiz-adv-x="1515" vert-adv-y="2455" d="M461 887h454v-164h-454v-463h80q184 0 299 49q125 55 200 185q76 125 76 274q0 143 -76 272q-76 127 -202 187q-111 49 -297 49h-80v-389zM0 887h162v649h438q256 0 457 -115q174 -98 268 -264q98 -172 98 -381q0 -229 -120 -422q-223 -354 -705 -354h-436v723h-162v164z " />
<glyph  unicode="&#xd1;" horiz-adv-x="1763" vert-adv-y="2455" d="M162 0v1571h207l936 -1069v1034h299v-1567h-207l-936 1069v-1038h-299zM690 1602h-143q23 113 65 174q61 88 158 88q63 0 178 -47l19 -9q10 -4 47 -16q35 -10 53 -10q31 0 53 22q10 10 35 56h145q-61 -262 -247 -263q-49 0 -142 39q-104 41 -139 41q-31 0 -53 -24 q-13 -16 -29 -51z" />
<glyph  unicode="&#xd2;" horiz-adv-x="1826" vert-adv-y="2455" d="M918 1571q225 0 423 -115q180 -104 285 -285q109 -186 109 -403t-109 -403q-106 -180 -289 -287q-197 -113 -426 -113q-233 0 -426 113q-188 109 -290 289q-102 174 -103 387q0 342 236 581q117 117 276 181q145 55 314 55zM907 1298q-203 0 -352 -149 q-154 -158 -154 -377q0 -229 156 -385q147 -150 356 -149.5t359 149.5q154 157 153 381q0 221 -155 381q-148 149 -363 149zM748 1853l155 142l316 -275l-97 -100z" />
<glyph  unicode="&#xd3;" horiz-adv-x="1826" vert-adv-y="2455" d="M918 1571q225 0 423 -115q180 -104 285 -285q109 -186 109 -403t-109 -403q-106 -180 -289 -287q-197 -113 -426 -113q-233 0 -426 113q-188 109 -290 289q-102 174 -103 387q0 342 236 581q117 117 276 181q145 55 314 55zM907 1298q-203 0 -352 -149 q-154 -158 -154 -377q0 -229 156 -385q147 -150 356 -149.5t359 149.5q154 157 153 381q0 221 -155 381q-148 149 -363 149zM1075 1853l-373 -233l-98 100l318 275z" />
<glyph  unicode="&#xd4;" horiz-adv-x="1826" vert-adv-y="2455" d="M918 1571q225 0 423 -115q180 -104 285 -285q109 -186 109 -403t-109 -403q-106 -180 -289 -287q-197 -113 -426 -113q-233 0 -426 113q-188 109 -290 289q-102 174 -103 387q0 342 236 581q117 117 276 181q145 55 314 55zM907 1298q-203 0 -352 -149 q-154 -158 -154 -377q0 -229 156 -385q147 -150 356 -149.5t359 149.5q154 157 153 381q0 221 -155 381q-148 149 -363 149zM559 1708l350 289l359 -289l-129 -123l-230 191l-225 -191z" />
<glyph  unicode="&#xd5;" horiz-adv-x="1826" vert-adv-y="2455" d="M918 1571q225 0 423 -115q180 -104 285 -285q109 -186 109 -403t-109 -403q-106 -180 -289 -287q-197 -113 -426 -113q-233 0 -426 113q-188 109 -290 289q-102 174 -103 387q0 342 236 581q117 117 276 181q145 55 314 55zM907 1298q-203 0 -352 -149 q-154 -158 -154 -377q0 -229 156 -385q147 -150 356 -149.5t359 149.5q154 157 153 381q0 221 -155 381q-148 149 -363 149zM680 1602h-143q23 117 63 174q63 88 160 88q63 0 178 -47l18 -9l48 -16q35 -10 53 -10q31 0 53 22q16 18 35 56h145q-61 -262 -248 -263 q-49 0 -141 39q-100 41 -139 41q-33 0 -53 -24q-13 -16 -29 -51z" />
<glyph  unicode="&#xd6;" horiz-adv-x="1826" vert-adv-y="2455" d="M918 1571q225 0 423 -115q180 -104 285 -285q109 -186 109 -403t-109 -403q-106 -180 -289 -287q-197 -113 -426 -113q-233 0 -426 113q-188 109 -290 289q-102 174 -103 387q0 342 236 581q117 117 276 181q145 55 314 55zM907 1298q-203 0 -352 -149 q-154 -158 -154 -377q0 -229 156 -385q147 -150 356 -149.5t359 149.5q154 157 153 381q0 221 -155 381q-148 149 -363 149zM729.5 1894q63.5 0 106.5 -43t43 -102q0 -72 -72 -123q-43 -31 -82 -31q-59 0 -102 43t-43 106.5t43 106.5t106.5 43zM1104 1894q63 0 106 -43 t43 -106q0 -61 -43 -107q-43 -43 -106 -43q-59 0 -107 43q-43 43 -43 109q0 61 43.5 104t106.5 43z" />
<glyph  unicode="&#xd8;" horiz-adv-x="1773" vert-adv-y="2455" d="M188 322q-131 199 -131 428q0 231 111 421q102 178 287 287q190 111 419 111q313 0 558 -205l147 125l152 -180l-148 -123q117 -199 117 -420t-107 -404q-106 -178 -290 -286q-197 -113 -426 -113q-287 0 -531 184l-156 -131l-151 181zM575 338q139 -102 304 -102 q209 0 358 149q154 157 154 381q0 115 -45 219zM1204 1176q-152 121 -327 120q-207 0 -357 -149q-154 -154 -153 -377q0 -133 59 -250z" />
<glyph  unicode="&#xd9;" horiz-adv-x="1554" vert-adv-y="2455" d="M461 1536v-879q0 -127 8 -174q18 -94 86 -161q84 -84 223 -84q119 0 203 63q76 59 100 154q14 51 15 202v879h301v-938q0 -266 -113 -412q-78 -100 -215 -161q-137 -59 -291 -60q-211 0 -368 101q-143 90 -201 237q-47 119 -47 295v938h299zM522 1853l156 142l315 -275 l-96 -100z" />
<glyph  unicode="&#xda;" horiz-adv-x="1554" vert-adv-y="2455" d="M461 1536v-879q0 -127 8 -174q18 -94 86 -161q84 -84 223 -84q119 0 203 63q76 59 100 154q14 51 15 202v879h301v-938q0 -266 -113 -412q-78 -100 -215 -161q-137 -59 -291 -60q-211 0 -368 101q-143 90 -201 237q-47 119 -47 295v938h299zM1014 1853l-373 -233l-98 100 l317 275z" />
<glyph  unicode="&#xdb;" horiz-adv-x="1554" vert-adv-y="2455" d="M461 1536v-879q0 -127 8 -174q18 -94 86 -161q84 -84 223 -84q119 0 203 63q76 59 100 154q14 51 15 202v879h301v-938q0 -266 -113 -412q-78 -100 -215 -161q-137 -59 -291 -60q-211 0 -368 101q-143 90 -201 237q-47 119 -47 295v938h299zM426 1729l350 288l359 -288 l-129 -123l-230 190l-225 -190z" />
<glyph  unicode="&#xdc;" horiz-adv-x="1554" vert-adv-y="2455" d="M461 1536v-879q0 -127 8 -174q18 -94 86 -161q84 -84 223 -84q119 0 203 63q76 59 100 154q14 51 15 202v879h301v-938q0 -266 -113 -412q-78 -100 -215 -161q-137 -59 -291 -60q-211 0 -368 101q-143 90 -201 237q-47 119 -47 295v938h299zM608 1894q61 0 105 -43 q45 -45 45 -102q0 -68 -74 -123q-45 -31 -82 -31q-57 0 -100 43q-45 45 -45 106.5t45 106.5q43 43 106 43zM981 1894q63 0 109 -43q43 -43 43 -106q0 -61 -46 -107q-43 -43 -106 -43q-61 0 -104 43q-45 45 -46 109q0 59 46 104q43 43 104 43z" />
<glyph  unicode="&#xdd;" horiz-adv-x="8554" vert-adv-y="2455" d="M1460 1444l-39 -275q-6 -29 -18 -28q-10 0 -19 8l-43 31q-59 39 -135 57q-90 23 -168 23q-209 0 -350 -144q-154 -158 -153 -397q0 -209 120 -330q113 -113 303 -113q170 0 338 107q10 8 20.5 8t10.5 -22v-7l-37 -290q-72 -45 -139 -66q-120 -37 -240 -37 q-303 0 -497 201q-209 211 -209 551q0 246 119 453q102 178 280 282q186 109 412 109q141 0 270 -41q63 -21 174 -80zM6330 285h428q29 0 29 -31v-6l-27 -205q-4 -29 -8 -35q-6 -8 -26 -8h-695q-37 0 -37 31v4l177 1464q2 37 41 37h237q29 0 29 -27l-2 -4zM2415 252h-568 l-114 -232q-10 -20 -31 -20h-287q-20 0 -20 12q0 8 2 13l2 2v2l753 1489q6 18 29 18h250q25 0 31 -29l315 -1476v-11q0 -20 -20 -20h-260q-12 0 -23 8q-12 8 -14 19zM4055 496l127 1015q4 25 29 25h256q20 0 20 -25l-182 -1486q0 -8 -10 -19q-10 -6 -17 -6h-260 q-23 0 -39 29l-614 1001l-125 -1007q-4 -23 -25 -23h-262q-18 0 -18 25v4l182 1480q4 27 29 27h262q18 0 31 -18zM5476 252h-567l-115 -232q-10 -20 -30 -20h-289q-18 0 -19 14q0 10 7 23l749 1479q8 20 31 20h250q25 0 30 -29l316 -1476v-11q0 -20 -21 -20h-260 q-14 0 -24 8q-10 10 -13 19zM7426 1024v518q0 27 31 27h241q29 0 29 -31v-520q0 -25 23 -25h571q29 0 29 -22v-256q0 -31 -33 -31h-563q-29 0 -29 -31v-616q0 -37 -31 -37h-239q-27 0 -27 27v626q0 31 -31 31h-573q-31 0 -31 27v254q0 18 4 22q6 6 27 6h569q33 0 33 31z M2359 535l-112 573l-273 -573h385zM5421 535l-113 573l-272 -573h385z" />
<glyph  unicode="&#xde;" horiz-adv-x="10405" vert-adv-y="2455" d="M205 -516v2513h9996v-2513h-9996zM3551 27l-305 1476q-6 33 -35 33h-473q-18 0 -26 -4q-14 -10 -21 -25l-729 -1474q-4 -12 -4 -19q0 -14 16 -14h398q37 0 49 25l102 211q12 25 41 24h500q29 0 33 -27l53 -213q6 -20 28 -20h355q18 0 18 18v9zM3746 29v-9q0 -12 4 -16 q2 -4 31 -4h342q29 0 32 29l123 876q2 27 6.5 27t16.5 -21l506 -888q16 -23 45 -23h350q37 0 39 25l205 1482v6q0 23 -27 23h-362q-25 0 -31 -6q-8 -8 -10 -25l-111 -794q-2 -31 -10 -31q-4 0 -11 10l-477 834q-8 12 -39 12h-389q-31 0 -33 -27zM5435 0h394q31 0 43 23 l110 215q10 18 12 18q8 4 31 4h473q23 0 33 -6q2 -2 10 -27l39 -198q6 -29 39 -29h350q25 0 25 14q0 12 -2 19l-309 1472q-6 20 -9 23q-8 8 -28 8h-451q-14 0 -26 -4q-8 -2 -19 -23l-725 -1480q-17 -29 10 -29zM7811 1509v9q0 18 -20 18h-387q-18 0 -25 -33l-213 -1476v-11 q0 -16 16 -16h860q28 0 31 25l41 292v9q0 20 -20 20h-412q-25 0 -25 23v4zM9216 606h508q23 0 22 25v418q0 27 -22 26h-514q-20 0 -21 29v473q-2 20 -26 20h-416q-12 0 -18.5 -5t-4.5 -15v-473q0 -29 -22 -29h-551q-23 0 -22 -22v-420q0 -27 24 -27h545q27 0 26 -31v-550 q0 -25 23 -25h420q23 0 22 29v551q0 14 7 20q4 6 20 6zM2013 1126l51 256q6 34 7 37q0 18 -13 29q-78 55 -217 96q-150 45 -311 45q-262 0 -477 -123q-187 -111 -295 -295q-113 -197 -113 -438q0 -350 221 -571q231 -229 615 -230q217 0 329 76q16 10 23 55l41 283 q6 49 -4 49q-2 0 -19 -6q-47 -23 -143 -43q-111 -25 -190 -24q-178 0 -293 114q-121 125 -121 314q0 197 127 319q135 135 352 135q205 0 365 -102q29 -20 43 -21q8 0 12 4q4 8 10 41zM3013 631l4 -13v-6q0 -8 -21 -8h-297q-8 0 -12 4q0 6 2 15l199 448q6 16 10 16 q6 0 10 -20zM6361 1087l98 -448q2 -8 2 -18q0 -16 -22 -17h-277q-23 0 -26 10q0 12 4 21l201 452q9 18 12 19l6 -12z" />
<glyph  unicode="&#xdf;" horiz-adv-x="1298" vert-adv-y="2455" d="M125 0v1255q0 233 113 355q66 70 161 104q98 39 217 39q219 0 353 -131q125 -123 125 -317q0 -123 -66 -213q-37 -51 -123 -115q113 -49 162 -96q150 -141 150 -367q0 -164 -78 -293q-150 -254 -529 -254h-26v252q127 8 204 55q139 84 140 254q0 127 -86 213 q-59 59 -144 82q-31 8 -114 15v239q240 18 239 217q0 94 -55 150q-57 57 -154 57q-90 0 -145 -55q-41 -37 -53 -125q-10 -61 -10 -184v-1137h-281z" />
<glyph  unicode="&#xe0;" horiz-adv-x="1306" vert-adv-y="2455" d="M901 965h281v-965h-281v125l-39 -45q-120 -111 -289 -111q-201 0 -340 140q-150 150 -149 376q0 223 147 371q137 139 338 139q106 0 201 -47q59 -29 131 -108v125zM649 752q-113 0 -196 -80q-80 -80 -80 -189q0 -111 80 -188q82 -82 200.5 -82t200.5 82q78 78 78 184 q0 109 -78 191q-80 82 -205 82zM383 1401l156 141l315 -274l-96 -103z" />
<glyph  unicode="&#xe1;" horiz-adv-x="1306" vert-adv-y="2455" d="M901 965h281v-965h-281v125l-39 -45q-120 -111 -289 -111q-201 0 -340 140q-150 150 -149 376q0 223 147 371q137 139 338 139q106 0 201 -47q59 -29 131 -108v125zM649 752q-113 0 -196 -80q-80 -80 -80 -189q0 -111 80 -188q82 -82 200.5 -82t200.5 82q78 78 78 184 q0 109 -78 191q-80 82 -205 82zM1004 1401l-347 -236l-110 101l284 276z" />
<glyph  unicode="&#xe2;" horiz-adv-x="1306" vert-adv-y="2455" d="M901 965h281v-965h-281v125l-39 -45q-120 -111 -289 -111q-201 0 -340 140q-150 150 -149 376q0 223 147 371q137 139 338 139q106 0 201 -47q59 -29 131 -108v125zM649 752q-113 0 -196 -80q-80 -80 -80 -189q0 -111 80 -188q82 -82 200.5 -82t200.5 82q78 78 78 184 q0 109 -78 191q-80 82 -205 82zM307 1286l350 289l359 -289l-129 -123l-230 191l-223 -191z" />
<glyph  unicode="&#xe3;" horiz-adv-x="1306" vert-adv-y="2455" d="M901 965h281v-965h-281v125l-39 -45q-120 -111 -289 -111q-201 0 -340 140q-150 150 -149 376q0 223 147 371q137 139 338 139q106 0 201 -47q59 -29 131 -108v125zM649 752q-113 0 -196 -80q-80 -80 -80 -189q0 -111 80 -188q82 -82 200.5 -82t200.5 82q78 78 78 184 q0 109 -78 191q-80 82 -205 82zM400 1163h-158q23 123 72 193q68 98 176 98q59 0 184 -47l86 -33q35 -10 57 -10q40 0 62 25q23 29 39 61h159q-63 -291 -276 -291q-51 0 -156 43q-104 45 -153 45q-39 0 -62 -28q-15 -19 -30 -56z" />
<glyph  unicode="&#xe4;" horiz-adv-x="1306" vert-adv-y="2455" d="M901 965h281v-965h-281v125l-39 -45q-120 -111 -289 -111q-201 0 -340 140q-150 150 -149 376q0 223 147 371q137 139 338 139q106 0 201 -47q59 -29 131 -108v125zM649 752q-113 0 -196 -80q-80 -80 -80 -189q0 -111 80 -188q82 -82 200.5 -82t200.5 82q78 78 78 184 q0 109 -78 191q-80 82 -205 82zM473 1454q58 0 105 -43q45 -45 45 -102q0 -68 -74 -121q-45 -33 -80 -33q-59 0 -102 43q-45 49 -45 106.5t45 106.5q43 43 106 43zM846 1454q59 0 106 -43q43 -43 43 -104q0 -66 -43 -109t-106.5 -43t-106.5 43t-43 107q0 59 43 106 q44 43 107 43z" />
<glyph  unicode="&#xe5;" horiz-adv-x="1306" vert-adv-y="2455" d="M901 965h281v-965h-281v125l-39 -45q-120 -111 -289 -111q-201 0 -340 140q-150 150 -149 376q0 223 147 371q137 139 338 139q106 0 201 -47q59 -29 131 -108v125zM649 752q-113 0 -196 -80q-80 -80 -80 -189q0 -111 80 -188q82 -82 200.5 -82t200.5 82q78 78 78 184 q0 109 -78 191q-80 82 -205 82zM661.5 1473q65.5 0 112.5 -47.5t47 -112.5q0 -68 -47 -115t-112.5 -47t-112.5 47t-47 111q0 70 49 118q45 46 110.5 46zM661.5 1376q-28.5 0 -47 -18.5t-18.5 -44.5q0 -29 20 -49q18 -18 45 -18.5t46 18.5q20 20 20 49q0 27 -18.5 45t-47 18z " />
<glyph  unicode="&#xe6;" horiz-adv-x="1867" vert-adv-y="2455" d="M1784 438h-752q6 -76 25 -114q66 -145 231 -146q152 0 225 133l261 -41q-43 -96 -93 -145q-160 -156 -401 -156q-158 0 -266 68q-59 37 -121 115q-72 -86 -141 -123q-104 -59 -256 -60q-188 0 -303 90q-109 86 -109 228q0 151 123 239q109 78 282 78q143 0 273 -67 q2 16 2 45q-3 203 -258 202q-137 0 -268 -41v218q168 35 282 34q176 0 291 -73q35 -20 82 -91q141 164 379 164q249 0 387 -153q125 -137 125 -369v-35zM1513 610q-31 111 -92 154q-53 39 -143 39q-111 0 -172 -68q-39 -43 -64 -125h471zM549 412q-119 0 -168 -54 q-27 -31 -27 -63q0 -57 52 -94q53 -39 143 -39q102 0 166 49q47 37 47 86t-55 80q-64 35 -158 35z" />
<glyph  unicode="&#xe7;" horiz-adv-x="1028" vert-adv-y="2455" d="M487 -20l-22 8l-27 10q-164 63 -260 190q-94 125 -94 289q0 213 147 361q162 158 400 157q61 0 123 -10q66 -14 133 -47v-266q-63 49 -96 63q-55 27 -129 27q-127 0 -209 -82q-80 -80 -80 -199q0 -115 78 -196q82 -82 213 -82q61 0 122 24q35 14 101 66v-264 q-55 -25 -160 -54v-81h-240v86z" />
<glyph  unicode="&#xe8;" horiz-adv-x="1200" vert-adv-y="2455" d="M1118 438h-747q6 -82 20 -121q55 -137 225 -137q94 0 156 43q33 23 80 86l258 -41q-59 -129 -152 -198q-131 -100 -337 -101q-252 0 -398 146q-139 137 -139 366q0 233 139 373q141 141 383 141q250 0 387 -151q125 -141 125 -371v-35zM852 610q-55 193 -238 193 q-188 0 -233 -193h471zM424 1401l156 141l315 -274l-96 -103z" />
<glyph  unicode="&#xe9;" horiz-adv-x="1200" vert-adv-y="2455" d="M1118 438h-747q6 -82 20 -121q55 -137 225 -137q94 0 156 43q33 23 80 86l258 -41q-59 -129 -152 -198q-131 -100 -337 -101q-252 0 -398 146q-139 137 -139 366q0 233 139 373q141 141 383 141q250 0 387 -151q125 -141 125 -371v-35zM852 610q-55 193 -238 193 q-188 0 -233 -193h471zM895 1401l-373 -236l-98 103l317 274z" />
<glyph  unicode="&#xea;" horiz-adv-x="1200" vert-adv-y="2455" d="M1118 438h-747q6 -82 20 -121q55 -137 225 -137q94 0 156 43q33 23 80 86l258 -41q-59 -129 -152 -198q-131 -100 -337 -101q-252 0 -398 146q-139 137 -139 366q0 233 139 373q141 141 383 141q250 0 387 -151q125 -141 125 -371v-35zM852 610q-55 193 -238 193 q-188 0 -233 -193h471zM250 1286l350 289l358 -289l-129 -123l-229 191l-223 -191z" />
<glyph  unicode="&#xeb;" horiz-adv-x="1200" vert-adv-y="2455" d="M1118 438h-747q6 -82 20 -121q55 -137 225 -137q94 0 156 43q33 23 80 86l258 -41q-59 -129 -152 -198q-131 -100 -337 -101q-252 0 -398 146q-139 137 -139 366q0 233 139 373q141 141 383 141q250 0 387 -151q125 -141 125 -371v-35zM852 610q-55 193 -238 193 q-188 0 -233 -193h471zM416 1454q61 0 104 -43t43 -102q0 -70 -71 -121q-45 -33 -82 -33q-59 0 -103 43q-43 47 -43 106.5t43 106.5q43 43 109 43zM788 1454q59 0 107 -43q43 -43 43 -104q0 -68 -43 -109q-43 -43 -106.5 -43t-106.5 43t-43 107q0 59 43 106q43 43 106 43z " />
<glyph  unicode="&#xec;" horiz-adv-x="583" vert-adv-y="2455" d="M457 967v-967h-279v967h279zM72 1401l153 141l316 -274l-97 -103z" />
<glyph  unicode="&#xed;" horiz-adv-x="583" vert-adv-y="2455" d="M406 967v-967h-281v967h281zM614 1401l-346 -236l-110 101l282 276z" />
<glyph  unicode="&#xee;" horiz-adv-x="651" vert-adv-y="2455" d="M467 967v-967h-281v967h281zM-68 1266l392 309l395 -309l-144 -131l-251 202l-252 -202z" />
<glyph  unicode="&#xef;" horiz-adv-x="493" vert-adv-y="2455" d="M387 967v-967h-281v967h281zM39 1470q66 0 115 -49q45 -45 45 -112.5t-45 -114.5q-49 -49 -117 -49q-70 0 -119 49q-45 45 -45 113q0 63 47 114q45 49 119 49zM455 1470q68 0 116 -49q45 -45 45 -112q0 -70 -45 -115q-49 -49 -116 -49q-68 0 -117 49q-47 47 -47 113 q0 63 47 114q46 49 117 49z" />
<glyph  unicode="&#xf0;" horiz-adv-x="1146" vert-adv-y="2455" d="M606 1411q123 -59 197 -121q139 -111 221 -272q92 -184 92 -404q0 -311 -174 -483q-152 -152 -385 -151q-231 0 -387 155q-150 150 -150 363q0 203 138 340q135 137 336 137q109 0 196 -53q59 -35 156 -123q-66 141 -92 182q-102 160 -330 250l-281 -277l-90 90l232 228 l-25 4q-78 12 -127 18l35 224q160 -18 305 -60l223 219l90 -88zM532 760q-115 -23 -170 -86q-66 -76 -65 -185q0 -123 78 -200q76 -76 182 -76q111 0 186 76q80 80 80 200q0 119 -78 197q-74 76 -184 76q-8 0 -20 -2h-9z" />
<glyph  unicode="&#xf1;" horiz-adv-x="1210" vert-adv-y="2455" d="M125 965h281v-119q4 2 8 8t8 10q6 6 12 13.5t10.5 11.5t6.5 6q102 100 268 100q181 0 289 -116q43 -49 61 -109q18 -57 18 -158v-612h-280v535q0 106 -21 147q-43 86 -170 86q-211 0 -210 -268v-500h-281v965zM347 1163h-158q23 123 72 193q68 98 176 98q59 0 184 -47 l86 -33q35 -10 57 -10q40 0 62 25q23 29 39 61h159q-63 -291 -276 -291q-51 0 -156 43q-104 45 -153 45q-39 0 -62 -28q-15 -19 -30 -56z" />
<glyph  unicode="&#xf2;" horiz-adv-x="1310" vert-adv-y="2455" d="M662 995q184 0 323 -82q113 -68 176 -176q66 -115 66 -256q0 -209 -137 -348q-160 -164 -435 -164q-272 0 -434 162q-137 137 -137 344q0 217 141 361q161 159 437 159zM653 752q-119 0 -200 -82q-80 -77 -80 -185q0 -106 78 -188q84 -84 204.5 -84t204.5 84 q78 78 78 184q0 109 -80 189q-82 82 -205 82zM424 1401l156 141l315 -274l-96 -103z" />
<glyph  unicode="&#xf3;" horiz-adv-x="1310" vert-adv-y="2455" d="M662 995q184 0 323 -82q113 -68 176 -176q66 -115 66 -256q0 -209 -137 -348q-160 -164 -435 -164q-272 0 -434 162q-137 137 -137 344q0 217 141 361q161 159 437 159zM653 752q-119 0 -200 -82q-80 -77 -80 -185q0 -106 78 -188q84 -84 204.5 -84t204.5 84 q78 78 78 184q0 109 -80 189q-82 82 -205 82zM1010 1401l-346 -236l-111 101l283 276z" />
<glyph  unicode="&#xf4;" horiz-adv-x="1310" vert-adv-y="2455" d="M662 995q184 0 323 -82q113 -68 176 -176q66 -115 66 -256q0 -209 -137 -348q-160 -164 -435 -164q-272 0 -434 162q-137 137 -137 344q0 217 141 361q161 159 437 159zM653 752q-119 0 -200 -82q-80 -77 -80 -185q0 -106 78 -188q84 -84 204.5 -84t204.5 84 q78 78 78 184q0 109 -80 189q-82 82 -205 82zM305 1286l350 289l359 -289l-129 -123l-230 191l-223 -191z" />
<glyph  unicode="&#xf5;" horiz-adv-x="1310" vert-adv-y="2455" d="M662 995q184 0 323 -82q113 -68 176 -176q66 -115 66 -256q0 -209 -137 -348q-160 -164 -435 -164q-272 0 -434 162q-137 137 -137 344q0 217 141 361q161 159 437 159zM653 752q-119 0 -200 -82q-80 -77 -80 -185q0 -106 78 -188q84 -84 204.5 -84t202.5 82 q80 80 80 188q0 106 -76 183q-83 86 -209 86zM396 1163h-158q23 123 72 193q68 98 176 98q59 0 184 -47l86 -33q35 -10 57 -10q40 0 62 25q23 29 39 61h159q-63 -291 -276 -291q-51 0 -156 43q-104 45 -153 45q-39 0 -62 -28q-15 -19 -30 -56z" />
<glyph  unicode="&#xf6;" horiz-adv-x="1310" vert-adv-y="2455" d="M662 995q184 0 323 -82q113 -68 176 -176q66 -115 66 -256q0 -209 -137 -348q-160 -164 -435 -164q-272 0 -434 162q-137 137 -137 344q0 217 141 361q161 159 437 159zM653 752q-119 0 -200 -82q-80 -77 -80 -185q0 -106 78 -188q84 -84 204.5 -84t204.5 84 q78 78 78 184q0 109 -80 189q-82 82 -205 82zM473 1454q58 0 105 -43q45 -45 45 -102q0 -68 -74 -121q-45 -33 -80 -33q-59 0 -102 43q-45 49 -45 106.5t45 106.5q43 43 106 43zM846 1454q59 0 106 -43q43 -43 43 -104q0 -66 -43 -109t-106.5 -43t-106.5 43t-43 107 q0 59 43 106q44 43 107 43z" />
<glyph  unicode="&#xf7;" horiz-adv-x="1865" vert-adv-y="2455" d="M1661 993v-309h-1456v309h1456zM934 1587q76 0 127 -51q51 -53 51 -129t-51 -127q-53 -53 -129 -53q-74 0 -127 53t-53 127q0 72 53 129q51 51 129 51zM938 463q74 0 127 -53q51 -51 51 -127t-51 -127q-53 -53 -129 -54q-74 0 -127 53.5t-53 125t53 129.5q53 53 129 53z " />
<glyph  unicode="&#xf8;" horiz-adv-x="1296" vert-adv-y="2455" d="M176 186q-92 125 -92 287q0 221 141 363q160 160 430 159q207 0 363 -102l90 76l104 -133l-73 -62q88 -137 88 -293q0 -209 -137 -348q-160 -164 -435 -164q-201 0 -356 101l-96 -82l-105 133zM514 250q63 -37 139 -37q123 0 207 84q78 78 78 182q0 51 -23 109zM803 713 q-70 39 -148 39q-121 0 -202 -82q-80 -76 -80 -187q0 -61 24 -110z" />
<glyph  unicode="&#xf9;" horiz-adv-x="1216" vert-adv-y="2455" d="M406 965v-547q0 -219 202.5 -219t202.5 219v547h279v-592q0 -186 -119 -293q-123 -111 -363 -111q-264 0 -389 135q-94 100 -94 269v592h281zM383 1401l156 141l315 -274l-96 -103z" />
<glyph  unicode="&#xfa;" horiz-adv-x="1216" vert-adv-y="2455" d="M406 965v-547q0 -219 202.5 -219t202.5 219v547h279v-592q0 -186 -119 -293q-123 -111 -363 -111q-264 0 -389 135q-94 100 -94 269v592h281zM958 1401l-346 -236l-110 101l282 276z" />
<glyph  unicode="&#xfb;" horiz-adv-x="1216" vert-adv-y="2455" d="M406 965v-547q0 -219 202.5 -219t202.5 219v547h279v-592q0 -186 -119 -293q-123 -111 -363 -111q-264 0 -389 135q-94 100 -94 269v592h281zM256 1286l350 289l359 -289l-129 -123l-230 191l-223 -191z" />
<glyph  unicode="&#xfc;" horiz-adv-x="1216" vert-adv-y="2455" d="M406 965v-547q0 -219 202.5 -219t202.5 219v547h279v-592q0 -186 -119 -293q-123 -111 -363 -111q-264 0 -389 135q-94 100 -94 269v592h281zM424 1454q61 0 104 -43t43 -102q0 -68 -71 -121q-49 -33 -82 -33q-59 0 -102.5 43t-43.5 106.5t43 106.5t109 43zM797 1454 q59 0 106 -43q43 -43 43 -104q0 -66 -45 -109q-43 -43 -104 -43q-63 0 -106.5 43t-43.5 107q0 59 43 106q44 43 107 43z" />
<glyph  unicode="&#xfd;" horiz-adv-x="1226" vert-adv-y="2455" d="M471 145l-471 820h326l299 -549l284 549h318l-797 -1465h-315zM897 1401l-346 -236l-111 101l283 276z" />
<glyph  unicode="&#xfe;" horiz-adv-x="1308" vert-adv-y="2455" d="M406 602v-237q84 -152 249 -152q119 0 203 84q78 78 78 184.5t-78 188.5q-82 82 -201 82q-169 0 -251 -150zM406 1536v-571v-125l34 41q109 115 295 114q203 0 342 -141q147 -147 147.5 -372.5t-147.5 -372.5q-139 -139 -338 -140q-98 0 -202 49q-59 29 -131 107v-125 v-500h-281v500v965v571h281z" />
<glyph  unicode="&#xff;" horiz-adv-x="1226" vert-adv-y="2455" d="M471 152l-471 847h326l299 -569l284 569h318l-805 -1534h-316zM424 1454q58 0 104 -43q43 -43 43 -102q0 -70 -71 -121q-45 -33 -82 -33q-59 0 -103 43q-43 47 -43 106.5t43 106.5q43 43 109 43zM797 1454q59 0 106 -43q43 -43 43 -104q0 -66 -45 -109q-43 -43 -104 -43 q-63 0 -106.5 43t-43.5 107q0 61 45 106q44 43 105 43z" />
<glyph  unicode="&#x131;" horiz-adv-x="499" vert-adv-y="2455" d="M375 889v-889h-250v889h250z" />
<glyph  unicode="&#x141;" horiz-adv-x="878" vert-adv-y="2455" d="M457 1366v-418l209 150v-252l-209 -141v-474h422v-231h-689v551l-147 -107v250l147 99v573h267z" />
<glyph  unicode="&#x142;" horiz-adv-x="569" vert-adv-y="2455" d="M412 1534v-481l151 112v-237l-151 -107v-821h-250v686l-148 -106v233l148 102v619h250z" />
<glyph  unicode="&#x152;" horiz-adv-x="2355" vert-adv-y="2455" d="M2265 1276h-539v-344h517v-260h-517v-412h539v-260h-833v182q-115 -106 -213 -151q-143 -66 -316 -66q-223 0 -416 109q-184 109 -288 291q-106 182 -106.5 401t106.5 401q108 187 295 295q188 109 405 109q164 0 320 -70q82 -37 213 -151v186h833v-260zM889 1294 q-195 0 -334 -139q-156 -156 -156 -389q0 -231 154 -385q141 -141 340 -141q211 0 356 147q154 158 154 377t-158 381q-147 149 -356 149z" />
<glyph  unicode="&#x153;" horiz-adv-x="2045" vert-adv-y="2455" d="M1960 438h-758q27 -260 254 -260q147 0 232 133l260 -41q-61 -133 -152 -198q-137 -102 -342 -103q-166 0 -274 70q-65 40 -123 117q-68 -72 -99 -95q-123 -92 -323 -92q-248 0 -408 156q-143 141 -143 354q0 212 141 357q160 160 416 159q156 0 277 -65q70 -39 139 -111 q63 78 135 119q102 57 254 57q254 0 387 -147q127 -143 127 -397v-13zM1690 610q-31 109 -93 152q-57 41 -145 41q-113 0 -176 -70q-41 -47 -64 -123h478zM643 752q-115 0 -194 -80q-76 -76 -76 -187q0 -115 80 -194q78 -78 190 -78q115 0 193 78q80 80 79 194 q0 113 -75 189q-78 78 -197 78z" />
<glyph  unicode="&#x160;" horiz-adv-x="1245" vert-adv-y="2455" d="M305 1765l123 121l223 -186l226 186l127 -121l-259 -209q199 -27 355 -163l-156 -205q-57 59 -100 86q-66 37 -146 37q-92 0 -157 -49q-61 -49 -62 -123q0 -61 53 -107q33 -27 111 -59l127 -47q164 -59 250 -133q135 -117 135 -324q0 -215 -139 -358q-152 -147 -398 -148 q-205 0 -350 107q-86 63 -176 186l195 186q111 -205 319 -204q113 0 180 67q59 63 60 146q0 78 -51 131q-33 33 -80 53q-27 12 -166 65q-176 66 -242 119q-137 104 -137 295q0 170 102 287q59 70 154 115q53 23 135 40z" />
<glyph  unicode="&#x161;" horiz-adv-x="942" vert-adv-y="2455" d="M807 897l-137 -158q-84 63 -164 64q-49 0 -80 -24.5t-31 -57.5t35 -57q18 -14 164 -64q111 -39 156 -72q109 -78 108 -215q0 -164 -135 -262q-113 -82 -281 -82q-221 0 -381 160l146 166q119 -115 231 -115q57 0 92 29q39 33 39 78q0 51 -49 75q-41 25 -147 62 q-106 39 -150 68q-98 68 -98 200q0 109 63 185q70 84 203 114l-256 211l123 121l223 -186l226 186l127 -121l-261 -209q140 -24 234 -96z" />
<glyph  unicode="&#x178;" horiz-adv-x="1312" vert-adv-y="2455" d="M500 705l-529 831h355l331 -532l324 532h358l-538 -831v-705h-301v705zM471.5 1894q63.5 0 106.5 -43t43 -102q0 -70 -72 -123q-45 -31 -82 -31q-59 0 -102 43q-43 45 -43 107q0 63 43 106t106.5 43zM846 1894q59 0 106 -43q43 -43 43 -106.5t-43 -106.5t-106.5 -43 t-106.5 43t-43 109q0 61 43.5 104t106.5 43z" />
<glyph  unicode="&#x192;" horiz-adv-x="1298" vert-adv-y="2455" d="M829 1020h242l-22 -146h-244l-111 -612q-27 -152 -53 -229q-53 -166 -147 -252q-131 -119 -375 -119q-45 0 -121 10l43 256q2 0 7 -1t9 -1h17l12 -2h6q8 0 18.5 -1t12.5 -1q86 0 149 35q51 29 82 102q33 74 64 246l100 569h-133l21 146h141l47 260q74 406 430 406 q63 0 94 -9q43 -12 92 -35l-45 -245q-74 35 -129 35q-74 0 -110 -52q-39 -51 -60 -168z" />
<glyph  unicode="&#x2c6;" horiz-adv-x="1028" vert-adv-y="2455" d="M123 1311l389 319l397 -319l-143 -137l-254 210l-250 -210z" />
<glyph  unicode="&#x2c7;" horiz-adv-x="942" vert-adv-y="2455" d="M123 1327l123 121l223 -186l225 186l127 -121l-352 -285z" />
<glyph  unicode="&#x2d8;" horiz-adv-x="1024" vert-adv-y="2455" d="M176 1331h172q20 -59 51 -90q39 -39 113 -39q76 0 119 45q27 31 47 84h172q-18 -98 -57 -155q-90 -133 -281 -134q-139 0 -231 80q-49 43 -78 109q-13 28 -27 100z" />
<glyph  unicode="&#x2d9;" horiz-adv-x="1040" vert-adv-y="2455" d="M522 1362q63 0 108.5 -45t45.5 -109q0 -66 -45 -110.5t-111 -44.5q-63 0 -108 45t-45 108q0 66 44.5 111t110.5 45z" />
<glyph  unicode="&#x2da;" horiz-adv-x="886" vert-adv-y="2455" d="M446.5 1411q75.5 0 129 -53t53.5 -131t-53.5 -131.5t-131.5 -53.5q-76 0 -131 56q-53 53 -53 127q0 80 53 133q58 53 133.5 53zM444.5 1298q-30.5 0 -53.5 -22q-20 -20 -20 -49t20 -49q23 -23 53.5 -23t51 20.5t20.5 51t-20.5 51t-51 20.5z" />
<glyph  unicode="&#x2db;" horiz-adv-x="1075" vert-adv-y="2455" d="M563 0h121q-115 -80 -115 -152q0 -33 23 -55q25 -25 67 -24q41 0 97 24l-29 -137q-66 -35 -129 -35q-74 0 -127 41q-57 45 -57 119q-1 121 149 219z" />
<glyph  unicode="&#x2dc;" horiz-adv-x="1165" vert-adv-y="2455" d="M324 1204h-158q23 123 72 193q68 98 176 98q59 0 184 -47l86 -33q35 -10 57 -10q40 0 62 25q23 29 39 61h159q-63 -291 -276 -291q-51 0 -156 43q-104 45 -153 45q-39 0 -62 -28q-15 -19 -30 -56z" />
<glyph  unicode="&#x2dd;" horiz-adv-x="884" vert-adv-y="2455" d="M614 1294l-274 -274l-100 82l206 309zM997 1294l-274 -274l-100 82l206 309z" />
<glyph  unicode="&#x3c0;" horiz-adv-x="1529" vert-adv-y="2455" d="M264 0v834h-176v268h1354v-268h-174v-834h-297v834h-410v-834h-297z" />
<glyph  unicode="&#x2013;" horiz-adv-x="1247" vert-adv-y="2455" d="M145 643h959v-231h-959v231z" />
<glyph  unicode="&#x2014;" horiz-adv-x="2412" vert-adv-y="2455" d="M1933 993v-309h-1456v309h1456z" />
<glyph  unicode="&#x2018;" horiz-adv-x="464" vert-adv-y="2455" d="M104 1565h256l-26 -621h-176z" />
<glyph  unicode="&#x2019;" horiz-adv-x="466" vert-adv-y="2455" d="M104 1565h258l-24 -621h-178z" />
<glyph  unicode="&#x201a;" horiz-adv-x="684" vert-adv-y="2455" d="M324 317l254 -30l-324 -609l-176 21z" />
<glyph  unicode="&#x201c;" horiz-adv-x="894" vert-adv-y="2455" d="M104 1565h258l-24 -621h-178zM541 1565h254l-25 -621h-178z" />
<glyph  unicode="&#x201d;" horiz-adv-x="894" vert-adv-y="2455" d="M104 1565h258l-24 -621h-178zM541 1565h254l-25 -621h-178z" />
<glyph  unicode="&#x201e;" horiz-adv-x="1128" vert-adv-y="2455" d="M344 317l254 -30l-324 -609l-176 21zM776 317l254 -30l-323 -609l-177 21z" />
<glyph  unicode="&#x2020;" horiz-adv-x="1298" vert-adv-y="2455" d="M518 1718h264v-366h363v-236h-363v-1483h-264v1483h-362v236h362v366z" />
<glyph  unicode="&#x2021;" horiz-adv-x="1298" vert-adv-y="2455" d="M782 236h363v-236h-363v-367h-264v367h-362v236h362v880h-362v236h362v366h264v-366h363v-236h-363v-880z" />
<glyph  unicode="&#x2022;" horiz-adv-x="1536" vert-adv-y="2455" d="M772 1102q129 0 223 -92q96 -96 97 -230q0 -129 -97 -225q-94 -94 -225 -94q-129 0 -221 92q-98 94 -98 227q0 131 96 228q94 94 225 94z" />
<glyph  unicode="&#x2026;" horiz-adv-x="1886" vert-adv-y="2455" d="M295 330q68 0 125 -54q53 -53 53 -126q0 -76 -53 -130q-57 -53 -127 -53q-76 0 -129 53.5t-53 124.5q0 76 55 131q53 54 129 54zM944 330q70 0 127 -54q53 -53 53 -126q0 -76 -53 -130q-57 -53 -127 -53q-76 0 -129 53.5t-53 124.5q0 78 53 131.5t129 53.5zM1597 328 q74 0 127.5 -53.5t53.5 -127t-53.5 -127t-127.5 -53.5q-76 0 -129 53.5t-53 124.5q0 76 55 131q51 52 127 52z" />
<glyph  unicode="&#x2030;" horiz-adv-x="2607" vert-adv-y="2455" d="M434 1610q188 0 305 -119q117 -117 117 -299q0 -184 -117 -301q-119 -119 -309 -119t-309 119q-117 117 -117 299q0 181 117 301q116 119 313 119zM1212 1604l211 -117l-897 -1557l-215 119zM1300 756q188 0 308 -119q115 -115 114.5 -297t-116.5 -299 q-123 -119 -310 -119q-188 0 -307 119q-115 113 -115 299q0 184 115 299q116 117 311 117zM430 1417q-84 0 -139 -55q-66 -66 -66 -172.5t68 -173.5q57 -57 139 -57.5t139 57.5q68 68 68 172q0 106 -68 174q-55 55 -141 55zM1296 569q-82 0 -139 -57q-66 -66 -65.5 -172.5 t65.5 -171.5q57 -57 141 -57q82 0 138 55q66 66 65 174q0 104 -65 174q-56 55 -140 55zM2189 756q188 0 308 -119q115 -115 114.5 -297t-117.5 -299q-123 -119 -309 -119q-188 0 -307 119q-115 113 -115 299q0 184 115 299q116 117 311 117zM2185 569q-80 0 -137 -57 q-68 -68 -68 -172q0 -106 66 -172q57 -57 141 -57q82 0 137 55q66 66 66 174q0 104 -66 174q-55 55 -139 55z" />
<glyph  unicode="&#x2039;" horiz-adv-x="679" vert-adv-y="2455" d="M305 500l283 -371l-164 -117l-361 488l361 493l162 -112z" />
<glyph  unicode="&#x203a;" horiz-adv-x="679" vert-adv-y="2455" d="M375 500l-279 381l160 112l360 -493l-360 -488l-164 117z" />
<glyph  unicode="&#x2122;" horiz-adv-x="1673" vert-adv-y="2455" d="M385 1362v-700h-195v700h-190v174h575v-174h-190zM606 662l158 890h141l217 -532l224 532h145l139 -890h-196l-68 481l-209 -494h-76l-202 494l-76 -481h-197z" />
<glyph  unicode="&#x2202;" horiz-adv-x="1146" vert-adv-y="2455" d="M127 1266l39 258q229 -27 383 -82q248 -90 401 -297q166 -223 166 -527q0 -313 -176 -489q-150 -150 -383 -149q-229 0 -385 155q-152 152 -152 371q0 209 142 350q135 135 336 135q162 0 274 -104q-35 78 -70 119q-190 225 -575 260zM571 743h-22q-4 0 -8 -1t-6 -1 q-45 0 -109 -41q-98 -68 -98 -202q0 -115 71 -187q63 -63 159.5 -63t164.5 67q72 72 72 183q0 109 -72 180q-29 29 -80 49q-43 16 -72 16z" />
<glyph  unicode="&#x2206;" horiz-adv-x="1529" vert-adv-y="2455" d="M37 0l561 1530h324l569 -1530h-1454zM463 270h596l-297 895z" />
<glyph  unicode="&#x220f;" horiz-adv-x="1679" vert-adv-y="2455" d="M92 1720h1497v-268h-188v-1757h188v-268h-671v268h184v1757h-520v-1757h180v-268h-670v268h191v1757h-191v268z" />
<glyph  unicode="&#x2211;" horiz-adv-x="1529" vert-adv-y="2455" d="M1421 1720v-567h-268l-29 299h-741l573 -840l-573 -917h762l18 305h279v-573h-1393v299l557 886l-557 809v299h1372z" />
<glyph  unicode="&#x221a;" horiz-adv-x="1529" vert-adv-y="2455" d="M1530 1896v-268h-410l-379 -1628h-395l-131 623h-215v264h463l41 -193q0 -6 2 -12q4 -16 4 -20.5t6 -54.5t8 -79q4 -45 11 -168h24q18 274 98 666l203 870h670z" />
<glyph  unicode="&#x221e;" horiz-adv-x="1529" vert-adv-y="2455" d="M772 586q-80 -86 -149 -127q-95 -55 -209 -56q-166 0 -270.5 104.5t-104.5 268.5q0 163 104 271q104 104 269 104q117 0 209 -59q49 -31 137 -119q166 178 358 178q164 0 270 -107q104 -104 105 -266q0 -164 -107 -270q-104 -104 -264 -105q-121 0 -217 64 q-61 39 -131 119zM911 778q82 -106 158 -106q49 0 82 32.5t33 75.5q0 41 -31 72q-33 33 -84 33q-49 0 -94 -37q-18 -15 -37 -37q-27 -29 -27 -33zM616 778q-80 104 -155 105q-51 0 -84 -33q-31 -31 -31 -72q0 -43 31 -73q33 -33 84 -33q47 0 94 37q14 12 39 39q22 24 22 30z " />
<glyph  unicode="&#x222b;" horiz-adv-x="1146" vert-adv-y="2455" d="M106 -551l54 266q80 -23 123 -22q72 0 102 35q35 39 35 127v43v100v1092q0 217 6 284q18 170 117 254q109 92 293 92q68 0 202 -22l-53 -266q-80 23 -123 22q-72 0 -102 -35q-35 -39 -35 -127v-143v-154v-938v-65q0 -182 -4 -219q-16 -154 -100 -238q-109 -109 -308 -108 q-88 -1 -207 22z" />
<glyph  unicode="&#x2248;" horiz-adv-x="1146" vert-adv-y="2455" d="M178 780l-162 107q49 126 99 190q98 129 245 129q72 0 265 -69l75 -27q49 -16 95 -16q61 0 92 24q33 25 47 45l29 47l167 -98q-57 -125 -94 -174q-41 -53 -114 -94q-82 -39 -156 -39q-70 0 -250 69q-29 12 -90 29t-82 17q-37 0 -80 -25q-39 -23 -86 -115zM178 313 l-162 107q49 127 99 192q98 129 245 129q83 0 295 -79q12 -6 45 -17q53 -18 97 -18q68 0 121 53q18 18 45 63l167 -96q-61 -133 -94 -174q-47 -59 -114 -94q-82 -39 -156 -39q-43 0 -82 10l-152 51l-45 15q-27 10 -49 16q-68 23 -94 23q-43 0 -88 -29q-29 -21 -78 -113z" />
<glyph  unicode="&#x2260;" horiz-adv-x="1146" vert-adv-y="2455" d="M600 1077l125 248l188 -98l-75 -150h233v-268h-356l-78 -152h434v-268h-555l-110 -219l-189 96l64 123h-205v268h325l78 152h-403v268h524z" />
<glyph  unicode="&#x2264;" horiz-adv-x="1146" vert-adv-y="2455" d="M1071 1534v-277l-682 -323l680 -324v-278l-993 477v250zM1071 268v-268h-995v268h995z" />
<glyph  unicode="&#x2265;" horiz-adv-x="1146" vert-adv-y="2455" d="M76 332v278l682 324l-680 323v277l993 -475v-250zM76 0v268h995v-268h-995z" />
<glyph  unicode="&#x25ca;" horiz-adv-x="1402" vert-adv-y="2455" d="M702 1419l531 -735l-531 -737l-532 737zM702 1237l-405 -553l405 -555l404 555z" />
</font>
</defs>
</svg>
