<?xml version="1.0" standalone="no"?>
<!DOCTYPE svg PUBLIC "-//W3C//DTD SVG 1.1//EN" "http://www.w3.org/Graphics/SVG/1.1/DTD/svg11.dtd" >
<svg xmlns="http://www.w3.org/2000/svg">
<metadata>
This is a custom SVG webfont generated by Font Squirrel.
Foundry     : by Canal  Etienne Robial Marc Lescop Stephane Mailliard
</metadata>
<defs>
<font id="webfontEhV0NVxt" horiz-adv-x="2330" >
<font-face units-per-em="4096" ascent="3277" descent="-819" />
<missing-glyph horiz-adv-x="1150" />
<glyph unicode=" "  horiz-adv-x="1150" />
<glyph unicode="&#x09;" horiz-adv-x="1150" />
<glyph unicode="&#xa0;" horiz-adv-x="1150" />
<glyph unicode="!" horiz-adv-x="1073" d="M369 1012v2060h336v-2060h-336zM766 184q0 -93 -68 -161t-161 -68q-95 0 -160 65q-66 66 -66 160t66 162t160 68q93 0 161 -66t68 -160z" />
<glyph unicode="&#x22;" horiz-adv-x="1392" d="M1130 2007h-217l-32 1065h303zM459 2007h-217l-33 1065h299z" />
<glyph unicode="#" horiz-adv-x="2621" d="M1962 1896l-78 -647h471v-274h-508l-123 -987l-286 41l118 946h-655l-123 -987l-286 41l118 946h-491v274h524l82 647h-492v275h525l114 926l287 -41l-106 -885h647l115 926l286 -41l-110 -885h479v-275h-508zM1016 1896l-78 -647h647l78 647h-647z" />
<glyph unicode="$" horiz-adv-x="2428" d="M2167 877q0 -123 -27 -248t-72 -219q-40 -77 -92 -146q-51 -68 -121 -121l-69 -51q-34 -23 -74 -41q-45 -20 -90 -35l-63.5 -19.5t-55.5 -16.5v-218h-364v201l-131 17q-55 7 -103 20q-45 12 -84 27q-40 16 -80 39q-166 84 -278 233q-37 44 -64 88q-27 43 -49 92 q-21 47 -43 115l-45 151l328 91q34 -103 65 -170q34 -73 72 -125q38 -51 86 -90q38 -31 109 -74q151 -82 323 -82q128 0 232 43q105 44 182 119q78 77 121 180q43 104 43 227q0 108 -33 193q-33 86 -109 162q-77 77 -198 145q-126 71 -303 143q-213 87 -357 174 q-148 89 -237 187q-91 100 -131 211q-41 114 -41 252q0 271 172 479q82 93 213 172q34 19 69 35q4 2 72 28q38 15 86 27q58 15 113 25v184h364v-205q107 -28 162 -51q54 -22 117 -68q79 -55 137 -125q54 -66 137 -206l-266 -172q-64 92 -115 155q-40 49 -98 90 q-119 86 -311 86q-226 0 -365 -127t-139 -336q0 -155 127 -272q128 -118 446 -252q235 -99 385 -192q159 -99 258 -207q98 -107 144 -238q45 -129 45 -284z" />
<glyph unicode="%" horiz-adv-x="3108" d="M1491 2433q0 -164 -57 -305q-58 -143 -156 -244q-99 -102 -234 -162q-133 -59 -290 -59q-162 0 -295 59q-136 60 -236 162q-99 100 -157 244q-58 143 -58 305t58 305q58 144 155 244q99 102 234 162q133 59 295 59q159 0 294 -57q136 -57 236 -162t156 -246 q55 -140 55 -305zM831 -94l-311 176l1790 3084l303 -176zM3113 635q0 -163 -57 -303q-57 -139 -156 -244q-97 -103 -234 -164q-133 -59 -290 -59q-163 0 -297 59q-137 60 -236 162q-97 100 -155 244q-58 143 -58 305t58 305t155 246t234 164q133 59 295 59q161 0 294 -59 q136 -60 236 -162t156 -246q55 -143 55 -307zM1180 2437q0 208 -119 342q-118 133 -303 133q-193 0 -314 -133q-120 -132 -120 -346q0 -210 120 -342q121 -133 310 -133q184 0 305 135q121 134 121 344zM2802 639q0 208 -119 342q-118 133 -303 133q-198 0 -316 -133 t-118 -342q0 -210 120 -342q121 -133 310 -133q184 0 305 133t121 342z" />
<glyph unicode="&#x26;" horiz-adv-x="2850" d="M2396 0l-340 434q-76 -76 -125 -117l-104 -84q-33 -25 -101 -69q-52 -34 -116 -70q-152 -82 -273 -117q-120 -34 -268 -34q-190 0 -350 65q-164 67 -281 178q-118 112 -186 269t-68 336q0 113 23 217q22 100 76 194q53 92 135 180q85 92 200 183l72 55l74 53l90 62 l121 80q-112 144 -150 202q-47 72 -84 150q-69 139 -69 307q0 140 51 258q52 121 139 205q89 86 211 135t266 49q141 0 258 -49q119 -50 207 -135t140 -201q51 -114 51 -246q0 -118 -27 -194q-27 -77 -108 -174l-80 -92q-31 -34 -86 -86q-42 -39 -105 -89l-135 -106 l643 -823l86 82l295 274l213 -250l-106 -96l-84 -76l-86 -82l-117 -110l520 -668h-422zM1671 2486q0 148 -96 244t-244 96q-142 0 -241 -100t-99 -248q0 -43 8 -86q7 -38 25 -61l209 -299l4 -13l12 -4l8 -16q133 99 207 160q87 72 127 120q48 57 64 103q16 45 16 104z M1171 1565l-32 -25l-127 -86q-127 -85 -224 -164q-94 -77 -161 -160q-103 -129 -103 -303q0 -121 41 -227q39 -102 115 -182q72 -77 176 -121q101 -43 221 -43q165 0 361 111q48 25 86 51q57 38 88 61q42 31 106 84l137 119z" />
<glyph unicode="'" horiz-adv-x="712" d="M459 2011h-217l-33 1061h295z" />
<glyph unicode="(" horiz-adv-x="1007" d="M582 -541q-48 105 -62 148q-29 69 -59 155q-27 78 -51 168q-47 162 -86 369q-36 186 -64 406q-25 192 -41 423q-14 200 -14 424q0 673 131 1319q27 133 59 254q27 103 64 217q21 70 49 142q21 55 74 174l319 -131q-53 -137 -94 -258q-39 -117 -66 -209q-29 -101 -51 -193 q-21 -86 -43 -213q-45 -264 -69 -530q-25 -280 -25 -563q0 -301 22 -564q22 -267 72 -530q22 -127 43 -213q23 -97 51 -191q27 -91 66 -208q44 -132 94 -261z" />
<glyph unicode=")" horiz-adv-x="1007" d="M803 1561q0 -666 -131 -1315q-23 -111 -58 -256q-29 -119 -61 -215l-53 -142q-21 -55 -74 -174l-315 135l92 261q34 99 65 208q23 82 49 191q21 86 43 213q50 263 72 530q23 274 23 564q0 289 -23 563q-22 267 -72 530q-22 127 -43 213q-25 105 -49 193q-29 107 -65 209 l-92 258l315 131l61 -148q33 -74 60 -153q26 -78 51 -170q100 -350 152 -777q53 -432 53 -849z" />
<glyph unicode="*" horiz-adv-x="1867" d="M1524 2462l-574 -160l183 -229l186 -234q-69 -49 -92 -67l-84 -64l-328 492l-160 -244l-168 -248l-92 68l-84 63l369 463q-128 33 -285 78l-289 82q33 112 70 209l549 -201q0 13 -4 121t-6 172q-1 27 -10 297h221l-25 -590l273 100l280 101z" />
<glyph unicode="+" horiz-adv-x="4636" d="M3879 1458q0 -33 -37 -33h-1307q-41 0 -41 -36v-1352q0 -37 -32 -37h-283q-33 0 -33 37v1347q0 41 -41 41h-1314q-33 0 -33 41v267q0 36 41 36h1306q41 0 41 41v1270q0 37 49 37h259q40 0 40 -37v-1257q0 -54 58 -54h1286q41 0 41 -36v-275z" />
<glyph unicode="," horiz-adv-x="782" d="M516 -700h-250l-61 1146h373z" />
<glyph unicode="-" horiz-adv-x="741" d="M0 741v263h741v-263h-741z" />
<glyph unicode="." horiz-adv-x="897" d="M676 180q0 -94 -66 -160q-65 -65 -159 -65q-96 0 -162 65q-68 66 -68 160t68 162t162 68q93 0 159 -68t66 -162z" />
<glyph unicode="/" horiz-adv-x="2473" d="M500 -418h-324l1954 3957h303z" />
<glyph unicode="0" horiz-adv-x="2691" d="M2445 1540q0 -340 -84 -629q-83 -288 -231 -503q-147 -214 -350 -336q-202 -121 -437 -121q-230 0 -430 121q-203 123 -348 331q-148 213 -233 496q-86 287 -86 612q0 343 84 639t231 510t350 336q202 121 441 121q235 0 432 -121q201 -123 346 -332q148 -213 231 -499 q84 -289 84 -625zM2105 1536q0 271 -57 502q-56 227 -160 403q-103 174 -241 269q-139 96 -304 96q-159 0 -299 -99q-139 -99 -241 -268t-162 -399q-59 -226 -59 -496q0 -278 57 -512q56 -230 160 -403t241 -267q140 -96 308 -96q160 0 297 99q139 101 239 270 q102 173 162 403q59 227 59 498z" />
<glyph unicode="1" horiz-adv-x="1376" d="M573 0v2753h-327v319h672v-3072h-345z" />
<glyph unicode="2" horiz-adv-x="2396" d="M164 0l1118 1294q206 238 352 447q94 135 138 246q43 110 43 229t-48 229q-47 107 -131 187q-86 82 -196 127q-114 47 -240 47q-160 0 -297 -74t-215 -192q-48 -71 -70 -148q-20 -69 -32 -217h-344q12 137 24 205t41 143q49 135 135 246q83 107 203 186q115 75 256 119 q138 43 295 43q198 0 375 -70q174 -69 303 -192q130 -124 203 -289t73 -358q0 -169 -57 -328q-58 -161 -184 -332l-174 -221l-244 -291l-631 -717h1290v-319h-1986z" />
<glyph unicode="3" horiz-adv-x="2109" d="M1987 868q0 -196 -72 -364q-72 -169 -199 -291q-130 -125 -301 -193q-174 -69 -379 -69q-211 0 -397 80q-185 80 -315 223q-96 112 -140 229q-44 116 -61 312h332q17 -119 39 -179q22 -58 67 -120q79 -104 211 -166q136 -64 277 -64q125 0 237 47q111 47 191 131 q81 86 127 195q47 112 47 242q0 176 -82 315q-83 140 -221 201q-32 14 -72 28q-39 14 -74 19q-32 5 -88 10q-9 1 -119 8v295q112 7 125 8q42 4 92 13q44 8 76 22q42 18 72 35q115 67 180 186q66 121 66 265q0 228 -148 374t-381 146q-135 0 -246 -51q-109 -50 -176 -146 q-36 -55 -55 -115q-21 -65 -43 -180h-336q12 91 27 152q15 63 31 110q20 60 36 93q15 32 50 92q107 173 290 264q186 92 422 92q190 0 346 -61q161 -63 273 -172q114 -111 180 -263q66 -151 66 -327q0 -226 -99 -400t-295 -280q211 -100 324 -293q115 -197 115 -453z" />
<glyph unicode="4" horiz-adv-x="2547" d="M1946 516v-516h-328v516h-1577l1905 2728v-2429h376v-299h-376zM1618 2232l-995 -1417h995v1417z" />
<glyph unicode="5" horiz-adv-x="2437" d="M2191 1049q0 -237 -86 -439t-235 -348t-357 -229q-206 -82 -448 -82q-606 0 -942 545l274 196q55 -89 101 -147q40 -51 100 -99q104 -87 227 -133q126 -47 265 -47q160 0 299 60q142 61 241 163q103 106 162 248t59 307q0 164 -57 304q-56 137 -160 241 q-102 102 -239 162q-134 59 -297 59q-151 0 -283 -47q-130 -46 -311 -161l442 1470h1225v-319h-983l-201 -656l90 12q37 5 82 5q220 0 412 -80q188 -78 327 -222t216 -337q77 -194 77 -426z" />
<glyph unicode="6" horiz-adv-x="2527" d="M2322 1004q0 -218 -84 -410q-85 -194 -227 -336t-334 -225q-189 -82 -407 -82q-223 0 -414 82q-194 83 -338 223q-145 140 -229 330q-84 189 -84 401q0 183 65 359t189 350l1048 1454l254 -193l-704 -983q108 27 147 33q56 8 135 8q203 0 383 -80q177 -79 312 -217 q133 -136 211 -321q77 -182 77 -393zM1987 983q0 150 -56 285q-55 134 -153 231q-99 99 -230 156q-130 57 -282 57q-148 0 -279 -57q-130 -57 -229 -156t-156 -229t-57 -279q0 -151 57 -282t156 -230q98 -98 229 -155q133 -58 279 -58q145 0 278 58q131 57 230 153 q96 93 155 228q58 133 58 278z" />
<glyph unicode="7" horiz-adv-x="2592" d="M537 -74l-271 180l1741 2647h-1675v319h2261z" />
<glyph unicode="8" horiz-adv-x="2355" d="M2109 856q0 -196 -69 -362q-68 -163 -193 -287q-123 -121 -293 -189q-168 -67 -366 -67q-202 0 -373 67t-299 189q-127 121 -199 285q-71 161 -71 356q0 520 459 749q-185 111 -281 285t-96 391q0 183 65 334q67 156 182 268q121 117 273 179q156 63 340 63t342 -63 q156 -62 272 -177q114 -113 180 -268q66 -156 66 -336q0 -210 -104 -391q-105 -183 -281 -285q210 -103 328 -297t118 -444zM1720 2269q0 109 -41 209q-40 98 -114 172q-76 76 -172 115q-100 41 -209 41q-112 0 -207 -43q-97 -44 -168 -115t-115 -168q-43 -95 -43 -203 q0 -113 41 -213q39 -96 115 -172q74 -74 172 -114q100 -41 209 -41q110 0 207 41q96 40 168 114q69 70 114 170q43 95 43 207zM1769 856q0 121 -47 229q-46 107 -127 187q-81 81 -188 127q-109 47 -231 47q-119 0 -228 -47q-107 -46 -188 -127t-127 -185q-47 -106 -47 -223 q0 -121 47 -233q46 -110 127 -191t188 -127q109 -47 232 -47q121 0 229 47q105 46 186 127q81 80 127 187q47 108 47 229z" />
<glyph unicode="9" horiz-adv-x="2531" d="M2327 2085q0 -175 -66 -354q-67 -182 -193 -355l-1044 -1450l-258 193l709 983q-107 -27 -148 -33q-56 -8 -135 -8q-205 0 -385 78q-178 77 -313 215q-133 136 -211 321t-78 398q0 217 84 407q85 193 227 332q143 140 336 223q191 82 410 82q222 0 413 -82 q194 -83 338 -223q146 -141 230 -328q84 -186 84 -399zM1987 2085q0 146 -56 278q-57 134 -153 230q-97 97 -230 155t-282 58q-146 0 -279 -58q-130 -57 -229 -153t-156 -225t-57 -277q0 -153 55 -285t154 -231t229 -156q131 -57 283 -57q148 0 278 57q131 57 230 156 q98 98 155 229q58 133 58 279z" />
<glyph unicode=":" horiz-adv-x="1191" d="M823 1733q0 -95 -65 -160q-66 -66 -160 -66q-93 0 -162 64q-67 63 -67 158q0 94 67 161q68 68 162 68t160 -66q65 -65 65 -159zM823 180q0 -95 -65 -160t-160 -65q-96 0 -162 65q-67 66 -67 160q0 96 65 162q66 68 160 68t162 -68q67 -67 67 -162z" />
<glyph unicode=";" horiz-adv-x="823" d="M823 1733q0 -94 -67 -160q-68 -66 -162 -66q-93 0 -160 64q-65 62 -65 158q0 94 67 161q68 68 162 68t160 -66q65 -65 65 -159zM717 -700h-250l-61 1146h372z" />
<glyph unicode="&#x3c;" horiz-adv-x="3301" d="M2687 2621l-229 -135l-328 -190l-377 -219l-375 -219l-325 -191l-226 -131l226 -131l325 -191l375 -219l377 -219l328 -190l229 -135v2170zM3011 3174v-3276l-2810 1638z" />
<glyph unicode="=" horiz-adv-x="4415" d="M991 1761v328h2433v-328h-2433zM991 1106v328h2433v-328h-2433z" />
<glyph unicode="&#x3e;" horiz-adv-x="3301" d="M614 455l230 135l327 190l375 219l375 220l326 188l227 133l-227 131l-326 191l-375 219l-375 219l-327 190l-230 136v-2171zM291 -98v3276l2810 -1638z" />
<glyph unicode="?" horiz-adv-x="1810" d="M1626 2380q0 -183 -80 -340q-79 -155 -211 -246q-23 -18 -41 -27l-45 -22q-31 -16 -57 -25q-22 -8 -82 -28q-9 0 -29 -9l-28 -8v-663h-332v897q84 5 129 10q53 6 102 23q51 18 88 40q34 20 90 66q15 9 17 10q3 1 12 10q131 119 131 308q0 184 -114 301q-113 116 -295 116 q-178 0 -291 -112q-115 -113 -115 -285q0 -44 6 -82q5 -30 23 -106h-332q-10 60 -16 110q-4 36 -4 90q0 153 55 281q57 132 153 221q102 95 236 146q138 53 297 53q157 0 291 -55t233 -154t154 -231t55 -289zM1118 184q0 -95 -65 -161q-66 -68 -160 -68t-162 68 q-67 67 -67 161q0 95 65 160q66 66 160 66q95 0 162 -66t67 -160z" />
<glyph unicode="@" horiz-adv-x="3719" d="M3391 1171q0 -228 -59 -426q-60 -200 -162 -352q-101 -150 -235 -239q-133 -88 -285 -88q-246 0 -332 270q-144 -156 -268 -217q-126 -62 -297 -62q-166 0 -309 64q-141 63 -246 174t-162 264t-57 334q0 194 65 358q65 163 181 287q114 122 272 191q157 69 342 69 q182 0 305 -61q125 -62 236 -201l28 221h299l-122 -1044q-10 -76 -13 -111q-4 -47 -4 -98q0 -148 123 -148q81 0 158 66q75 64 135 176q60 110 94 254q35 146 35 295q0 246 -88 450q-88 205 -246 355q-155 148 -375 231q-216 82 -479 82q-276 0 -512 -100 q-237 -101 -412 -277q-173 -175 -274 -415q-100 -239 -100 -515q0 -363 170 -665q169 -300 465 -473q153 -91 329 -131q181 -41 400 -41q126 0 276 2q115 2 213 22q103 21 213 70q124 55 277 143l28 17l99 -275l-25 -8q-156 -75 -270 -119q-131 -51 -256 -80 q-136 -32 -262 -43q-134 -12 -289 -12q-521 0 -897 217q-178 101 -324 250q-141 144 -242 326q-98 177 -151 379q-53 203 -53 417q0 336 123 627q123 292 337 504t508 336q292 123 633 123q311 0 580 -105t465 -289t307 -434q110 -248 110 -545zM2318 1040q0 204 -129 332 q-128 127 -325 127q-113 0 -213 -47q-97 -45 -170 -131q-73 -85 -113 -197q-41 -114 -41 -243q0 -109 35 -205q35 -95 94 -166q61 -73 139 -113q80 -41 170 -41q108 0 211 54q98 51 176 143q75 89 121 209q45 118 45 250v28z" />
<glyph unicode="A" horiz-adv-x="2859" d="M2449 0l-360 868h-1315l-368 -868h-373l1413 3219l1380 -3219h-377zM1442 2421l-529 -1233h1041z" />
<glyph unicode="B" horiz-adv-x="2318" d="M2134 864q0 -195 -80 -364q-79 -167 -227 -291q-68 -56 -146 -96q-83 -42 -163 -64q-95 -26 -193 -37q-105 -12 -235 -12h-766v3072h557q241 0 405 -45q162 -45 287 -148q132 -108 209 -278q78 -173 78 -360q0 -271 -144 -451q-34 -47 -63 -74q-29 -28 -97 -74 q273 -83 424 -286q154 -207 154 -492zM1524 2236q0 124 -43 228q-44 106 -121 174q-68 61 -168 88q-99 27 -258 27h-266v-1037h258q169 0 264 25q91 24 170 94q164 144 164 401zM1794 877q0 141 -70 266q-68 121 -188 188q-94 49 -213 72q-116 22 -311 22h-344v-1106h389 q93 0 186 7q85 6 141 20q65 16 111 41q45 24 98 68q96 75 148 186q53 114 53 236z" />
<glyph unicode="C" horiz-adv-x="2883" d="M2699 270q0 -25 -12 -37q-13 -13 -78 -53q-180 -114 -399 -174q-215 -59 -436 -59q-326 0 -617 125q-288 124 -504 340q-215 215 -342 503t-127 613q0 332 127 622q127 291 346 508q219 218 514 342q297 125 627 125q166 0 299 -28q129 -27 291 -99q46 -19 119 -55 q56 -27 106 -59q57 -33 72 -54q14 -20 14 -73v-271v-37q0 -32 -16 -32q-13 0 -33 20q-62 73 -162 141q-102 69 -221 117q-123 50 -248 78q-130 29 -245 29q-253 0 -482 -101q-227 -100 -395 -274q-166 -172 -266 -408q-99 -234 -99 -495q0 -258 99 -488t268 -399t395 -270 t484 -101q223 0 436 82q216 83 399 238q6 6 21 18q10 8 12 10q24 21 37 21q16 0 16 -29v-20v-25v-291z" />
<glyph unicode="D" horiz-adv-x="2797" d="M2613 1536q0 -359 -137 -659t-408 -521q-109 -90 -233 -161q-118 -67 -254 -111q-132 -43 -291 -64q-149 -20 -340 -20h-626v3072h630q372 0 639 -86q269 -87 488 -270q257 -220 395 -521q137 -300 137 -659zM2265 1536q0 274 -92 500q-92 225 -262 385t-410 245 q-244 87 -534 87h-299v-2434h299q290 0 534 87q240 85 410 245t262 385q92 226 92 500z" />
<glyph unicode="E" horiz-adv-x="2097" d="M324 0v3072h1589v-319h-1245v-914h1212v-319h-1212v-1201h1245v-319h-1589z" />
<glyph unicode="F" horiz-adv-x="1875" d="M668 2753v-914h1020v-319h-1020v-1520h-344v3072h1396v-319h-1052z" />
<glyph unicode="G" horiz-adv-x="3395" d="M3211 1450q0 -333 -67 -555q-67 -223 -219 -412q-210 -259 -519 -405q-304 -144 -649 -144q-322 0 -610 125q-287 125 -500 342q-214 218 -338 504q-125 288 -125 615q0 332 127 622q128 293 346 506q219 215 517 338q297 123 636 123q327 0 615 -131q89 -40 164 -86 q71 -44 147 -107q80 -67 156 -143q73 -73 188 -201l-258 -229l-145 170q-59 68 -121 123q-57 51 -117 90q-58 38 -133 76q-230 114 -500 114q-267 0 -499 -98q-236 -100 -406 -270t-272 -404q-101 -232 -101 -497q0 -258 99 -486q99 -227 266 -399q168 -173 391 -273 q222 -100 477 -100q145 0 283 37q139 37 266 106q125 68 232 164q105 95 174 213q28 45 51 90q24 47 35 90q19 53 26 107q10 85 15 147h-914v320h1282v-82z" />
<glyph unicode="H" horiz-adv-x="2904" d="M2236 0v1503h-1568v-1503h-344v3072h344v-1249h1568v1249h344v-3072h-344z" />
<glyph unicode="I" horiz-adv-x="991" d="M324 0v3072h344v-3072h-344z" />
<glyph unicode="J" horiz-adv-x="1556" d="M1233 590q0 -111 -6 -195q-5 -74 -19 -151q-13 -74 -32 -125q-22 -60 -54 -115q-83 -147 -233 -235q-151 -88 -332 -88q-142 0 -272 53q-128 52 -285 176l193 266q113 -104 184 -137q75 -35 172 -35q127 0 209 78q70 70 100 184q31 118 31 324v2482h344v-2482z" />
<glyph unicode="K" horiz-adv-x="2510" d="M2011 0l-1257 1409l-86 -86v-1323h-344v3072h344v-1319l1306 1319h463l-1442 -1434l1487 -1638h-471z" />
<glyph unicode="L" horiz-adv-x="1597" d="M324 0v3072h344v-2753h843v-319h-1187z" />
<glyph unicode="M" horiz-adv-x="3739" d="M3203 0l-287 2138l-1048 -2265l-1032 2265l-299 -2138h-353l508 3248l1180 -2597l1208 2597l475 -3248h-352z" />
<glyph unicode="N" horiz-adv-x="3383" d="M668 2367v-2367h-344v3199l2392 -2507v2380h344v-3211z" />
<glyph unicode="O" horiz-adv-x="3567" d="M3383 1532q0 -329 -127 -614q-128 -288 -344 -504q-218 -218 -508 -342q-292 -125 -622 -125q-326 0 -617 125q-289 124 -508 336q-219 211 -346 493q-127 281 -127 602q0 334 125 631q124 294 340 516q214 220 506 348q290 127 619 127q330 0 624 -125 q293 -125 512 -342t346 -508q127 -290 127 -618zM3035 1532q0 264 -98 493q-100 234 -266 404t-398 272q-231 101 -487 101q-258 0 -486 -99t-399 -270t-270 -399t-99 -486q0 -263 97 -499q96 -233 266 -408q168 -173 395 -274q226 -101 484 -101q262 0 491 99 q230 99 401 270q172 172 271 403q98 229 98 494z" />
<glyph unicode="P" horiz-adv-x="2039" d="M1937 2208q0 -402 -258 -631q-257 -229 -712 -229h-299v-1348h-344v3072h557q288 0 460 -49q175 -50 314 -168q135 -114 209 -285q73 -168 73 -362zM1602 2212q0 541 -680 541h-254v-1094h278q318 0 486 143q170 144 170 410z" />
<glyph unicode="Q" horiz-adv-x="3559" d="M3375 1503q0 -290 -90 -524q-23 -65 -53 -129q-25 -53 -70 -121q-37 -55 -94 -131q-55 -72 -131 -160l254 -241l-234 -226l-258 275q-69 -47 -131 -84q-68 -41 -108 -60q-44 -21 -103 -45q-48 -20 -112 -37q-232 -73 -471 -73q-330 0 -621 125q-288 124 -504 340 q-217 217 -340 503q-125 291 -125 617t125 618q124 290 342 508t508 342q292 125 623 125q332 0 622 -127q292 -128 506 -348q216 -222 340 -516q125 -297 125 -631zM3031 1516q0 270 -96 505q-96 236 -264 410q-166 172 -398 272q-229 99 -495 99q-262 0 -490 -99 q-230 -100 -397 -270q-171 -174 -266 -403q-97 -233 -97 -498q0 -264 97 -496q96 -230 264 -399t395 -268q228 -99 490 -99q201 0 372 58q52 14 80 26q40 18 70 33q27 14 74 43l92 57l-381 381l233 234l381 -418q57 66 96 117q42 55 68 96q30 47 51 88q20 39 43 96 q78 201 78 435z" />
<glyph unicode="R" horiz-adv-x="2113" d="M1679 0l-925 1348h-86v-1348h-344v3072h495q268 0 434 -37q170 -38 303 -131q160 -107 250 -291q90 -185 90 -401q0 -178 -55 -324q-56 -148 -158 -256q-103 -109 -243 -176q-142 -68 -318 -80l979 -1376h-422zM1556 2212q0 144 -57 258q-57 115 -164 184q-86 54 -192 76 q-113 23 -271 23h-204v-1102h213q328 0 501 145q174 146 174 416z" />
<glyph unicode="S" horiz-adv-x="2293" d="M2109 889q0 -204 -75 -373q-76 -171 -207 -299q-130 -127 -309 -199q-176 -71 -388 -71q-365 0 -610 205q-246 206 -336 585l332 94q27 -122 53 -188q23 -59 74 -127q82 -118 215 -184q134 -66 285 -66q126 0 241 47t197 129q81 81 131 193q49 110 49 237q0 189 -114 318 t-406 260l-278 127q-332 152 -478 326q-145 173 -145 428q0 171 66 317t180 252q112 105 274 166q156 59 344 59q512 0 791 -479l-271 -180q-46 72 -86 125q-32 42 -73 80q-152 131 -369 131q-108 0 -201 -37q-92 -36 -161 -101q-68 -63 -107 -149q-39 -85 -39 -184 q0 -149 100 -256q102 -110 334 -211l291 -127q189 -85 318 -170q131 -87 217 -191q84 -102 123 -221q38 -115 38 -266z" />
<glyph unicode="T" horiz-adv-x="1892" d="M1118 2753v-2753h-344v2753h-741v319h1831v-319h-746z" />
<glyph unicode="U" horiz-adv-x="2830" d="M2511 1098q0 -254 -45 -420q-44 -164 -156 -309q-152 -198 -389 -310q-236 -112 -504 -112t-504 112q-237 112 -389 310q-110 138 -155 307q-45 168 -45 422v1974h344v-1884q0 -132 4 -211q5 -92 16 -156t31 -121q18 -52 51 -102q90 -143 270 -238q179 -94 377 -94 t377 94q180 95 270 238q30 52 50 102q19 47 32 121q13 71 17 156q4 79 4 211v1884h344v-1974z" />
<glyph unicode="V" horiz-adv-x="2551" d="M1274 -184l-1241 3256h373l872 -2343l872 2343h373z" />
<glyph unicode="W" horiz-adv-x="4403" d="M3084 -160l-905 2458l-967 -2458l-1179 3232h373l819 -2302l962 2458l910 -2462l901 2306h372z" />
<glyph unicode="X" horiz-adv-x="2220" d="M1839 0l-709 1262l-712 -1262h-385l905 1589l-827 1483h389l635 -1155l651 1155h393l-848 -1483l889 -1589h-381z" />
<glyph unicode="Y" horiz-adv-x="2371" d="M1348 1323v-1323h-344v1323l-1004 1749h397l783 -1372l794 1372h398z" />
<glyph unicode="Z" horiz-adv-x="2367" d="M631 319h1634v-319h-2204l1676 2753h-1458v319h2027z" />
<glyph unicode="[" horiz-adv-x="1327" d="M369 -811v4174h774v-311h-434v-3552h434v-311h-774z" />
<glyph unicode="\" horiz-adv-x="2093" d="M1659 -418l-1929 3957h299l1953 -3957h-323z" />
<glyph unicode="]" horiz-adv-x="1327" d="M184 -811v311h439v3552h-439v311h774v-4174h-774z" />
<glyph unicode="^" horiz-adv-x="2134" d="M1733 1675l-668 1131l-664 -1131h-372l811 1405h454l811 -1405h-372z" />
<glyph unicode="_" horiz-adv-x="2306" d="M0 -299h2306v-315h-2306v315z" />
<glyph unicode="`" horiz-adv-x="1306" d="M1061 2290l-623 626l340 152l488 -668z" />
<glyph unicode="a" d="M1753 0v262q-145 -170 -299 -242q-155 -73 -364 -73q-202 0 -369 76q-171 78 -291 208q-123 133 -192 318q-70 187 -70 401q0 211 68 391q68 181 190 310q123 131 291 204q169 74 368 74q208 0 367 -74q157 -73 301 -237v266h328v-1884h-328zM1774 946q0 148 -48 281 q-46 128 -131 219q-84 90 -202 141q-119 51 -258 51q-136 0 -250 -51q-115 -51 -199 -143q-82 -90 -133 -217q-49 -123 -49 -273q0 -154 47 -286t131 -228t199 -149t254 -53t258 51q118 51 202 145q85 95 131 225q48 135 48 287z" />
<glyph unicode="b" d="M2163 946q0 -213 -70 -399q-69 -182 -192 -316q-120 -130 -291 -208q-167 -76 -369 -76q-206 0 -364 76q-162 78 -295 239v-262h-332v3072h332v-1454q144 159 301 235q156 76 366 76q196 0 365 -74q168 -73 291 -204q121 -129 190 -312q68 -181 68 -393zM1827 934 q0 150 -47 280q-47 131 -129 222q-84 93 -197 145q-115 53 -250 53q-144 0 -262 -51q-120 -52 -205 -141q-87 -92 -133 -219q-47 -130 -47 -281q0 -155 47 -285q46 -126 133 -223q84 -93 203 -145q117 -51 256 -51q135 0 250 53t201 145q87 93 133 221q47 130 47 277z" />
<glyph unicode="c" horiz-adv-x="1961" d="M1794 143q-163 -108 -305 -153q-135 -43 -305 -43q-219 0 -402 76q-188 78 -321 208q-137 134 -215 314t-78 389q0 208 78 391q77 181 217 315q139 133 323 211t402 78q141 0 274 -37q45 -11 86 -24q38 -12 72 -27q40 -17 74 -37q41 -24 88 -55v-426q-74 78 -135 135 q-95 83 -215 129q-123 47 -252 47q-143 0 -269 -53q-125 -53 -215 -147t-141 -222t-51 -274q0 -147 51 -276q51 -130 141 -224t213 -147q124 -53 267 -53q152 0 286 61q50 23 84 43q35 20 76 53q30 24 78 72q47 47 94 102v-426z" />
<glyph unicode="d" d="M1753 0v262q-134 -162 -297 -239q-161 -76 -366 -76q-202 0 -369 76q-171 78 -291 208q-123 134 -192 316q-70 186 -70 399q0 212 68 393q69 183 190 312q123 131 291 204q169 74 364 74q211 0 369 -76q160 -77 303 -235v1454h328v-3072h-328zM1774 946q0 147 -48 279 q-46 126 -131 217q-84 90 -202 141q-119 51 -258 51q-136 0 -250 -51q-115 -51 -199 -143q-82 -90 -133 -217q-49 -123 -49 -269q0 -153 47 -288q46 -133 131 -228q83 -94 199 -147q115 -53 254 -53t258 51q118 51 202 145q85 95 131 225q48 135 48 287z" />
<glyph unicode="e" horiz-adv-x="2174" d="M516 872q12 -287 178 -460q166 -174 428 -174q118 0 224 41q102 39 186 114q31 31 43 45l39 47q16 20 43 62l55 84l275 -152q-64 -110 -115 -178q-43 -58 -119 -121q-264 -233 -643 -233q-211 0 -383 71q-173 72 -297 203q-123 130 -192 311q-70 183 -70 402t68 403 q68 185 190 314q123 130 293 204q171 74 375 74q206 0 372 -71q167 -72 289 -201q120 -128 187 -314q65 -182 65 -405v-66h-1491zM1663 1147q-45 219 -199 354q-152 133 -362 133q-108 0 -201 -37q-96 -38 -168 -100q-74 -64 -127 -154t-69 -196h1126z" />
<glyph unicode="f" horiz-adv-x="1060" d="M561 1585v-1585h-328v1585h-184v299h184v512q0 229 50 365q52 143 192 227q139 84 324 84q66 0 114 -8q32 -5 127 -33v-324q-85 31 -120 37q-52 9 -101 9q-100 0 -168 -54q-27 -24 -43 -49q-17 -27 -28 -72q-11 -44 -15 -104q-4 -55 -4 -152v-438h479v-299h-479z" />
<glyph unicode="g" horiz-adv-x="2334" d="M2085 8q0 -149 -10 -252q-11 -112 -31 -194q-23 -93 -57 -156q-37 -68 -91 -139q-130 -172 -325 -262t-436 -90q-206 0 -373 61t-289 174q-120 111 -190 272q-71 163 -78 361h323q12 -125 29 -191q17 -64 61 -129q78 -118 218 -186q141 -68 303 -68q614 0 614 746v307 q-135 -156 -307 -235q-174 -80 -369 -80q-193 0 -358 76q-167 77 -289 206q-123 130 -192 314q-70 186 -70 391q0 210 70 397q70 186 192 316q121 128 293 206q168 76 371 76q206 0 364 -76q161 -78 295 -235v266h332v-1876zM1769 946q0 150 -47 279q-46 126 -133 219 q-86 92 -203 143t-256 51q-134 0 -249 -53q-114 -53 -199 -145t-131 -219q-47 -129 -47 -279q0 -156 45 -285q45 -130 129 -221q84 -92 199 -143q114 -51 249 -51q144 0 263 51q117 50 202 143q84 92 131 223q47 132 47 287z" />
<glyph unicode="h" horiz-adv-x="2035" d="M1458 0v1147q0 231 -61 332q-45 74 -133 114q-90 41 -199 41q-143 0 -250 -57q-108 -58 -160 -164q-44 -80 -59 -190q-14 -101 -14 -281v-942h-332v3072h332v-1409q118 144 245 205q126 61 299 61t320 -69q145 -68 229 -189q62 -91 86 -203q25 -117 25 -301v-1167h-328z " />
<glyph unicode="i" horiz-adv-x="880" d="M676 2597q0 -98 -70 -166t-168 -68q-94 0 -164 68q-69 67 -69 162q0 99 69 166q68 67 168 67q96 0 164 -67q70 -68 70 -162zM274 0v1884h332v-1884h-332z" />
<glyph unicode="j" horiz-adv-x="880" d="M676 2597q0 -98 -70 -166t-168 -68q-94 0 -164 68q-69 67 -69 162q0 99 69 166q68 67 168 67q96 0 164 -67q70 -68 70 -162zM274 -1061v2945h332v-2945h-332z" />
<glyph unicode="k" horiz-adv-x="1871" d="M1434 0l-770 856l-82 -82v-774h-332v3072h332v-1880l692 692h438l-819 -803l971 -1081h-430z" />
<glyph unicode="l" horiz-adv-x="831" d="M250 0v3072h332v-3072h-332z" />
<glyph unicode="m" horiz-adv-x="3006" d="M2429 0v1143q0 261 -80 379q-79 116 -264 116q-410 0 -410 -594v-1044h-327v1118q0 520 -353 520q-107 0 -202 -55q-98 -57 -142 -149q-69 -135 -69 -410v-1024h-332v1884h332v-201q104 133 209 189q107 57 262 57q172 0 307 -78q134 -78 217 -225q180 303 561 303 q166 0 301 -67q136 -67 215 -187q58 -91 80 -198q23 -110 23 -281v-1196h-328z" />
<glyph unicode="n" horiz-adv-x="2035" d="M1454 0v1114q0 151 -12 229q-12 80 -49 140q-98 155 -336 155q-254 0 -365 -163q-110 -162 -110 -533v-942h-332v1884h332v-229q122 155 245 215q121 59 303 59q173 0 320 -69q146 -68 225 -189q57 -85 84 -203q27 -117 27 -301v-1167h-332z" />
<glyph unicode="o" horiz-adv-x="2359" d="M2191 938q0 -211 -77 -389q-78 -179 -216 -316q-134 -132 -321 -210q-183 -76 -397 -76q-211 0 -394 76q-188 78 -321 208q-137 134 -217 310q-80 177 -80 381q0 212 78 397q78 184 213 319q136 136 317 213q183 78 395 78q219 0 404 -76q188 -77 323 -211 q139 -138 216 -315q77 -178 77 -389zM1855 938q0 152 -51 281q-51 130 -141 221q-90 92 -215 143q-124 51 -272 51q-143 0 -267 -53q-121 -52 -213 -145q-89 -91 -141 -217q-51 -125 -51 -273q0 -156 49 -284q50 -131 139 -224q90 -95 211 -147q123 -53 268 -53 q153 0 277 51q126 52 215 145q91 95 141 221q51 127 51 283z" />
<glyph unicode="p" d="M2163 930q0 -212 -68 -393q-69 -183 -190 -312q-125 -132 -291 -205q-167 -73 -365 -73q-210 0 -366 73t-301 242v-1339h-332v2961h332l-4 -266q144 164 301 237q159 74 362 74q202 0 369 -76q171 -78 291 -208q123 -134 192 -316q70 -186 70 -399zM1827 922 q0 154 -47 286q-47 133 -129 228q-84 97 -199 149q-118 53 -252 53q-138 0 -258 -53t-205 -147q-87 -96 -133 -224q-47 -130 -47 -284q0 -150 47 -279q46 -126 133 -219q86 -92 205 -143q118 -51 258 -51q136 0 250 51q115 51 199 143t131 217q47 126 47 273z" />
<glyph unicode="q" d="M1753 -1077v1339q-145 -169 -303 -242t-369 -73q-197 0 -364 73q-166 72 -289 205q-120 129 -190 312t-70 393q0 213 70 399q69 182 192 316q120 130 291 208q167 76 369 76q205 0 366 -76q163 -77 297 -235v266h328v-2961h-328zM1774 934q0 148 -48 283 q-47 131 -131 223q-86 94 -200 145q-118 53 -256 53q-134 0 -252 -53q-116 -52 -203 -145t-133 -221q-47 -130 -47 -277q0 -150 47 -280t129 -224t197 -147t249 -53q144 0 263 51q118 51 204 143q87 93 133 219q48 132 48 283z" />
<glyph unicode="r" horiz-adv-x="1384" d="M1151 1556q-67 44 -98 54q-37 12 -95 12q-83 0 -167 -41q-62 -34 -101 -78q-39 -45 -63 -114q-25 -71 -35 -166q-10 -91 -10 -232v-991h-332v1884h332v-201q62 75 86 99q32 32 65 57q107 90 279 90q90 0 143 -14q60 -16 152 -64z" />
<glyph unicode="s" horiz-adv-x="1568" d="M1446 561q0 -133 -49 -244q-49 -112 -137 -194q-88 -83 -207 -129q-120 -47 -258 -47q-142 0 -277 53q-132 52 -227 147q-56 56 -90 113t-78 166l287 119l55 -103q13 -24 43 -65q106 -139 287 -139q139 0 229 84t90 215q0 55 -29 122q-34 59 -88 97q-57 40 -194 96 q-131 55 -230 104q-85 42 -155 93q-168 119 -168 352q0 111 43 209q43 99 117 168q74 70 176 110q103 41 221 41q139 0 270 -69q94 -45 144 -101q47 -53 110 -174l-274 -139q-94 188 -262 188q-96 0 -164 -61q-70 -62 -70 -148q0 -81 64 -137q62 -55 247 -133l138 -57 l94 -43q36 -17 70 -37q22 -13 63 -43q209 -147 209 -414z" />
<glyph unicode="t" horiz-adv-x="983" d="M623 1585v-1585h-328v1585h-201v299h201v680h328v-680h340v-299h-340z" />
<glyph unicode="u" horiz-adv-x="2023" d="M1769 750q0 -218 -36 -338q-38 -127 -136 -232q-107 -120 -256 -176q-150 -57 -329 -57q-182 0 -330 59q-149 60 -256 174q-97 104 -137 232q-39 124 -39 338v1134h332v-1098q0 -136 12 -215q12 -80 45 -137q50 -91 149 -143q101 -53 224 -53q121 0 221 53q96 51 147 143 q31 54 47 137q15 79 15 215v1098h327v-1134z" />
<glyph unicode="v" horiz-adv-x="1875" d="M938 -123l-938 2007h369l573 -1266l565 1266h369z" />
<glyph unicode="w" horiz-adv-x="3072" d="M2122 -131l-590 1405l-594 -1405l-938 2015h369l569 -1274l594 1422l598 -1422l573 1274h369z" />
<glyph unicode="x" horiz-adv-x="2019" d="M1626 0l-606 766l-610 -766h-410l819 1004l-700 880h401l500 -643l500 643h405l-700 -880l794 -1004h-393z" />
<glyph unicode="y" horiz-adv-x="2043" d="M627 -1077h-369l623 1257l-881 1704h381l672 -1347l622 1347h369z" />
<glyph unicode="z" horiz-adv-x="2224" d="M754 299h1319v-299h-1979l1381 1585h-1127v299h1782z" />
<glyph unicode="{" horiz-adv-x="1519" d="M1212 -811q-156 0 -266 37q-112 38 -180 119q-71 84 -100 211q-31 133 -31 313v848q0 196 -60 295q-59 98 -206 135v274q142 37 204 129t62 277v901q0 340 135 487q136 148 447 148q13 0 45 -2t73 -2v-291l-37 4q-104 0 -165 -16q-64 -17 -101 -60t-49 -123 q-12 -79 -12 -202v-865q0 -77 -10 -151q-11 -80 -31 -139q-28 -82 -80 -134q-51 -51 -162 -108q84 -46 123 -82q42 -39 78 -98q82 -127 82 -365v-835v-91q0 -44 4 -69t4 -49q7 -40 29 -86q21 -45 45 -66q15 -11 47 -27q25 -13 59 -18q26 -8 51 -8h84h41v-291h-123z" />
<glyph unicode="|" horiz-adv-x="831" d="M250 0v3072h332v-3072h-332z" />
<glyph unicode="}" horiz-adv-x="1519" d="M1151 1130q-144 -38 -205 -131q-61 -94 -61 -278v-901q0 -337 -135 -484t-447 -147h-45q-30 0 -74 4v287h29h92q29 0 55 8q70 12 111 53q46 42 64 117q18 76 18 223v860q0 81 10 154q11 77 31 137q28 82 78 135q54 57 159 111q-78 43 -122 80q-41 35 -78 100 q-78 128 -78 365v831q0 9 -2 37t-2 53q-4 40 -4 72q0 28 -4 47q-7 43 -29 88q-21 44 -41 64q-20 15 -51 28q-38 15 -60 21q-21 5 -49 6q-38 2 -90 2h-37v287q51 4 80 4h43q317 0 447 -156q131 -157 131 -524v-852q0 -198 61 -293q62 -97 205 -137v-271z" />
<glyph unicode="~" horiz-adv-x="3043" d="M2630 3232l-43 -90q-15 -31 -37 -66q-15 -23 -37 -53q-13 -18 -43 -53q-97 -122 -227 -189q-133 -69 -277 -69q-26 0 -76 8q-53 9 -100 22q-61 17 -109 33q-54 17 -100 39l-258 119q-95 45 -168 63q-78 19 -131 19q-123 0 -217 -76t-193 -256l-200 127l51 100 q17 33 47 80q106 183 236 268q129 84 301 84q96 0 208 -34q110 -33 304 -121l129 -58l96 -41q114 -45 221 -45q67 0 119 15q56 16 102 51q52 40 96 96q55 71 101 146z" />
<glyph unicode="&#xa1;" horiz-adv-x="1073" d="M705 2060v-2060h-336v2060h336zM766 2888q0 -94 -68 -160t-161 -66q-94 0 -160 68t-66 162t66 160q65 65 160 65q93 0 161 -68t68 -161z" />
<glyph unicode="&#xa2;" horiz-adv-x="2613" d="M1577 2568q228 -12 487 -176v-434q-167 184 -315 262q-65 24 -152 45q-13 0 -20 4v-1405q282 57 500 328v-430q-255 -181 -467 -193q-15 -4 -33 -4v-454h-266v458q-271 50 -439 168q-195 139 -307 353q-114 218 -114 471q0 395 249 680q144 156 328 241q99 45 279 78v434 h270v-426zM1307 872v1385q-227 -57 -357 -213q-164 -202 -164 -479q0 -278 164 -475q132 -161 357 -218z" />
<glyph unicode="&#xa3;" horiz-adv-x="2650" d="M2298 426q-51 -103 -88 -158q-32 -47 -88 -108q-197 -209 -459 -209q-95 0 -207 24q-98 21 -301 95q-81 31 -166 59q-77 26 -112 35q-41 11 -80 16q-31 4 -72 4q-131 0 -238 -86q-32 -27 -57 -59q-31 -38 -70 -96l-266 176q54 82 92 129q33 42 84 88q96 87 197 127 q105 42 221 49q71 114 100 197q31 88 31 188q0 53 -4 86q-6 46 -24 107h-517v262h402l-21 41l-110 221q-80 156 -109 219q-37 79 -59 149q-21 66 -27 127t-6 144q0 182 70 342q69 157 192 274t289 183q164 65 358 65q198 0 357 -63q158 -63 276 -185q116 -120 182 -289 q67 -169 74 -376l-336 -90q-7 131 -20 196q-12 63 -33 131q-53 160 -184 252t-312 92q-124 0 -225 -43q-103 -44 -178 -116q-74 -71 -119 -175q-43 -99 -43 -219q0 -66 17 -145q16 -74 45 -141q16 -38 34 -74l48 -98l51 -107q31 -60 51 -94l59 -107q26 -46 31 -61l10 -21 q12 -25 15 -32h577v-262h-487q19 -55 24 -99q4 -33 4 -82q0 -196 -135 -442l58 -21l116 -36q60 -19 97 -33q170 -59 219 -72q68 -18 125 -18q71 0 127 28q67 32 118 91q50 58 123 184z" />
<glyph unicode="&#xa5;" horiz-adv-x="2613" d="M1729 1765l-230 -401h885v-258h-914v-1106h-344v1106h-897v258h873l-230 401h-643v263h492l-602 1044h397l782 -1372l795 1372h401l-614 -1044h504v-263h-655z" />
<glyph unicode="&#xa6;" horiz-adv-x="999" d="M651 0h-344v1286h344v-1286zM651 1855h-344v1287h344v-1287z" />
<glyph unicode="&#xa7;" horiz-adv-x="4018" d="M1982 -98l-626 639l651 536h-1597v926h1597l-651 545l626 643l1627 -1626z" />
<glyph unicode="&#xa8;" horiz-adv-x="2080" d="M1495 2535q0 -93 -68 -161t-161 -68q-95 0 -164 66q-70 67 -70 159q0 98 68 166t166 68q93 0 161 -68t68 -162zM696 2535q0 -93 -69 -161q-70 -68 -164 -68q-95 0 -164 66q-70 67 -70 159q0 98 68 166t166 68q94 0 164 -68q69 -67 69 -162z" />
<glyph unicode="&#xa9;" horiz-adv-x="3502" d="M3330 1548q0 -330 -125 -624q-124 -291 -340 -510q-215 -218 -504 -342q-291 -125 -620 -125q-326 0 -617 125q-286 123 -503 340q-216 216 -340 506q-125 292 -125 618q0 321 125 612q125 290 335 506t496 344q284 127 604 127q336 0 631 -123q294 -122 512 -336 q217 -212 344 -501q127 -288 127 -617zM3072 1536q0 273 -104 514q-106 246 -283 424q-179 180 -416 287q-236 106 -508 106q-284 0 -528 -104q-245 -105 -428 -283q-182 -177 -287 -418q-104 -238 -104 -514q0 -280 104 -524q105 -245 283 -428q177 -181 420 -287 q239 -104 520 -104q277 0 518 104q246 106 424 287q180 183 285 424q104 239 104 516zM2433 807q-158 -120 -305 -176q-153 -58 -318 -58q-197 0 -370 76q-176 77 -305 205q-131 129 -207 301q-76 171 -76 365q0 193 76 364q76 172 205 301q128 128 303 205q173 76 366 76 q142 0 271 -41l102 -35q46 -17 78 -35q41 -23 78 -53l102 -82l16 -16v-394l-82 99q-73 85 -114 123q-85 82 -209 129t-242 47q-137 0 -262 -58q-123 -57 -217 -151q-93 -93 -149 -221q-56 -129 -56 -267t56 -262t149 -217t219 -149t264 -56q116 0 258 58q53 22 86 41 q35 20 70 45q33 24 68 59q23 23 79 84l82 94v-389z" />
<glyph unicode="&#xaa;" horiz-adv-x="1650" d="M123 1384v213h1323v-213h-1323zM1167 3060h222v-1151h-222v143q-168 -176 -401 -176q-247 0 -406 164q-172 175 -172 446q0 266 168 439q159 163 406 163q229 0 405 -176v148zM791 2900q-156 0 -267 -111q-114 -114 -114 -299q0 -197 118 -319q103 -103 258 -103 q168 0 275 111q119 119 119 303q0 192 -119 311q-107 107 -270 107z" />
<glyph unicode="&#xab;" horiz-adv-x="2260" d="M1516 135l-689 848l689 864l213 -168l-549 -696l549 -676zM827 135l-684 848l684 864l217 -168l-548 -696l548 -676z" />
<glyph unicode="&#xac;" horiz-adv-x="16277" d="M2941 2687l-33 -270q-4 -37 -16 -37q-16 0 -45 33q-123 147 -340 249q-291 144 -611 144q-495 0 -831 -336q-385 -385 -385 -1016q0 -589 352 -913q312 -279 828 -279q292 0 540 115q153 67 221 139q29 29 54 29t20 -33l-37 -299q0 -37 -12 -49q-23 -27 -135 -78 q-341 -143 -696 -143q-665 0 -1074 405q-413 417 -413 1118q0 741 467 1213q442 446 1101 446q504 0 922 -286q123 -85 123 -144v-8zM3592 856l-418 -815q-29 -41 -73 -41h-275q-33 0 -33 24q0 9 5 21l1642 3129q16 32 29 37q21 0 28 -28l914 -3126q4 -15 4 -24 q0 -33 -45 -33h-246q-45 0 -61 49l-222 807h-1249zM8036 680l287 2335q5 37 16 49q8 8 46 8h237q45 0 45 -37l-4 -4l-373 -3072q-7 -61 -28 -61q-18 0 -41 32l-1880 2450l-291 -2310q-8 -70 -62 -70h-233q-41 0 -41 41v4l377 3064q5 45 37 45h12q2 -2 12 -8zM11919 315h889 q45 0 45 -41v-4l-33 -217q-8 -53 -61 -53h-1167q-41 0 -41 45v8l364 2962q7 57 62 57h225q41 0 41 -41v-8zM9404 856l-417 -815q-21 -41 -74 -41h-270q-37 0 -37 29q0 9 4 16l1650 3142q12 24 21 24q22 0 29 -28l913 -3126q21 -57 -41 -57h-246q-45 0 -57 49l-225 807h-1250 zM14275 3117h241q41 0 41 -37v-1265q0 -54 58 -54h1294q41 0 41 -37v-258q0 -32 -33 -32h-1319q-41 0 -41 -37v-1360q0 -37 -33 -37h-262q-32 0 -32 37v1356q0 41 -41 41h-1328q-28 0 -28 45v245q0 37 41 37h1315q41 0 41 41v1278q0 37 45 37zM3756 1171h987l-348 1258z M9568 1171h996l-349 1258z" />
<glyph unicode="&#xad;" horiz-adv-x="741" d="M0 741v263h741v-263h-741z" />
<glyph unicode="&#xae;" horiz-adv-x="3502" d="M3330 1548q0 -330 -125 -624q-124 -291 -340 -510q-215 -218 -504 -342q-291 -125 -620 -125q-326 0 -617 125q-286 123 -503 340q-216 216 -340 506q-125 292 -125 618q0 321 125 612q125 290 335 506t496 344q284 127 604 127q336 0 631 -123q294 -122 512 -336 q217 -212 344 -501q127 -288 127 -617zM3072 1536q0 273 -104 514q-106 246 -283 424q-179 180 -416 287q-236 106 -508 106q-284 0 -528 -104q-245 -105 -428 -283q-182 -177 -287 -418q-104 -238 -104 -514q0 -280 104 -524q105 -245 283 -428q177 -181 420 -287 q239 -104 520 -104q277 0 518 104q246 106 424 287q180 183 285 424q104 239 104 516zM2077 598l-471 696l-4 -696h-263v1843h316q295 0 450 -133q156 -134 156 -391q0 -209 -111 -340q-112 -131 -311 -164l561 -815h-323zM1995 1921q0 140 -80 203q-79 63 -252 63h-61v-536 h86q307 0 307 270z" />
<glyph unicode="&#xaf;" horiz-adv-x="2154" d="M238 2367v275h1392v-275h-1392z" />
<glyph unicode="&#xb0;" horiz-adv-x="2764" d="M1999 2503q0 -129 -49 -240q-50 -114 -131 -195t-195 -131q-111 -49 -240 -49q-128 0 -239 49q-114 50 -195 131t-131 195q-49 111 -49 240q0 125 47 237q46 110 131 195q83 83 195 133q110 49 233 49q130 0 244 -47q112 -46 197 -131q83 -83 133 -197q49 -111 49 -239z M1753 2503q0 76 -29 145q-29 68 -79 117q-51 49 -117 78q-65 28 -139 28q-80 0 -146 -28q-68 -29 -119 -78q-52 -50 -80 -117q-28 -66 -28 -145q0 -153 106 -260q107 -109 262 -109q152 0 261 109q108 108 108 260z" />
<glyph unicode="&#xb1;" horiz-adv-x="2613" d="M221 1425v283h946v930h279v-930h946v-283h-946v-897h-279v897h-946zM221 0v283h2171v-283h-2171z" />
<glyph unicode="&#xb2;" horiz-adv-x="1294" d="M487 1876h582v-143h-893l504 581l29 41l114 144q95 136 95 229q0 106 -78 184q-82 82 -197 82q-109 0 -192 -69q-74 -66 -86 -213h-156q8 87 24 139q45 126 140 196q115 86 266 86q189 0 311 -122q119 -114 119 -283q0 -143 -111 -299q-74 -107 -184 -229z" />
<glyph unicode="&#xb3;" horiz-adv-x="1241" d="M590 2388v135q274 12 274 238q0 99 -65 164q-69 69 -176 69q-135 0 -197 -102q-16 -28 -33 -119h-151q17 124 53 184q107 176 328 176q176 0 286 -110q107 -102 107 -258q0 -200 -176 -307q196 -102 196 -336q0 -172 -114 -291q-124 -119 -312 -119q-229 0 -352 168 q-54 75 -61 209h151q7 -76 37 -123q29 -45 94 -78q65 -37 135 -37q111 0 189 78q82 82 82 201q0 175 -160 237q-41 21 -135 21z" />
<glyph unicode="&#xb4;" horiz-adv-x="1794" d="M1016 2290l-205 110l483 668l344 -152z" />
<glyph unicode="&#xb5;" horiz-adv-x="4108" d="M2036 0l-1626 1626l643 631l544 -655v1597h926v-1597l537 655l639 -631z" />
<glyph unicode="&#xb6;" horiz-adv-x="4022" d="M2011 1077l655 -536l-626 -639l-1630 1663l1630 1626l626 -643l-655 -545h1602v-926h-1602z" />
<glyph unicode="&#xb7;" horiz-adv-x="20647" d="M328 -1032v5026h19992v-5026h-19992zM19411 2097q0 53 -45 53h-1028q-41 0 -41 58v946q0 41 -53 41h-836q-41 0 -41 -41v-946q0 -58 -49 -58h-1098q-45 0 -45 -45v-839q0 -54 49 -54h1090q53 0 53 -61v-1102q0 -49 45 -49h840q45 0 45 57v1102q0 33 10 43t43 10h1016 q45 0 45 50v835zM16146 651q0 41 -41 41h-823q-49 0 -49 45v8l307 2274v16q0 37 -41 37h-774q-41 0 -53 -66l-426 -2953v-20q0 -33 37 -33h1720q58 0 62 49l81 586v16zM13906 25q0 30 -4 41l-619 2945q-7 40 -20 51q-11 10 -53 10h-902q-41 0 -57 -10q-17 -11 -33 -43 l-1450 -2962q-12 -24 -12 -37q0 -20 33 -20h786q62 0 86 45l221 430q17 33 31 39q15 6 56 6h946q49 0 63 -10q16 -11 23 -55l78 -398q12 -57 77 -57h701q49 0 49 25zM10809 3027q0 45 -53 45h-725q-44 0 -59 -12q-16 -13 -23 -49l-221 -1590q-7 -61 -20 -61t-37 45 l-918 1610q-22 42 -37 49q-18 8 -61 8h-778q-61 0 -66 -53l-401 -2962v-16q0 -29 12 -35t57 -6h684q61 0 66 57l246 1753q8 54 12 54t33 -41l1003 -1766q33 -57 99 -57h700q74 0 78 49l409 2966v12zM7021 53l-611 2953q-16 66 -69 66h-947q-45 0 -59 -10t-35 -47 l-1458 -2949q-8 -26 -8 -37q0 -29 33 -29h794q75 0 99 49l204 422q17 34 33 41q18 8 49 8h1000q57 0 65 -53l107 -426q12 -41 57 -41h709q37 0 37 37v16zM4059 2839q0 23 -8 34q-7 10 -29 27q-204 133 -479 205q-277 73 -561 73q-389 0 -711 -126q-326 -128 -561 -355 q-237 -229 -369 -540q-133 -312 -133 -687q0 -361 121 -655q121 -295 340 -506q217 -209 526 -327q307 -117 680 -117q417 0 652 143q34 22 41 37q9 20 16 82l82 565q4 25 4 41v21q0 37 -12 37q-11 0 -37 -13l-41 -16q-44 -16 -49 -17q-154 -42 -312 -73q-150 -29 -266 -29 q-178 0 -332 64q-149 62 -262 178q-110 113 -172 272q-61 156 -61 342q0 201 69 369q68 166 197 286t303 187t389 67q181 0 373 -51q191 -51 332 -137q51 -33 78 -47q20 -10 32 -10q21 0 27 12t18 78l103 512q9 42 10 47q2 20 2 27zM12841 1237q0 -29 -45 -29h-553 q-53 0 -53 25q0 11 8 37l401 905q16 37 25 37t16 -37l197 -897q0 -5 2 -21t2 -20zM5951 1225q0 -17 -40 -17h-594q-29 0 -29 13l8 24l397 901q12 29 21 29q12 0 20 -41l209 -872q8 -35 8 -37z" />
<glyph unicode="&#xb8;" horiz-adv-x="2154" d="M1085 -954l-229 114l389 602l303 -122z" />
<glyph unicode="&#xb9;" horiz-adv-x="622" d="M287 2994h-148v144h303v-1381h-155v1237z" />
<glyph unicode="&#xba;" horiz-adv-x="1650" d="M827 3088q275 0 459 -188q176 -168 176 -422q0 -246 -172 -418q-188 -184 -467 -184q-270 0 -458 184q-172 172 -172 414q0 254 176 430q180 184 458 184zM164 1380v217h1323v-217h-1323zM823 2900q-177 0 -291 -119q-118 -114 -118 -295q0 -185 118 -303 q115 -115 291 -115q185 0 299 119q119 114 119 295q0 180 -119 299q-114 119 -299 119z" />
<glyph unicode="&#xbb;" horiz-adv-x="2260" d="M991 135l-213 172l549 676l-549 696l213 168l688 -864zM307 135l-213 172l545 676l-545 696l213 168l688 -864z" />
<glyph unicode="&#xbc;" horiz-adv-x="1757" d="M606 1757h-155v1237h-148v148h303v-1385zM1511 242h-172v-234h-147v234h-709l856 1228v-1093h172v-135zM1192 377v639l-447 -639h447zM-12 -115l-176 107l1851 3154l180 -99z" />
<glyph unicode="&#xbd;" horiz-adv-x="1757" d="M606 1757h-155v1237h-148v148h303v-1385zM-12 -115l-176 107l1851 3154l180 -99zM1176 143h581v-143h-893l504 582l33 36l115 148q90 135 90 229q0 107 -78 185q-78 82 -197 82q-104 0 -188 -70q-78 -69 -90 -213h-156q7 80 29 139q41 128 135 197q115 86 266 86 q187 0 315 -123q115 -120 115 -283q0 -144 -110 -299q-69 -96 -185 -229z" />
<glyph unicode="&#xbe;" horiz-adv-x="2023" d="M1815 258h-168v-233h-148v233h-713l861 1229v-1094h168v-135zM1499 393v639l-450 -639h450zM295 -98l-180 106l1851 3154l180 -98zM590 2388v135q274 12 274 238q0 99 -65 164q-66 69 -172 69q-139 0 -201 -102q-12 -28 -33 -119h-151q21 125 53 184q107 176 328 176 q177 0 290 -110q103 -103 103 -258q0 -200 -176 -307q196 -102 196 -336q0 -172 -114 -291q-124 -119 -312 -119q-229 0 -352 168q-49 73 -61 209h151q7 -76 37 -123q29 -41 94 -78t135 -37q111 0 189 78q82 82 82 201q0 171 -160 237q-41 21 -135 21z" />
<glyph unicode="&#xbf;" horiz-adv-x="2314" d="M1032 2150q0 -94 -65 -159q-66 -66 -156 -66q-98 0 -166 68q-67 67 -67 161q0 95 67 162q68 68 162 68t160 -68q65 -66 65 -166zM1540 -86q0 -149 -55 -272q-57 -127 -154 -217q-102 -95 -233 -144q-135 -51 -295 -51q-157 0 -289 55t-231 154t-154 231t-55 289 q0 180 78 342t208 244q43 27 82 47q48 24 123 47l78 25v548h332v-786q-74 0 -133 -8q-54 -7 -101 -23q-49 -16 -86 -41q-44 -29 -90 -67q-11 -11 -12 -11q-3 -1 -8 -6l-4 -4q-70 -70 -103 -137q-32 -65 -32 -170q0 -185 114 -299q115 -115 299 -115q173 0 287 111 q115 112 115 283q0 33 -7 79q-7 48 -22 113h332l8 -61q8 -40 8 -72v-84z" />
<glyph unicode="&#xc0;" horiz-adv-x="2859" d="M811 3899l344 152l483 -668l-204 -110zM2449 0l-360 868h-1315l-368 -868h-373l1413 3219l1380 -3219h-377zM1442 2421l-529 -1233h1041z" />
<glyph unicode="&#xc1;" horiz-adv-x="2859" d="M2449 0l-360 868h-1315l-368 -868h-373l1413 3219l1380 -3219h-377zM1442 2421l-529 -1233h1041zM1425 3273l-204 110l483 668l344 -152z" />
<glyph unicode="&#xc2;" horiz-adv-x="2859" d="M2449 0l-360 868h-1315l-368 -868h-373l1413 3219l1380 -3219h-377zM1442 2421l-529 -1233h1041zM1831 3248l-401 348l-406 -348l-229 180l635 545l638 -545z" />
<glyph unicode="&#xc3;" horiz-adv-x="2859" d="M2146 3760q-147 -332 -438 -332q-35 0 -59 4q-9 2 -62 13q-33 7 -80 26q-32 13 -114 52q-197 90 -279 90q-61 0 -104 -43q-42 -42 -92 -150l-205 168l45 74q21 37 30 49l27 37q11 15 33 37q52 61 131 96t160 35q69 0 143 -21q76 -22 180 -73q68 -36 103 -52 q43 -19 69 -26q4 -1 22.5 -6t26.5 -7q19 -4 41 -4q66 0 115 45q50 45 107 152zM2449 0l-360 868h-1315l-368 -868h-373l1413 3219l1380 -3219h-377zM1442 2421l-529 -1233h1041z" />
<glyph unicode="&#xc4;" horiz-adv-x="2859" d="M2130 3617q0 -98 -68 -168t-166 -70q-93 0 -163 70t-70 164q0 98 68 168q67 69 165 69t166 -69q68 -70 68 -164zM1257 3617q0 -99 -69 -168q-70 -70 -168 -70q-94 0 -164 70t-70 164q0 98 68 168q68 69 166 69q99 0 168 -69t69 -164zM2449 0l-360 868h-1315l-368 -868 h-373l1413 3219l1380 -3219h-377zM1442 2421l-529 -1233h1041z" />
<glyph unicode="&#xc5;" horiz-adv-x="2859" d="M1851 3650q0 -169 -116 -285q-117 -117 -285 -117q-80 0 -154 31q-70 29 -127 86q-55 55 -88 127q-32 70 -32 153q0 172 114 289t287 117q168 0 285 -117q116 -116 116 -284zM2449 0l-360 868h-1315l-368 -868h-373l1413 3219l1380 -3219h-377zM1642 3650q0 82 -55 137 t-137 55t-137 -55q-56 -56 -56 -133q0 -82 56 -140q55 -57 137 -57t137 55t55 138zM1442 2421l-529 -1233h1041z" />
<glyph unicode="&#xc6;" horiz-adv-x="4079" d="M2441 0l-360 860h-1307l-368 -860h-373l1364 3072h1347l135 -319h-1237l381 -918h1213l135 -319h-1208l495 -1197h1250l139 -319h-1606zM1434 2388l-512 -1212h1024z" />
<glyph unicode="&#xc7;" horiz-adv-x="2846" d="M2544 270q0 -21 -4 -26q-6 -8 -17 -15q-28 -22 -59 -41l-68 -41q-158 -84 -321 -135q-170 -54 -318 -61v-451h-393v480q-277 29 -518 167q-243 140 -424 349q-180 209 -287 475q-106 264 -106 557q0 332 127 622q127 291 346 508q219 218 514 342q297 125 626 125 q163 0 297 -28q132 -28 289 -99q48 -20 121 -55q64 -30 109 -59q55 -32 71 -54q15 -21 15 -73v-271v-37q0 -32 -21 -32q-9 0 -29 20q-66 78 -165 143q-97 63 -220 115q-120 50 -245 78q-130 29 -246 29q-257 0 -483 -101q-228 -102 -394 -274t-266 -408q-98 -232 -98 -495 q0 -261 98 -488q99 -230 268 -399q168 -168 396 -270q226 -101 483 -101q323 0 643 185l94 59q48 32 62 43q33 33 37 33q28 16 36 24l13 21q4 4 16 4q21 0 21 -29v-20v-25v-291z" />
<glyph unicode="&#xc8;" horiz-adv-x="2097" d="M324 0v3072h1589v-319h-1245v-914h1212v-319h-1212v-1201h1245v-319h-1589zM1257 3277l-622 626l340 152l487 -668z" />
<glyph unicode="&#xc9;" horiz-adv-x="2097" d="M324 0v3072h1589v-319h-1245v-914h1212v-319h-1212v-1201h1245v-319h-1589zM1004 3277l-205 110l483 668l344 -152z" />
<glyph unicode="&#xca;" horiz-adv-x="2097" d="M324 0v3072h1589v-319h-1245v-914h1212v-319h-1212v-1201h1245v-319h-1589zM1446 3260l-402 349l-405 -349l-229 181l634 544l639 -544z" />
<glyph unicode="&#xcb;" horiz-adv-x="2097" d="M324 0v3072h1589v-319h-1245v-914h1212v-319h-1212v-1201h1245v-319h-1589zM1720 3604q0 -94 -67 -161q-68 -68 -162 -68q-95 0 -164 66q-70 67 -70 159q0 98 68 166t166 68q94 0 162 -68q67 -67 67 -162zM922 3604q0 -93 -70 -161t-164 -68q-95 0 -164 66t-69 159 q0 99 67 166q68 68 166 68q94 0 164 -68t70 -162z" />
<glyph unicode="&#xcc;" horiz-adv-x="991" d="M324 0v3072h344v-3072h-344zM541 3277l-623 626l340 152l487 -668z" />
<glyph unicode="&#xcd;" horiz-adv-x="991" d="M324 0v3072h344v-3072h-344zM451 3277l-205 110l483 668l344 -152z" />
<glyph unicode="&#xce;" horiz-adv-x="991" d="M324 0v3072h344v-3072h-344zM897 3240l-401 348l-406 -348l-229 180l635 545l639 -545z" />
<glyph unicode="&#xcf;" horiz-adv-x="991" d="M324 0v3072h344v-3072h-344zM1130 3600q0 -94 -67 -161q-68 -68 -162 -68q-95 0 -164 66t-69 159q0 99 67 166q68 68 166 68q94 0 162 -68q67 -67 67 -162zM332 3600q0 -93 -70 -161t-164 -68q-95 0 -164 66t-69 159q0 99 67 166q68 68 166 68q94 0 164 -68t70 -162z" />
<glyph unicode="&#xd0;" horiz-adv-x="2797" d="M668 1712h1257v-254h-1257v-1139h299q609 0 966 357q332 332 332 860q0 532 -328 860q-360 357 -970 357h-299v-1041zM-4 1458v254h328v1360h630q475 0 799 -147q393 -180 631 -558q229 -368 229 -831q0 -725 -545 -1180q-224 -188 -487 -274q-256 -82 -631 -82h-626 v1458h-328z" />
<glyph unicode="&#xd1;" horiz-adv-x="3383" d="M668 2367v-2367h-344v3199l2392 -2507v2380h344v-3211zM2400 3744q-147 -328 -430 -328q-36 0 -61 4q-30 5 -62 12q-25 6 -80 27q-44 17 -112 51q-111 47 -170 68q-62 22 -109 22q-60 0 -106 -41q-44 -40 -94 -147l-197 160q51 87 78 121l57 71q53 58 129 92 q78 35 158 35q72 0 141 -20q74 -21 178 -70q68 -34 109 -51q58 -24 69 -27l48 -12q19 -4 41 -4q65 0 114 43q51 45 107 149z" />
<glyph unicode="&#xd2;" horiz-adv-x="3567" d="M3383 1532q0 -329 -127 -614q-128 -288 -344 -504q-218 -218 -508 -342q-292 -125 -622 -125q-326 0 -617 125q-289 124 -508 336q-219 211 -346 493q-127 281 -127 602q0 334 125 631q124 294 340 516q214 220 506 348q290 127 619 127q330 0 624 -125 q293 -125 512 -342t346 -508q127 -290 127 -618zM3035 1532q0 264 -98 493q-100 234 -266 404t-398 272q-231 101 -487 101q-258 0 -486 -99t-399 -270t-270 -399t-99 -486q0 -263 97 -499q96 -233 266 -408q168 -173 395 -274q226 -101 484 -101q262 0 491 99 q230 99 401 270q172 172 271 403q98 229 98 494zM1991 3277l-623 626l340 152l487 -668z" />
<glyph unicode="&#xd3;" horiz-adv-x="3567" d="M3383 1532q0 -329 -127 -614q-128 -288 -344 -504q-218 -218 -508 -342q-292 -125 -622 -125q-326 0 -617 125q-289 124 -508 336q-219 211 -346 493q-127 281 -127 602q0 334 125 631q124 294 340 516q214 220 506 348q290 127 619 127q330 0 624 -125 q293 -125 512 -342t346 -508q127 -290 127 -618zM3035 1532q0 264 -98 493q-100 234 -266 404t-398 272q-231 101 -487 101q-258 0 -486 -99t-399 -270t-270 -399t-99 -486q0 -263 97 -499q96 -233 266 -408q168 -173 395 -274q226 -101 484 -101q262 0 491 99 q230 99 401 270q172 172 271 403q98 229 98 494zM1573 3277l-205 110l483 668l344 -152z" />
<glyph unicode="&#xd4;" horiz-adv-x="3567" d="M3383 1532q0 -329 -127 -614q-128 -288 -344 -504q-218 -218 -508 -342q-292 -125 -622 -125q-326 0 -617 125q-289 124 -508 336q-219 211 -346 493q-127 281 -127 602q0 334 125 631q124 294 340 516q214 220 506 348q290 127 619 127q330 0 624 -125 q293 -125 512 -342t346 -508q127 -290 127 -618zM3035 1532q0 264 -98 493q-100 234 -266 404t-398 272q-231 101 -487 101q-258 0 -486 -99t-399 -270t-270 -399t-99 -486q0 -263 97 -499q96 -233 266 -408q168 -173 395 -274q226 -101 484 -101q262 0 491 99 q230 99 401 270q172 172 271 403q98 229 98 494zM2183 3248l-401 348l-406 -348l-229 180l635 545l639 -545z" />
<glyph unicode="&#xd5;" horiz-adv-x="3567" d="M3383 1532q0 -329 -127 -614q-128 -288 -344 -504q-218 -218 -508 -342q-292 -125 -622 -125q-326 0 -617 125q-289 124 -508 336q-219 211 -346 493q-127 281 -127 602q0 334 125 631q124 294 340 516q214 220 506 348q290 127 619 127q330 0 624 -125 q293 -125 512 -342t346 -508q127 -290 127 -618zM3035 1532q0 264 -98 493q-100 234 -266 404t-398 272q-231 101 -487 101q-258 0 -486 -99t-399 -270t-270 -399t-99 -486q0 -263 97 -499q96 -233 266 -408q168 -173 395 -274q226 -101 484 -101q262 0 491 99 q230 99 401 270q172 172 271 403q98 229 98 494zM2494 3744q-147 -328 -430 -328q-36 0 -61 4q-27 4 -61 12q-25 6 -80 27q-49 19 -113 51q-111 47 -170 68q-62 22 -109 22q-60 0 -106 -41q-44 -40 -94 -147l-197 160q51 87 78 121l57 71q53 58 129 92q78 35 158 35 q72 0 141 -20q76 -22 179 -70q73 -37 108 -51q56 -23 70 -27q30 -8 47 -12q19 -4 41 -4q65 0 114 43q51 45 107 149z" />
<glyph unicode="&#xd6;" horiz-adv-x="3567" d="M3383 1532q0 -329 -127 -614q-128 -288 -344 -504q-218 -218 -508 -342q-292 -125 -622 -125q-326 0 -617 125q-289 124 -508 336q-219 211 -346 493q-127 281 -127 602q0 334 125 631q124 294 340 516q214 220 506 348q290 127 619 127q330 0 624 -125 q293 -125 512 -342t346 -508q127 -290 127 -618zM3035 1532q0 264 -98 493q-100 234 -266 404t-398 272q-231 101 -487 101q-258 0 -486 -99t-399 -270t-270 -399t-99 -486q0 -263 97 -499q96 -233 266 -408q168 -173 395 -274q226 -101 484 -101q262 0 491 99 q230 99 401 270q172 172 271 403q98 229 98 494zM2417 3609q0 -94 -68 -162t-162 -68q-95 0 -164 66t-69 159q0 99 67 166q68 68 166 68q94 0 162 -68t68 -161zM1618 3609q0 -94 -70 -162t-164 -68t-163 66q-70 67 -70 159q0 98 68 166t165 68q94 0 164 -68t70 -161z" />
<glyph unicode="&#xd7;" horiz-adv-x="0" />
<glyph unicode="&#xd8;" horiz-adv-x="2670" d="M643 2753v-914h1020v-319h-1020v-1520h-344v3072h1397v-319h-1053zM1876 180q0 -94 -66 -160q-65 -65 -159 -65q-96 0 -162 65q-68 66 -68 160t66 162t160 68q97 0 163 -66t66 -164z" />
<glyph unicode="&#xd9;" horiz-adv-x="2830" d="M2511 1098q0 -254 -45 -420q-44 -164 -156 -309q-152 -198 -389 -310q-236 -112 -504 -112t-504 112q-237 112 -389 310q-110 138 -155 307q-45 168 -45 422v1974h344v-1884q0 -132 4 -211q5 -92 16 -156t31 -121q18 -52 51 -102q90 -143 270 -238q179 -94 377 -94 t377 94q180 95 270 238q30 52 50 102q19 47 32 121q13 71 17 156q4 79 4 211v1884h344v-1974zM1458 3277l-622 626l340 152l487 -668z" />
<glyph unicode="&#xda;" horiz-adv-x="2830" d="M2511 1098q0 -254 -45 -420q-44 -164 -156 -309q-152 -198 -389 -310q-236 -112 -504 -112t-504 112q-237 112 -389 310q-110 138 -155 307q-45 168 -45 422v1974h344v-1884q0 -132 4 -211q5 -92 16 -156t31 -121q18 -52 51 -102q90 -143 270 -238q179 -94 377 -94 t377 94q180 95 270 238q30 52 50 102q19 47 32 121q13 71 17 156q4 79 4 211v1884h344v-1974zM1409 3273l-205 110l484 668l344 -152z" />
<glyph unicode="&#xdb;" horiz-adv-x="2830" d="M2511 1098q0 -254 -45 -420q-44 -164 -156 -309q-152 -198 -389 -310q-236 -112 -504 -112t-504 112q-237 112 -389 310q-110 138 -155 307q-45 168 -45 422v1974h344v-1884q0 -132 4 -211q5 -92 16 -156t31 -121q18 -52 51 -102q90 -143 270 -238q179 -94 377 -94 t377 94q180 95 270 238q30 52 50 102q19 47 32 121q13 71 17 156q4 79 4 211v1884h344v-1974zM1815 3252l-402 348l-405 -348l-230 180l635 545l639 -545z" />
<glyph unicode="&#xdc;" horiz-adv-x="2830" d="M2511 1098q0 -254 -45 -420q-44 -164 -156 -309q-152 -198 -389 -310q-236 -112 -504 -112t-504 112q-237 112 -389 310q-110 138 -155 307q-45 168 -45 422v1974h344v-1884q0 -132 4 -211q5 -92 16 -156t31 -121q18 -52 51 -102q90 -143 270 -238q179 -94 377 -94 t377 94q180 95 270 238q30 52 50 102q19 47 32 121q13 71 17 156q4 79 4 211v1884h344v-1974zM2048 3609q0 -94 -68 -162t-161 -68q-95 0 -164 66q-70 67 -70 159q0 98 68 166t166 68q93 0 161 -68t68 -161zM1249 3609q0 -95 -69 -162q-70 -68 -164 -68q-95 0 -164 66 q-70 67 -70 159q0 98 68 166t166 68q94 0 164 -68q69 -68 69 -161z" />
<glyph unicode="&#xdd;" horiz-adv-x="16277" d="M2941 2687l-33 -270q-4 -37 -16 -37q-16 0 -45 33q-123 147 -340 249q-291 144 -611 144q-495 0 -831 -336q-385 -385 -385 -1016q0 -589 352 -913q312 -279 828 -279q292 0 540 115q153 67 221 139q29 29 54 29t20 -33l-37 -299q0 -37 -12 -49q-23 -27 -135 -78 q-341 -143 -696 -143q-665 0 -1074 405q-413 417 -413 1118q0 741 467 1213q442 446 1101 446q504 0 922 -286q123 -85 123 -144v-8zM3592 856l-418 -815q-29 -41 -73 -41h-275q-33 0 -33 24q0 9 5 21l1642 3129q16 32 29 37q21 0 28 -28l914 -3126q4 -15 4 -24 q0 -33 -45 -33h-246q-45 0 -61 49l-222 807h-1249zM8036 680l287 2335q5 37 16 49q8 8 46 8h237q45 0 45 -37l-4 -4l-373 -3072q-7 -61 -28 -61q-18 0 -41 32l-1880 2450l-291 -2310q-8 -70 -62 -70h-233q-41 0 -41 41v4l377 3064q5 45 37 45h12q2 -2 12 -8zM11919 315h889 q45 0 45 -41v-4l-33 -217q-8 -53 -61 -53h-1167q-41 0 -41 45v8l364 2962q7 57 62 57h225q41 0 41 -41v-8zM9404 856l-417 -815q-21 -41 -74 -41h-270q-37 0 -37 29q0 9 4 16l1650 3142q12 24 21 24q22 0 29 -28l913 -3126q21 -57 -41 -57h-246q-45 0 -57 49l-225 807h-1250 zM14275 3117h241q41 0 41 -37v-1265q0 -54 58 -54h1294q41 0 41 -37v-258q0 -32 -33 -32h-1319q-41 0 -41 -37v-1360q0 -37 -33 -37h-262q-32 0 -32 37v1356q0 41 -41 41h-1328q-28 0 -28 45v245q0 37 41 37h1315q41 0 41 41v1278q0 37 45 37zM3756 1171h987l-348 1258z M9568 1171h996l-349 1258z" />
<glyph unicode="&#xde;" horiz-adv-x="20647" d="M328 -1032v5026h19992v-5026h-19992zM7021 53l-611 2953q-12 66 -69 66h-947q-40 0 -53 -8q-19 -7 -41 -49l-1458 -2949l-4 -13v-8q-12 -45 29 -45h794q75 0 99 49l204 422q24 44 82 49h1000q61 -4 65 -53l107 -426q12 -41 57 -41h709q37 0 37 37v16zM7410 57v-16 q0 -25 8 -33t61 -8h684q59 0 66 57l246 1753q5 32 8 37v8l4 9l4 -4l8 -9l1049 -1826q22 -25 74 -25h700q74 0 78 49l409 2966v12q0 45 -53 45h-725q-49 0 -61 -12q-17 -12 -21 -49l-221 -1590q-7 -61 -20 -61q-9 0 -975 1687q-22 25 -78 25h-778q-58 0 -66 -53zM10789 0h786 q65 0 86 45l221 430q16 29 25 37q10 3 62 8h946q48 -4 65 -12q14 -8 21 -53l78 -398q7 -57 77 -57h701q27 0 39 4t10 12v25q0 10 -4 25l-619 2945q-7 40 -16 45q-16 16 -57 16h-902q-35 0 -53 -8q-16 -7 -37 -45l-1450 -2962q-28 -57 21 -57zM15540 3019v16q0 37 -41 37 h-774q-41 0 -49 -66l-426 -2953v-20q-4 -33 33 -33h1720q55 0 62 49l81 586v16q0 36 -41 41h-823q-49 0 -49 45v8zM18350 1212h1016q20 -2 31.5 10.5t13.5 39.5v835q-5 53 -45 53h-1028q-41 0 -41 58v946q-5 41 -53 41h-836q-46 0 -41 -41v-946q0 -58 -45 -58h-1102 q-45 -4 -45 -45v-839q0 -29 12 -42.5t37 -11.5h1090q53 0 53 -61v-1102q0 -49 45 -49h840q45 0 45 57v1102q0 33 12 41q7 12 41 12zM3531 745q-372 -102 -578 -102q-353 0 -586 229q-241 245 -241 627q0 388 254 639q266 270 704 270q267 0 525 -102q114 -45 204 -102 q62 -41 86 -41q17 0 25 8q1 3 20 82l103 512q0 13 4 20q4 15 4 29q4 19 4 25q0 36 -24 57q-152 108 -435 192q-308 90 -622 90q-531 0 -955 -245q-375 -220 -589 -590q-226 -390 -226 -877q0 -699 443 -1142q467 -459 1228 -459q436 0 660 151q33 21 45 111l82 565 q4 11 4 41q5 53 -12 58q-6 0 -37 -13q-21 -12 -29 -12q-33 -12 -41 -12q-13 -5 -20 -9zM5288 1221q0 4 4 8q0 9 4 16l397 901q7 15 21 29q15 -20 20 -41l209 -872q0 -6 4 -13q4 -11 4 -16q4 -12 -6 -18.5t-34 -6.5h-594q-29 0 -29 13zM12837 1278v-4v-17q4 -11 4 -16v-8 q0 -25 -45 -25h-553q-51 0 -51 29q0 5 2 12q0 10 4 21l401 905q17 29 25 37l4 -4l12 -33z" />
<glyph unicode="&#xdf;" horiz-adv-x="2596" d="M2413 1069q0 -229 -86 -428q-85 -197 -242 -348t-371 -242q-216 -92 -469 -104v319q189 12 342 78q154 66 264 172q110 105 170 250q60 144 60 315q0 205 -96 381t-256 271q-42 26 -101 53q-41 18 -100 37q-45 14 -121 26q-85 13 -162 23v295q129 7 199 26q66 18 133 68 q87 67 137 172q51 107 51 225q0 201 -129 330t-333 129q-139 0 -252 -63t-158 -166q-31 -70 -47 -183q-15 -108 -15 -305v-2400h-327v1610h-180v303h180v639q0 384 176 598q101 118 270 190q168 72 361 72q171 0 315 -57q141 -56 250 -160q105 -101 166 -244 q59 -139 59 -305q0 -198 -88 -350q-90 -155 -256 -244q306 -113 481 -379t175 -604z" />
<glyph unicode="&#xe0;" d="M1118 2253l-622 618l340 152l487 -656zM1753 0v262q-145 -170 -299 -242q-155 -73 -364 -73q-202 0 -369 76q-171 78 -291 208q-123 133 -192 318q-70 187 -70 401q0 211 68 391q68 181 190 310q123 131 291 204q169 74 368 74q208 0 367 -74q157 -73 301 -237v266h328 v-1884h-328zM1774 946q0 148 -48 281q-46 128 -131 219q-84 90 -202 141q-119 51 -258 51q-136 0 -250 -51q-115 -51 -199 -143q-82 -90 -133 -217q-49 -123 -49 -273q0 -154 47 -286t131 -228t199 -149t254 -53t258 51q118 51 202 145q85 95 131 225q48 135 48 287z" />
<glyph unicode="&#xe1;" d="M1192 2253l-205 114l488 656l340 -152zM1753 0v262q-145 -170 -299 -242q-155 -73 -364 -73q-202 0 -369 76q-171 78 -291 208q-123 133 -192 318q-70 187 -70 401q0 211 68 391q68 181 190 310q123 131 291 204q169 74 368 74q208 0 367 -74q157 -73 301 -237v266h328 v-1884h-328zM1774 946q0 148 -48 281q-46 128 -131 219q-84 90 -202 141q-119 51 -258 51q-136 0 -250 -51q-115 -51 -199 -143q-82 -90 -133 -217q-49 -123 -49 -273q0 -154 47 -286t131 -228t199 -149t254 -53t258 51q118 51 202 145q85 95 131 225q48 135 48 287z" />
<glyph unicode="&#xe2;" d="M1528 2253l-406 344l-405 -344l-230 180l635 537l639 -537zM1753 0v262q-145 -170 -299 -242q-155 -73 -364 -73q-202 0 -369 76q-171 78 -291 208q-123 133 -192 318q-70 187 -70 401q0 211 68 391q68 181 190 310q123 131 291 204q169 74 368 74q208 0 367 -74 q157 -73 301 -237v266h328v-1884h-328zM1774 946q0 148 -48 281q-46 128 -131 219q-84 90 -202 141q-119 51 -258 51q-136 0 -250 -51q-115 -51 -199 -143q-82 -90 -133 -217q-49 -123 -49 -273q0 -154 47 -286t131 -228t199 -149t254 -53t258 51q118 51 202 145 q85 95 131 225q48 135 48 287z" />
<glyph unicode="&#xe3;" d="M1835 2580q-144 -319 -430 -319q-37 0 -62 4q-27 4 -61 12q-25 6 -80 27q-44 17 -112 51q-105 44 -170 66q-60 20 -109 20q-60 0 -106 -41t-95 -147l-196 160q48 83 78 120l57 68q53 58 129 92q78 35 158 35q69 0 141 -21q79 -23 178 -69q63 -32 109 -49l40 -16t29 -11 q27 -11 47 -12q28 -2 41 -2q65 0 115 41q49 40 106 147zM1753 0v262q-145 -170 -299 -242q-155 -73 -364 -73q-202 0 -369 76q-171 78 -291 208q-123 133 -192 318q-70 187 -70 401q0 211 68 391q68 181 190 310q123 131 291 204q169 74 368 74q208 0 367 -74 q157 -73 301 -237v266h328v-1884h-328zM1774 946q0 148 -48 281q-46 128 -131 219q-84 90 -202 141q-119 51 -258 51q-136 0 -250 -51q-115 -51 -199 -143q-82 -90 -133 -217q-49 -123 -49 -273q0 -154 47 -286t131 -228t199 -149t254 -53t258 51q118 51 202 145 q85 95 131 225q48 135 48 287z" />
<glyph unicode="&#xe4;" d="M1790 2499q0 -94 -70 -162t-164 -68t-163 66q-70 67 -70 159q0 94 68 162t165 68q95 0 164 -66q70 -67 70 -159zM987 2499q0 -95 -69 -162q-70 -68 -164 -68t-162 66t-68 159q0 94 68 162t162 68q95 0 164 -66t69 -159zM1753 0v262q-145 -170 -299 -242 q-155 -73 -364 -73q-202 0 -369 76q-171 78 -291 208q-123 133 -192 318q-70 187 -70 401q0 211 68 391q68 181 190 310q123 131 291 204q169 74 368 74q208 0 367 -74q157 -73 301 -237v266h328v-1884h-328zM1774 946q0 148 -48 281q-46 128 -131 219q-84 90 -202 141 q-119 51 -258 51q-136 0 -250 -51q-115 -51 -199 -143q-82 -90 -133 -217q-49 -123 -49 -273q0 -154 47 -286t131 -228t199 -149t254 -53t258 51q118 51 202 145q85 95 131 225q48 135 48 287z" />
<glyph unicode="&#xe5;" d="M1520 2646q0 -164 -115 -279q-114 -114 -283 -114q-80 0 -151 31q-69 30 -125 83q-55 52 -86 123t-31 152q0 163 115 278t282 115q80 0 154 -31q70 -29 125 -84t84 -124q31 -74 31 -150zM1753 0v262q-145 -170 -299 -242q-155 -73 -364 -73q-202 0 -369 76 q-171 78 -291 208q-123 133 -192 318q-70 187 -70 401q0 211 68 391q68 181 190 310q123 131 291 204q169 74 368 74q208 0 367 -74q157 -73 301 -237v266h328v-1884h-328zM1319 2646q0 82 -57 135q-58 53 -140 53q-77 0 -135 -53q-57 -53 -57 -131q0 -82 57 -137 q56 -55 139 -55t138 55t55 133zM1774 946q0 148 -48 281q-46 128 -131 219q-84 90 -202 141q-119 51 -258 51q-136 0 -250 -51q-115 -51 -199 -143q-82 -90 -133 -217q-49 -123 -49 -273q0 -154 47 -286t131 -228t199 -149t254 -53t258 51q118 51 202 145q85 95 131 225 q48 135 48 287z" />
<glyph unicode="&#xe6;" horiz-adv-x="3592" d="M1847 872q21 -285 185 -460q164 -174 422 -174q116 0 223 43q111 45 194 125q45 45 78 90q35 47 90 139l283 -160q-172 -279 -379 -403q-208 -125 -489 -125q-238 0 -429 96q-188 95 -317 281q-128 -206 -295 -291q-169 -86 -426 -86q-186 0 -336 43q-151 44 -258 123 q-106 79 -166 192q-59 111 -59 248q0 140 57 254q58 116 162 199q105 84 250 129t321 45q167 0 287 -35q116 -34 262 -125q-5 320 -133 469t-407 149q-136 0 -265 -24q-128 -24 -325 -90v303l192 49q83 21 150 33q62 11 131 16q56 4 133 4q256 0 440 -98q187 -100 269 -283 q112 181 307 281q196 100 434 100q211 0 377 -71q170 -73 287 -205q119 -134 182 -320t63 -420v-41h-1495zM2994 1151q-45 229 -192 358t-369 129q-149 0 -272 -65q-126 -67 -199 -184q-31 -50 -51 -99q-18 -46 -39 -139h1122zM1491 578q0 136 -139 221q-140 86 -361 86 t-360 -88t-139 -232q0 -147 133 -237t354 -90q226 0 369 94t143 246z" />
<glyph unicode="&#xe7;" horiz-adv-x="2060" d="M1794 143q-88 -61 -129 -82q-55 -28 -104 -49q-73 -33 -119 -45q-48 -13 -123 -20v-160h-336v184q-121 21 -180 43q-56 21 -135 64q-234 130 -367 358q-133 227 -133 498q0 208 78 391q77 181 217 315q139 133 323 211t402 78q141 0 274 -37q45 -11 86 -24q38 -12 72 -27 q40 -17 74 -37q41 -24 88 -55v-426q-74 78 -135 135q-95 83 -215 129q-123 47 -252 47q-143 0 -269 -53q-125 -53 -215 -147t-141 -222t-51 -274q0 -152 51 -279t139 -221q89 -95 211 -147q124 -53 266 -53q157 0 291 61q50 23 84 43q35 20 76 53q30 24 78 72q47 47 94 102 v-426z" />
<glyph unicode="&#xe8;" horiz-adv-x="2174" d="M1081 2253l-622 618l340 152l487 -656zM516 872q12 -287 178 -460q166 -174 428 -174q118 0 224 41q102 39 186 114q31 31 43 45l39 47q16 20 43 62l55 84l275 -152q-64 -110 -115 -178q-43 -58 -119 -121q-264 -233 -643 -233q-211 0 -383 71q-173 72 -297 203 q-123 130 -192 311q-70 183 -70 402t68 403q68 185 190 314q123 130 293 204q171 74 375 74q206 0 372 -71q167 -72 289 -201q120 -128 187 -314q65 -182 65 -405v-66h-1491zM1663 1147q-45 219 -199 354q-152 133 -362 133q-108 0 -201 -37q-96 -38 -168 -100 q-74 -64 -127 -154t-69 -196h1126z" />
<glyph unicode="&#xe9;" horiz-adv-x="2174" d="M1094 2253l-205 114l487 656l340 -152zM516 872q12 -287 178 -460q166 -174 428 -174q118 0 224 41q102 39 186 114q31 31 43 45l39 47q16 20 43 62l55 84l275 -152q-64 -110 -115 -178q-43 -58 -119 -121q-264 -233 -643 -233q-211 0 -383 71q-173 72 -297 203 q-123 130 -192 311q-70 183 -70 402t68 403q68 185 190 314q123 130 293 204q171 74 375 74q206 0 372 -71q167 -72 289 -201q120 -128 187 -314q65 -182 65 -405v-66h-1491zM1663 1147q-45 219 -199 354q-152 133 -362 133q-108 0 -201 -37q-96 -38 -168 -100 q-74 -64 -127 -154t-69 -196h1126z" />
<glyph unicode="&#xea;" horiz-adv-x="2174" d="M1491 2253l-406 344l-405 -344l-229 180l634 537l639 -537zM516 872q12 -287 178 -460q166 -174 428 -174q118 0 224 41q102 39 186 114q31 31 43 45l39 47q16 20 43 62l55 84l275 -152q-64 -110 -115 -178q-43 -58 -119 -121q-264 -233 -643 -233q-211 0 -383 71 q-173 72 -297 203q-123 130 -192 311q-70 183 -70 402t68 403q68 185 190 314q123 130 293 204q171 74 375 74q206 0 372 -71q167 -72 289 -201q120 -128 187 -314q65 -182 65 -405v-66h-1491zM1663 1147q-45 219 -199 354q-152 133 -362 133q-108 0 -201 -37 q-96 -38 -168 -100q-74 -64 -127 -154t-69 -196h1126z" />
<glyph unicode="&#xeb;" horiz-adv-x="2174" d="M1720 2499q0 -95 -67 -162q-68 -68 -166 -68q-95 0 -162 66q-68 66 -68 159q0 94 68 162t166 68q95 0 162 -66t67 -159zM918 2499q0 -94 -68 -162t-162 -68q-95 0 -164 66t-69 159q0 95 67 162q68 68 166 68q94 0 162 -66t68 -159zM516 872q12 -287 178 -460 q166 -174 428 -174q118 0 224 41q102 39 186 114q31 31 43 45l39 47q16 20 43 62l55 84l275 -152q-64 -110 -115 -178q-43 -58 -119 -121q-264 -233 -643 -233q-211 0 -383 71q-173 72 -297 203q-123 130 -192 311q-70 183 -70 402t68 403q68 185 190 314q123 130 293 204 q171 74 375 74q206 0 372 -71q167 -72 289 -201q120 -128 187 -314q65 -182 65 -405v-66h-1491zM1663 1147q-45 219 -199 354q-152 133 -362 133q-108 0 -201 -37q-96 -38 -168 -100q-74 -64 -127 -154t-69 -196h1126z" />
<glyph unicode="&#xec;" horiz-adv-x="1167" d="M532 2253l-622 618l340 152l487 -656zM377 0v1884h328v-1884h-328z" />
<glyph unicode="&#xed;" horiz-adv-x="1167" d="M455 2253l-205 114l487 656l340 -152zM287 0v1884h327v-1884h-327z" />
<glyph unicode="&#xee;" horiz-adv-x="1306" d="M905 2253l-405 344l-402 -344l-233 180l635 537l643 -537zM340 0v1884h328v-1884h-328z" />
<glyph unicode="&#xef;" horiz-adv-x="987" d="M856 2499q0 -94 -68 -162t-165 -68q-95 0 -162 66q-68 66 -68 159q0 94 68 162t166 68q93 0 161 -66t68 -159zM209 2499q0 -94 -68 -162t-166 -68q-93 0 -161 66t-68 159q0 94 68 162t161 68q99 0 166 -66q68 -66 68 -159zM135 0v1884h332v-1884h-332z" />
<glyph unicode="&#xf0;" horiz-adv-x="2306" d="M1176 1741h-37q-303 0 -496 -271q-156 -213 -156 -499q0 -289 177 -508q196 -246 491 -246q307 0 504 270q156 217 156 517q0 347 -209 561q-176 176 -430 176zM373 1921l-180 180l589 590q-154 53 -393 86l45 311q355 -50 602 -143l520 520l181 -180l-459 -459 q149 -86 270 -196q272 -248 430 -602q189 -414 189 -881q0 -598 -332 -930q-271 -266 -672 -266q-419 0 -717 295q-307 307 -307 745t295 733q274 279 664 279q310 0 512 -160q53 -40 164 -176q0 4 -5 12q0 5 -8 13q-2 4 -20 53q-67 167 -99 233q-185 357 -614 598z" />
<glyph unicode="&#xf1;" horiz-adv-x="2424" d="M1729 2580q-144 -319 -431 -319q-36 0 -61 4q-27 4 -61 12q-25 6 -80 27q-49 19 -113 51q-105 44 -170 66q-60 20 -108 20q-61 0 -107 -41q-44 -40 -94 -147l-197 160q48 83 78 120l57 68q53 58 129 92q78 35 158 35q69 0 141 -21q82 -24 179 -69l108 -47q56 -23 70 -27 q30 -8 47 -12q19 -4 41 -4q65 0 115 41q49 40 106 147zM1454 0v1114q0 151 -12 229q-12 80 -49 140q-98 155 -336 155q-254 0 -365 -163q-110 -162 -110 -533v-942h-332v1884h332v-229q122 155 245 215q121 59 303 59q173 0 320 -69q146 -68 225 -189q57 -85 84 -203 q27 -117 27 -301v-1167h-332z" />
<glyph unicode="&#xf2;" horiz-adv-x="2359" d="M1171 2253l-618 618l340 152l483 -656zM2191 938q0 -211 -77 -389q-78 -179 -216 -316q-134 -132 -321 -210q-183 -76 -397 -76q-211 0 -394 76q-188 78 -321 208q-137 134 -217 310q-80 177 -80 381q0 212 78 397q78 184 213 319q136 136 317 213q183 78 395 78 q219 0 404 -76q188 -77 323 -211q139 -138 216 -315q77 -178 77 -389zM1855 938q0 152 -51 281q-51 130 -141 221q-90 92 -215 143q-124 51 -272 51q-143 0 -267 -53q-121 -52 -213 -145q-89 -91 -141 -217q-51 -125 -51 -273q0 -156 49 -284q50 -131 139 -224 q90 -95 211 -147q123 -53 268 -53q153 0 277 51q126 52 215 145q91 95 141 221q51 127 51 283z" />
<glyph unicode="&#xf3;" horiz-adv-x="2359" d="M1188 2253l-205 114l483 656l340 -152zM2191 938q0 -211 -77 -389q-78 -179 -216 -316q-134 -132 -321 -210q-183 -76 -397 -76q-211 0 -394 76q-188 78 -321 208q-137 134 -217 310q-80 177 -80 381q0 212 78 397q78 184 213 319q136 136 317 213q183 78 395 78 q219 0 404 -76q188 -77 323 -211q139 -138 216 -315q77 -178 77 -389zM1855 938q0 152 -51 281q-51 130 -141 221q-90 92 -215 143q-124 51 -272 51q-143 0 -267 -53q-121 -52 -213 -145q-89 -91 -141 -217q-51 -125 -51 -273q0 -156 49 -284q50 -131 139 -224 q90 -95 211 -147q123 -53 268 -53q153 0 277 51q126 52 215 145q91 95 141 221q51 127 51 283z" />
<glyph unicode="&#xf4;" horiz-adv-x="2359" d="M1581 2253l-405 344l-402 -344l-233 180l635 537l643 -537zM2191 938q0 -211 -77 -389q-78 -179 -216 -316q-134 -132 -321 -210q-183 -76 -397 -76q-211 0 -394 76q-188 78 -321 208q-137 134 -217 310q-80 177 -80 381q0 212 78 397q78 184 213 319q136 136 317 213 q183 78 395 78q219 0 404 -76q188 -77 323 -211q139 -138 216 -315q77 -178 77 -389zM1855 938q0 152 -51 281q-51 130 -141 221q-90 92 -215 143q-124 51 -272 51q-143 0 -267 -53q-121 -52 -213 -145q-89 -91 -141 -217q-51 -125 -51 -273q0 -156 49 -284 q50 -131 139 -224q90 -95 211 -147q123 -53 268 -53q153 0 277 51q126 52 215 145q91 95 141 221q51 127 51 283z" />
<glyph unicode="&#xf5;" horiz-adv-x="2359" d="M1892 2580q-147 -319 -434 -319q-35 0 -59 4q-29 5 -62 12q-27 6 -80 27q-40 16 -110 51q-105 44 -170 66q-60 20 -109 20q-64 0 -110 -41q-44 -40 -94 -147l-197 160l80 118q23 33 55 70q58 58 133 92q78 35 158 35q65 0 139 -21q82 -23 180 -69l107 -47q50 -22 67 -27 q27 -8 48 -12q19 -4 41 -4q68 0 118 41t107 147zM2191 938q0 -211 -77 -389q-78 -179 -216 -316q-134 -132 -321 -210q-183 -76 -397 -76q-211 0 -394 76q-188 78 -321 208q-137 134 -217 310q-80 177 -80 381q0 212 78 397q78 184 213 319q136 136 317 213q183 78 395 78 q219 0 404 -76q188 -77 323 -211q139 -138 216 -315q77 -178 77 -389zM1855 938q0 152 -51 281q-51 130 -141 221q-90 92 -215 143q-124 51 -272 51q-143 0 -267 -53q-121 -52 -213 -145q-89 -91 -141 -217q-51 -125 -51 -273q0 -156 49 -284q50 -131 139 -224 q90 -95 211 -147q123 -53 268 -53q153 0 277 51q126 52 215 145q91 95 141 221q51 127 51 283z" />
<glyph unicode="&#xf6;" horiz-adv-x="2359" d="M1815 2499q0 -94 -70 -162t-164 -68q-95 0 -164 66t-69 159q0 95 67 162q68 68 166 68q95 0 164 -66q70 -67 70 -159zM1012 2499q0 -94 -70 -162t-164 -68t-162 66q-67 66 -67 159q0 95 67 162q68 68 162 68q95 0 164 -66q70 -67 70 -159zM2191 938q0 -211 -77 -389 q-78 -179 -216 -316q-134 -132 -321 -210q-183 -76 -397 -76q-211 0 -394 76q-188 78 -321 208q-137 134 -217 310q-80 177 -80 381q0 212 78 397q78 184 213 319q136 136 317 213q183 78 395 78q219 0 404 -76q188 -77 323 -211q139 -138 216 -315q77 -178 77 -389z M1855 938q0 152 -51 281q-51 130 -141 221q-90 92 -215 143q-124 51 -272 51q-143 0 -267 -53q-121 -52 -213 -145q-89 -91 -141 -217q-51 -125 -51 -273q0 -156 49 -284q50 -131 139 -224q90 -95 211 -147q123 -53 268 -53q153 0 277 51q126 52 215 145q91 95 141 221 q51 127 51 283z" />
<glyph unicode="&#xf7;" horiz-adv-x="3731" d="M2101 2318q0 -95 -65 -161q-66 -68 -160 -68t-160 68q-65 66 -65 161t65 160q66 66 160 66t160 -66q65 -65 65 -160zM410 1434v327h2887v-327h-2887zM2097 881q0 -96 -65 -162q-66 -68 -160 -68t-160 66q-65 65 -65 160t65 161q66 68 160 68t160 -66q65 -65 65 -159z" />
<glyph unicode="&#xf8;" horiz-adv-x="6082" d="M5759 180q0 -94 -66 -160q-65 -65 -159 -65q-95 0 -160 65q-66 66 -66 160q0 97 64 164q63 66 158 66q97 0 163 -66t66 -164zM5276 946q0 -208 -78 -393t-215 -320q-136 -134 -322 -213q-182 -77 -397 -77t-397 77q-185 78 -320 213t-213 320t-78 397q0 208 78 391 t213 318t318 213t391 78q218 0 403 -76q189 -78 324 -211q137 -135 215 -320t78 -397zM664 2367v-2367h-340v3199l2383 -2507v2380h349v-3211zM4936 950q0 150 -52 283t-139 223q-92 95 -211 146q-124 53 -270 53t-272 -53q-123 -52 -213 -148q-89 -95 -140 -225 q-51 -131 -51 -283q0 -151 51 -280q52 -131 140 -222q90 -94 211 -145q124 -53 270 -53t272 53q123 52 213 145q87 90 139 222t52 284z" />
<glyph unicode="&#xf9;" horiz-adv-x="2023" d="M1004 2253l-623 618l344 152l483 -656zM1769 750q0 -218 -36 -338q-38 -127 -136 -232q-107 -120 -256 -176q-150 -57 -329 -57q-182 0 -330 59q-149 60 -256 174q-97 104 -137 232q-39 124 -39 338v1134h332v-1098q0 -136 12 -215q12 -80 45 -137q50 -91 149 -143 q101 -53 224 -53q121 0 221 53q96 51 147 143q31 54 47 137q15 79 15 215v1098h327v-1134z" />
<glyph unicode="&#xfa;" horiz-adv-x="2023" d="M1016 2253l-205 114l487 656l340 -152zM1769 750q0 -218 -36 -338q-38 -127 -136 -232q-107 -120 -256 -176q-150 -57 -329 -57q-182 0 -330 59q-149 60 -256 174q-97 104 -137 232q-39 124 -39 338v1134h332v-1098q0 -136 12 -215q12 -80 45 -137q50 -91 149 -143 q101 -53 224 -53q121 0 221 53q96 51 147 143q31 54 47 137q15 79 15 215v1098h327v-1134z" />
<glyph unicode="&#xfb;" horiz-adv-x="2023" d="M1413 2253l-405 344l-406 -344l-229 180l635 537l639 -537zM1769 750q0 -218 -36 -338q-38 -127 -136 -232q-107 -120 -256 -176q-150 -57 -329 -57q-182 0 -330 59q-149 60 -256 174q-97 104 -137 232q-39 124 -39 338v1134h332v-1098q0 -136 12 -215q12 -80 45 -137 q50 -91 149 -143q101 -53 224 -53q121 0 221 53q96 51 147 143q31 54 47 137q15 79 15 215v1098h327v-1134z" />
<glyph unicode="&#xfc;" horiz-adv-x="2023" d="M1642 2499q0 -95 -67 -162q-68 -68 -166 -68q-95 0 -162 66t-67 159q0 95 67 162q68 68 166 68q95 0 162 -66t67 -159zM840 2499q0 -94 -68 -162t-162 -68q-95 0 -164 66t-69 159q0 95 67 162q68 68 166 68q94 0 162 -66t68 -159zM1769 750q0 -218 -36 -338 q-38 -127 -136 -232q-107 -120 -256 -176q-150 -57 -329 -57q-182 0 -330 59q-149 60 -256 174q-97 104 -137 232q-39 124 -39 338v1134h332v-1098q0 -136 12 -215q12 -80 45 -137q50 -91 149 -143q101 -53 224 -53q121 0 221 53q96 51 147 143q31 54 47 137q15 79 15 215 v1098h327v-1134z" />
<glyph unicode="&#xfd;" horiz-adv-x="2039" d="M881 180l-881 1704h381l672 -1347l622 1347h369l-1417 -2961h-369zM1442 2793l-639 -483l-176 131l524 537z" />
<glyph unicode="&#xfe;" horiz-adv-x="2289" d="M582 -1077h-332v1077v1884v1188h332v-1188v-262q128 142 254 209q174 98 401 98q380 0 639 -254q287 -287 287 -745q0 -446 -279 -725q-254 -258 -639 -258q-247 0 -430 110q-107 66 -233 205v-262v-1077zM582 729q69 -237 225 -360q169 -131 389 -131q254 0 430 176 q201 196 201 512q0 335 -205 540q-172 172 -422 172q-220 0 -389 -131q-161 -129 -229 -368v-410z" />
<glyph unicode="&#xff;" horiz-adv-x="2453" d="M1655 2535q0 -93 -68 -161t-162 -68t-163 66q-70 67 -70 159q0 98 68 166t165 68q94 0 162 -68t68 -162zM856 2535q0 -93 -70 -161t-163 -68q-95 0 -164 66q-70 67 -70 159q0 98 68 166t166 68q93 0 163 -68t70 -162zM631 -1077h-369l619 1257l-881 1733h381l672 -1368 l622 1368h369z" />
<glyph unicode="&#x131;" horiz-adv-x="999" d="M307 0v2556h344v-2556h-344z" />
<glyph unicode="&#x152;" horiz-adv-x="4714" d="M3011 0v590l-146 -176q-61 -72 -125 -129q-60 -54 -125 -99q-64 -44 -145 -84q-308 -159 -684 -159q-331 0 -623 125q-290 124 -508 342q-217 217 -344 505t-127 617t125 620q125 290 342 504q220 217 506 340q291 125 621 125q184 0 350 -39t313 -108q83 -40 150 -84 q67 -43 131 -101q68 -62 133 -135q90 -101 156 -184v602h1572v-319h-1228v-914h1196v-319h-1196v-1201h1228v-319h-1572zM3011 1528q0 262 -99 493q-100 234 -266 404q-166 171 -393 272q-226 101 -479 101q-257 0 -486 -101t-397 -272q-169 -172 -268 -402 q-99 -229 -99 -487q0 -262 99 -492t266 -401q167 -172 395 -272q229 -101 481 -101q259 0 484 99q228 101 395 270q169 172 268 401q99 230 99 488z" />
<glyph unicode="&#x153;" horiz-adv-x="3874" d="M2200 881q7 -143 57 -260q51 -120 131 -203q84 -87 195 -133q114 -47 243 -47q190 0 328 98q139 99 250 307l278 -164l-63 -100q-27 -44 -55 -76l-58 -63q-33 -34 -69 -64q-132 -115 -293 -172q-162 -57 -338 -57q-132 0 -250 33q-117 33 -223 90q-104 56 -187 141 q-82 84 -135 186q-135 -217 -354 -334q-217 -116 -486 -116q-208 0 -391 78t-319 211q-138 135 -215 313q-78 180 -78 385q0 208 80 389q79 178 217 315q136 135 323 213q186 78 400 78q267 0 485 -121q221 -122 338 -329q107 213 311 331q206 119 463 119q209 0 379 -69 q168 -68 291 -199q119 -126 186 -309q66 -180 66 -402v-69h-1507zM3359 1151q-45 233 -191 358t-375 125q-447 0 -565 -483h1131zM1851 930q0 156 -49 284q-50 131 -139 224t-215 145q-124 51 -272 51q-143 0 -267 -53q-121 -52 -213 -145q-90 -92 -141 -219t-51 -275 q0 -157 49 -285q50 -132 137 -221q91 -94 209 -145q123 -53 268 -53q153 0 277 51q125 51 215 143t141 219t51 279z" />
<glyph unicode="&#x178;" horiz-adv-x="2625" d="M1802 3617q0 -99 -69 -168q-70 -70 -164 -70q-93 0 -166 70q-72 69 -72 164q0 98 70 168q69 69 168 69t166 -69q67 -68 67 -164zM926 3617q0 -98 -68 -168t-166 -70q-94 0 -164 70q-69 69 -69 164q0 100 67 168q68 69 166 69t166 -69q68 -70 68 -164zM1290 1323v-1323 h-344v1323l-1003 1749h397l782 -1372l795 1372h397z" />
<glyph unicode="&#x192;" horiz-adv-x="2613" d="M1524 1855h491l-41 -274h-499l-246 -1327q-83 -433 -164 -598q-94 -189 -283 -295q-206 -123 -479 -123q-77 0 -217 21l66 303h57q33 -1 62 -1q133 0 212 17q167 45 262 197q34 50 78 188q46 148 74 303l242 1315h-332l41 274h340l127 693q73 401 274 557 q151 114 398 114q119 0 270 -45l-57 -307q-118 45 -205 45q-169 0 -242 -98q-70 -96 -119 -356z" />
<glyph unicode="&#x2c6;" horiz-adv-x="2060" d="M1282 2290l-401 348l-406 -348l-229 180l635 545l639 -545z" />
<glyph unicode="&#x2c7;" horiz-adv-x="1888" d="M885 2290l-639 544l233 181l406 -349l405 349l230 -181z" />
<glyph unicode="&#x2d8;" horiz-adv-x="2052" d="M1688 2843q-49 -262 -226 -408q-175 -145 -442 -145q-266 0 -442 147q-176 148 -226 406h279q67 -154 153 -215q90 -64 236 -64q147 0 233 62q88 63 156 217h279z" />
<glyph unicode="&#x2d9;" horiz-adv-x="2084" d="M1217 2548q0 -102 -70 -172t-172 -70q-97 0 -170 70q-72 69 -72 168q0 101 70 174q68 71 172 71q99 0 170 -71q72 -72 72 -170z" />
<glyph unicode="&#x2da;" horiz-adv-x="1773" d="M1311 2687q0 -168 -115 -283q-114 -114 -283 -114q-82 0 -151 30q-67 29 -125 84q-56 53 -86 125q-31 74 -31 154q0 168 115 283q114 114 283 114q164 0 278 -114q115 -115 115 -279zM1110 2687q0 82 -55 137t-137 55q-84 0 -140 -55q-57 -56 -57 -133q0 -82 57 -139 q58 -58 140 -58q81 0 137 56q55 55 55 137z" />
<glyph unicode="&#x2db;" horiz-adv-x="2154" d="M1524 -795q-67 -30 -131 -47q-53 -14 -127 -14q-190 0 -314 108q-125 108 -125 269q0 163 123 307q39 43 82 80q40 34 127 92h262q-170 -121 -247 -221q-76 -98 -76 -193q0 -91 59 -141q60 -51 158 -51q74 0 123 14q61 18 127 47z" />
<glyph unicode="&#x2dc;" horiz-adv-x="2334" d="M1753 2621q-147 -327 -430 -327q-36 0 -61 4q-30 5 -62 12q-25 6 -80 27q-44 17 -112 51q-111 47 -170 68q-62 22 -109 22q-60 0 -106 -41t-95 -147l-196 159q51 87 78 121l57 72q53 58 129 92q78 35 158 35q69 0 141 -21q79 -23 178 -69q68 -34 109 -51q58 -24 69 -27 q30 -8 47 -12q19 -4 41 -4q66 0 115 43q51 45 107 149z" />
<glyph unicode="&#x2dd;" horiz-adv-x="1769" d="M1286 2294l-192 106l487 668l324 -148zM672 2294l-193 106l488 668l323 -148z" />
<glyph unicode="&#x3a9;" horiz-adv-x="3072" d="M127 0v303h827q-231 145 -352 254q-475 438 -475 1106q0 646 422 1077q406 406 987 406q580 0 983 -406q426 -430 426 -1077q0 -537 -303 -918q-179 -228 -524 -442h823v-303h-1204v274q41 24 49 29q38 20 61 37q256 158 430 373q312 397 312 909q0 487 -283 836 q-307 385 -770 385q-342 0 -618 -222q-207 -164 -320 -421q-115 -265 -115 -578q0 -528 312 -909q187 -228 540 -434v-279h-1208z" />
<glyph unicode="&#x3c0;" horiz-adv-x="2691" d="M475 0v1892h-348v316h2429v-316h-336v-1892h-344v1892h-1057v-1892h-344z" />
<glyph unicode="&#x2000;" horiz-adv-x="2027" />
<glyph unicode="&#x2001;" horiz-adv-x="4055" />
<glyph unicode="&#x2002;" horiz-adv-x="2027" />
<glyph unicode="&#x2003;" horiz-adv-x="4055" />
<glyph unicode="&#x2004;" horiz-adv-x="1351" />
<glyph unicode="&#x2005;" horiz-adv-x="1011" />
<glyph unicode="&#x2006;" horiz-adv-x="675" />
<glyph unicode="&#x2007;" horiz-adv-x="675" />
<glyph unicode="&#x2008;" horiz-adv-x="503" />
<glyph unicode="&#x2009;" horiz-adv-x="811" />
<glyph unicode="&#x200a;" horiz-adv-x="225" />
<glyph unicode="&#x2010;" horiz-adv-x="741" d="M0 741v263h741v-263h-741z" />
<glyph unicode="&#x2011;" horiz-adv-x="741" d="M0 741v263h741v-263h-741z" />
<glyph unicode="&#x2013;" horiz-adv-x="2498" d="M291 836v294h1536v-294h-1536z" />
<glyph unicode="&#x2014;" horiz-adv-x="4825" d="M954 1434v327h2888v-327h-2888z" />
<glyph unicode="&#x2018;" horiz-adv-x="712" d="M459 2011h-217l-33 1061h295z" />
<glyph unicode="&#x2019;" horiz-adv-x="712" d="M459 2007h-217l-33 1061h295z" />
<glyph unicode="&#x201a;" horiz-adv-x="1372" d="M373 -688l-217 86l381 1065l299 -111z" />
<glyph unicode="&#x201c;" horiz-adv-x="1392" d="M1130 2007h-217l-32 1065h303zM459 2007h-217l-33 1065h299z" />
<glyph unicode="&#x201d;" horiz-adv-x="1392" d="M1130 2007h-217l-32 1065h303zM459 2007h-217l-33 1065h299z" />
<glyph unicode="&#x201e;" horiz-adv-x="1880" d="M639 451l307 -111l-467 -1040l-217 86zM1319 451l299 -111l-463 -1040l-221 86z" />
<glyph unicode="&#x2020;" horiz-adv-x="4108" d="M3056 946l-545 651v-1597h-926v1597l-536 -651l-639 627l1663 1626l1626 -1626z" />
<glyph unicode="&#x2021;" horiz-adv-x="2613" d="M1470 262h680v-319h-680v-754h-331v754h-680v319h680v2024h-680v319h680v754h331v-754h680v-319h-680v-2024z" />
<glyph unicode="&#x2022;" horiz-adv-x="3072" d="M2167 1565q0 -132 -49 -248q-48 -114 -136 -205q-84 -87 -200 -139q-114 -51 -246 -51t-246 51q-116 52 -200 139q-89 92 -138 205q-51 117 -51 252q0 132 49 248q48 114 135 204q85 88 201 140q114 51 246 51q136 0 250 -51q112 -50 200 -138q87 -87 136 -204t49 -254z " />
<glyph unicode="&#x2026;" horiz-adv-x="3776" d="M2630 188q0 -93 -66 -159t-160 -66q-85 0 -147 64t-62 157q0 94 62 156q61 61 151 61t156 -63t66 -150zM1614 188q0 -92 -64 -159q-63 -66 -157 -66q-89 0 -150 64q-59 62 -59 157q0 96 59 156q60 61 150 61q94 0 157 -63q64 -64 64 -150zM602 188q0 -94 -65 -159 q-66 -66 -160 -66q-86 0 -148 64q-61 62 -61 157t61 156t152 61q90 0 156 -63q65 -62 65 -150z" />
<glyph unicode="&#x202f;" horiz-adv-x="811" />
<glyph unicode="&#x2030;" horiz-adv-x="4780" d="M758 3203q303 0 516 -213q217 -217 217 -557q0 -336 -221 -557q-208 -213 -516 -213q-312 0 -525 213q-221 221 -221 557q0 333 217 557q209 213 533 213zM2310 3166l303 -176l-1782 -3084l-311 176zM2380 1409q304 0 512 -213q221 -221 221 -561q0 -336 -221 -557 q-213 -213 -516 -213q-316 0 -525 213q-221 221 -221 557t225 561q205 213 525 213zM754 2912q-171 0 -295 -119q-135 -135 -135 -360q0 -221 135 -356q124 -119 295 -119q172 0 286 119q140 140 140 360q0 216 -140 361q-114 114 -286 114zM2376 1114q-176 0 -295 -119 q-135 -135 -135 -356t135 -360q120 -115 295 -115q171 0 286 115q140 140 140 360q0 215 -140 360q-115 115 -286 115zM4043 1409q303 0 512 -209q221 -221 221 -565q0 -336 -221 -557q-213 -213 -520 -213q-312 0 -525 213q-217 220 -217 557q0 335 221 561 q208 213 529 213zM4035 1114q-177 0 -291 -119q-135 -135 -135 -356t135 -356q119 -119 295 -119q171 0 290 119q136 136 136 356t-140 360q-115 115 -290 115z" />
<glyph unicode="&#x2039;" horiz-adv-x="1359" d="M815 135l-688 848l688 864l217 -168l-549 -696l549 -676z" />
<glyph unicode="&#x203a;" horiz-adv-x="1359" d="M397 135l-213 172l549 676l-549 696l213 168l688 -864z" />
<glyph unicode="&#x2044;" horiz-adv-x="0" />
<glyph unicode="&#x205f;" horiz-adv-x="1011" />
<glyph unicode="&#x20ac;" horiz-adv-x="3305" d="M3060 2478q-180 159 -402 248q-219 88 -463 88q-174 0 -348 -53q-170 -52 -319 -152t-264 -233q-118 -136 -187 -295h1934l-41 -336h-1999q-17 -85 -17 -166q0 -94 4 -170h1971l-41 -332h-1852q61 -179 181 -332q119 -153 276 -260q158 -108 340 -168q180 -59 371 -59 q166 0 311 43q144 43 291 113l-45 -381q-141 -47 -275 -70q-140 -24 -282 -24q-270 0 -512 84q-247 86 -441 233q-199 151 -348 358q-148 206 -235 463h-377v332h315q-5 62 -5 116q0 28 1 54q4 83 12 166h-323v336h409q83 238 240 434q158 197 363 336q204 139 444 215 q238 76 489 76q254 0 457 -78q205 -79 412 -213z" />
<glyph unicode="&#x2122;" horiz-adv-x="3350" d="M2929 1323l-160 1184l-582 -1274l-577 1278l-168 -1188h-217l303 1864l659 -1454l676 1454l283 -1864h-217zM643 2863v-1540h-225v1540h-418v209h1061v-209h-418z" />
<glyph unicode="&#x2202;" horiz-adv-x="2306" d="M389 2777l45 311q415 -62 656 -168q447 -184 729 -606q348 -512 348 -1167q0 -598 -332 -930q-271 -266 -672 -266q-419 0 -717 295q-307 307 -307 745t295 733q274 279 664 279q310 0 512 -160q50 -41 164 -176q0 4 -5 12q0 5 -8 13q-2 4 -20 53q-99 242 -152 328 q-127 201 -332 356q-224 167 -475 262q-149 53 -393 86zM1176 1741h-37q-303 0 -496 -271q-156 -213 -156 -499q0 -289 177 -508q196 -246 491 -246q307 0 504 270q156 217 156 517q0 347 -209 561q-176 176 -430 176z" />
<glyph unicode="&#x2206;" horiz-adv-x="3072" d="M123 0l1220 3072h377l1229 -3072h-2826zM623 324h1822l-909 2326z" />
<glyph unicode="&#x220f;" horiz-adv-x="3227" d="M172 3457h2884v-324h-365v-3960h365v-324h-1090v320h381v3964h-1466v-3960h376v-324h-1085v320h365v3964h-365v324z" />
<glyph unicode="&#x2211;" horiz-adv-x="4898" d="M3592 168l-1143 1139l-1138 -1139l-234 229l1143 1139l-1135 1135l234 233l1130 -1135l1135 1135l233 -233l-1134 -1135l1139 -1139z" />
<glyph unicode="&#x221a;" horiz-adv-x="3072" d="M3072 3822v-324h-901l-983 -3498h-426l-373 1372h-389v324h668l168 -586q14 -48 32 -152q4 -22 11.5 -59.5l17.5 -91.5l53 -266l13 -70h24l21 90l65 299l111 492l192 684l500 1786h1196z" />
<glyph unicode="&#x221e;" horiz-adv-x="3072" d="M1544 1335q-164 -221 -307 -327q-210 -148 -455 -148q-306 0 -503 197t-197 516q0 307 197 504q200 200 503 200q258 0 475 -168q127 -106 271 -307q159 224 299 328q205 147 463 147q303 0 499 -196q197 -197 197 -512q0 -319 -201 -520q-193 -193 -491 -193 q-262 0 -475 168q-133 109 -275 311zM1708 1569q128 -198 234 -291q143 -127 307 -127q167 0 278 111q119 119 119 303q0 183 -119 307q-113 110 -278 110q-169 0 -303 -127q-92 -80 -164 -184q-74 -100 -74 -102zM1364 1569v-4q-127 196 -234 295q-143 122 -311 122 q-164 0 -270 -106q-119 -124 -119 -307t115 -303q114 -111 278 -111q233 0 434 258q32 42 107 156z" />
<glyph unicode="&#x222b;" horiz-adv-x="2306" d="M434 -1102l74 311q101 -49 192 -49q234 0 263 213q12 66 12 344l8 2806v201q0 248 29 352q40 170 172 270q152 111 385 111q121 0 303 -53l-74 -303q-115 41 -196 41q-185 0 -242 -127q-33 -69 -33 -349l-4 -233v-2654v-307q0 -619 -631 -619q-147 0 -258 45z" />
<glyph unicode="&#x2248;" horiz-adv-x="2306" d="M250 1606l-205 127q122 256 242 376q165 160 389 160q173 0 516 -160l205 -90q135 -57 237 -57q157 0 258 98q72 69 160 217l205 -118q-97 -196 -139 -250q-95 -124 -222 -197q-146 -82 -294 -82q-151 0 -394 107l-258 114q-193 86 -303 86q-136 0 -246 -110 q-64 -67 -151 -221zM250 823l-205 135q123 254 242 373q164 164 389 164q170 0 516 -160l205 -90q135 -57 237 -57q157 0 258 98q72 69 160 217l205 -127q-3 -5 -8.5 -16l-12.5 -25q-86 -163 -135 -225q-77 -97 -192 -164q-151 -90 -307 -90q-151 0 -394 107l-258 114 q-193 86 -303 86q-135 0 -246 -114q-67 -71 -151 -226z" />
<glyph unicode="&#x2260;" horiz-adv-x="2306" d="M1507 2068l316 521l225 -95l-254 -426h610l-37 -307h-753l-258 -422h958l-37 -307h-1097l-320 -524l-225 98l258 426h-614l36 307h758l254 422h-958l37 307h1101z" />
<glyph unicode="&#x2264;" horiz-adv-x="2306" d="M2150 2822v-332l-1626 -721l1626 -725v-327l-1998 897v299zM2150 582v-324h-1998v324h1998z" />
<glyph unicode="&#x2265;" horiz-adv-x="2306" d="M152 721v323l1626 725l-1626 717v336l1998 -909v-299zM152 258v324h1998v-324h-1998z" />
<glyph unicode="&#x25ca;" horiz-adv-x="2805" d="M1536 -119l-1196 1655l1196 1659l1196 -1659zM1536 2552l-737 -1016l737 -1012l737 1012z" />
<glyph unicode="&#xf8ff;" horiz-adv-x="3305" d="M3060 2478q-180 159 -402 248q-219 88 -463 88q-174 0 -348 -53q-170 -52 -319 -152t-264 -233q-118 -136 -187 -295h1934l-41 -336h-1999q-17 -85 -17 -166q0 -94 4 -170h1971l-41 -332h-1852q61 -179 181 -332q119 -153 276 -260q158 -108 340 -168q180 -59 371 -59 q166 0 311 43q144 43 291 113l-45 -381q-141 -47 -275 -70q-140 -24 -282 -24q-270 0 -512 84q-247 86 -441 233q-199 151 -348 358q-148 206 -235 463h-377v332h315q-5 62 -5 116q0 28 1 54q4 83 12 166h-323v336h409q83 238 240 434q158 197 363 336q204 139 444 215 q238 76 489 76q254 0 457 -78q205 -79 412 -213z" />
<glyph unicode="&#xfb01;" horiz-adv-x="2060" d="M639 1610v-1610h-324v1610h-180v303h176v815q0 221 54 369q57 146 192 229q139 90 328 90q75 0 233 -41v-336q-134 49 -213 49q-136 0 -192 -65q-74 -83 -74 -373v-737h479v-303h-479zM1741 1913v-1913h-328v1913h328zM1581 2871q95 0 164 -69q70 -70 70 -164 q0 -98 -70 -168q-67 -70 -164 -70q-98 0 -168 70t-70 160q0 101 70 176q68 65 168 65z" />
<glyph unicode="&#xfb02;" horiz-adv-x="2060" d="M639 1610v-1610h-324v1610h-180v303h176v815q0 221 54 369q57 146 192 229q139 90 328 90q75 0 233 -41v-336q-134 49 -213 49q-136 0 -192 -65q-74 -83 -74 -373v-737h479v-303h-479zM1741 3359v-3359h-328v3359h328z" />
</font>
</defs>
</svg>
